<?xml version="1.0" encoding="UTF-8" standalone="no"?>
<!-- Created with Inkscape (http://www.inkscape.org/) -->

<svg
   xmlns:osb="http://www.openswatchbook.org/uri/2009/osb"
   xmlns:dc="http://purl.org/dc/elements/1.1/"
   xmlns:cc="http://creativecommons.org/ns#"
   xmlns:rdf="http://www.w3.org/1999/02/22-rdf-syntax-ns#"
   xmlns:svg="http://www.w3.org/2000/svg"
   xmlns="http://www.w3.org/2000/svg"
   xmlns:xlink="http://www.w3.org/1999/xlink"
   xmlns:sodipodi="http://sodipodi.sourceforge.net/DTD/sodipodi-0.dtd"
   xmlns:inkscape="http://www.inkscape.org/namespaces/inkscape"
   width="1280"
   height="640"
   viewBox="0 0 338.66669 169.33334"
   version="1.1"
   id="svg8"
   inkscape:version="0.92.4 5da689c313, 2019-01-14"
   sodipodi:docname="appicon_big.svg"
   inkscape:export-filename="/home/joe/GIT/urh/data/icons/appicon_big.png"
   inkscape:export-xdpi="96"
   inkscape:export-ydpi="96">
  <defs
     id="defs2">
    <linearGradient
       inkscape:collect="always"
       id="linearGradient4756">
      <stop
         style="stop-color:#0000ff;stop-opacity:1;"
         offset="0"
         id="stop4752" />
      <stop
         style="stop-color:#0000ff;stop-opacity:0;"
         offset="1"
         id="stop4754" />
    </linearGradient>
    <linearGradient
       inkscape:collect="always"
       id="linearGradient4732">
      <stop
         style="stop-color:#0000ff;stop-opacity:1;"
         offset="0"
         id="stop4728" />
      <stop
         style="stop-color:#0000ff;stop-opacity:0;"
         offset="1"
         id="stop4730" />
    </linearGradient>
    <linearGradient
       id="linearGradient1425"
       osb:paint="gradient">
      <stop
         style="stop-color:#ff6600;stop-opacity:1;"
         offset="0"
         id="stop1421" />
      <stop
         style="stop-color:#ff6600;stop-opacity:0;"
         offset="1"
         id="stop1423" />
    </linearGradient>
    <linearGradient
       inkscape:collect="always"
       id="linearGradient1226">
      <stop
         style="stop-color:#ffffff;stop-opacity:1;"
         offset="0"
         id="stop1222" />
      <stop
         style="stop-color:#ffffff;stop-opacity:0;"
         offset="1"
         id="stop1224" />
    </linearGradient>
    <linearGradient
       inkscape:collect="always"
       id="linearGradient3266">
      <stop
         style="stop-color:#ffffff;stop-opacity:1;"
         offset="0"
         id="stop3262" />
      <stop
         style="stop-color:#ffffff;stop-opacity:0;"
         offset="1"
         id="stop3264" />
    </linearGradient>
    <linearGradient
       inkscape:collect="always"
       id="linearGradient945">
      <stop
         style="stop-color:#ff0000;stop-opacity:1;"
         offset="0"
         id="stop941" />
      <stop
         style="stop-color:#ff0000;stop-opacity:0;"
         offset="1"
         id="stop943" />
    </linearGradient>
    <radialGradient
       inkscape:collect="always"
       xlink:href="#linearGradient945"
       id="radialGradient947"
       cx="333.11038"
       cy="207.30624"
       fx="333.11038"
       fy="207.30624"
       r="57.606251"
       gradientUnits="userSpaceOnUse"
       gradientTransform="matrix(0.66371312,0,0,0.66371312,65.885248,95.919863)" />
    <filter
       y="-0.25"
       height="1.5"
       inkscape:menu-tooltip="Light areas turn to black"
       inkscape:menu="Color"
       inkscape:label="Black Light"
       style="color-interpolation-filters:sRGB"
       id="filter3101">
      <feGaussianBlur
         stdDeviation="5"
         result="result6"
         id="feGaussianBlur3091" />
      <feComposite
         result="result8"
         in="SourceGraphic"
         operator="atop"
         in2="result6"
         id="feComposite3093" />
      <feComposite
         result="result9"
         operator="over"
         in2="SourceAlpha"
         in="result8"
         id="feComposite3095" />
      <feColorMatrix
         values="1 0 0 0 0 0 1 0 0 0 0 0 1 0 0 0 0 0 1 0 "
         result="result10"
         id="feColorMatrix3097" />
      <feBlend
         in="result10"
         mode="normal"
         in2="result6"
         id="feBlend3099"
         result="fbSourceGraphic" />
      <feColorMatrix
         result="fbSourceGraphicAlpha"
         in="fbSourceGraphic"
         values="0 0 0 -1 0 0 0 0 -1 0 0 0 0 -1 0 0 0 0 1 0"
         id="feColorMatrix1358" />
      <feColorMatrix
         id="feColorMatrix1360"
         type="luminanceToAlpha"
         result="result2"
         in="fbSourceGraphic" />
      <feComposite
         in2="fbSourceGraphic"
         id="feComposite1362"
         operator="arithmetic"
         in="result2"
         k3="2"
         result="result4"
         k1="0"
         k2="0"
         k4="0" />
      <feBlend
         in2="result2"
         id="feBlend1364"
         in="result4"
         mode="multiply"
         result="result3" />
      <feComposite
         in2="fbSourceGraphic"
         id="feComposite1366"
         operator="in"
         in="result3" />
    </filter>
    <linearGradient
       inkscape:collect="always"
       xlink:href="#linearGradient3266"
       id="linearGradient3268"
       x1="106.5204"
       y1="209.60114"
       x2="327.20642"
       y2="209.60114"
       gradientUnits="userSpaceOnUse"
       gradientTransform="matrix(0.90951245,0,0,0.9095125,-39.483988,59.716976)" />
    <linearGradient
       inkscape:collect="always"
       xlink:href="#linearGradient1226"
       id="linearGradient1228"
       x1="46.15263"
       y1="184.18552"
       x2="215.02315"
       y2="184.18552"
       gradientUnits="userSpaceOnUse"
       gradientTransform="matrix(0.94421138,0,0,0.96499074,-27.463889,30.890478)" />
    <filter
       inkscape:collect="always"
       style="color-interpolation-filters:sRGB"
       id="filter4610"
       x="-0.14336009"
       width="1.2867202"
       y="-0.89671343"
       height="2.7934269">
      <feGaussianBlur
         inkscape:collect="always"
         stdDeviation="20.24174"
         id="feGaussianBlur4612" />
    </filter>
    <linearGradient
       inkscape:collect="always"
       xlink:href="#linearGradient4732"
       id="linearGradient4734"
       x1="-8.2065471"
       y1="154.03783"
       x2="259.6054"
       y2="154.03783"
       gradientUnits="userSpaceOnUse" />
    <radialGradient
       inkscape:collect="always"
       xlink:href="#linearGradient4756"
       id="radialGradient4760"
       cx="169.23343"
       cy="154.94101"
       fx="169.23343"
       fy="154.94101"
       r="218.01427"
       gradientTransform="matrix(1,0,0,0.34211085,0,101.93401)"
       gradientUnits="userSpaceOnUse" />
  </defs>
  <sodipodi:namedview
     id="base"
     pagecolor="#000000"
     bordercolor="#666666"
     borderopacity="1.0"
     inkscape:pageopacity="1"
     inkscape:pageshadow="2"
     inkscape:zoom="0.70710678"
     inkscape:cx="582.06268"
     inkscape:cy="344.60464"
     inkscape:document-units="px"
     inkscape:current-layer="layer1"
     showgrid="true"
     units="px"
     inkscape:window-width="1440"
     inkscape:window-height="842"
     inkscape:window-x="0"
     inkscape:window-y="0"
     inkscape:window-maximized="1"
     showguides="false"
     inkscape:lockguides="false">
    <inkscape:grid
       type="xygrid"
       id="grid4600" />
  </sodipodi:namedview>
  <metadata
     id="metadata5">
    <rdf:RDF>
      <cc:Work
         rdf:about="">
        <dc:format>image/svg+xml</dc:format>
        <dc:type
           rdf:resource="http://purl.org/dc/dcmitype/StillImage" />
        <dc:title />
      </cc:Work>
    </rdf:RDF>
  </metadata>
  <g
     inkscape:label="Ebene 1"
     inkscape:groupmode="layer"
     id="layer1"
     transform="translate(0,-127.66666)">
    <path
       sodipodi:type="star"
       style="opacity:0.75400002;fill:url(#linearGradient4734);fill-opacity:1;stroke:none;stroke-width:2.5;stroke-linecap:butt;stroke-linejoin:miter;stroke-miterlimit:4;stroke-dasharray:none;stroke-opacity:1;paint-order:normal;filter:url(#filter3101)"
       id="path30"
       sodipodi:sides="3"
       sodipodi:cx="88.503319"
       sodipodi:cy="154.03783"
       sodipodi:r1="148.78441"
       sodipodi:r2="74.392204"
       sodipodi:arg1="2.0943951"
       sodipodi:arg2="3.1415927"
       inkscape:flatsided="true"
       inkscape:rounded="0"
       inkscape:randomized="0"
       d="M 14.111115,282.8889 14.111114,25.186749 237.28773,154.03783 Z"
       inkscape:transform-center-x="-39.687498"
       transform="matrix(1.0669801,0,0,0.3285447,-4.4729451,182.89169)"
       inkscape:transform-center-y="6.6326306e-06" />
    <text
       xml:space="preserve"
       style="font-style:normal;font-variant:normal;font-weight:600;font-stretch:normal;font-size:22.57777786px;line-height:1.25;font-family:'Source Code Pro';-inkscape-font-specification:'Source Code Pro Semi-Bold';letter-spacing:0px;word-spacing:0px;fill:#ffffff;fill-opacity:1;stroke:none;stroke-width:0.26458332"
       x="204.86308"
       y="235.0119"
       id="text6945"><tspan
         sodipodi:role="line"
         id="tspan6943"
         x="204.86308"
         y="254.76746"
         style="font-style:normal;font-variant:normal;font-weight:600;font-stretch:normal;font-family:'Source Code Pro';-inkscape-font-specification:'Source Code Pro Semi-Bold';fill:#ffffff;stroke-width:0.26458332" /></text>
    <text
       xml:space="preserve"
       style="font-style:normal;font-variant:normal;font-weight:600;font-stretch:normal;font-size:17.99347115px;line-height:1.25;font-family:'Source Sans Pro';-inkscape-font-specification:'Source Sans Pro Semi-Bold';letter-spacing:0px;word-spacing:0px;fill:url(#linearGradient3268);fill-opacity:1;stroke:none;stroke-width:0.21086095"
       x="56.299938"
       y="244.54053"
       id="text6949"
       transform="scale(0.98167661,1.0186654)"><tspan
         sodipodi:role="line"
         id="tspan6947"
         x="56.299938"
         y="244.54053"
         style="font-style:normal;font-variant:normal;font-weight:bold;font-stretch:normal;font-family:'Source Code Pro';-inkscape-font-specification:'Source Code Pro Bold';fill:url(#linearGradient3268);fill-opacity:1;stroke:none;stroke-width:0.21086095"><tspan
   style="opacity:0.14190321;fill:url(#linearGradient3268);fill-opacity:1;stroke:none;stroke-width:0.21086095;stroke-opacity:1"
   id="tspan6961">10101010</tspan>10010100</tspan><tspan
         sodipodi:role="line"
         x="56.299938"
         y="267.58835"
         style="font-style:normal;font-variant:normal;font-weight:bold;font-stretch:normal;font-family:'Source Code Pro';-inkscape-font-specification:'Source Code Pro Bold';fill:url(#linearGradient3268);fill-opacity:1;stroke:none;stroke-width:0.21086095"
         id="tspan7229">aa9472deadcafede</tspan></text>
    <flowRoot
       xml:space="preserve"
       id="flowRoot7231"
       style="font-style:normal;font-variant:normal;font-weight:600;font-stretch:normal;font-size:85.33333588px;line-height:1.25;font-family:'Source Sans Pro';-inkscape-font-specification:'Source Sans Pro Semi-Bold';letter-spacing:0px;word-spacing:0px;fill:#000000;fill-opacity:1;stroke:none"><flowRegion
         id="flowRegion7233"><rect
           id="rect7235"
           width="40"
           height="118"
           x="1112"
           y="453.33334" /></flowRegion><flowPara
         id="flowPara7237" /></flowRoot>    <circle
       style="opacity:1;fill:url(#radialGradient947);fill-opacity:1;stroke:#ffffff;stroke-width:1.99113941;stroke-linecap:butt;stroke-linejoin:miter;stroke-miterlimit:4;stroke-dasharray:none;stroke-opacity:0.78270042;paint-order:normal"
       id="path925"
       cx="286.9747"
       cy="233.51122"
       inkscape:export-xdpi="96"
       inkscape:export-ydpi="96"
       r="37.194256" />
    <path
       style="fill:none;stroke:#ffffff;stroke-width:1.3274262;stroke-linecap:butt;stroke-linejoin:miter;stroke-miterlimit:4;stroke-dasharray:none;stroke-opacity:0.78270042"
       d="m 250.27293,233.51374 h 74.10633"
       id="path951"
       inkscape:connector-curvature="0"
       inkscape:export-xdpi="96"
       inkscape:export-ydpi="96" />
    <path
       style="opacity:1;fill:none;fill-opacity:1;stroke:#ffffff;stroke-width:1.3274262;stroke-linecap:butt;stroke-linejoin:miter;stroke-miterlimit:4;stroke-dasharray:none;stroke-opacity:0.78270042;paint-order:normal"
       d="m 286.83945,196.81001 v 74.45756"
       id="path957"
       inkscape:connector-curvature="0"
       inkscape:export-xdpi="96"
       inkscape:export-ydpi="96" />
    <circle
       style="opacity:1;fill:none;fill-opacity:1;stroke:#ffffff;stroke-width:1.07555819;stroke-linecap:butt;stroke-linejoin:miter;stroke-miterlimit:4;stroke-dasharray:none;stroke-opacity:0.78270042;paint-order:normal"
       id="path925-5"
       cx="286.88156"
       cy="233.36694"
       inkscape:export-xdpi="96"
       inkscape:export-ydpi="96"
       r="20.091305" />
    <path
       id="path1217"
       title="sin(10*x)"
       d="m 17.05222,208.62793 c 0.05258,0.47692 0.105153,0.95382 0.15773,1.42696 0.05258,0.47315 0.105154,0.94252 0.157731,1.40441 0.05258,0.4619 0.105154,0.9163 0.15773,1.35967 0.05258,0.44336 0.105153,0.87562 0.157732,1.29344 0.05258,0.41782 0.105152,0.8211 0.15773,1.20676 0.05258,0.38568 0.105153,0.75362 0.15773,1.10102 0.05257,0.34745 0.105154,0.67423 0.157731,0.97791 0.05258,0.3037 0.105154,0.58416 0.15773,0.8393 0.05258,0.25518 0.105155,0.48489 0.15773,0.68748 0.05257,0.20259 0.105155,0.37791 0.157731,0.52475 0.05258,0.14683 0.105154,0.265 0.157732,0.35375 0.05258,0.0888 0.105153,0.14788 0.15773,0.17713 0.05258,0.0292 0.105154,0.0284 0.157731,-0.002 0.05258,-0.0307 0.105154,-0.0914 0.157731,-0.18162 0.05258,-0.0902 0.105154,-0.2099 0.15773,-0.35808 0.05257,-0.14821 0.105154,-0.32505 0.15773,-0.52893 0.05258,-0.20391 0.105154,-0.43503 0.157731,-0.69142 0.05258,-0.25635 0.105154,-0.53815 0.157731,-0.84295 0.05258,-0.30478 0.105153,-0.63276 0.157731,-0.98116 0.05258,-0.34841 0.105153,-0.71739 0.157731,-1.10389 0.05258,-0.38653 0.105153,-0.79067 0.15773,-1.20918 0.05258,-0.41851 0.105154,-0.85145 0.15773,-1.29534 0.05258,-0.4439 0.105155,-0.89881 0.157731,-1.36107 0.05258,-0.46224 0.105154,-0.93191 0.157731,-1.40524 0.05257,-0.47331 0.105154,-0.95032 0.15773,-1.42723 0.05258,-0.47689 0.105154,-0.9537 0.157731,-1.42666 0.05258,-0.47294 0.105153,-0.94201 0.157731,-1.40355 0.05257,-0.46154 0.105154,-0.91546 0.157731,-1.35827 0.05258,-0.4428 0.105153,-0.87441 0.15773,-1.2915 0.05258,-0.4171 0.105154,-0.81958 0.157731,-1.20436 0.05258,-0.38479 0.105154,-0.75176 0.15773,-1.09817 0.05258,-0.34638 0.105154,-0.67207 0.15773,-0.97461 0.05258,-0.30253 0.105154,-0.58176 0.157732,-0.83565 0.05258,-0.2539 0.105153,-0.48229 0.15773,-0.68353 0.05258,-0.20124 0.105154,-0.37516 0.157731,-0.52056 0.05258,-0.1454 0.105154,-0.26212 0.157731,-0.34938 0.05258,-0.0873 0.105154,-0.14493 0.15773,-0.17269 0.05258,-0.0278 0.105154,-0.0255 0.15773,0.007 0.05258,0.0323 0.105154,0.0944 0.157731,0.18609 0.05258,0.0916 0.105154,0.21283 0.157731,0.36245 0.05258,0.14963 0.105154,0.32784 0.157731,0.5331 0.05258,0.20527 0.105154,0.4377 0.157731,0.69534 0.05258,0.25764 0.105154,0.54062 0.15773,0.84658 0.05258,0.30593 0.105154,0.63501 0.15773,0.98443 0.05258,0.34944 0.105154,0.71935 0.157731,1.10674 0.05258,0.38738 0.105154,0.79236 0.157731,1.21158 0.05258,0.41921 0.105153,0.8528 0.157731,1.29725 0.05258,0.44443 0.105153,0.89979 0.157731,1.3624 0.05258,0.46263 0.105153,0.93256 0.15773,1.40607 0.05257,0.4735 0.105154,0.95059 0.15773,1.42748 0.05258,0.4769 0.105154,0.95361 0.157731,1.42638 0.05258,0.47275 0.105154,0.94153 0.15773,1.40267 0.05258,0.46115 0.105155,0.91461 0.157731,1.35686 0.05257,0.44227 0.105154,0.87322 0.157731,1.2896 0.05258,0.41635 0.105153,0.81802 0.157731,1.2019 0.05258,0.3839 0.105153,0.74992 0.157731,1.0953 0.05257,0.34535 0.105154,0.66994 0.15773,0.97129 0.05258,0.30138 0.105154,0.57942 0.157731,0.83202 0.05258,0.25262 0.105154,0.47969 0.15773,0.67956 0.05257,0.19989 0.105154,0.37241 0.15773,0.51638 0.05258,0.14398 0.105154,0.25925 0.157732,0.34503 0.05258,0.0858 0.105153,0.14197 0.157731,0.16822 0.05258,0.0263 0.105153,0.0224 0.15773,-0.0113 0.05258,-0.0337 0.105153,-0.0974 0.157731,-0.19052 0.05258,-0.0932 0.105154,-0.21575 0.15773,-0.36679 0.05258,-0.15104 0.105155,-0.33068 0.15773,-0.53727 0.05258,-0.2066 0.105155,-0.44037 0.157731,-0.69926 0.05258,-0.25891 0.105154,-0.54309 0.157732,-0.85021 0.05257,-0.30708 0.105153,-0.63723 0.15773,-0.98767 0.05257,-0.35047 0.105153,-0.72134 0.157731,-1.1096 0.05258,-0.38826 0.105154,-0.79401 0.157731,-1.21396 0.05258,-0.41992 0.105153,-0.85415 0.157729,-1.29914 0.05258,-0.44497 0.105155,-0.90078 0.157731,-1.36376 0.05258,-0.46298 0.105154,-0.9332 0.157731,-1.40686 0.05258,-0.47369 0.105153,-0.95086 0.157731,-1.42774 0.05258,-0.47689 0.105153,-0.95349 0.157731,-1.42605 0.05258,-0.47256 0.105152,-0.94103 0.15773,-1.4018 0.05258,-0.46077 0.105154,-0.91375 0.157731,-1.35545 0.05258,-0.44166 0.105154,-0.87199 0.15773,-1.28762 0.05258,-0.41563 0.105154,-0.81648 0.15773,-1.19948 0.05258,-0.38299 0.105155,-0.74806 0.157731,-1.09238 0.05258,-0.34433 0.105155,-0.66781 0.157731,-0.968 0.05257,-0.30022 0.105153,-0.57701 0.157731,-0.82837 0.05258,-0.25135 0.105153,-0.47709 0.157731,-0.6756 0.05258,-0.19852 0.105154,-0.36963 0.15773,-0.51217 0.05258,-0.14254 0.105154,-0.25635 0.157731,-0.34066 0.05258,-0.0842 0.105154,-0.139 0.157731,-0.16375 0.05258,-0.0248 0.105153,-0.0194 0.157729,0.0156 0.05258,0.0352 0.105155,0.10041 0.157731,0.195 0.05258,0.0945 0.105154,0.21868 0.157732,0.37115 0.05257,0.15246 0.105152,0.33346 0.15773,0.54142 0.05258,0.20796 0.105154,0.44302 0.157731,0.70318 0.05258,0.26016 0.105153,0.54556 0.15773,0.8538 0.05257,0.30826 0.105155,0.63949 0.157731,0.99094 0.05258,0.35148 0.105154,0.72329 0.15773,1.11243 0.05258,0.38913 0.105154,0.79567 0.157731,1.21633 0.05257,0.42064 0.105154,0.85548 0.157731,1.30099 0.05258,0.44552 0.105154,0.90177 0.157731,1.36512 0.05257,0.46334 0.105152,0.9338 0.157731,1.40765 0.05257,0.47385 0.105153,0.95112 0.15773,1.42797 0.05258,0.47689 0.105154,0.95336 0.15773,1.42572 0.05258,0.47235 0.105154,0.94055 0.157731,1.40093 0.05257,0.46035 0.105153,0.91286 0.157731,1.35399 0.05258,0.44112 0.105153,0.87078 0.157731,1.28566 0.05258,0.41489 0.105153,0.81494 0.15773,1.19705 0.05258,0.3821 0.105153,0.74618 0.157731,1.08946 0.05258,0.34329 0.105154,0.66565 0.15773,0.9647 0.05258,0.29904 0.105154,0.57461 0.15773,0.8247 0.05258,0.25006 0.105155,0.47448 0.157731,0.6716 0.05258,0.19717 0.105155,0.36689 0.157731,0.508 0.05258,0.14111 0.105154,0.25344 0.157731,0.33629 0.05257,0.0828 0.105153,0.13602 0.157731,0.1593 0.05258,0.0233 0.105153,0.0164 0.15773,-0.0203 0.05258,-0.0368 0.105154,-0.10343 0.157731,-0.19944 0.05258,-0.096 0.105154,-0.22161 0.157731,-0.37547 0.05258,-0.15389 0.105153,-0.33631 0.15773,-0.5456 0.05258,-0.20931 0.105154,-0.44567 0.15773,-0.70708 0.05258,-0.26143 0.105154,-0.54804 0.157732,-0.85742 0.05258,-0.30938 0.105152,-0.64171 0.15773,-0.99418 0.05258,-0.35248 0.105153,-0.72525 0.157731,-1.11523 0.05258,-0.39 0.105153,-0.79733 0.15773,-1.2187 0.05258,-0.42134 0.105154,-0.85679 0.157731,-1.30285 0.05258,-0.44605 0.105154,-0.90275 0.15773,-1.36645 0.05258,-0.46369 0.105154,-0.93441 0.15773,-1.40843 0.05258,-0.47403 0.105155,-0.95136 0.157732,-1.4282 0.05258,-0.47685 0.105154,-0.95322 0.15773,-1.42538 0.05258,-0.47212 0.105154,-0.94002 0.157731,-1.4 0.05258,-0.45999 0.105154,-0.912 0.157732,-1.35254 0.05257,-0.44054 0.105153,-0.86954 0.157729,-1.28369 0.05258,-0.41415 0.105154,-0.81336 0.157731,-1.19458 0.05258,-0.38119 0.105154,-0.74429 0.157731,-1.08655 0.05258,-0.34222 0.105153,-0.66349 0.15773,-0.96136 0.05258,-0.29789 0.105154,-0.57224 0.157731,-0.82103 0.05257,-0.24879 0.105153,-0.47188 0.157731,-0.66766 0.05258,-0.19577 0.105154,-0.36407 0.15773,-0.50375 0.05258,-0.13969 0.105154,-0.25056 0.15773,-0.33193 0.05257,-0.0813 0.105155,-0.13306 0.157731,-0.15483 0.05258,-0.0217 0.105155,-0.0134 0.157731,0.0248 0.05258,0.0382 0.105154,0.10633 0.15773,0.20389 0.05258,0.0975 0.105154,0.2245 0.157732,0.37982 0.05258,0.15531 0.105153,0.33908 0.157731,0.54975 0.05257,0.21064 0.105154,0.44831 0.15773,0.711 0.05257,0.26265 0.105154,0.55047 0.157731,0.86097 0.05258,0.31055 0.105153,0.64393 0.15773,0.99742 0.05258,0.3535 0.105154,0.72719 0.15773,1.11805 0.05258,0.39086 0.105154,0.79897 0.157731,1.22102 0.05257,0.42206 0.105153,0.85812 0.157732,1.30469 0.05258,0.44658 0.105152,0.90373 0.15773,1.36777 0.05258,0.46406 0.105154,0.93503 0.15773,1.40922 0.05258,0.47419 0.105154,0.95158 0.157731,1.42839 0.05258,0.47683 0.105154,0.95308 0.157731,1.425 0.05258,0.47194 0.105154,0.93952 0.157729,1.39911 0.05258,0.45957 0.105155,0.91111 0.157731,1.35109 0.05258,0.43997 0.105155,0.86829 0.157732,1.28169 0.05258,0.41342 0.105153,0.81179 0.15773,1.19209 0.05258,0.38031 0.105153,0.74242 0.157731,1.08364 0.05258,0.34119 0.105154,0.66132 0.157731,0.95802 0.05258,0.29671 0.105154,0.56984 0.15773,0.81734 0.05258,0.24751 0.105154,0.46929 0.157731,0.66369 0.05257,0.19441 0.105153,0.3613 0.15773,0.49956 0.05258,0.13824 0.105154,0.24766 0.157731,0.32754 0.05258,0.0799 0.105154,0.13007 0.157731,0.15033 0.05258,0.0203 0.105153,0.0101 0.157731,-0.0292 0.05258,-0.0396 0.105153,-0.10934 0.15773,-0.20833 0.05258,-0.099 0.105154,-0.22743 0.15773,-0.38416 0.05258,-0.15672 0.105155,-0.34189 0.157731,-0.55388 0.05258,-0.212 0.105154,-0.45098 0.157731,-0.71491 0.05258,-0.26391 0.105154,-0.55293 0.157731,-0.86459 0.05258,-0.31167 0.105153,-0.64612 0.15773,-1.00062 0.05258,-0.35447 0.105154,-0.72911 0.157731,-1.12084 0.05257,-0.3917 0.105154,-0.80059 0.157731,-1.22336 0.05258,-0.42273 0.105153,-0.85943 0.15773,-1.30654 0.05257,-0.44709 0.105154,-0.90466 0.157731,-1.36906 0.05258,-0.46438 0.105154,-0.93563 0.15773,-1.40997 0.05258,-0.47433 0.105153,-0.95179 0.157732,-1.42857 0.05258,-0.4768 0.105152,-0.95293 0.15773,-1.42464 0.05258,-0.47172 0.105153,-0.93898 0.15773,-1.39816 0.05258,-0.45919 0.105154,-0.9102 0.157731,-1.34961 0.05258,-0.43938 0.105154,-0.86705 0.157731,-1.27971 0.05258,-0.41263 0.105154,-0.81019 0.157729,-1.18958 0.05258,-0.3794 0.105155,-0.74053 0.157731,-1.0807 0.05258,-0.34015 0.105155,-0.65918 0.157732,-0.95469 0.05258,-0.29551 0.105153,-0.56742 0.15773,-0.81365 0.05258,-0.24623 0.105154,-0.46665 0.157731,-0.6597 0.05258,-0.19302 0.105154,-0.35853 0.157731,-0.49534 0.05258,-0.1368 0.105154,-0.24475 0.15773,-0.32315 0.05258,-0.0784 0.105154,-0.12711 0.157731,-0.14588 0.05258,-0.0188 0.105153,-0.008 0.15773,0.0337 0.05258,0.0411 0.105154,0.11234 0.157731,0.21279 0.05258,0.10041 0.105154,0.23034 0.157731,0.38847 0.05257,0.15815 0.105153,0.34469 0.157731,0.55804 0.05258,0.21333 0.105153,0.45361 0.15773,0.71878 0.05258,0.26517 0.105154,0.55537 0.15773,0.86815 0.05258,0.31281 0.105154,0.64834 0.157731,1.00384 0.05257,0.3555 0.105155,0.73105 0.157731,1.12362 0.05258,0.39259 0.105154,0.80225 0.15773,1.22569 0.05257,0.42344 0.105154,0.86074 0.157731,1.30835 0.05258,0.44762 0.105154,0.90561 0.157731,1.37035 0.05258,0.46475 0.105155,0.93622 0.157731,1.41073 0.05257,0.47447 0.105153,0.95198 0.15773,1.42874 0.05258,0.47677 0.105154,0.95276 0.157731,1.42424 0.05258,0.47149 0.105154,0.93844 0.15773,1.39721 0.05258,0.45877 0.105154,0.90931 0.157731,1.34812 0.05257,0.43882 0.105153,0.86581 0.157732,1.27771 0.05258,0.4119 0.105152,0.80861 0.157729,1.18709 0.05258,0.37849 0.105154,0.73864 0.157731,1.07773 0.05258,0.33911 0.105154,0.65701 0.157731,0.95136 0.05258,0.29434 0.105154,0.56499 0.15773,0.80995 0.05258,0.24494 0.105155,0.46402 0.15773,0.65568 0.05258,0.19168 0.105155,0.35577 0.157731,0.49113 0.05258,0.13537 0.105154,0.24186 0.157731,0.31879 0.05258,0.0768 0.105154,0.12412 0.157731,0.1414 0.05257,0.0173 0.105153,0.004 0.157731,-0.0383 0.05258,-0.0426 0.105154,-0.11532 0.157731,-0.21722 0.05258,-0.10197 0.105154,-0.23327 0.15773,-0.39282 0.05258,-0.15956 0.105153,-0.3475 0.15773,-0.56216 0.05258,-0.21468 0.105154,-0.45626 0.157731,-0.72268 0.05258,-0.2664 0.105154,-0.55778 0.157731,-0.87174 0.05258,-0.31392 0.105153,-0.65052 0.157731,-1.00701 0.05258,-0.3565 0.105152,-0.733 0.157731,-1.1264 0.05258,-0.39343 0.105153,-0.80387 0.157729,-1.228 0.05258,-0.42411 0.105154,-0.86202 0.157731,-1.31016 0.05258,-0.44813 0.105154,-0.90656 0.157731,-1.37164 0.05258,-0.46506 0.105154,-0.93679 0.15773,-1.41142 0.05258,-0.47464 0.105155,-0.95222 0.157731,-1.42892 0.05257,-0.47672 0.105154,-0.95259 0.157731,-1.42385 0.05258,-0.47125 0.105153,-0.9379 0.157731,-1.39624 0.05258,-0.45835 0.105154,-0.90839 0.15773,-1.3466 0.05258,-0.43823 0.105154,-0.86454 0.157731,-1.27569 0.05258,-0.41113 0.105154,-0.80701 0.157731,-1.18457 0.05258,-0.37759 0.105153,-0.73675 0.15773,-1.0748 0.05258,-0.33803 0.105153,-0.65483 0.157732,-0.94798 0.05258,-0.29317 0.105152,-0.56256 0.15773,-0.80622 0.05258,-0.24366 0.105153,-0.46143 0.15773,-0.65172 0.05257,-0.19028 0.105154,-0.35295 0.157731,-0.48688 0.05258,-0.13394 0.105153,-0.23895 0.15773,-0.31442 0.05258,-0.0755 0.105155,-0.12115 0.15773,-0.13691 0.05258,-0.0159 0.105155,-0.002 0.157731,0.0427 0.05258,0.0441 0.105154,0.11829 0.157731,0.22167 0.05258,0.10343 0.105154,0.23617 0.157731,0.39712 0.05258,0.16099 0.105154,0.35029 0.157731,0.5663 0.05257,0.21603 0.105154,0.45891 0.157731,0.72655 0.05258,0.26766 0.105154,0.56024 0.15773,0.8753 0.05257,0.31503 0.105154,0.65271 0.15773,1.0102 0.05258,0.35749 0.105154,0.73489 0.157731,1.12917 0.05258,0.39427 0.105154,0.80546 0.157731,1.23028 0.05258,0.42481 0.105153,0.86332 0.157731,1.31197 0.05258,0.44863 0.105152,0.9075 0.157731,1.37287 0.05258,0.46541 0.105153,0.93738 0.15773,1.41216 0.05258,0.47478 0.105154,0.95239 0.15773,1.42906 0.05258,0.47668 0.105154,0.9524 0.157731,1.42343 0.05258,0.47102 0.105154,0.93733 0.15773,1.39527 0.05258,0.45794 0.105155,0.90748 0.15773,1.34511 0.05258,0.43761 0.105155,0.86323 0.157732,1.27362 0.05258,0.41039 0.105153,0.80542 0.157731,1.18206 0.05258,0.37665 0.105153,0.73484 0.15773,1.07182 0.05257,0.33698 0.105154,0.65263 0.157731,0.94462 0.05258,0.29198 0.105154,0.56015 0.157731,0.8025 0.05258,0.24236 0.105154,0.45878 0.15773,0.6477 0.05258,0.18893 0.105154,0.35019 0.15773,0.48266 0.05258,0.1325 0.105154,0.23605 0.157732,0.31002 0.05258,0.074 0.105153,0.11818 0.15773,0.13245 0.05258,0.0143 0.105154,-0.002 0.157731,-0.0472 0.05258,-0.0457 0.105153,-0.12128 0.15773,-0.22611 0.05258,-0.10488 0.105154,-0.23907 0.157731,-0.40146 0.05258,-0.16237 0.105154,-0.35308 0.15773,-0.57042 0.05258,-0.21734 0.105154,-0.46151 0.157731,-0.73041 0.05258,-0.26888 0.105154,-0.56266 0.157731,-0.87885 0.05258,-0.31616 0.105154,-0.6549 0.15773,-1.01338 0.05258,-0.35849 0.105154,-0.73682 0.157732,-1.1319 0.05257,-0.39512 0.105154,-0.8071 0.15773,-1.23259 0.05258,-0.42548 0.105154,-0.86459 0.15773,-1.31374 0.05258,-0.44916 0.105154,-0.90843 0.157731,-1.37415 0.05258,-0.46571 0.105154,-0.9379 0.157731,-1.41283 0.05258,-0.47493 0.105153,-0.95259 0.157731,-1.42921 0.05258,-0.47663 0.105153,-0.9522 0.157731,-1.423 0.05258,-0.47078 0.105152,-0.93676 0.15773,-1.39427 0.05258,-0.45752 0.105154,-0.90653 0.15773,-1.34356 0.05258,-0.43702 0.105154,-0.86197 0.157731,-1.27158 0.05258,-0.40963 0.105154,-0.8038 0.15773,-1.17955 0.05258,-0.37571 0.105155,-0.7329 0.157731,-1.06881 0.05258,-0.33593 0.105154,-0.65045 0.157731,-0.94123 0.05258,-0.2908 0.105153,-0.55773 0.157731,-0.79879 0.05258,-0.24108 0.105153,-0.45615 0.15773,-0.6437 0.05258,-0.18753 0.105155,-0.34738 0.157731,-0.47842 0.05258,-0.13105 0.105154,-0.23315 0.157731,-0.30562 0.05258,-0.0725 0.105154,-0.11521 0.15773,-0.12798 0.05257,-0.0127 0.105154,0.004 0.15773,0.0517 0.05258,0.0472 0.105152,0.12428 0.157734,0.23058 0.05256,0.10633 0.105152,0.24197 0.157728,0.40574 0.05255,0.16379 0.105151,0.35587 0.157734,0.57457 0.05256,0.21867 0.105151,0.46414 0.157727,0.73427 0.05255,0.27011 0.105152,0.56508 0.157734,0.88238 0.05255,0.3173 0.105152,0.6571 0.157727,1.01655 0.05256,0.35947 0.105152,0.73871 0.157728,1.13467 0.05255,0.39595 0.105158,0.80866 0.157734,1.23482 0.05255,0.42618 0.105151,0.86586 0.157735,1.31552 0.05256,0.44964 0.105151,0.90933 0.157726,1.37538 0.05256,0.46604 0.105152,0.93847 0.157728,1.41351 0.05255,0.47506 0.105158,0.95276 0.157734,1.42934 0.05256,0.47656 0.105151,0.952 0.157727,1.42254 0.05255,0.47055 0.105159,0.9362 0.157735,1.39329 0.05255,0.4571 0.105151,0.9056 0.157726,1.34201 0.05255,0.43642 0.105159,0.86069 0.157735,1.26954 0.05255,0.40883 0.105152,0.80215 0.157727,1.17696 0.05256,0.37482 0.105159,0.731 0.157734,1.06585 0.05256,0.33486 0.105152,0.64824 0.157728,0.93785 0.05255,0.2896 0.105158,0.55525 0.157734,0.79504 0.05255,0.23977 0.105151,0.45351 0.157727,0.63966 0.05255,0.18618 0.105158,0.34461 0.157734,0.47421 0.05256,0.12961 0.105152,0.23022 0.157727,0.30121 0.05256,0.071 0.105159,0.11223 0.157734,0.12351 0.05256,0.0113 0.105152,-0.008 0.157728,-0.0561 0.05255,-0.0486 0.105158,-0.12722 0.157734,-0.23497 0.05255,-0.10779 0.105151,-0.24488 0.157727,-0.41007 0.05255,-0.1652 0.105158,-0.35865 0.157734,-0.57866 0.05255,-0.22001 0.105152,-0.46677 0.157735,-0.73815 0.05262,-0.27136 0.105144,-0.56749 0.157727,-0.88591 0.05262,-0.31842 0.105144,-0.65926 0.157734,-1.01971 0.05256,-0.36046 0.105144,-0.74062 0.157728,-1.13738 0.05255,-0.39679 0.105144,-0.81026 0.157726,-1.23709 0.05262,-0.42685 0.105145,-0.86711 0.157735,-1.31729 0.05262,-0.45014 0.105144,-0.91024 0.157727,-1.3766 0.05262,-0.46636 0.105151,-0.93901 0.157727,-1.4142 0.05262,-0.47519 0.105159,-0.95292 0.157735,-1.42942 0.05255,-0.47652 0.105151,-0.9518 0.157726,-1.42209 0.05256,-0.47031 0.105152,-0.9356 0.157728,-1.39227 0.05262,-0.45666 0.105159,-0.90464 0.157734,-1.34045 0.05262,-0.43583 0.105151,-0.85938 0.157727,-1.26745 0.05262,-0.40807 0.105152,-0.80054 0.157727,-1.17443 0.05262,-0.37386 0.105159,-0.72905 0.157734,-1.06283 0.05256,-0.33378 0.105152,-0.64605 0.157728,-0.93445 0.05262,-0.28842 0.105151,-0.55283 0.157727,-0.7913 0.05262,-0.23848 0.105158,-0.45087 0.157734,-0.63566 0.05255,-0.18478 0.105152,-0.34178 0.157728,-0.46995 0.05255,-0.12816 0.105151,-0.22729 0.157727,-0.29683 0.05262,-0.0695 0.105158,-0.10923 0.157734,-0.11901 0.05262,-0.0101 0.105151,0.0112 0.157727,0.0608 0.05262,0.0502 0.105152,0.13021 0.157728,0.23941 0.05262,0.10924 0.105158,0.2478 0.157734,0.41439 0.05255,0.1666 0.105151,0.36144 0.157727,0.58276 0.05255,0.22136 0.105162,0.4694 0.157726,0.74197 0.05263,0.27261 0.10516,0.56992 0.157739,0.88946 0.05263,0.31953 0.105152,0.66142 0.157724,1.02287 0.05263,0.3614 0.105157,0.74249 0.157721,1.1401 0.05263,0.3976 0.105159,0.81184 0.157739,1.23934 0.05255,0.42751 0.105152,0.86837 0.157721,1.319 0.05255,0.45066 0.10516,0.91115 0.15774,1.37782 0.05263,0.46666 0.105151,0.93953 0.157723,1.41484 0.05263,0.47531 0.105152,0.95307 0.157729,1.42953 0.05263,0.47644 0.105152,0.95157 0.157732,1.4216 0.05255,0.47007 0.105151,0.93502 0.157723,1.39125 0.05255,0.45624 0.105149,0.90369 0.157729,1.3389 0.05263,0.43519 0.10516,0.85806 0.157731,1.26535 0.05263,0.4073 0.105152,0.79891 0.157732,1.17184 0.05263,0.37296 0.105149,0.72712 0.157721,1.05984 0.05255,0.33273 0.10516,0.64382 0.157739,0.93104 0.05255,0.2872 0.105144,0.55038 0.157721,0.78756 0.05263,0.23718 0.105152,0.44821 0.157724,0.63161 0.05263,0.18338 0.105159,0.33898 0.157739,0.46571 0.05263,0.12672 0.105152,0.2244 0.157724,0.29243 0.05255,0.068 0.105151,0.10621 0.157731,0.11453 0.05255,0.009 0.10516,-0.0135 0.157732,-0.0651 0.05263,-0.0516 0.105151,-0.13317 0.157731,-0.24387 0.05263,-0.11068 0.105152,-0.25064 0.157723,-0.41865 0.05263,-0.16802 0.10516,-0.36422 0.157732,-0.58689 0.05255,-0.22268 0.105151,-0.47199 0.157731,-0.7458 0.05255,-0.27384 0.105152,-0.57233 0.157724,-0.89296 0.05255,-0.32066 0.105159,-0.6636 0.157737,-1.02602 0.05263,-0.36239 0.105151,-0.74437 0.157723,-1.14281 0.05263,-0.39842 0.105152,-0.81341 0.157732,-1.24156 0.05263,-0.4282 0.105151,-0.86963 0.157739,-1.32076 0.05255,-0.45112 0.105144,-0.91203 0.157724,-1.379 0.05263,-0.46699 0.105143,-0.94006 0.157731,-1.4155 0.05263,-0.4754 0.105152,-0.95321 0.157732,-1.4296 0.05255,-0.47637 0.105143,-0.95134 0.157731,-1.42112 0.05263,-0.4698 0.105144,-0.93441 0.157723,-1.3902 0.05263,-0.45577 0.105152,-0.90271 0.157732,-1.3373 0.05263,-0.43458 0.105152,-0.85676 0.157731,-1.26327 0.05263,-0.4065 0.105152,-0.79724 0.157724,-1.16925 0.05263,-0.37202 0.105149,-0.72518 0.157737,-1.0568 0.05255,-0.33164 0.105143,-0.64162 0.157723,-0.92762 0.05263,-0.28603 0.105152,-0.54792 0.157732,-0.7838 0.05263,-0.23589 0.105151,-0.44558 0.157731,-0.62759 0.05263,-0.18201 0.105144,-0.33618 0.157724,-0.46145 0.05263,-0.12528 0.105151,-0.22147 0.157739,-0.28802 0.05255,-0.0666 0.105144,-0.10332 0.157724,-0.11012 0.05255,-0.007 0.105143,0.0166 0.157731,0.0697 0.05263,0.0532 0.105152,0.13613 0.157732,0.24827 0.05263,0.11216 0.105143,0.25358 0.157731,0.42299 0.05263,0.16938 0.105143,0.36696 0.157723,0.59096 0.05263,0.22401 0.105149,0.47459 0.157729,0.74966 0.05255,0.27505 0.105152,0.5747 0.157732,0.89645 0.05255,0.32176 0.105143,0.66575 0.157721,1.02914 0.05263,0.36337 0.105151,0.74625 0.157739,1.14549 0.05263,0.39927 0.10516,0.815 0.157724,1.24382 0.05263,0.42883 0.105157,0.87083 0.157729,1.32245 0.05255,0.45161 0.105159,0.91291 0.157731,1.38019 0.05263,0.46726 0.10516,0.94056 0.157732,1.4161 0.05263,0.47555 0.105157,0.95336 0.157729,1.42967 0.05263,0.47631 0.10516,0.9511 0.157731,1.42063 0.05255,0.46953 0.105152,0.93377 0.157732,1.38913 0.05263,0.45535 0.105149,0.90174 0.157729,1.33572 0.05263,0.43395 0.105151,0.85543 0.157723,1.26115 0.05263,0.40573 0.10516,0.79561 0.157737,1.16666 0.05255,0.37108 0.105152,0.72323 0.157724,1.05378 0.05255,0.33055 0.105159,0.63938 0.157739,0.92419 0.05263,0.28481 0.105149,0.54547 0.157721,0.78005 0.05263,0.23456 0.10516,0.44291 0.157723,0.62354 0.05263,0.1806 0.10516,0.33336 0.15774,0.45717 0.05255,0.12384 0.105157,0.21857 0.157721,0.28362 0.05263,0.065 0.10516,0.10029 0.15774,0.10554 0.05263,0.004 0.105151,-0.0195 0.157723,-0.0742 0.05263,-0.0547 0.105157,-0.13913 0.157729,-0.25273 0.05263,-0.11359 0.10516,-0.25644 0.157731,-0.42725 0.05263,-0.17081 0.10516,-0.36975 0.157729,-0.59507 0.05255,-0.22533 0.105152,-0.47718 0.157732,-0.75346 0.05263,-0.27629 0.10516,-0.57712 0.157731,-0.89997 0.05255,-0.32286 0.10515,-0.66789 0.157729,-1.03224 0.05263,-0.36436 0.105152,-0.74811 0.157732,-1.14819 0.05255,-0.4001 0.105152,-0.81655 0.157723,-1.24603 0.05255,-0.42948 0.105158,-0.87206 0.157737,-1.32416 0.05255,-0.4521 0.105152,-0.91378 0.157724,-1.38136 0.05255,-0.46757 0.10516,-0.94105 0.157731,-1.41671 0.05263,-0.47566 0.105149,-0.9535 0.157729,-1.42973 0.05255,-0.47623 0.10516,-0.95083 0.157724,-1.42009 0.05263,-0.46929 0.105159,-0.93317 0.157737,-1.38809 0.05255,-0.45489 0.10516,-0.90074 0.157723,-1.33408 0.05263,-0.43334 0.10516,-0.8541 0.15774,-1.25904 0.05263,-0.40493 0.105151,-0.79394 0.157721,-1.16404 0.05263,-0.37015 0.105159,-0.72127 0.157731,-1.05074 0.05255,-0.32948 0.10516,-0.63716 0.157732,-0.92076 0.05263,-0.28362 0.105157,-0.543 0.157729,-0.77628 0.05255,-0.23324 0.105151,-0.44024 0.157731,-0.61946 0.05263,-0.17925 0.10516,-0.33058 0.157732,-0.45293 0.05255,-0.1224 0.105151,-0.21565 0.157731,-0.27924 0.05263,-0.0635 0.105152,-0.0973 0.157732,-0.10107 0.05263,-0.004 0.105151,0.0226 0.157723,0.0786 0.05255,0.056 0.10516,0.14209 0.15774,0.25712 0.05255,0.11505 0.105151,0.25936 0.157723,0.43158 0.05255,0.17219 0.10516,0.37248 0.157731,0.59913 0.05263,0.22664 0.105152,0.4798 0.157732,0.75729 0.05263,0.27751 0.10516,0.57948 0.15774,0.90345 0.05255,0.32396 0.105143,0.67004 0.157731,1.03535 0.05263,0.36531 0.105152,0.74999 0.157732,1.15086 0.05263,0.4009 0.105143,0.8181 0.157723,1.24822 0.05263,0.43014 0.105152,0.87328 0.15774,1.32585 0.05255,0.45257 0.105143,0.91463 0.157723,1.3825 0.05263,0.46786 0.105152,0.94156 0.15774,1.41732 0.05255,0.47578 0.105143,0.95362 0.157723,1.42976 0.05263,0.47615 0.105143,0.95059 0.157731,1.41957 0.05255,0.46902 0.105152,0.93255 0.157732,1.38698 0.05255,0.45445 0.105143,0.89978 0.157723,1.3325 0.05263,0.4327 0.105152,0.85274 0.15774,1.25688 0.05255,0.40413 0.105143,0.79226 0.157723,1.16146 0.05263,0.36916 0.105152,0.71927 0.157732,1.04766 0.05255,0.32838 0.105151,0.63492 0.157731,0.91732 0.05263,0.28239 0.105152,0.54054 0.157732,0.77249 0.05263,0.23195 0.105143,0.43756 0.157731,0.61542 0.05263,0.17785 0.105152,0.32774 0.157732,0.44867 0.05263,0.12093 0.105143,0.2127 0.157731,0.2748 0.05263,0.062 0.105152,0.0942 0.157732,0.0966 0.05255,0.002 0.105143,-0.0256 0.157723,-0.0832 0.05263,-0.0575 0.105152,-0.14506 0.15774,-0.26156 0.05255,-0.11652 0.105143,-0.26223 0.157723,-0.43584 0.05263,-0.1736 0.105152,-0.37526 0.15774,-0.60321 0.05255,-0.22796 0.105151,-0.4824 0.157723,-0.7611 0.05255,-0.27874 0.10516,-0.58189 0.157731,-0.90694 0.05263,-0.32506 0.105152,-0.67216 0.157732,-1.03845 0.05255,-0.36629 0.10516,-0.75183 0.157723,-1.15354 0.05263,-0.40169 0.10516,-0.81962 0.15774,-1.25039 0.05255,-0.43078 0.105152,-0.87449 0.157723,-1.32754 0.05263,-0.45302 0.10516,-0.91549 0.157732,-1.38363 0.05263,-0.46815 0.10516,-0.94204 0.157731,-1.41791 0.05263,-0.47589 0.10516,-0.95372 0.157732,-1.42977 0.05255,-0.47607 0.10516,-0.95032 0.157731,-1.41905 0.05263,-0.46872 0.10516,-0.93189 0.157732,-1.38588 0.05255,-0.454 0.10516,-0.89875 0.157731,-1.33082 0.05263,-0.4321 0.105152,-0.8514 0.157732,-1.25476 0.05255,-0.40332 0.105151,-0.79059 0.157723,-1.15882 0.05263,-0.36822 0.10516,-0.71729 0.15774,-1.0446 0.05263,-0.32729 0.105151,-0.63266 0.157723,-0.91386 0.05263,-0.28121 0.10516,-0.53805 0.157732,-0.76871 0.05255,-0.23064 0.105151,-0.43493 0.157731,-0.61135 0.05255,-0.17647 0.10516,-0.32494 0.157732,-0.44438 0.05255,-0.1195 0.105151,-0.20979 0.157731,-0.27041 0.05263,-0.0607 0.10516,-0.0913 0.157723,-0.092 0.05263,-7.8e-4 0.10516,0.0285 0.15774,0.0876 0.05255,0.0591 0.105152,0.14802 0.157723,0.26599 0.05263,0.11796 0.10516,0.26511 0.157732,0.44012 0.05255,0.17498 0.10516,0.37801 0.157731,0.60729 0.05263,0.22928 0.10516,0.48497 0.157732,0.7649 0.05255,0.27996 0.10516,0.58424 0.157731,0.91041 0.05263,0.32615 0.10516,0.6743 0.157732,1.04153 0.05255,0.36722 0.10516,0.75367 0.157731,1.15618 0.05263,0.4025 0.105152,0.82117 0.157732,1.25258 0.05263,0.43142 0.105151,0.87566 0.157723,1.32916 0.05263,0.45352 0.10516,0.91635 0.15774,1.38479 0.05255,0.46843 0.105151,0.94251 0.157723,1.41848 0.05263,0.47596 0.10516,0.95381 0.157732,1.42976 0.05255,0.47599 0.105151,0.95006 0.157731,1.4185 0.05263,0.46846 0.10516,0.93125 0.157732,1.38478 0.05255,0.45352 0.105151,0.89773 0.157731,1.32919 0.05255,0.43142 0.10516,0.85003 0.157723,1.25257 0.05263,0.40254 0.10516,0.7889 0.15774,1.15618 0.05255,0.36727 0.105152,0.71534 0.157723,1.04152 0.05263,0.32621 0.10516,0.63043 0.157732,0.91043 0.05255,0.27997 0.10516,0.53556 0.157731,0.7649 0.05263,0.22932 0.10516,0.43223 0.157732,0.60729 0.05263,0.17506 0.10516,0.32208 0.157731,0.44011 0.05263,0.11801 0.105152,0.20686 0.157732,0.26598 0.05255,0.0592 0.10516,0.0884 0.157723,0.0877 0.05263,-7.3e-4 0.10516,-0.0315 0.15774,-0.092 0.05255,-0.0607 0.105151,-0.15099 0.15774,-0.27041 0.05255,-0.1194 0.105143,-0.26798 0.157723,-0.44439 0.05255,-0.17638 0.105151,-0.38077 0.157731,-0.61136 0.05263,-0.23058 0.105152,-0.48755 0.157732,-0.76872 0.05263,-0.28112 0.105143,-0.58659 0.157731,-0.91385 0.05263,-0.32724 0.105152,-0.6764 0.157732,-1.0446 0.05255,-0.36818 0.105143,-0.75552 0.157731,-1.15882 0.05263,-0.40331 0.105152,-0.82268 0.157732,-1.25474 0.05255,-0.43206 0.105143,-0.87687 0.157723,-1.33085 0.05263,-0.45396 0.105152,-0.91715 0.15774,-1.38588 0.05255,-0.46872 0.105143,-0.94298 0.157723,-1.41903 0.05263,-0.47605 0.105152,-0.9539 0.15774,-1.42977 0.05263,-0.47587 0.105143,-0.94976 0.15772,-1.41792 0.0526,-0.46815 0.10515,-0.93059 0.15773,-1.38365 0.0526,-0.45305 0.10515,-0.89672 0.15774,-1.32751 0.0525,-0.43081 0.10514,-0.84866 0.15773,-1.25041 0.0525,-0.40172 0.10514,-0.78722 0.15773,-1.15352 0.0526,-0.36631 0.10514,-0.71334 0.15772,-1.03845 0.0526,-0.32511 0.10515,-0.62816 0.15773,-0.90692 0.0526,-0.27878 0.10516,-0.53309 0.15774,-0.76111 0.0526,-0.22801 0.10515,-0.42957 0.15773,-0.60322 0.0525,-0.17367 0.10514,-0.31928 0.15773,-0.43584 0.0526,-0.11657 0.10515,-0.20392 0.15773,-0.26156 0.0525,-0.0576 0.10514,-0.0853 0.15773,-0.0832 0.0526,0.002 0.10515,0.0345 0.15773,0.0966 0.0525,0.0621 0.10516,0.15394 0.15773,0.27482 0.0526,0.12085 0.10516,0.27086 0.15774,0.44864 0.0526,0.1778 0.10515,0.38354 0.15772,0.61544 0.0526,0.23192 0.10516,0.49015 0.15773,0.77249 0.0525,0.28235 0.10515,0.58898 0.15773,0.91732 0.0526,0.32835 0.10516,0.67853 0.15773,1.04767 0.0525,0.36913 0.10516,0.75734 0.15774,1.16145 0.0526,0.40411 0.10515,0.8242 0.15773,1.25689 0.0525,0.4327 0.10515,0.87804 0.15773,1.33246 0.0525,0.45443 0.10515,0.918 0.15772,1.38699 0.0526,0.46898 0.10516,0.94344 0.15773,1.41959 0.0525,0.47614 0.10516,0.95397 0.15773,1.42974 0.0526,0.47576 0.10516,0.94945 0.15774,1.41733 0.0525,0.46786 0.10516,0.9299 0.15773,1.38249 0.0526,0.4526 0.10516,0.8957 0.15773,1.32587 0.0526,0.43013 0.10516,0.84731 0.15772,1.24821 0.0526,0.40092 0.10516,0.78551 0.15774,1.15087 0.0525,0.36535 0.10516,0.71133 0.15773,1.03536 0.0526,0.32398 0.10516,0.6259 0.15773,0.90344 0.0525,0.27754 0.10516,0.5306 0.15773,0.75728 0.0526,0.22669 0.10516,0.42689 0.15773,0.59915 0.0526,0.17228 0.10515,0.31644 0.15773,0.43156 0.0526,0.11511 0.10516,0.201 0.15773,0.25713 0.0526,0.0561 0.10515,0.0823 0.15773,0.0786 0.0526,-0.004 0.10516,-0.0376 0.15774,-0.10107 0.0526,-0.0636 0.10515,-0.1569 0.15773,-0.27923 0.0525,-0.12229 0.10515,-0.27373 0.15772,-0.45293 0.0526,-0.17918 0.10516,-0.38625 0.15773,-0.61946 0.0525,-0.23324 0.10516,-0.49271 0.15773,-0.77627 0.0526,-0.28356 0.10516,-0.59134 0.15773,-0.92077 0.0526,-0.32944 0.10516,-0.68064 0.15774,-1.05073 0.0526,-0.37007 0.10515,-0.75914 0.15773,-1.16407 0.0525,-0.40489 0.10516,-0.82571 0.15772,-1.25901 0.0526,-0.43332 0.10516,-0.87923 0.15774,-1.33412 0.0526,-0.45487 0.10516,-0.91881 0.15772,-1.38807 0.0526,-0.46926 0.10516,-0.94386 0.15774,-1.4201 0.0526,-0.47623 0.10516,-0.95405 0.15773,-1.42971 0.0526,-0.47567 0.10516,-0.94916 0.15773,-1.41673 0.0526,-0.46758 0.10515,-0.92922 0.15773,-1.38134 0.0526,-0.45212 0.10516,-0.89465 0.15773,-1.32416 0.0525,-0.4295 0.10515,-0.8459 0.15773,-1.24603 0.0525,-0.4001 0.10516,-0.7838 0.15773,-1.14819 0.0525,-0.36437 0.10516,-0.70932 0.15774,-1.03225 0.0526,-0.32291 0.10515,-0.62361 0.15772,-0.89995 0.0526,-0.27633 0.10516,-0.52809 0.15773,-0.75348 0.0525,-0.22537 0.10516,-0.4242 0.15773,-0.59506 0.0526,-0.17087 0.10516,-0.31359 0.15773,-0.42724 0.0525,-0.11366 0.10516,-0.19807 0.15774,-0.25273 0.0526,-0.0546 0.10515,-0.0793 0.15774,-0.0742 0.0526,0.004 0.10515,0.0405 0.15773,0.10554 0.0525,0.065 0.10514,0.15984 0.15773,0.28362 0.0526,0.12376 0.10515,0.27663 0.15773,0.45717 0.0525,0.18058 0.10514,0.38903 0.15772,0.62355 0.0525,0.23452 0.10515,0.49527 0.15774,0.78003 0.0526,0.28477 0.10515,0.5937 0.15773,0.92421 0.0525,0.3305 0.10514,0.68274 0.15773,1.05376 0.0526,0.37103 0.10515,0.76098 0.15773,1.16667 0.0525,0.40569 0.10514,0.82721 0.15773,1.26115 0.0526,0.43396 0.10515,0.88039 0.15773,1.3357 0.0526,0.45533 0.10515,0.91961 0.15773,1.38915 0.0526,0.46952 0.10515,0.94431 0.15774,1.42062 0.0525,0.47631 0.10514,0.95411 0.15772,1.42966 0.0526,0.47556 0.10515,0.94883 0.15773,1.4161 0.0526,0.4673 0.10515,0.92859 0.15773,1.3802 0.0526,0.45165 0.10515,0.89359 0.15773,1.32247 0.0526,0.42883 0.10515,0.8445 0.15773,1.24379 0.0526,0.3993 0.10516,0.78211 0.15774,1.14551 0.0525,0.36345 0.10514,0.70733 0.15773,1.02914 0.0526,0.32179 0.10515,0.62134 0.15773,0.89646 0.0526,0.2751 0.10514,0.52558 0.15772,0.74966 0.0525,0.22404 0.10515,0.42148 0.15774,0.59095 0.0525,0.16948 0.10515,0.31078 0.15773,0.423 0.0525,0.11218 0.10515,0.19509 0.15773,0.24825 0.0526,0.0532 0.10516,0.0764 0.15773,0.0697 0.0526,-0.007 0.10516,-0.0435 0.15772,-0.11001 0.0526,-0.0664 0.10516,-0.1628 0.15774,-0.28802 0.0526,-0.12521 0.10516,-0.2795 0.15772,-0.46146 0.0526,-0.18195 0.10516,-0.39173 0.15774,-0.62757 0.0526,-0.23583 0.10516,-0.49784 0.15773,-0.78379 0.0526,-0.28597 0.10516,-0.59605 0.15773,-0.92763 0.0525,-0.33159 0.10516,-0.68483 0.15773,-1.05683 0.0526,-0.37194 0.10516,-0.76276 0.15773,-1.16924 0.0526,-0.40647 0.10515,-0.82872 0.15773,-1.26327 0.0526,-0.43456 0.10516,-0.88153 0.15773,-1.3373 0.0525,-0.45578 0.10516,-0.92041 0.15774,-1.39021 0.0526,-0.46976 0.10515,-0.94473 0.15773,-1.42111 0.0525,-0.47639 0.10515,-0.95417 0.15772,-1.42961 0.0526,-0.47543 0.10516,-0.9485 0.15773,-1.41548 0.0526,-0.46699 0.10516,-0.92786 0.15773,-1.37901 0.0525,-0.45115 0.10516,-0.89253 0.15774,-1.32074 0.0526,-0.42818 0.10515,-0.8431 0.15773,-1.24157 0.0525,-0.39848 0.10516,-0.78037 0.15772,-1.14283 0.0526,-0.36245 0.10516,-0.70528 0.15774,-1.026 0.0525,-0.32069 0.10516,-0.61906 0.15772,-0.89295 0.0526,-0.27387 0.10516,-0.52309 0.15774,-0.74581 0.0525,-0.22273 0.10515,-0.41882 0.15773,-0.58689 0.0526,-0.16805 0.10516,-0.30792 0.15773,-0.41865 0.0526,-0.11079 0.10515,-0.19219 0.15773,-0.24386 0.0526,-0.0516 0.10516,-0.0735 0.15773,-0.0651 0.0525,0.009 0.10515,0.0466 0.15773,0.11451 0.0526,0.068 0.10516,0.1658 0.15773,0.29245 0.0525,0.12665 0.10516,0.28236 0.15774,0.46569 0.0526,0.18336 0.10515,0.39449 0.15773,0.63162 0.0525,0.23715 0.10515,0.5004 0.15772,0.78756 0.0525,0.28715 0.10516,0.59838 0.15773,0.93105 0.0526,0.33268 0.10516,0.68691 0.15773,1.05982 0.0526,0.3729 0.10516,0.76458 0.15773,1.17186 0.0526,0.40724 0.10516,0.83018 0.15774,1.26536 0.0525,0.43516 0.10516,0.88265 0.15772,1.33887 0.0526,0.45622 0.10516,0.92119 0.15774,1.39125 0.0526,0.47003 0.10516,0.94517 0.15772,1.42162 0.0526,0.47643 0.10516,0.95419 0.15774,1.4295 0.0525,0.47532 0.10515,0.94817 0.15773,1.41485 0.0526,0.46668 0.10516,0.92715 0.15773,1.37782 0.0525,0.45068 0.10515,0.89148 0.15773,1.31901 0.0526,0.42754 0.10516,0.84169 0.15773,1.23935 0.0525,0.39763 0.10515,0.77864 0.15773,1.14009 0.0526,0.36147 0.10515,0.70332 0.15773,1.02288 0.0526,0.31957 0.10515,0.61678 0.15773,0.88945 0.0526,0.27264 0.10516,0.52056 0.15774,0.74195 0.0525,0.2214 0.10515,0.41612 0.15773,0.58279 0.0526,0.16666 0.10515,0.30508 0.15773,0.41438 0.0525,0.10922 0.10515,0.18924 0.15773,0.23942 0.0526,0.0502 0.10515,0.0702 0.15773,0.0608 0.0525,-0.01 0.10515,-0.0496 0.15773,-0.11901 0.0526,-0.0694 0.10516,-0.16873 0.15773,-0.29684 0.0526,-0.1281 0.10515,-0.28522 0.15774,-0.46996 0.0526,-0.18472 0.10515,-0.39721 0.15773,-0.63564 0.0525,-0.23842 0.10514,-0.50295 0.15772,-0.79129 0.0526,-0.28838 0.10515,-0.60073 0.15774,-0.93446 0.0526,-0.33374 0.10514,-0.68899 0.15772,-1.06285 0.0526,-0.37383 0.10515,-0.76636 0.15774,-1.17439 0.0526,-0.40806 0.10515,-0.83167 0.15773,-1.26746 0.0525,-0.43579 0.10514,-0.88382 0.15772,-1.34046 0.0526,-0.45665 0.10515,-0.92199 0.15774,-1.39228 0.0525,-0.47029 0.10514,-0.94558 0.15772,-1.42209 0.0526,-0.47652 0.10516,-0.95423 0.15774,-1.42942 0.0525,-0.47521 0.10515,-0.94783 0.15773,-1.4142 0.0526,-0.46637 0.10515,-0.92643 0.15773,-1.37659 0.0525,-0.45019 0.10515,-0.89041 0.15773,-1.31728 0.0526,-0.42685 0.10515,-0.84029 0.15773,-1.23708 0.0526,-0.39682 0.10514,-0.77692 0.15773,-1.13739 0.0526,-0.3605 0.10516,-0.70126 0.15773,-1.01973 0.0525,-0.31847 0.10516,-0.61451 0.15774,-0.88592 0.0526,-0.27141 0.10515,-0.51804 0.15773,-0.73811 0.0525,-0.22009 0.10515,-0.41342 0.15772,-0.57868 0.0526,-0.16525 0.10516,-0.30224 0.15774,-0.41007 0.0525,-0.10777 0.10515,-0.18629 0.15772,-0.23497 0.0526,-0.0487 0.10516,-0.0675 0.15773,-0.0561 0.0526,0.0112 0.10516,0.0526 0.15774,0.1235 0.0525,0.0709 0.10516,0.17168 0.15772,0.30123 0.0526,0.12955 0.10516,0.28808 0.15774,0.47419 0.0525,0.18611 0.10516,0.39995 0.15772,0.63967 0.0526,0.23972 0.10516,0.50548 0.15774,0.79506 0.0526,0.28953 0.10515,0.60302 0.15773,0.93783 0.0526,0.33482 0.10516,0.69107 0.15773,1.06584 0.0525,0.37477 0.10516,0.76817 0.15773,1.17699 0.0526,0.4088 0.10516,0.83311 0.15773,1.26952 0.0525,0.43639 0.10516,0.88493 0.15773,1.34201 0.0526,0.45707 0.10516,0.92275 0.15773,1.39327 0.0526,0.47054 0.10515,0.94599 0.15773,1.42257 0.0526,0.47655 0.10516,0.95425 0.15774,1.42932 0.0526,0.47507 0.10515,0.94746 0.15772,1.41351 0.0526,0.46606 0.10516,0.92571 0.15774,1.37537 0.0526,0.4497 0.10515,0.88933 0.15772,1.31553 0.0525,0.42619 0.10516,0.83886 0.15773,1.23484 0.0525,0.39597 0.10516,0.77514 0.15774,1.13466 0.0526,0.35951 0.10516,0.69921 0.15772,1.01656 0.0526,0.31733 0.10516,0.61221 0.15774,0.88238 0.0526,0.27017 0.10516,0.51554 0.15772,0.73427 0.0526,0.21873 0.10516,0.41071 0.15774,0.57454 0.0525,0.16386 0.10515,0.29941 0.15772,0.40577 0.0526,0.10632 0.10516,0.18336 0.15774,0.23056 0.0525,0.0472 0.10516,0.0643 0.15773,0.0517 0.0526,-0.0127 0.10516,-0.0555 0.15773,-0.12796 0.0525,-0.0725 0.10516,-0.17463 0.15773,-0.30563 0.0526,-0.13098 0.10515,-0.29092 0.15773,-0.47843 0.0526,-0.18749 0.10515,-0.40266 0.15773,-0.64369 0.0526,-0.24102 0.10516,-0.50802 0.15774,-0.79877 0.0525,-0.29077 0.10515,-0.60537 0.15772,-0.94124 0.0526,-0.33588 0.10516,-0.69315 0.15774,-1.06883 0.0525,-0.3757 0.10515,-0.76995 0.15772,-1.17953 0.0526,-0.40959 0.10516,-0.83459 0.15773,-1.27158 0.0526,-0.43701 0.10515,-0.88607 0.15773,-1.34356 0.0526,-0.4575 0.10516,-0.92351 0.15773,-1.39431 0.0526,-0.47078 0.10516,-0.94635 0.15774,-1.42299 0.0525,-0.47662 0.10516,-0.95427 0.15772,-1.4292 0.0526,-0.47493 0.10516,-0.94711 0.15774,-1.41284 0.0525,-0.46572 0.10515,-0.92497 0.15772,-1.37414 0.0526,-0.44917 0.10516,-0.8882 0.15774,-1.31374 0.0526,-0.42551 0.10515,-0.83743 0.15773,-1.23256 0.0525,-0.39515 0.10516,-0.77339 0.15774,-1.13191 0.0526,-0.35852 0.10514,-0.69717 0.15773,-1.01339 0.0526,-0.31624 0.10514,-0.60992 0.15773,-0.87885 0.0525,-0.26893 0.10514,-0.513 0.15772,-0.73042 0.0526,-0.2174 0.10515,-0.40799 0.15774,-0.57042 0.0525,-0.16244 0.10515,-0.29654 0.15773,-0.40145 0.0526,-0.10487 0.10515,-0.18039 0.15773,-0.22611 0.0526,-0.0457 0.10515,-0.0614 0.15773,-0.0472 0.0526,0.0142 0.10515,0.0585 0.15773,0.13245 0.0525,0.074 0.10514,0.17757 0.15773,0.31 0.0526,0.13244 0.10515,0.29382 0.15773,0.48268 0.0525,0.18885 0.10515,0.40539 0.15773,0.64769 0.0526,0.24232 0.10516,0.51059 0.15774,0.80251 0.0525,0.29194 0.10514,0.60768 0.15772,0.94462 0.0526,0.33695 0.10515,0.69521 0.15774,1.07181 0.0526,0.37662 0.10514,0.7717 0.15772,1.18207 0.0526,0.41034 0.10515,0.83603 0.15773,1.27363 0.0526,0.4376 0.10516,0.88717 0.15774,1.34508 0.0525,0.45793 0.10514,0.92427 0.15773,1.39527 0.0525,0.47103 0.10514,0.94677 0.15773,1.42343 0.0525,0.47667 0.10514,0.95429 0.15772,1.42908 0.0526,0.4748 0.10515,0.94673 0.15774,1.41214 0.0526,0.4654 0.10515,0.92422 0.15772,1.37288 0.0526,0.44869 0.10516,0.88715 0.15774,1.31198 0.0525,0.42484 0.10516,0.83597 0.15773,1.23028 0.0526,0.3943 0.10516,0.77163 0.15773,1.12916 0.0525,0.35754 0.10516,0.69511 0.15773,1.01021 0.0526,0.31511 0.10516,0.60759 0.15773,0.8753 0.0525,0.2677 0.10516,0.51048 0.15773,0.72654 0.0526,0.21606 0.10516,0.40528 0.15774,0.56631 0.0526,0.16102 0.10515,0.2937 0.15772,0.39714 0.0526,0.10341 0.10516,0.17745 0.15774,0.22165 0.0526,0.0442 0.10515,0.0583 0.15772,0.0427 0.0526,-0.0156 0.10516,-0.0615 0.15773,-0.13692 0.0526,-0.0754 0.10515,-0.18052 0.15773,-0.31441 0.0526,-0.13386 0.10516,-0.29664 0.15774,-0.48689 0.0525,-0.19024 0.10515,-0.4081 0.15773,-0.65171 0.0525,-0.2436 0.10516,-0.5131 0.15772,-0.80622 0.0526,-0.29313 0.10516,-0.60999 0.15774,-0.94799 0.0525,-0.338 0.10515,-0.69724 0.15772,-1.07479 0.0526,-0.37752 0.10516,-0.77346 0.15774,-1.18456 0.0525,-0.41112 0.10516,-0.83749 0.15773,-1.27569 0.0526,-0.43819 0.10516,-0.88828 0.15773,-1.34661 0.0526,-0.45834 0.10516,-0.92501 0.15773,-1.39625 0.0526,-0.47125 0.10515,-0.94712 0.15773,-1.42384 0.0525,-0.47671 0.10516,-0.95427 0.15772,-1.42892 0.0526,-0.47466 0.10516,-0.94635 0.15774,-1.41143 0.0526,-0.46507 0.10516,-0.9235 0.15773,-1.37164 0.0526,-0.44814 0.10516,-0.886 0.15774,-1.31015 0.0525,-0.42416 0.10515,-0.83453 0.15772,-1.22799 0.0526,-0.39346 0.10516,-0.76986 0.15773,-1.12642 0.0525,-0.35652 0.10515,-0.69303 0.15773,-1.00701 0.0525,-0.31399 0.10516,-0.60527 0.15773,-0.87173 0.0526,-0.26646 0.10516,-0.50793 0.15774,-0.72267 0.0525,-0.21473 0.10516,-0.40255 0.15772,-0.56216 0.0526,-0.15962 0.10516,-0.29085 0.15773,-0.39282 0.0525,-0.10196 0.10516,-0.17451 0.15773,-0.21723 0.0526,-0.0427 0.10516,-0.0553 0.15773,-0.0382 0.0526,0.0172 0.10516,0.0644 0.15774,0.14141 0.0526,0.0768 0.10516,0.18348 0.15773,0.31877 0.0525,0.13533 0.10516,0.29952 0.15773,0.49112 0.0526,0.19162 0.10515,0.41082 0.15773,0.65571 0.0526,0.24491 0.10516,0.51564 0.15772,0.80995 0.0526,0.29428 0.10516,0.61228 0.15774,0.95135 0.0525,0.33905 0.10515,0.69928 0.15773,1.07773 0.0526,0.37846 0.10516,0.77522 0.15774,1.1871 0.0526,0.41185 0.10515,0.83892 0.15772,1.27769 0.0526,0.43879 0.10516,0.88934 0.15773,1.34811 0.0525,0.45875 0.10515,0.92573 0.15773,1.39721 0.0525,0.47149 0.10516,0.94749 0.15773,1.42425 0.0525,0.47677 0.10516,0.95426 0.15774,1.42876 0.0526,0.47449 0.10515,0.94595 0.15774,1.4107 0.0525,0.46475 0.10514,0.92271 0.15772,1.37036 0.0526,0.44765 0.10515,0.88491 0.15774,1.30835 0.0526,0.42348 0.10514,0.83309 0.15772,1.2257 0.0526,0.3926 0.10515,0.76808 0.15773,1.12363 0.0525,0.35554 0.10515,0.69098 0.15773,1.00382 0.0526,0.31283 0.10516,0.60296 0.15774,0.86816 0.0525,0.26521 0.10514,0.50539 0.15773,0.71879 0.0526,0.21339 0.10515,0.39984 0.15773,0.55803 0.0525,0.15819 0.10514,0.28798 0.15773,0.38848 0.0525,0.10053 0.10514,0.17156 0.15773,0.21279 0.0525,0.0411 0.10515,0.0524 0.15773,0.0337 0.0525,-0.0187 0.10515,-0.0676 0.15773,-0.14589 0.0526,-0.0783 0.10515,-0.18641 0.15773,-0.32317 0.0525,-0.13674 0.10514,-0.30234 0.15773,-0.49532 0.0526,-0.193 0.10515,-0.41353 0.15773,-0.6597 0.0526,-0.24618 0.10514,-0.51817 0.15772,-0.81364 0.0526,-0.29547 0.10516,-0.6146 0.15774,-0.95469 0.0526,-0.34012 0.10515,-0.70134 0.15773,-1.08071 0.0526,-0.37936 0.10515,-0.77697 0.15774,-1.18958 0.0525,-0.41263 0.10514,-0.84034 0.15772,-1.27972 0.0526,-0.43937 0.10515,-0.89045 0.15773,-1.3496 0.0525,-0.45917 0.10515,-0.92646 0.15773,-1.39817 0.0526,-0.4717 0.10516,-0.94784 0.15774,-1.42462 0.0525,-0.47679 0.10515,-0.95425 0.15773,-1.4286 0.0526,-0.47433 0.10516,-0.94555 0.15773,-1.40996 0.0526,-0.46442 0.10515,-0.92195 0.15773,-1.36907 0.0525,-0.44712 0.10515,-0.88376 0.15773,-1.30654 0.0525,-0.42276 0.10515,-0.83159 0.15772,-1.22334 0.0525,-0.39178 0.10516,-0.76631 0.15774,-1.12085 0.0526,-0.35454 0.10516,-0.6889 0.15773,-1.00063 0.0526,-0.3117 0.10516,-0.60062 0.15773,-0.86458 0.0526,-0.26396 0.10515,-0.50283 0.15773,-0.7149 0.0525,-0.21205 0.10516,-0.3971 0.15772,-0.55388 0.0526,-0.1568 0.10516,-0.28511 0.15774,-0.38416 0.0525,-0.099 0.10516,-0.1686 0.15773,-0.20834 0.0526,-0.0396 0.10516,-0.0494 0.15774,-0.0291 0.0525,0.0201 0.10515,0.0705 0.15772,0.15036 0.0526,0.0797 0.10516,0.18935 0.15773,0.32753 0.0526,0.1382 0.10515,0.30521 0.15773,0.49956 0.0526,0.19436 0.10516,0.41622 0.15773,0.66369 0.0525,0.24746 0.10516,0.52067 0.15774,0.81733 0.0525,0.29664 0.10516,0.61688 0.15773,0.95804 0.0525,0.34117 0.10515,0.70336 0.15772,1.08362 0.0526,0.38026 0.10516,0.77872 0.15773,1.19208 0.0526,0.41338 0.10516,0.84177 0.15773,1.28171 0.0525,0.43997 0.10516,0.89152 0.15773,1.35109 0.0526,0.45955 0.10516,0.92717 0.15774,1.39909 0.0525,0.47193 0.10516,0.94819 0.15773,1.42501 0.0526,0.47682 0.10515,0.9542 0.15773,1.42839 0.0525,0.47418 0.10516,0.94517 0.15772,1.40921 0.0526,0.46408 0.10516,0.92117 0.15774,1.36777 0.0525,0.44661 0.10516,0.88264 0.15773,1.3047 0.0526,0.42209 0.10516,0.83015 0.15774,1.22103 0.0526,0.39088 0.10515,0.76453 0.15772,1.11804 0.0526,0.35353 0.10516,0.68684 0.15773,0.99741 0.0525,0.31057 0.10515,0.59828 0.15773,0.86101 0.0526,0.26272 0.10516,0.50029 0.15773,0.71098 0.0525,0.21072 0.10515,0.39438 0.15773,0.54975 0.0526,0.15536 0.10516,0.28225 0.15774,0.37982 0.0525,0.0976 0.10515,0.16567 0.15772,0.20389 0.0525,0.0382 0.10516,0.0465 0.15773,0.0247 0.0526,-0.0217 0.10516,-0.0736 0.15773,-0.15481 0.0525,-0.0813 0.10516,-0.1923 0.15773,-0.33192 0.0526,-0.13964 0.10516,-0.30805 0.15774,-0.50378 0.0525,-0.19571 0.10516,-0.4189 0.15773,-0.66766 0.0526,-0.24872 0.10515,-0.52318 0.15773,-0.821 0.0526,-0.29781 0.10516,-0.61917 0.15772,-0.96138 0.0526,-0.34221 0.10516,-0.70538 0.15774,-1.08655 0.0525,-0.38117 0.10516,-0.78044 0.15772,-1.19456 0.0526,-0.41414 0.10516,-0.84318 0.15774,-1.28369 0.0525,-0.44054 0.10515,-0.89261 0.15774,-1.35256 0.0525,-0.45997 0.10515,-0.92788 0.15773,-1.40001 0.0525,-0.47213 0.10514,-0.94853 0.15773,-1.42537 0.0526,-0.47684 0.10515,-0.95416 0.15773,-1.42818 0.0526,-0.47404 0.10514,-0.94473 0.15772,-1.40846 0.0526,-0.46371 0.10516,-0.92037 0.15774,-1.36644 0.0525,-0.44606 0.10515,-0.88149 0.15773,-1.30286 0.0526,-0.42138 0.10515,-0.82865 0.15774,-1.21868 0.0525,-0.39002 0.10514,-0.76271 0.15772,-1.11524 0.0526,-0.35251 0.10515,-0.68473 0.15773,-0.99418 0.0525,-0.30942 0.10515,-0.59594 0.15773,-0.8574 0.0526,-0.26147 0.10515,-0.49773 0.15773,-0.70709 0.0526,-0.20936 0.10515,-0.39165 0.15774,-0.54558 0.0526,-0.15395 0.10515,-0.2794 0.15773,-0.3755 0.0526,-0.0961 0.10514,-0.16269 0.15773,-0.19943 0.0526,-0.0368 0.10514,-0.0435 0.15773,-0.0203 0.0525,0.0233 0.10514,0.0765 0.15772,0.15929 0.0526,0.0828 0.10515,0.19524 0.15774,0.33629 0.0525,0.14105 0.10515,0.31088 0.15773,0.50797 0.0526,0.1971 0.10514,0.42163 0.15773,0.67165 0.0526,0.25002 0.10515,0.52569 0.15773,0.82469 0.0525,0.29899 0.10514,0.62143 0.15772,0.96469 0.0526,0.34325 0.10515,0.7074 0.15774,1.08947 0.0525,0.38206 0.10516,0.78215 0.15773,1.19703 0.0526,0.41486 0.10516,0.84457 0.15774,1.28568 0.0525,0.44109 0.10515,0.89362 0.15772,1.35397 0.0526,0.46036 0.10516,0.92859 0.15773,1.40092 0.0526,0.47235 0.10516,0.94885 0.15773,1.42573 0.0526,0.47685 0.10516,0.9541 0.15773,1.42797 0.0525,0.47385 0.10515,0.94428 0.15773,1.40765 0.0526,0.46335 0.10516,0.91958 0.15774,1.36512 0.0525,0.44555 0.10515,0.88033 0.15772,1.30099 0.0526,0.42069 0.10516,0.82718 0.15774,1.21635 0.0525,0.38914 0.10515,0.7609 0.15772,1.11241 0.0525,0.3515 0.10516,0.68264 0.15774,0.99095 0.0526,0.30829 0.10515,0.59359 0.15773,0.85379 0.0525,0.26021 0.10516,0.49517 0.15773,0.70319 0.0526,0.20799 0.10515,0.38891 0.15773,0.54143 0.0525,0.15252 0.10516,0.27651 0.15772,0.37113 0.0526,0.0946 0.10516,0.15974 0.15774,0.19498 0.0526,0.0352 0.10516,0.0404 0.15772,0.0157 0.0526,-0.0248 0.10516,-0.0795 0.15774,-0.16377 0.0525,-0.0841 0.10516,-0.19815 0.15773,-0.34065 0.0526,-0.14249 0.10516,-0.31371 0.15773,-0.51217 0.0525,-0.19846 0.10516,-0.42431 0.15773,-0.6756 0.0526,-0.25131 0.10516,-0.52821 0.15773,-0.82836 0.0525,-0.30014 0.10515,-0.62373 0.15773,-0.96801 0.0526,-0.34429 0.10516,-0.70942 0.15774,-1.09238 0.0525,-0.38298 0.10515,-0.78388 0.15772,-1.19949 0.0526,-0.41559 0.10516,-0.84596 0.15774,-1.28763 0.0526,-0.44166 0.10515,-0.89471 0.15772,-1.35544 0.0525,-0.46075 0.10516,-0.92926 0.15774,-1.4018 0.0525,-0.47254 0.10515,-0.94915 0.15772,-1.42606 0.0525,-0.47685 0.10516,-0.95404 0.15774,-1.42772 0.0526,-0.4737 0.10515,-0.94387 0.15773,-1.40686 0.0526,-0.46301 0.10516,-0.91878 0.15772,-1.36378 0.0526,-0.44501 0.10516,-0.87917 0.15774,-1.29913 0.0525,-0.41996 0.10516,-0.82567 0.15772,-1.21395 0.0526,-0.38831 0.10516,-0.75909 0.15774,-1.10959 0.0525,-0.35049 0.10516,-0.68055 0.15773,-0.9877 0.0526,-0.30715 0.10516,-0.59124 0.15773,-0.85019 0.0525,-0.25895 0.10515,-0.4926 0.15773,-0.69926 0.0526,-0.20667 0.10516,-0.38617 0.15773,-0.53729 0.0526,-0.15108 0.10515,-0.27362 0.15773,-0.36677 0.0526,-0.0932 0.10515,-0.15678 0.15773,-0.19052 0.0525,-0.0339 0.10516,-0.0375 0.15773,-0.0113 0.0526,0.0263 0.10516,0.0825 0.15774,0.16823 0.0525,0.0858 0.10515,0.20109 0.15772,0.34503 0.0526,0.14392 0.10516,0.31654 0.15773,0.51638 0.0526,0.1998 0.10516,0.42698 0.15773,0.67955 0.0525,0.25258 0.10516,0.53068 0.15774,0.83202 0.0526,0.30133 0.10515,0.62599 0.15773,0.9713 0.0526,0.34533 0.10516,0.71143 0.15774,1.09529 0.0525,0.38385 0.10514,0.78558 0.15772,1.20193 0.0526,0.41632 0.10515,0.84735 0.15774,1.28958 0.0525,0.44222 0.10514,0.8957 0.15772,1.35684 0.0526,0.46113 0.10515,0.92993 0.15774,1.40269 0.0525,0.47275 0.10515,0.94947 0.15773,1.42636 0.0525,0.4769 0.10514,0.95397 0.15773,1.42749 0.0526,0.4735 0.10515,0.94342 0.15773,1.40607 0.0525,0.46263 0.10514,0.91795 0.15772,1.36241 0.0526,0.44447 0.10515,0.87801 0.15774,1.29725 0.0525,0.41924 0.10514,0.82414 0.15772,1.21157 0.0526,0.38743 0.10516,0.75726 0.15774,1.10674 0.0526,0.34949 0.10515,0.67845 0.15773,0.98443 0.0526,0.30602 0.10515,0.5889 0.15773,0.8466 0.0526,0.25769 0.10515,0.49002 0.15773,0.69533 0.0526,0.20528 0.10515,0.38343 0.15773,0.5331 0.0525,0.14967 0.10515,0.27076 0.15773,0.36245 0.0526,0.0916 0.10516,0.15382 0.15774,0.18606 0.0525,0.032 0.10514,0.0345 0.15772,0.007 0.0526,-0.0277 0.10515,-0.0855 0.15774,-0.17269 0.0525,-0.0873 0.10514,-0.20404 0.15772,-0.34938 0.0526,-0.14535 0.10515,-0.31937 0.15774,-0.52057 0.0526,-0.20118 0.10514,-0.42967 0.15772,-0.68352 0.0525,-0.25383 0.10516,-0.53316 0.15774,-0.83565 0.0525,-0.30249 0.10515,-0.62826 0.15773,-0.97462 0.0525,-0.34635 0.10516,-0.7134 0.15772,-1.09815 0.0526,-0.38475 0.10516,-0.7873 0.15774,-1.20435 0.0526,-0.41706 0.10516,-0.84874 0.15772,-1.29152 0.0526,-0.44281 0.10516,-0.89676 0.15774,-1.35827 0.0526,-0.46153 0.10516,-0.93062 0.15773,-1.40356 0.0526,-0.47295 0.10516,-0.94977 0.15773,-1.42667 0.0525,-0.4769 0.10516,-0.95389 0.15773,-1.4272 0.0526,-0.47334 0.10516,-0.94298 0.15773,-1.40524 0.0525,-0.4623 0.10516,-0.91715 0.15773,-1.36106 0.0526,-0.44392 0.10515,-0.87681 0.15773,-1.29536 0.0526,-0.41852 0.10516,-0.82261 0.15773,-1.20916 0.0526,-0.38656 0.10516,-0.75544 0.15774,-1.10391 0.0526,-0.34845 0.10515,-0.67633 0.15772,-0.98116 0.0526,-0.30485 0.10516,-0.58654 0.15774,-0.84295 0.0526,-0.25643 0.10515,-0.48744 0.15772,-0.6914 0.0526,-0.20394 0.10516,-0.38066 0.15774,-0.52893 0.0525,-0.14825 0.10515,-0.26788 0.15773,-0.3581 0.0526,-0.0902 0.10516,-0.15085 0.15772,-0.18161 0.0526,-0.0308 0.10516,-0.0315 0.15774,-0.002 0.0526,0.029 0.10516,0.0885 0.15772,0.17714 0.0526,0.0887 0.10516,0.20698 0.15773,0.35374 0.0526,0.14676 0.10516,0.32221 0.15774,0.52475 0.0526,0.20254 0.10516,0.43235 0.15773,0.68748 0.0525,0.25509 0.10516,0.53565 0.15773,0.83929 0.0526,0.30364 0.10516,0.63052 0.15773,0.9779 0.0525,0.34738 0.10516,0.7154 0.15773,1.10103 0.0526,0.38565 0.10515,0.78898 0.15773,1.20677 0.0525,0.41779 0.10516,0.85009 0.15773,1.29344 0.0526,0.44334 0.10516,0.89778 0.15774,1.35966 0.0526,0.46189 0.10515,0.93129 0.15772,1.4044 0.0526,0.47314 0.10516,0.95005 0.15774,1.42694"
       style="opacity:1;fill:none;fill-opacity:1;stroke:url(#linearGradient1228);stroke-width:1.90908897;stroke-linecap:butt;stroke-linejoin:miter;stroke-miterlimit:4;stroke-dasharray:none;stroke-opacity:0.99792528;paint-order:normal"
       inkscape:connector-curvature="0" />
    <rect
       style="opacity:0.7229996;fill:url(#radialGradient4760);fill-opacity:1;stroke:none;stroke-width:3.56790257;stroke-linecap:butt;stroke-linejoin:miter;stroke-miterlimit:4;stroke-dasharray:none;stroke-opacity:1;paint-order:normal;filter:url(#filter4610)"
       id="rect1368"
       width="338.86819"
       height="53.400391"
       x="-0.2006578"
       y="128.24081"
       transform="matrix(1.0189264,-0.00172372,0,0.75342456,-3.2034235,48.675962)" />
    <text
       xml:space="preserve"
       style="font-style:normal;font-variant:normal;font-weight:600;font-stretch:normal;font-size:22.57777786px;line-height:1.25;font-family:'Source Sans Pro';-inkscape-font-specification:'Source Sans Pro Semi-Bold';letter-spacing:0px;word-spacing:0px;fill:#ffffff;fill-opacity:1;stroke:none;stroke-width:0.26458332"
       x="55.906116"
       y="169.89371"
       id="text17"><tspan
         sodipodi:role="line"
         id="tspan15"
         x="55.906116"
         y="169.89371"
         style="font-size:22.57777977px;fill:#ffffff;stroke-width:0.26458332"><tspan
   style="font-size:22.57777977px;fill:#ff0000;fill-opacity:1;stroke-width:0.26458332"
   id="tspan862">U</tspan>niversal <tspan
   style="font-size:22.57777977px;fill:#ff0000;fill-opacity:1;stroke-width:0.26458332"
   id="tspan866">R</tspan>adio <tspan
   style="font-size:22.57777977px;fill:#ff0000;fill-opacity:1;stroke-width:0.26458332"
   id="tspan874">H</tspan>acker</tspan></text>
    <text
       xml:space="preserve"
       style="font-style:normal;font-variant:normal;font-weight:600;font-stretch:normal;font-size:9.87777805px;line-height:1.25;font-family:'Source Sans Pro';-inkscape-font-specification:'Source Sans Pro Semi-Bold';letter-spacing:0px;word-spacing:0px;fill:#ffffff;fill-opacity:1;stroke:none;stroke-width:0.26458335"
       x="81.418678"
       y="182.26888"
       id="text4616"><tspan
         sodipodi:role="line"
         id="tspan4614"
         x="81.418678"
         y="182.26888"
         style="font-style:normal;font-variant:normal;font-weight:600;font-stretch:normal;font-family:'Source Sans Pro';-inkscape-font-specification:'Source Sans Pro Semi-Bold';fill:#ffffff;stroke-width:0.26458335">Investigate Wireless Protocols Like A Boss</tspan></text>
  </g>
</svg>
