<?xml version="1.0" encoding="UTF-8" standalone="no"?>
<!-- Created with Inkscape (http://www.inkscape.org/) -->

<svg
   xmlns:dc="http://purl.org/dc/elements/1.1/"
   xmlns:cc="http://creativecommons.org/ns#"
   xmlns:rdf="http://www.w3.org/1999/02/22-rdf-syntax-ns#"
   xmlns:svg="http://www.w3.org/2000/svg"
   xmlns="http://www.w3.org/2000/svg"
   xmlns:sodipodi="http://sodipodi.sourceforge.net/DTD/sodipodi-0.dtd"
   xmlns:inkscape="http://www.inkscape.org/namespaces/inkscape"
   id="SVGRoot"
   version="1.1"
   viewBox="0 0 16 16"
   height="16px"
   width="16px"
   inkscape:version="0.92.2 5c3e80d, 2017-08-06"
   sodipodi:docname="appicon.svg"
   inkscape:export-filename="/home/ryu/util/Eigene Dateien/Subversion/urh/data/icons/appicon.png"
   inkscape:export-xdpi="3072"
   inkscape:export-ydpi="3072">
  <sodipodi:namedview
     inkscape:grid-bbox="true"
     inkscape:window-maximized="1"
     inkscape:window-y="0"
     inkscape:window-x="0"
     inkscape:window-height="1015"
     inkscape:window-width="1920"
     showgrid="false"
     inkscape:current-layer="SVGRoot"
     inkscape:document-units="px"
     inkscape:cy="8.3053634"
     inkscape:cx="1.4202257"
     inkscape:zoom="45.254834"
     inkscape:pageshadow="2"
     inkscape:pageopacity="1"
     borderopacity="1.0"
     bordercolor="#666666"
     pagecolor="#000000"
     id="base" />
  <defs
     id="defs4504">
    <filter
       style="color-interpolation-filters:sRGB;"
       inkscape:label="Drop Shadow"
       id="filter1010">
      <feFlood
         flood-opacity="0.498039"
         flood-color="rgb(0,0,0)"
         result="flood"
         id="feFlood1000" />
      <feComposite
         in="flood"
         in2="SourceGraphic"
         operator="in"
         result="composite1"
         id="feComposite1002" />
      <feGaussianBlur
         in="composite1"
         stdDeviation="0.5"
         result="blur"
         id="feGaussianBlur1004" />
      <feOffset
         dx="0.1"
         dy="0.1"
         result="offset"
         id="feOffset1006" />
      <feComposite
         in="SourceGraphic"
         in2="offset"
         operator="over"
         result="composite2"
         id="feComposite1008" />
    </filter>
    <filter
       style="color-interpolation-filters:sRGB;"
       inkscape:label="Drop Shadow"
       id="filter1022">
      <feFlood
         flood-opacity="0.498039"
         flood-color="rgb(0,0,0)"
         result="flood"
         id="feFlood1012" />
      <feComposite
         in="flood"
         in2="SourceGraphic"
         operator="in"
         result="composite1"
         id="feComposite1014" />
      <feGaussianBlur
         in="composite1"
         stdDeviation="0.5"
         result="blur"
         id="feGaussianBlur1016" />
      <feOffset
         dx="0.1"
         dy="0.1"
         result="offset"
         id="feOffset1018" />
      <feComposite
         in="SourceGraphic"
         in2="offset"
         operator="over"
         result="composite2"
         id="feComposite1020" />
    </filter>
    <filter
       style="color-interpolation-filters:sRGB;"
       inkscape:label="Drop Shadow"
       id="filter1034">
      <feFlood
         flood-opacity="0.498039"
         flood-color="rgb(0,0,0)"
         result="flood"
         id="feFlood1024" />
      <feComposite
         in="flood"
         in2="SourceGraphic"
         operator="in"
         result="composite1"
         id="feComposite1026" />
      <feGaussianBlur
         in="composite1"
         stdDeviation="0.5"
         result="blur"
         id="feGaussianBlur1028" />
      <feOffset
         dx="0.1"
         dy="0.1"
         result="offset"
         id="feOffset1030" />
      <feComposite
         in="SourceGraphic"
         in2="offset"
         operator="over"
         result="composite2"
         id="feComposite1032" />
    </filter>
    <filter
       style="color-interpolation-filters:sRGB;"
       inkscape:label="Blur"
       id="filter1132">
      <feGaussianBlur
         stdDeviation="2 2"
         result="blur"
         id="feGaussianBlur1130" />
    </filter>
  </defs>
  <metadata
     id="metadata4507">
    <rdf:RDF>
      <cc:Work
         rdf:about="">
        <dc:format>image/svg+xml</dc:format>
        <dc:type
           rdf:resource="http://purl.org/dc/dcmitype/StillImage" />
        <dc:title />
      </cc:Work>
    </rdf:RDF>
  </metadata>
  <g
     id="layer1"
     inkscape:groupmode="layer"
     inkscape:label="Ebene 1" />
  <path
     inkscape:connector-curvature="0"
     d="M 4.375,0.4375 V 15.5 l 8.543906,-7.53125 z"
     style="fill:#2a2aff;stroke:none;stroke-width:1.52377725;filter:url(#filter1132)"
     inkscape:label="Triangle"
     id="path5109"
     transform="matrix(1.3893482,0,0,0.98934384,-3.3234023,0.08491626)" />
  <path
     id="path5249"
     title="sin(x)"
     d="m 0.49018264,2.7450984 c 0.00227,-0.00793 0.00453,-0.015846 0.0068,-0.023767 0.00227,-0.00793 0.00453,-0.01584 0.0068,-0.023754 0.00227,-0.00791 0.00453,-0.015824 0.0068,-0.023728 0.00227,-0.00791 0.00453,-0.0158 0.0068,-0.023688 0.00227,-0.0079 0.00453,-0.015766 0.0068,-0.023635 0.00227,-0.00787 0.00453,-0.015725 0.0068,-0.023569 0.00227,-0.00786 0.00453,-0.015674 0.0068,-0.023489 0.00227,-0.00782 0.00453,-0.015616 0.0068,-0.023397 0.00227,-0.00779 0.00453,-0.015548 0.0068,-0.023292 0.00227,-0.00775 0.00453,-0.015471 0.0068,-0.023175 0.00227,-0.00771 0.00453,-0.015385 0.0068,-0.023044 0.00227,-0.00765 0.00453,-0.015292 0.0068,-0.022899 0.00227,-0.00761 0.00453,-0.015189 0.0068,-0.022742 0.00227,-0.00755 0.00453,-0.015079 0.0068,-0.022575 0.00227,-0.00749 0.00453,-0.01496 0.0068,-0.022391 0.00227,-0.00743 0.00453,-0.014831 0.0068,-0.022197 0.00227,-0.00735 0.00453,-0.014696 0.0068,-0.021991 0.00227,-0.00729 0.00453,-0.014552 0.0068,-0.021772 0.00227,-0.00722 0.00453,-0.014401 0.0068,-0.021541 0.00227,-0.00714 0.00453,-0.014241 0.0068,-0.021298 0.00227,-0.00706 0.00453,-0.014073 0.0068,-0.021044 0.00227,-0.00696 0.00453,-0.013896 0.0068,-0.020777 0.00227,-0.00688 0.00453,-0.013713 0.0068,-0.020498 0.00227,-0.00679 0.00453,-0.013524 0.0068,-0.02021 0.00227,-0.0067 0.00453,-0.013325 0.0068,-0.019909 0.00227,-0.0066 0.00453,-0.013117 0.0068,-0.019596 0.00227,-0.00648 0.00453,-0.012905 0.0068,-0.019274 0.00227,-0.00638 0.00453,-0.012683 0.0068,-0.018939 0.00227,-0.00626 0.00453,-0.012456 0.0068,-0.018595 0.00227,-0.00613 0.00453,-0.012221 0.0068,-0.018242 0.00227,-0.00602 0.00453,-0.01198 0.0068,-0.017877 0.00227,-0.0059 0.00453,-0.011732 0.0068,-0.017502 0.00227,-0.00577 0.00453,-0.011477 0.0068,-0.017119 0.00227,-0.00565 0.00453,-0.011216 0.0068,-0.016725 0.00227,-0.00551 0.00453,-0.010949 0.0068,-0.016322 0.00227,-0.00537 0.00453,-0.010676 0.0068,-0.015909 0.00227,-0.00523 0.00453,-0.010395 0.0068,-0.015488 0.00227,-0.0051 0.00453,-0.010111 0.0068,-0.015059 0.00227,-0.00495 0.00453,-0.00982 0.0068,-0.014621 0.00227,-0.0048 0.00453,-0.00953 0.0068,-0.014174 0.00227,-0.00464 0.00453,-0.00923 0.0068,-0.01372 0.00227,-0.0045 0.00453,-0.00891 0.0068,-0.013258 0.00227,-0.00433 0.00453,-0.0086 0.0068,-0.012788 0.00227,-0.00418 0.00453,-0.00829 0.0068,-0.012314 0.00227,-0.00403 0.00453,-0.00798 0.0068,-0.011831 0.00227,-0.00387 0.00453,-0.00764 0.0068,-0.01134 0.00227,-0.0037 0.00453,-0.0073 0.0068,-0.010845 0.00227,-0.00355 0.00453,-0.00698 0.0068,-0.010338 0.00227,-0.00336 0.00453,-0.00665 0.0068,-0.00983 0.00227,-0.00319 0.00453,-0.00631 0.0068,-0.00932 0.00227,-0.00302 0.00453,-0.00596 0.0068,-0.00881 0.00227,-0.00286 0.00453,-0.00561 0.0068,-0.00829 0.00227,-0.00267 0.00453,-0.00527 0.0068,-0.00776 0.00227,-0.0025 0.00453,-0.0049 0.0068,-0.00722 0.00227,-0.00232 0.00453,-0.00453 0.0068,-0.0067 0.00227,-0.00215 0.00453,-0.00418 0.0068,-0.00614 0.00227,-0.00196 0.00453,-0.00382 0.0068,-0.00561 0.00227,-0.00177 0.00453,-0.00345 0.0068,-0.00505 0.00227,-0.00159 0.00453,-0.00309 0.0068,-0.0045 0.00227,-0.00141 0.00453,-0.00272 0.0068,-0.00396 0.00227,-0.00123 0.00453,-0.00236 0.0068,-0.0034 0.00227,-0.00104 0.00453,-0.00199 0.0068,-0.00284 0.00227,-8.54e-4 0.00453,-0.00162 0.0068,-0.00229 0.00227,-6.742e-4 0.00453,-0.00126 0.0068,-0.00172 0.00227,-4.836e-4 0.00453,-8.783e-4 0.0068,-0.00117 0.00227,-2.959e-4 0.00453,-4.994e-4 0.0068,-6.121e-4 0.00227,-1.092e-4 0.00453,-1.247e-4 0.0068,-4.68e-5 0.00227,7.8e-5 0.00453,2.492e-4 0.0068,5.157e-4 0.00227,2.646e-4 0.00453,6.284e-4 0.0068,0.00108 0.00227,4.512e-4 0.00453,9.946e-4 0.0068,0.00163 0.00227,6.392e-4 0.00453,0.00137 0.0068,0.0022 0.00227,8.299e-4 0.00453,0.00174 0.0068,0.00276 0.00227,0.00101 0.00453,0.0021 0.0068,0.00331 0.00227,0.0012 0.00453,0.00249 0.0068,0.00387 0.00227,0.00137 0.00453,0.00286 0.0068,0.00442 0.00227,0.00156 0.00453,0.00323 0.0068,0.00496 0.00227,0.00174 0.00453,0.00359 0.0068,0.00551 0.00227,0.00192 0.00453,0.00396 0.0068,0.00606 0.00227,0.00211 0.00453,0.0043 0.0068,0.0066 0.00227,0.00229 0.00453,0.00465 0.0068,0.00713 0.00226,0.00248 0.00453,0.00503 0.0068,0.00765 0.00226,0.00264 0.00453,0.00537 0.0068,0.00819 0.00226,0.00282 0.00453,0.00572 0.0068,0.00871 0.00226,0.00299 0.00453,0.00607 0.0068,0.00924 0.00226,0.00316 0.00453,0.00643 0.0068,0.00975 0.00226,0.00333 0.00453,0.00677 0.0068,0.010255 0.00226,0.00352 0.00453,0.00708 0.0068,0.010761 0.00226,0.00367 0.00453,0.00742 0.0068,0.011259 0.00226,0.00384 0.00453,0.00776 0.00681,0.011749 0.00226,0.004 0.00453,0.00808 0.00681,0.012234 0.00226,0.00415 0.00453,0.0084 0.00681,0.012711 0.00226,0.00432 0.00453,0.00871 0.00681,0.013181 0.00226,0.00447 0.00453,0.00901 0.00681,0.013645 0.00226,0.00461 0.00453,0.00932 0.00681,0.014099 0.00226,0.00476 0.00453,0.00962 0.00681,0.014548 0.00226,0.00493 0.00453,0.00991 0.00681,0.014986 0.00226,0.00508 0.00453,0.010204 0.00681,0.015417 0.00226,0.00522 0.00453,0.01049 0.00681,0.015839 0.00226,0.00536 0.00453,0.010768 0.00681,0.016253 0.00226,0.00549 0.00453,0.011038 0.00681,0.016658 0.00226,0.00562 0.00453,0.011304 0.00681,0.017053 0.00226,0.00573 0.00453,0.011564 0.00681,0.01744 0.00226,0.00588 0.00453,0.011814 0.00681,0.017815 0.00226,0.006 0.00453,0.01206 0.00681,0.018181 0.00226,0.00612 0.00453,0.0123 0.00681,0.018539 0.00226,0.00624 0.00453,0.012532 0.00681,0.018883 0.00226,0.00636 0.00453,0.012756 0.00681,0.019217 0.00226,0.00646 0.00453,0.012976 0.00681,0.019543 0.00226,0.00656 0.00453,0.013186 0.00681,0.019856 0.00226,0.00668 0.00453,0.01339 0.00681,0.020158 0.00226,0.00678 0.00453,0.013586 0.00681,0.020451 0.00226,0.00685 0.00453,0.013775 0.00681,0.020732 0.00226,0.00695 0.00453,0.013957 0.00681,0.020998 0.00226,0.00704 0.00453,0.014129 0.00681,0.021255 0.00226,0.00713 0.00453,0.014294 0.00681,0.021501 0.00226,0.00721 0.00453,0.014452 0.00681,0.021734 0.00226,0.00727 0.00453,0.014601 0.00681,0.021954 0.00226,0.00735 0.00453,0.014743 0.00681,0.022164 0.00226,0.00742 0.00453,0.014875 0.00681,0.02236 0.00226,0.00748 0.00453,0.015 0.00681,0.022543 0.00226,0.00754 0.00453,0.015116 0.00681,0.022715 0.00226,0.00759 0.00453,0.015225 0.00681,0.022875 0.00226,0.00764 0.00453,0.015325 0.00681,0.02302 0.00226,0.00769 0.00453,0.015413 0.00681,0.023155 0.00226,0.00773 0.00453,0.015496 0.00681,0.023274 0.00226,0.00778 0.00453,0.01557 0.00681,0.02338 0.00226,0.00781 0.00453,0.015636 0.00681,0.023476 0.00226,0.00784 0.00453,0.015692 0.00681,0.023557 0.00226,0.00787 0.00453,0.01574 0.00681,0.023624 0.00226,0.00788 0.00453,0.015779 0.00681,0.02368 0.00226,0.00791 0.00453,0.015808 0.00681,0.023721 0.00226,0.00791 0.00453,0.01583 0.00681,0.02375 0.00226,0.00793 0.00453,0.015842 0.00681,0.023767 0.00226,0.00793 0.00453,0.015845 0.00681,0.023768 0.00226,0.00793 0.00453,0.015841 0.00681,0.023757 0.00226,0.00791 0.00453,0.015827 0.00681,0.023734 0.00226,0.00791 0.00453,0.015804 0.00681,0.023697 0.00226,0.0079 0.00453,0.015773 0.00681,0.023645 0.00226,0.00787 0.00453,0.015733 0.00681,0.023581 0.00226,0.00786 0.00453,0.015683 0.00681,0.023504 0.00226,0.00782 0.00453,0.015626 0.00681,0.023414 0.00226,0.00779 0.00453,0.015559 0.00681,0.023311 0.00226,0.00776 0.00453,0.015484 0.00681,0.023196 0.00226,0.00772 0.00453,0.015399 0.00681,0.023065 0.00226,0.00766 0.00453,0.015308 0.00681,0.022924 0.00226,0.00762 0.00453,0.015206 0.00681,0.02277 0.00226,0.00755 0.00453,0.015098 0.00681,0.022603 0.00226,0.0075 0.00453,0.014979 0.00681,0.022422 0.00226,0.00744 0.00453,0.014853 0.00681,0.022231 0.00226,0.00737 0.00453,0.01472 0.00681,0.022028 0.00226,0.0073 0.00453,0.014576 0.00681,0.021809 0.00226,0.00723 0.00453,0.014425 0.00681,0.021579 0.00226,0.00716 0.00453,0.014267 0.00681,0.021339 0.00226,0.00707 0.00453,0.0141 0.00681,0.021086 0.00226,0.00698 0.00453,0.013927 0.00681,0.020822 0.00226,0.00688 0.00453,0.013743 0.00681,0.020545 0.00226,0.00681 0.00453,0.013554 0.00681,0.020258 0.00226,0.0067 0.00453,0.013357 0.00681,0.019958 0.00226,0.00661 0.00453,0.013153 0.00681,0.019648 0.00226,0.0065 0.00453,0.012941 0.00681,0.019328 0.00226,0.00641 0.00453,0.01272 0.00681,0.018996 0.00226,0.00628 0.00453,0.012494 0.00681,0.018655 0.00226,0.00616 0.00453,0.012262 0.00681,0.018303 0.00226,0.00605 0.00453,0.012021 0.00681,0.017937 0.00226,0.00592 0.00453,0.011773 0.00681,0.017567 0.00226,0.0058 0.00453,0.011521 0.00681,0.017184 0.00226,0.00566 0.00453,0.011261 0.00681,0.016791 0.00226,0.00554 0.00453,0.010994 0.00681,0.016389 0.00226,0.0054 0.00453,0.010722 0.00681,0.015979 0.00226,0.00527 0.00453,0.010443 0.00681,0.015559 0.00226,0.00512 0.00453,0.010152 0.00681,0.01513 0.00226,0.00498 0.00453,0.00987 0.00681,0.014695 0.00226,0.00483 0.00453,0.00958 0.00681,0.014249 0.00226,0.00467 0.00453,0.00928 0.00681,0.013797 0.00226,0.00452 0.00453,0.00896 0.00681,0.013336 0.00226,0.00436 0.00453,0.00866 0.00681,0.012868 0.00226,0.0042 0.00453,0.00834 0.00681,0.012393 0.00226,0.00406 0.00453,0.00803 0.00681,0.011911 0.00226,0.00389 0.00453,0.00771 0.00681,0.011422 0.00226,0.00373 0.00453,0.00736 0.00681,0.010928 0.00226,0.00358 0.00453,0.00703 0.00681,0.010427 0.00226,0.00338 0.00453,0.0067 0.00681,0.00992 0.00226,0.00323 0.00453,0.00638 0.00681,0.00941 0.00226,0.00305 0.00453,0.00602 0.00681,0.00889 0.00226,0.00287 0.00453,0.00567 0.00681,0.00837 0.00226,0.00271 0.00453,0.00532 0.00681,0.00784 0.00226,0.00253 0.00453,0.00496 0.00681,0.0073 0.00226,0.00235 0.00453,0.0046 0.00681,0.00679 0.00226,0.00216 0.00453,0.00424 0.00681,0.00623 0.00226,0.00199 0.00453,0.00389 0.00681,0.00568 0.00226,0.0018 0.00453,0.00353 0.00681,0.00515 0.00226,0.00163 0.00453,0.00315 0.00681,0.00459 0.00226,0.00144 0.00453,0.00279 0.00681,0.00406 0.00226,0.00126 0.00453,0.00243 0.00681,0.00348 0.00226,0.00106 0.00453,0.00204 0.00681,0.00293 0.00226,8.864e-4 0.00453,0.00168 0.00681,0.00239 0.00226,7.007e-4 0.00453,0.00132 0.00681,0.00181 0.00226,5.159e-4 0.00453,9.347e-4 0.00681,0.00126 0.00226,3.269e-4 0.00453,5.64e-4 0.00681,7.006e-4 0.00226,1.403e-4 0.00453,1.867e-4 0.00681,1.402e-4 0.00226,-4.67e-5 0.00453,-1.871e-4 0.00681,-4.188e-4 0.00226,-2.334e-4 0.00453,-5.641e-4 0.00681,-9.751e-4 0.00226,-4.19e-4 0.00453,-9.346e-4 0.00681,-0.00153 0.00226,-6.122e-4 0.00453,-0.00132 0.00681,-0.00211 0.00226,-7.926e-4 0.00453,-0.00168 0.00681,-0.00266 0.00226,-9.75e-4 0.00453,-0.00204 0.00681,-0.00322 0.00226,-0.00116 0.00453,-0.00243 0.00681,-0.00377 0.00226,-0.00135 0.00453,-0.00279 0.00681,-0.00432 0.00226,-0.00153 0.00453,-0.00315 0.00681,-0.00487 0.00226,-0.00172 0.00453,-0.00353 0.00681,-0.00541 0.00226,-0.00189 0.00453,-0.00389 0.00681,-0.00597 0.00226,-0.00207 0.00453,-0.00424 0.00681,-0.0065 0.00226,-0.00225 0.00453,-0.0046 0.00681,-0.00704 0.00226,-0.00244 0.00453,-0.00496 0.00681,-0.00758 0.00226,-0.00262 0.00453,-0.00532 0.00681,-0.00811 0.00226,-0.00279 0.00453,-0.00567 0.00681,-0.00863 0.00226,-0.00296 0.00453,-0.00602 0.00681,-0.00916 0.00226,-0.00314 0.00453,-0.00638 0.00681,-0.00966 0.00226,-0.00331 0.00453,-0.0067 0.00681,-0.010173 0.00226,-0.00348 0.00453,-0.00703 0.00681,-0.010678 0.00226,-0.00365 0.00453,-0.00736 0.00681,-0.011176 0.00226,-0.00381 0.00453,-0.00771 0.00681,-0.011669 0.00226,-0.00397 0.00453,-0.00803 0.00681,-0.012154 0.00226,-0.00413 0.00453,-0.00834 0.00681,-0.012632 0.00226,-0.00428 0.00453,-0.00866 0.00681,-0.013103 0.00226,-0.00445 0.00453,-0.00896 0.00681,-0.013567 0.00226,-0.00459 0.00453,-0.00928 0.00681,-0.014024 0.00226,-0.00476 0.00453,-0.00958 0.00681,-0.014473 0.00226,-0.00489 0.00453,-0.00987 0.00681,-0.014913 0.00226,-0.00504 0.00453,-0.010153 0.00681,-0.015346 0.00226,-0.00518 0.00453,-0.010443 0.00681,-0.015769 0.00226,-0.00532 0.00453,-0.010722 0.00681,-0.016185 0.00226,-0.00546 0.00453,-0.010994 0.00681,-0.016591 0.00226,-0.00561 0.00453,-0.011261 0.00681,-0.016988 0.00226,-0.00573 0.00453,-0.01152 0.00681,-0.017375 0.00226,-0.00585 0.00453,-0.011773 0.00681,-0.017753 0.00226,-0.00598 0.00453,-0.012021 0.00681,-0.018122 0.00226,-0.0061 0.00453,-0.012262 0.00681,-0.018479 0.00226,-0.00621 0.00453,-0.012495 0.00681,-0.018827 0.00226,-0.00634 0.00453,-0.01272 0.00681,-0.019164 0.00226,-0.00646 0.00453,-0.012941 0.00681,-0.01949 0.00226,-0.00656 0.00453,-0.013153 0.00681,-0.019805 0.00226,-0.00666 0.00453,-0.013357 0.00681,-0.020111 0.00226,-0.00677 0.00453,-0.013554 0.00681,-0.020403 0.00226,-0.00685 0.00453,-0.013745 0.00681,-0.020685 0.00226,-0.00693 0.00453,-0.013927 0.00681,-0.020955 0.00226,-0.00703 0.00453,-0.014101 0.00681,-0.021215 0.00226,-0.00711 0.00453,-0.014267 0.00681,-0.021462 0.00226,-0.00719 0.00453,-0.014425 0.00681,-0.021694 0.00226,-0.00726 0.00453,-0.014577 0.00681,-0.021919 0.00226,-0.00733 0.00453,-0.01472 0.00681,-0.022129 0.00226,-0.0074 0.00453,-0.014853 0.00681,-0.02233 0.00226,-0.00747 0.00453,-0.01498 0.00681,-0.022514 0.00226,-0.00754 0.00453,-0.015098 0.00681,-0.022688 0.00226,-0.00759 0.00453,-0.015207 0.00681,-0.02285 0.00226,-0.00764 0.00453,-0.015308 0.00681,-0.022997 0.00226,-0.00769 0.00453,-0.0154 0.00681,-0.023132 0.00226,-0.00773 0.00453,-0.015484 0.00681,-0.023255 0.00226,-0.00777 0.00453,-0.015559 0.00681,-0.023364 0.00226,-0.00781 0.00453,-0.015626 0.00681,-0.023461 0.00226,-0.00784 0.00453,-0.015683 0.00681,-0.023543 0.00226,-0.00786 0.00453,-0.015733 0.00681,-0.023615 0.00226,-0.00788 0.00453,-0.015773 0.00681,-0.02367 0.00226,-0.00791 0.00453,-0.015805 0.00681,-0.023716 0.00226,-0.00791 0.00453,-0.015827 0.00681,-0.023747 0.00226,-0.00793 0.00453,-0.015841 0.00681,-0.023764 0.00226,-0.00793 0.00453,-0.015845 0.00681,-0.023768 0.00226,-0.00793 0.00453,-0.015843 0.00681,-0.02376 0.00226,-0.00793 0.00453,-0.015831 0.00681,-0.023738 0.00226,-0.00791 0.00453,-0.015808 0.00681,-0.023702 0.00226,-0.0079 0.00453,-0.015779 0.00681,-0.023653 0.00226,-0.00788 0.00453,-0.015741 0.00681,-0.023593 0.00226,-0.00786 0.00453,-0.015692 0.00681,-0.023518 0.00226,-0.00783 0.00453,-0.015636 0.00681,-0.023431 0.00226,-0.0078 0.00453,-0.015573 0.00681,-0.023329 0.00226,-0.00776 0.00453,-0.015496 0.00681,-0.023215 0.00226,-0.00772 0.00453,-0.015413 0.00681,-0.023088 0.00226,-0.00766 0.00453,-0.015325 0.00681,-0.022949 0.00226,-0.00763 0.00453,-0.015225 0.00681,-0.022796 0.00226,-0.00758 0.00453,-0.015117 0.00681,-0.022632 0.00226,-0.00751 0.00453,-0.015 0.00681,-0.022454 0.00226,-0.00745 0.00453,-0.014875 0.00681,-0.022264 0.00226,-0.00737 0.00453,-0.014744 0.00681,-0.022061 0.00226,-0.00731 0.00453,-0.0146 0.00681,-0.021846 0.00226,-0.00725 0.00453,-0.014451 0.00681,-0.021619 0.00226,-0.00716 0.00453,-0.014294 0.00681,-0.021379 0.00226,-0.00708 0.00453,-0.014129 0.00681,-0.021129 0.00226,-0.00699 0.00453,-0.013957 0.00681,-0.020866 0.00226,-0.00691 0.00453,-0.013774 0.00681,-0.020592 0.00226,-0.00682 0.00453,-0.013586 0.00681,-0.020306 0.00226,-0.00672 0.00453,-0.01339 0.00681,-0.020009 0.00226,-0.00662 0.00453,-0.013186 0.00681,-0.019701 0.00226,-0.00651 0.00453,-0.012975 0.00681,-0.019383 0.00226,-0.00643 0.00453,-0.012757 0.00681,-0.019052 0.00226,-0.00631 0.00453,-0.012532 0.00681,-0.01871 0.00226,-0.00617 0.00453,-0.012301 0.00681,-0.018362 0.00226,-0.00606 0.00453,-0.01206 0.00681,-0.017999 0.00226,-0.00594 0.00453,-0.011816 0.00681,-0.017627 0.00226,-0.00581 0.00453,-0.011564 0.00681,-0.017246 0.00226,-0.00568 0.00453,-0.011305 0.00681,-0.016858 0.00226,-0.00555 0.00453,-0.011038 0.00681,-0.016456 0.00226,-0.00541 0.00453,-0.010768 0.00681,-0.016047 0.00226,-0.00527 0.00453,-0.01049 0.00681,-0.015629 0.00226,-0.00514 0.00453,-0.010203 0.00681,-0.015203 0.00226,-0.00499 0.00453,-0.00991 0.00681,-0.014768 0.00226,-0.00484 0.00453,-0.00962 0.00681,-0.014322 0.00226,-0.00469 0.00453,-0.00932 0.00681,-0.013872 0.00226,-0.00454 0.00453,-0.00901 0.00681,-0.013414 0.00226,-0.00439 0.00453,-0.00871 0.00681,-0.012947 0.00226,-0.00423 0.00453,-0.0084 0.00681,-0.012473 0.00226,-0.00409 0.00453,-0.00808 0.00681,-0.011992 0.00226,-0.00392 0.00453,-0.00776 0.00681,-0.011504 0.00226,-0.00376 0.00453,-0.00742 0.00681,-0.01101 0.00226,-0.00359 0.00453,-0.00708 0.00681,-0.010511 0.00226,-0.00343 0.00453,-0.00677 0.00681,-0.010007 0.00226,-0.00326 0.00453,-0.00643 0.00681,-0.0095 0.00226,-0.00308 0.00453,-0.00607 0.00681,-0.00897 0.00226,-0.0029 0.00453,-0.00572 0.00681,-0.00845 0.00226,-0.00272 0.00453,-0.00537 0.00681,-0.00794 0.00226,-0.00256 0.00453,-0.00503 0.00681,-0.0074 0.00226,-0.00239 0.00453,-0.00465 0.00681,-0.00685 0.00226,-0.0022 0.00453,-0.0043 0.00681,-0.00633 0.00226,-0.00201 0.00453,-0.00396 0.00681,-0.00577 0.00226,-0.00183 0.00453,-0.00359 0.00681,-0.00525 0.00226,-0.00165 0.00453,-0.00323 0.00681,-0.00467 0.00226,-0.00147 0.00453,-0.00286 0.00681,-0.00413 0.00226,-0.0013 0.00453,-0.00249 0.00681,-0.00359 0.00226,-0.00111 0.00453,-0.00211 0.00681,-0.00304 0.00226,-9.186e-4 0.00453,-0.00174 0.00681,-0.00248 0.00226,-7.332e-4 0.00453,-0.00137 0.00681,-0.00191 0.00226,-5.476e-4 0.00453,-9.946e-4 0.00681,-0.00135 0.00226,-3.583e-4 0.00453,-6.284e-4 0.00681,-7.925e-4 0.00226,-1.713e-4 0.00453,-2.492e-4 0.00681,-2.333e-4 0.00226,1.54e-5 0.00453,1.246e-4 0.00681,3.269e-4 0.00226,2.024e-4 0.00453,4.997e-4 0.00681,8.863e-4 0.00226,3.89e-4 0.00453,8.783e-4 0.00681,0.00144 0.00226,5.801e-4 0.00453,0.00126 0.00681,0.002 0.00226,7.696e-4 0.00453,0.00162 0.00681,0.00257 0.00226,9.426e-4 0.00453,0.00199 0.00681,0.00312 0.00226,0.00113 0.00453,0.00236 0.00681,0.00369 0.00226,0.00133 0.00453,0.00272 0.00681,0.00423 0.00226,0.0015 0.00453,0.00309 0.00681,0.00478 0.00226,0.00168 0.00453,0.00345 0.00681,0.00532 0.00226,0.00186 0.00453,0.00382 0.00681,0.00587 0.00226,0.00204 0.00453,0.00418 0.00681,0.00643 0.00226,0.00222 0.00453,0.00453 0.00681,0.00695 0.00226,0.00242 0.00453,0.0049 0.00681,0.00748 0.00226,0.00258 0.00453,0.00527 0.00681,0.00802 0.00226,0.00276 0.00453,0.00561 0.00681,0.00854 0.00226,0.00294 0.00453,0.00596 0.00681,0.00906 0.00226,0.00311 0.00453,0.00632 0.00681,0.00959 0.00226,0.00329 0.00453,0.00665 0.00681,0.01009 0.00226,0.00345 0.00453,0.00698 0.00681,0.010596 0.00226,0.00363 0.00453,0.0073 0.00681,0.011093 0.00226,0.00378 0.00453,0.00764 0.00681,0.011585 0.00226,0.00396 0.00453,0.00798 0.00681,0.012074 0.00226,0.00411 0.00453,0.00829 0.00681,0.012553 0.00226,0.00425 0.00453,0.0086 0.00681,0.013024 0.00226,0.00442 0.00453,0.00891 0.00681,0.01349 0.00226,0.00456 0.00453,0.00923 0.00681,0.013949 0.00226,0.00472 0.00453,0.00953 0.00681,0.014397 0.00226,0.00487 0.00453,0.00982 0.00681,0.01484 0.00226,0.00503 0.00453,0.010111 0.00681,0.015274 0.00226,0.00516 0.00453,0.010395 0.00681,0.015699 0.00226,0.0053 0.00453,0.010676 0.00681,0.016117 0.00226,0.00544 0.00453,0.010949 0.00681,0.016523 0.00226,0.00558 0.00453,0.011216 0.00681,0.016923 0.00226,0.0057 0.00453,0.011479 0.00681,0.017311 0.00226,0.00583 0.00453,0.011733 0.00681,0.017691 0.00226,0.00596 0.00453,0.01198 0.00681,0.018061 0.00226,0.00608 0.00453,0.012222 0.00681,0.01842 0.00226,0.00619 0.00453,0.012455 0.00681,0.018768 0.00226,0.00632 0.00453,0.012683 0.00681,0.019109 0.00226,0.00643 0.00453,0.012904 0.00681,0.019436 0.00226,0.00653 0.00453,0.013117 0.00681,0.019752 0.00226,0.00664 0.00453,0.013323 0.00681,0.020061 0.00226,0.00675 0.00453,0.013522 0.00681,0.020356 0.00226,0.00683 0.00453,0.013713 0.00681,0.020639 0.00226,0.00692 0.00453,0.013897 0.00681,0.020911 0.00226,0.00701 0.00453,0.014073 0.00681,0.021171 0.00226,0.0071 0.00453,0.014241 0.00681,0.02142 0.00226,0.00718 0.00453,0.014401 0.00681,0.021657 0.00226,0.00725 0.00453,0.014552 0.00681,0.021883 0.00226,0.00732 0.00453,0.014697 0.00681,0.022096 0.00226,0.0074 0.00453,0.014832 0.00681,0.022297 0.00226,0.00746 0.00453,0.01496 0.00681,0.022484 0.00226,0.00752 0.00453,0.015079 0.00681,0.02266 0.00226,0.00758 0.00453,0.015189 0.00681,0.022821 0.00226,0.00763 0.00453,0.015293 0.00681,0.022972 0.00226,0.00767 0.00453,0.015385 0.00681,0.023111 0.00226,0.00772 0.00453,0.015472 0.00681,0.023235 0.00226,0.00777 0.00453,0.015547 0.00681,0.023347 0.00226,0.0078 0.00453,0.015616 0.00681,0.023446 0.00226,0.00783 0.00453,0.015675 0.00681,0.023531 0.00226,0.00786 0.00453,0.015725 0.00681,0.023603 0.00226,0.00788 0.00453,0.015767 0.00681,0.023663 0.00226,0.00791 0.00453,0.0158 0.00681,0.023711 0.00226,0.00791 0.00453,0.015824 0.00681,0.023743 0.00226,0.00793 0.00453,0.01584 0.00681,0.023762 0.00226,0.00793 0.00453,0.015845 0.00681,0.02377 0.00226,0.00793 0.00453,0.015845 0.00681,0.023762 0.00226,0.00793 0.00453,0.015834 0.00681,0.023743 0.00226,0.00791 0.00453,0.015812 0.00681,0.023711 0.00226,0.00791 0.00453,0.015783 0.00681,0.023663 0.00226,0.00788 0.00453,0.015747 0.00681,0.023603 0.00226,0.00786 0.00453,0.0157 0.00681,0.023531 0.00226,0.00783 0.00453,0.015646 0.00681,0.023447 0.00226,0.0078 0.00453,0.015583 0.00681,0.023347 0.00226,0.00777 0.00453,0.01551 0.00681,0.023235 0.00226,0.00772 0.00453,0.015428 0.00681,0.023109 0.00226,0.00767 0.00453,0.01534 0.00681,0.022971 0.00226,0.00763 0.00453,0.015242 0.00681,0.022822 0.00226,0.00758 0.00453,0.015135 0.00681,0.02266 0.00226,0.00752 0.00453,0.015022 0.00681,0.022484 0.00226,0.00746 0.00453,0.014897 0.00681,0.022297 0.00226,0.0074 0.00453,0.014765 0.00681,0.022096 0.00226,0.00732 0.00453,0.014626 0.00681,0.021883 0.00226,0.00725 0.00453,0.014477 0.00681,0.021657 0.00226,0.00718 0.00453,0.014321 0.00681,0.02142 0.00226,0.0071 0.00453,0.014157 0.00681,0.021171 0.00226,0.00701 0.00453,0.013985 0.00681,0.020911 0.00226,0.00692 0.00453,0.013807 0.00681,0.020639 0.00226,0.00683 0.00453,0.013619 0.00681,0.020356 0.00226,0.00675 0.00453,0.013423 0.00681,0.020059 0.00226,0.00664 0.00453,0.013222 0.00681,0.019753 0.00226,0.00653 0.00453,0.013011 0.00681,0.019436 0.00226,0.00643 0.00453,0.012795 0.00681,0.019109 0.00226,0.00632 0.00453,0.01257 0.00681,0.018768 0.00226,0.00619 0.00453,0.012339 0.00681,0.01842 0.00226,0.00608 0.00453,0.012102 0.00681,0.018061 0.00226,0.00596 0.00453,0.011856 0.00681,0.017691 0.00226,0.00583 0.00453,0.011606 0.00681,0.017311 0.00226,0.0057 0.00453,0.011345 0.00681,0.016923 0.00226,0.00558 0.00453,0.011082 0.00681,0.016523 0.00226,0.00544 0.00453,0.010812 0.00681,0.016116 0.00226,0.0053 0.00453,0.010536 0.00681,0.015699 0.00226,0.00516 0.00453,0.010245 0.00681,0.015273 0.00226,0.00503 0.00453,0.00997 0.00681,0.01484 0.00226,0.00487 0.00453,0.00967 0.00681,0.014398 0.00226,0.00472 0.00453,0.00937 0.00681,0.013949 0.00226,0.00456 0.00453,0.00907 0.00681,0.01349 0.00226,0.00442 0.00453,0.00877 0.00681,0.013024 0.00226,0.00425 0.00453,0.00844 0.00681,0.012553 0.00226,0.00411 0.00453,0.00813 0.00681,0.012074 0.00226,0.00396 0.00453,0.00781 0.00681,0.011585 0.00226,0.00378 0.00453,0.00747 0.00681,0.011093 0.00226,0.00363 0.00453,0.00715 0.00681,0.010595 0.00226,0.00345 0.00453,0.00682 0.00681,0.01009 0.00226,0.00329 0.00453,0.00648 0.00681,0.00959 0.00226,0.00311 0.00453,0.00612 0.00681,0.00906 0.00226,0.00294 0.00453,0.00577 0.00681,0.00854 0.00226,0.00276 0.00453,0.00544 0.00681,0.00802 0.00226,0.00257 0.00453,0.00508 0.00681,0.00748 0.00226,0.00242 0.00453,0.00472 0.00681,0.00695 0.00226,0.00222 0.00453,0.00436 0.00681,0.00643 0.00226,0.00204 0.00453,0.00402 0.00681,0.00587 0.00226,0.00186 0.00453,0.00365 0.00681,0.00532 0.00226,0.00168 0.00453,0.00329 0.00681,0.00478 0.00226,0.0015 0.00453,0.00291 0.00681,0.00423 0.00226,0.00133 0.00453,0.00254 0.00681,0.00369 0.00226,0.00113 0.00453,0.00218 0.00681,0.00312 0.00226,9.428e-4 0.00453,0.0018 0.00681,0.00257 0.00226,7.596e-4 0.00453,0.00142 0.00681,0.002 0.00226,5.8e-4 0.00453,0.00106 0.00681,0.00145 0.00226,3.898e-4 0.00453,6.874e-4 0.00681,8.863e-4 0.00226,2.026e-4 0.00453,3.114e-4 0.00681,3.266e-4 0.00226,1.58e-5 0.00453,-6.23e-5 0.00681,-2.329e-4 0.00226,-1.713e-4 0.00453,-4.351e-4 0.00681,-7.924e-4 0.00226,-3.573e-4 0.00453,-8.138e-4 0.00681,-0.00136 0.00226,-5.48e-4 0.00453,-0.00118 0.00681,-0.00191 0.00226,-7.334e-4 0.00453,-0.00155 0.00681,-0.00248 0.00226,-9.184e-4 0.00453,-0.00192 0.00681,-0.00304 0.00226,-0.00111 0.00453,-0.0023 0.00681,-0.00359 0.00226,-0.00131 0.00453,-0.00267 0.00681,-0.00413 0.00226,-0.00147 0.00453,-0.00304 0.00681,-0.00468 0.00226,-0.00165 0.00453,-0.0034 0.00681,-0.00525 0.00226,-0.00183 0.00453,-0.00377 0.00681,-0.00577 0.00226,-0.00201 0.00453,-0.00412 0.00681,-0.00633 0.00226,-0.0022 0.00453,-0.00448 0.00681,-0.00685 0.00226,-0.00239 0.00453,-0.00484 0.00681,-0.0074 0.00226,-0.00256 0.00453,-0.0052 0.00681,-0.00794 0.00226,-0.00272 0.00453,-0.00555 0.00681,-0.00845 0.00226,-0.0029 0.00453,-0.0059 0.00681,-0.00897 0.00226,-0.00308 0.00453,-0.00624 0.00681,-0.0095 0.00226,-0.00326 0.00453,-0.0066 0.00681,-0.010007 0.00226,-0.00343 0.00453,-0.00692 0.00681,-0.010511 0.00226,-0.00359 0.00453,-0.00725 0.00681,-0.011011 0.00226,-0.00376 0.00453,-0.00759 0.00681,-0.011504 0.00226,-0.00392 0.00453,-0.00791 0.00681,-0.011994 0.00226,-0.00409 0.00453,-0.00824 0.00681,-0.012473 0.00226,-0.00423 0.00453,-0.00856 0.00681,-0.012946 0.00226,-0.00439 0.00453,-0.00885 0.00681,-0.013413 0.00226,-0.00454 0.00453,-0.00918 0.00681,-0.013873 0.00226,-0.00469 0.00453,-0.00948 0.00681,-0.014323 0.00226,-0.00484 0.00453,-0.00977 0.00681,-0.014768 0.00226,-0.00499 0.00453,-0.010059 0.00681,-0.015203 0.00226,-0.00514 0.00453,-0.010349 0.00681,-0.015629 0.00226,-0.00527 0.00453,-0.01063 0.00681,-0.016046 0.00226,-0.00541 0.00453,-0.010904 0.00681,-0.016456 0.00226,-0.00555 0.00453,-0.011173 0.00681,-0.016858 0.00226,-0.00568 0.00453,-0.011433 0.00681,-0.017246 0.00226,-0.00581 0.00453,-0.011691 0.00681,-0.017627 0.00226,-0.00594 0.00453,-0.011938 0.00681,-0.017999 0.00226,-0.00606 0.00453,-0.01218 0.00681,-0.018361 0.00226,-0.00617 0.00453,-0.012416 0.00681,-0.018712 0.00226,-0.00631 0.00453,-0.012648 0.00681,-0.019052 0.00226,-0.00643 0.00453,-0.012868 0.00681,-0.019383 0.00226,-0.00651 0.00453,-0.013083 0.00681,-0.019702 0.00226,-0.00662 0.00453,-0.01329 0.00681,-0.020009 0.00226,-0.00672 0.00453,-0.01349 0.00681,-0.020306 0.00226,-0.00682 0.00453,-0.013683 0.00681,-0.020591 0.00226,-0.00691 0.00453,-0.013867 0.00681,-0.020866 0.00226,-0.00699 0.00453,-0.014042 0.00681,-0.021129 0.00226,-0.00708 0.00453,-0.014214 0.00681,-0.021379 0.00226,-0.00716 0.00453,-0.014373 0.00681,-0.021619 0.00226,-0.00725 0.00453,-0.014528 0.00681,-0.021846 0.00226,-0.00731 0.00453,-0.014671 0.00681,-0.022061 0.00226,-0.00737 0.00453,-0.01481 0.00681,-0.022264 0.00226,-0.00745 0.00453,-0.01494 0.00681,-0.022454 0.00226,-0.00751 0.00453,-0.01506 0.00681,-0.022631 0.00226,-0.00758 0.00453,-0.015172 0.00681,-0.022796 0.00226,-0.00763 0.00453,-0.015275 0.00681,-0.022949 0.00226,-0.00766 0.00453,-0.015371 0.00681,-0.023089 0.00226,-0.00772 0.00453,-0.015457 0.00681,-0.023216 0.00226,-0.00776 0.00453,-0.015534 0.00681,-0.023329 0.00226,-0.0078 0.00453,-0.015604 0.00681,-0.023431 0.00226,-0.00783 0.00453,-0.015665 0.00681,-0.023518 0.00226,-0.00786 0.00453,-0.015718 0.00681,-0.023594 0.00226,-0.00788 0.00453,-0.015761 0.00681,-0.023654 0.00226,-0.0079 0.00453,-0.015795 0.00681,-0.023703 0.00226,-0.00791 0.00453,-0.015821 0.00681,-0.023739 0.00226,-0.00793 0.00453,-0.015838 0.00681,-0.02376 0.00226,-0.00793 0.00453,-0.015846 0.00681,-0.023769 0.00226,-0.00793 0.00453,-0.015844 0.00681,-0.023764 0.00226,-0.00793 0.00453,-0.015835 0.00681,-0.023747 0.00226,-0.00791 0.00453,-0.015816 0.00681,-0.023717 0.00226,-0.00791 0.00453,-0.015788 0.00681,-0.02367 0.00226,-0.00788 0.00453,-0.015755 0.00681,-0.023614 0.00226,-0.00786 0.00453,-0.015708 0.00681,-0.023545 0.00226,-0.00784 0.00453,-0.015656 0.00681,-0.023461 0.00226,-0.00781 0.00453,-0.015594 0.00681,-0.023364 0.00226,-0.00777 0.00453,-0.015524 0.00681,-0.023252 0.00226,-0.00773 0.00453,-0.015444 0.00681,-0.023132 0.00226,-0.00769 0.00453,-0.015356 0.00681,-0.022997 0.00226,-0.00764 0.00453,-0.015259 0.00681,-0.02285 0.00229,-0.00759 0.00453,-0.015153 0.0068,-0.022688 0.00229,-0.00754 0.00453,-0.015041 0.00681,-0.022514 0.00229,-0.00747 0.00453,-0.014917 0.0068,-0.02233 0.00229,-0.0074 0.00453,-0.014788 0.0068,-0.022129 0.00229,-0.00733 0.00453,-0.014649 0.00681,-0.021918 0.00229,-0.00726 0.00453,-0.014503 0.0068,-0.021694 0.00229,-0.00719 0.00453,-0.014348 0.0068,-0.021462 0.00229,-0.00711 0.00453,-0.014185 0.00681,-0.021215 0.00229,-0.00703 0.00453,-0.014014 0.0068,-0.020955 0.00229,-0.00693 0.00453,-0.013836 0.0068,-0.020685 0.00229,-0.00685 0.00453,-0.01365 0.00681,-0.020403 0.00229,-0.00677 0.00453,-0.013457 0.0068,-0.020111 0.00229,-0.00666 0.00453,-0.013255 0.0068,-0.019805 0.00229,-0.00656 0.00453,-0.013047 0.0068,-0.01949 0.00229,-0.00646 0.00453,-0.012832 0.0068,-0.019163 0.00229,-0.00634 0.00453,-0.012608 0.0068,-0.018827 0.00229,-0.00621 0.00453,-0.012379 0.00681,-0.018478 0.00229,-0.0061 0.00453,-0.012141 0.0068,-0.018121 0.00229,-0.00598 0.00453,-0.011897 0.0068,-0.017753 0.00229,-0.00585 0.00453,-0.011647 0.0068,-0.017375 0.00229,-0.00573 0.00453,-0.01139 0.0068,-0.016988 0.00229,-0.00561 0.00453,-0.011128 0.0068,-0.016591 0.00229,-0.00546 0.00453,-0.010859 0.00681,-0.016186 0.00229,-0.00532 0.00453,-0.010584 0.0068,-0.015769 0.00229,-0.00518 0.00453,-0.010297 0.0068,-0.015346 0.00229,-0.00504 0.00453,-0.010018 0.0068,-0.014914 0.00229,-0.00489 0.00453,-0.00973 0.0068,-0.014474 0.00229,-0.00476 0.00453,-0.00943 0.0068,-0.014024 0.00229,-0.00459 0.00453,-0.00913 0.00681,-0.013568 0.00229,-0.00445 0.00453,-0.00881 0.0068,-0.013103 0.00229,-0.00428 0.00453,-0.00849 0.00681,-0.012633 0.00229,-0.00413 0.00453,-0.00818 0.0068,-0.012154 0.00229,-0.00398 0.00453,-0.00786 0.0068,-0.011668 0.00229,-0.00381 0.00453,-0.00752 0.0068,-0.011176 0.00229,-0.00365 0.00453,-0.00721 0.0068,-0.010678 0.00229,-0.00349 0.00453,-0.00686 0.0068,-0.010173 0.00229,-0.00331 0.00453,-0.00653 0.00681,-0.00966 0.00229,-0.00314 0.00453,-0.00619 0.0068,-0.00916 0.00229,-0.00296 0.00453,-0.00584 0.0068,-0.00863 0.00229,-0.00279 0.00453,-0.00549 0.0068,-0.00811 0.00229,-0.00262 0.00453,-0.00514 0.0068,-0.00758 0.00229,-0.00244 0.00453,-0.00478 0.0068,-0.00704 0.00229,-0.00225 0.00453,-0.00442 0.00681,-0.0065 0.00229,-0.00207 0.00453,-0.00407 0.0068,-0.00597 0.00229,-0.00189 0.00453,-0.00371 0.0068,-0.00541 0.00229,-0.00172 0.00453,-0.00333 0.0068,-0.00487 0.00229,-0.00153 0.00453,-0.00297 0.0068,-0.00432 0.00229,-0.00136 0.00453,-0.00261 0.0068,-0.00377 0.00229,-0.00116 0.00453,-0.00225 0.00681,-0.00322 0.00229,-9.749e-4 0.00453,-0.00186 0.0068,-0.00266 0.00229,-7.924e-4 0.00453,-0.00149 0.0068,-0.0021 0.00229,-6.123e-4 0.00453,-0.00112 0.00681,-0.00153 0.00229,-4.191e-4 0.00453,-7.464e-4 0.0068,-9.75e-4 0.00229,-2.339e-4 0.00453,-3.736e-4 0.0068,-4.191e-4 0.00229,-4.68e-5 0.00453,10e-8 0.00681,1.403e-4 0.00229,1.4e-4 0.00453,3.738e-4 0.0068,7.004e-4 0.00229,3.269e-4 0.00453,7.465e-4 0.0068,0.00126 0.00229,5.116e-4 0.00453,0.00112 0.00681,0.00181 0.00229,7.005e-4 0.00453,0.00149 0.0068,0.00239 0.00229,8.862e-4 0.00453,0.00186 0.0068,0.00294 0.00229,0.00106 0.00453,0.00225 0.00681,0.00348 0.00229,0.00126 0.00453,0.00261 0.0068,0.00406 0.00229,0.00144 0.00453,0.00297 0.00681,0.00459 0.00229,0.00163 0.00453,0.00333 0.0068,0.00515 0.00229,0.0018 0.00453,0.00371 0.0068,0.00568 0.00229,0.00199 0.00453,0.00407 0.00681,0.00623 0.00229,0.00216 0.00453,0.00442 0.0068,0.00679 0.00229,0.00235 0.00453,0.00478 0.0068,0.0073 0.00229,0.00253 0.00453,0.00514 0.00681,0.00784 0.00229,0.00271 0.00453,0.00549 0.0068,0.00837 0.00229,0.00287 0.00453,0.00584 0.0068,0.00889 0.00229,0.00305 0.00453,0.00619 0.00681,0.00941 0.00229,0.00323 0.00453,0.00653 0.0068,0.00991 0.00229,0.00338 0.00453,0.00686 0.0068,0.010427 0.00229,0.00356 0.00453,0.00721 0.00681,0.010928 0.00229,0.00373 0.00453,0.00754 0.0068,0.011422 0.00229,0.00389 0.00453,0.00786 0.0068,0.011911 0.00229,0.00406 0.00453,0.00818 0.00681,0.012393 0.00229,0.0042 0.00453,0.00849 0.0068,0.012868 0.00229,0.00436 0.00453,0.00881 0.0068,0.013335 0.00229,0.00452 0.00453,0.00913 0.00681,0.013797 0.00229,0.00467 0.00453,0.00943 0.0068,0.014249 0.00229,0.00483 0.00453,0.00973 0.0068,0.014693 0.00229,0.00498 0.00453,0.010018 0.00681,0.01513 0.00229,0.00512 0.00453,0.010297 0.0068,0.015559 0.00229,0.00527 0.00453,0.010584 0.0068,0.015979 0.00229,0.0054 0.00453,0.010859 0.00681,0.016389 0.00229,0.00554 0.00453,0.011128 0.0068,0.01679 0.00229,0.00566 0.00453,0.01139 0.0068,0.017184 0.00229,0.0058 0.00453,0.011649 0.00681,0.017565 0.00229,0.00592 0.00453,0.011897 0.0068,0.017938 0.00229,0.00605 0.00453,0.012141 0.0068,0.018301 0.00229,0.00616 0.00453,0.012379 0.0068,0.018655 0.00229,0.00628 0.00453,0.012608 0.0068,0.018996 0.00229,0.00641 0.00453,0.012832 0.0068,0.019327 0.00229,0.0065 0.00453,0.013046 0.00681,0.019649 0.00229,0.00661 0.00453,0.013255 0.0068,0.019958 0.00229,0.0067 0.00453,0.013457 0.00681,0.020258 0.00229,0.0068 0.00453,0.013651 0.0068,0.020545 0.00229,0.00689 0.00453,0.013836 0.0068,0.020822 0.00229,0.00698 0.00453,0.014014 0.00681,0.021086 0.00229,0.00707 0.00453,0.014186 0.0068,0.021339 0.00229,0.00715 0.00453,0.014348 0.0068,0.021579 0.00229,0.00723 0.00453,0.014503 0.00681,0.02181 0.00229,0.0073 0.00453,0.014649 0.0068,0.022027 0.00229,0.00737 0.00453,0.014787 0.0068,0.022231 0.00229,0.00744 0.00453,0.014918 0.00681,0.022422 0.00229,0.0075 0.00453,0.015042 0.0068,0.022603 0.00229,0.00755 0.00453,0.015153 0.0068,0.02277 0.00229,0.00762 0.00453,0.015258 0.00681,0.022924 0.00229,0.00766 0.00453,0.015356 0.0068,0.023065 0.00229,0.00772 0.00453,0.015443 0.0068,0.023196 0.00229,0.00776 0.00453,0.015524 0.0068,0.023311 0.00229,0.00779 0.00453,0.015595 0.0068,0.023414 0.00229,0.00782 0.00453,0.015656 0.0068,0.023504 0.00229,0.00786 0.00453,0.015708 0.00681,0.023581 0.00229,0.00787 0.00453,0.015755 0.0068,0.023644 0.00229,0.0079 0.00453,0.01579 0.0068,0.023696 0.00229,0.00791 0.00453,0.015817 0.0068,0.023733 0.00229,0.00791 0.00453,0.015835 0.0068,0.023757 0.00229,0.00793 0.00453,0.015845 0.0068,0.023768 0.00229,0.00793 0.00453,0.015845 0.00681,0.023767 0.00229,0.00793 0.00453,0.015838 0.0068,0.023751 0.00229,0.00791 0.00453,0.015821 0.0068,0.023721 0.00229,0.00791 0.00453,0.015795 0.0068,0.023681 0.00229,0.00788 0.00453,0.015761 0.0068,0.023625 0.00229,0.00787 0.00453,0.015716 0.0068,0.023557 0.00229,0.00784 0.00453,0.015665 0.00681,0.023475 0.00229,0.00781 0.00453,0.015606 0.0068,0.023381 0.00229,0.00778 0.00453,0.015534 0.0068,0.023274 0.00229,0.00773 0.00453,0.015457 0.00681,0.023155 0.00229,0.00769 0.00453,0.015371 0.0068,0.02302 0.00229,0.00764 0.00453,0.015275 0.0068,0.022876 0.00229,0.00759 0.00453,0.015172 0.0068,0.022716 0.00229,0.00754 0.00453,0.015061 0.0068,0.022543 0.00229,0.00748 0.00453,0.014939 0.00681,0.02236 0.00229,0.00742 0.00453,0.01481 0.0068,0.022164 0.00229,0.00735 0.00453,0.014671 0.0068,0.021955 0.00229,0.00727 0.00453,0.014528 0.0068,0.021735 0.00229,0.00721 0.00453,0.014374 0.0068,0.021501 0.00229,0.00713 0.00453,0.014214 0.0068,0.021256 0.00229,0.00704 0.00453,0.014043 0.00681,0.020998 0.00229,0.00695 0.00453,0.013867 0.0068,0.020731 0.00229,0.00685 0.00453,0.013682 0.0068,0.020451 0.00229,0.00678 0.00453,0.01349 0.0068,0.020158 0.00229,0.00668 0.00453,0.013289 0.0068,0.019857 0.00229,0.00656 0.00453,0.013083 0.0068,0.019543 0.00229,0.00646 0.00453,0.012868 0.00681,0.019218 0.00229,0.00636 0.00453,0.012647 0.0068,0.018883 0.00229,0.00624 0.00453,0.012416 0.0068,0.018539 0.00229,0.00612 0.00453,0.01218 0.00681,0.018182 0.00229,0.006 0.00453,0.011938 0.0068,0.017815 0.00229,0.00588 0.00453,0.011691 0.0068,0.01744 0.00229,0.00573 0.00453,0.011433 0.00681,0.017053 0.00229,0.00562 0.00453,0.011173 0.0068,0.016658 0.00229,0.00549 0.00453,0.010904 0.0068,0.016252 0.00229,0.00535 0.00453,0.01063 0.00681,0.015839 0.00229,0.00522 0.00453,0.010349 0.0068,0.015417 0.00229,0.00507 0.00453,0.010059 0.0068,0.014986 0.00229,0.00493 0.00453,0.00977 0.00681,0.014548 0.00229,0.00476 0.00453,0.00948 0.0068,0.014099 0.00229,0.00461 0.00453,0.00918 0.0068,0.013645 0.00229,0.00447 0.00453,0.00885 0.00681,0.013181 0.00229,0.00432 0.00453,0.00856 0.0068,0.01271 0.00229,0.00415 0.00453,0.00824 0.0068,0.012234 0.00229,0.004 0.00453,0.00791 0.00681,0.011749 0.00229,0.00384 0.00453,0.00759 0.0068,0.01126 0.00229,0.00368 0.00453,0.00725 0.00681,0.010762 0.00229,0.00352 0.00453,0.00692 0.0068,0.010255 0.00229,0.00333 0.00453,0.0066 0.0068,0.00975 0.00229,0.00316 0.00453,0.00624 0.00681,0.00924 0.00229,0.003 0.00453,0.0059 0.0068,0.00871 0.00229,0.00282 0.00453,0.00555 0.0068,0.00819 0.00229,0.00264 0.00453,0.0052 0.00681,0.00765 0.00229,0.00248 0.00453,0.00484 0.0068,0.00713 0.00229,0.00229 0.00453,0.00448 0.0068,0.0066 0.00229,0.00211 0.00453,0.00412 0.00681,0.00606 0.00229,0.00192 0.00453,0.00377 0.0068,0.00551 0.00229,0.00174 0.00453,0.0034 0.0068,0.00496 0.00229,0.00156 0.00453,0.00304 0.00681,0.00442 0.00229,0.00137 0.00453,0.00267 0.0068,0.00387 0.00229,0.0012 0.00453,0.0023 0.0068,0.00331 0.00229,0.00101 0.00453,0.00192 0.00681,0.00276 0.00229,8.299e-4 0.00453,0.00155 0.0068,0.0022 0.00229,6.392e-4 0.00453,0.00118 0.0068,0.00163 0.00229,4.512e-4 0.00453,8.138e-4 0.00681,0.00108 0.00229,2.658e-4 0.00453,4.351e-4 0.0068,5.156e-4 0.00229,7.81e-5 0.00453,6.24e-5 0.0068,-4.66e-5 0.00229,-1.09e-4 0.00453,-3.116e-4 0.00681,-6.123e-4 0.00229,-2.963e-4 0.00453,-6.874e-4 0.0068,-0.00117 0.00229,-4.837e-4 0.00453,-0.00106 0.0068,-0.00172 0.00229,-6.741e-4 0.00453,-0.00142 0.0068,-0.00229 0.00229,-8.541e-4 0.00453,-0.0018 0.0068,-0.00284 0.00229,-0.00104 0.00453,-0.00218 0.0068,-0.0034 0.00229,-0.00123 0.00453,-0.00254 0.00681,-0.00396 0.00229,-0.00141 0.00453,-0.00291 0.0068,-0.0045 0.00229,-0.00159 0.00453,-0.00329 0.0068,-0.00505 0.00229,-0.00177 0.00453,-0.00365 0.0068,-0.00561 0.00229,-0.00196 0.00453,-0.00402 0.0068,-0.00614 0.00229,-0.00215 0.00453,-0.00436 0.0068,-0.0067 0.00229,-0.00232 0.00453,-0.00472 0.00681,-0.00722 0.00229,-0.0025 0.00453,-0.00508 0.0068,-0.00776 0.00229,-0.00267 0.00453,-0.00544 0.00681,-0.00829 0.00229,-0.00286 0.00453,-0.00577 0.0068,-0.00881 0.00229,-0.00302 0.00453,-0.00612 0.0068,-0.00932 0.00229,-0.00319 0.00453,-0.00648 0.0068,-0.00983 0.00229,-0.00336 0.00453,-0.00682 0.0068,-0.010338 0.00229,-0.00355 0.00453,-0.00715 0.0068,-0.010845 0.00229,-0.0037 0.00453,-0.00747 0.00681,-0.011341 0.00229,-0.00387 0.00453,-0.00781 0.0068,-0.011831 0.00229,-0.00403 0.00453,-0.00813 0.0068,-0.012314 0.00229,-0.00418 0.00453,-0.00844 0.0068,-0.012788 0.00229,-0.00433 0.00453,-0.00877 0.0068,-0.013258 0.00229,-0.0045 0.00453,-0.00907 0.0068,-0.01372 0.00229,-0.00464 0.00453,-0.00937 0.00681,-0.014174 0.00229,-0.0048 0.00453,-0.00967 0.0068,-0.01462 0.00229,-0.00495 0.00453,-0.00997 0.0068,-0.015059 0.00229,-0.0051 0.00453,-0.010256 0.0068,-0.015489 0.00229,-0.00523 0.00453,-0.010537 0.0068,-0.015909 0.00229,-0.00537 0.00453,-0.010812 0.0068,-0.016321 0.00229,-0.00551 0.00453,-0.011082 0.00681,-0.016726 0.00229,-0.00565 0.00453,-0.011346 0.0068,-0.017117 0.00229,-0.00577 0.00453,-0.011606 0.0068,-0.017502 0.00229,-0.0059 0.00453,-0.011856 0.0068,-0.017876 0.00229,-0.00602 0.00453,-0.0121 0.0068,-0.018242 0.00229,-0.00613 0.00453,-0.01234 0.0068,-0.018595 0.00229,-0.00626 0.00453,-0.012571 0.00681,-0.01894 0.00229,-0.00638 0.00453,-0.012795 0.0068,-0.019272 0.00229,-0.00648 0.00453,-0.013011 0.0068,-0.019597 0.00229,-0.0066 0.00453,-0.013221 0.00681,-0.019908 0.00229,-0.0067 0.00453,-0.013423 0.0068,-0.020209 0.00229,-0.00679 0.00453,-0.013618 0.0068,-0.020498 0.00229,-0.00688 0.00453,-0.013807 0.00681,-0.020777 0.00229,-0.00696 0.00453,-0.013985 0.0068,-0.021044 0.00229,-0.00706 0.00453,-0.014156 0.0068,-0.021299 0.00229,-0.00714 0.00453,-0.014322 0.00681,-0.021541 0.00229,-0.00722 0.00453,-0.014477 0.0068,-0.021772 0.00229,-0.00729 0.00453,-0.014626 0.0068,-0.021991 0.00229,-0.00735 0.00453,-0.014765 0.0068,-0.022197 0.00229,-0.00743 0.00453,-0.014897 0.0068,-0.022391 0.00229,-0.00749 0.00453,-0.01502 0.00681,-0.022575 0.00229,-0.00754 0.00453,-0.015135 0.0068,-0.022742 0.00229,-0.00761 0.00453,-0.015242 0.0068,-0.022899 0.00229,-0.00765 0.00453,-0.01534 0.00681,-0.023044 0.00229,-0.00771 0.00453,-0.015428 0.0068,-0.023175 0.00229,-0.00775 0.00453,-0.01551 0.0068,-0.023292 0.00229,-0.00779 0.00453,-0.015583 0.00681,-0.023397 0.00229,-0.00782 0.00453,-0.015647 0.0068,-0.023489 0.00229,-0.00786 0.00453,-0.0157 0.0068,-0.023569 0.00229,-0.00787 0.00453,-0.015747 0.00681,-0.023635 0.00229,-0.0079 0.00453,-0.015783 0.0068,-0.023688 0.00229,-0.00791 0.00453,-0.015813 0.0068,-0.023728 0.00229,-0.00791 0.00453,-0.015834 0.00681,-0.023754 0.00229,-0.00793 0.00453,-0.015845 0.0068,-0.023767"
     style="fill:none;fill-opacity:1;stroke:#c8c8c8;stroke-width:0.28166816;stroke-miterlimit:4;stroke-dasharray:none;stroke-opacity:1;filter:url(#filter1034)"
     inkscape:connector-curvature="0" />
  <text
     xml:space="preserve"
     style="font-style:normal;font-variant:normal;font-weight:normal;font-stretch:normal;font-size:7.5538559px;line-height:1.25;font-family:'DejaVu Sans';-inkscape-font-specification:'DejaVu Sans';letter-spacing:0px;word-spacing:0px;fill:#000000;fill-opacity:1;stroke:none;stroke-width:0.94423199;filter:url(#filter1010)"
     x="0.46420979"
     y="10.032464"
     id="text5259"
     transform="scale(0.94423196,1.0590618)"><tspan
       sodipodi:role="line"
       id="tspan5257"
       x="0.46420979"
       y="10.032464"
       style="font-style:normal;font-variant:normal;font-weight:bold;font-stretch:normal;font-size:6.66666651px;font-family:'DejaVu Sans';-inkscape-font-specification:'DejaVu Sans Bold';fill:#ffffff;stroke-width:0.94423199">URH</tspan></text>
  <text
     xml:space="preserve"
     style="font-style:normal;font-variant:normal;font-weight:500;font-stretch:normal;font-size:2.66666675px;line-height:1.25;font-family:'Source Code Pro';-inkscape-font-specification:'Source Code Pro Medium';letter-spacing:0px;word-spacing:0px;fill:#c8c8c8;fill-opacity:1;stroke:none;filter:url(#filter1022);"
     x="4.3760333"
     y="13.96875"
     id="text5263"><tspan
       sodipodi:role="line"
       id="tspan5261"
       x="4.3760333"
       y="13.96875"
       style="font-style:normal;font-variant:normal;font-weight:normal;font-stretch:normal;font-size:2.66666675px;font-family:'DejaVu Sans';-inkscape-font-specification:'DejaVu Sans';fill:#c8c8c8;fill-opacity:1;">01010...</tspan></text>
</svg>
