<?xml version="1.0" encoding="UTF-8" standalone="no"?>
<!-- Created with Inkscape (http://www.inkscape.org/) -->

<svg
   xmlns:osb="http://www.openswatchbook.org/uri/2009/osb"
   xmlns:dc="http://purl.org/dc/elements/1.1/"
   xmlns:cc="http://creativecommons.org/ns#"
   xmlns:rdf="http://www.w3.org/1999/02/22-rdf-syntax-ns#"
   xmlns:svg="http://www.w3.org/2000/svg"
   xmlns="http://www.w3.org/2000/svg"
   xmlns:xlink="http://www.w3.org/1999/xlink"
   xmlns:sodipodi="http://sodipodi.sourceforge.net/DTD/sodipodi-0.dtd"
   xmlns:inkscape="http://www.inkscape.org/namespaces/inkscape"
   inkscape:export-ydpi="73.18"
   inkscape:export-xdpi="73.18"
   inkscape:export-filename="/home/andy/work/repository/urh/data/icons/appicon_big.png"
   sodipodi:docname="appicon_big.svg"
   inkscape:version="0.92.4 5da689c313, 2019-01-14"
   id="svg8"
   version="1.1"
   viewBox="0 0 338.6624 152.39808"
   height="576"
   width="1280">
  <defs
     id="defs2">
    <inkscape:perspective
       sodipodi:type="inkscape:persp3d"
       inkscape:vp_x="-2.9803933 : 97.20445 : 1"
       inkscape:vp_y="0 : 5058.6841 : 0"
       inkscape:vp_z="304.47162 : 146.69882 : 1"
       inkscape:persp3d-origin="316.6624 : -299.19252 : 1"
       id="perspective175" />
    <inkscape:perspective
       sodipodi:type="inkscape:persp3d"
       inkscape:vp_x="-175.81643 : 44.949807 : 1"
       inkscape:vp_y="0 : 4550.0205 : 0"
       inkscape:vp_z="246.35971 : 278.30339 : 1"
       inkscape:persp3d-origin="273.90236 : -259.9465 : 1"
       id="perspective4604" />
    <linearGradient
       id="linearGradient1425"
       osb:paint="gradient">
      <stop
         style="stop-color:#ff6600;stop-opacity:1;"
         offset="0"
         id="stop1421" />
      <stop
         style="stop-color:#ff6600;stop-opacity:0;"
         offset="1"
         id="stop1423" />
    </linearGradient>
    <linearGradient
       inkscape:collect="always"
       id="linearGradient3266">
      <stop
         style="stop-color:#ffffff;stop-opacity:1;"
         offset="0"
         id="stop3262" />
      <stop
         style="stop-color:#ffffff;stop-opacity:0;"
         offset="1"
         id="stop3264" />
    </linearGradient>
    <filter
       y="-0.25"
       height="1.5"
       inkscape:menu-tooltip="Light areas turn to black"
       inkscape:menu="Color"
       inkscape:label="Black Light"
       style="color-interpolation-filters:sRGB"
       id="filter3101">
      <feGaussianBlur
         stdDeviation="5"
         result="result6"
         id="feGaussianBlur3091" />
      <feComposite
         result="result8"
         in="SourceGraphic"
         operator="atop"
         in2="result6"
         id="feComposite3093" />
      <feComposite
         result="result9"
         operator="over"
         in2="SourceAlpha"
         in="result8"
         id="feComposite3095" />
      <feColorMatrix
         values="1 0 0 0 0 0 1 0 0 0 0 0 1 0 0 0 0 0 1 0 "
         result="result10"
         id="feColorMatrix3097" />
      <feBlend
         in="result10"
         mode="normal"
         in2="result6"
         id="feBlend3099"
         result="fbSourceGraphic" />
      <feColorMatrix
         result="fbSourceGraphicAlpha"
         in="fbSourceGraphic"
         values="0 0 0 -1 0 0 0 0 -1 0 0 0 0 -1 0 0 0 0 1 0"
         id="feColorMatrix1358" />
      <feColorMatrix
         id="feColorMatrix1360"
         type="luminanceToAlpha"
         result="result2"
         in="fbSourceGraphic" />
      <feComposite
         in2="fbSourceGraphic"
         id="feComposite1362"
         operator="arithmetic"
         in="result2"
         k3="2"
         result="result4"
         k1="0"
         k2="0"
         k4="0" />
      <feBlend
         in2="result2"
         id="feBlend1364"
         in="result4"
         mode="multiply"
         result="result3" />
      <feComposite
         in2="fbSourceGraphic"
         id="feComposite1366"
         operator="in"
         in="result3" />
    </filter>
    <linearGradient
       inkscape:collect="always"
       xlink:href="#linearGradient3266"
       id="linearGradient3268"
       x1="106.5204"
       y1="209.60114"
       x2="327.20642"
       y2="209.60114"
       gradientUnits="userSpaceOnUse"
       gradientTransform="matrix(0.90951245,0,0,0.9095125,58.474655,12.612276)" />
    <filter
       inkscape:collect="always"
       style="color-interpolation-filters:sRGB"
       id="filter4610"
       x="-0.14336009"
       width="1.2867202"
       y="-0.89671344"
       height="2.793427">
      <feGaussianBlur
         inkscape:collect="always"
         stdDeviation="20.24174"
         id="feGaussianBlur4612" />
    </filter>
    <filter
       inkscape:label="Inset"
       inkscape:menu="Shadows and Glows"
       inkscape:menu-tooltip="Shadowy outer bevel"
       style="color-interpolation-filters:sRGB"
       id="filter1391"
       x="-0.30000001"
       y="-0.30000001"
       width="1.5"
       height="1.5">
      <feMorphology
         result="result1"
         in="SourceAlpha"
         operator="dilate"
         radius="3.6"
         id="feMorphology1379" />
      <feGaussianBlur
         stdDeviation="3.6"
         in="result1"
         result="result0"
         id="feGaussianBlur1381" />
      <feDiffuseLighting
         surfaceScale="-5"
         id="feDiffuseLighting1385">
        <feDistantLight
           elevation="45"
           azimuth="225"
           id="feDistantLight1383" />
      </feDiffuseLighting>
      <feComposite
         in2="result0"
         operator="in"
         result="result91"
         id="feComposite1387" />
      <feComposite
         in="SourceGraphic"
         in2="result91"
         id="feComposite1389" />
    </filter>
    <filter
       inkscape:label="Light Contour"
       inkscape:menu="Image Paint and Draw"
       inkscape:menu-tooltip="Uses vertical specular light to draw lines"
       style="color-interpolation-filters:sRGB;"
       id="filter1479">
      <feGaussianBlur
         in="SourceGraphic"
         stdDeviation="1.5"
         result="result3"
         id="feGaussianBlur1453" />
      <feComponentTransfer
         result="result1"
         in="result3"
         id="feComponentTransfer1461">
        <feFuncR
           type="discrete"
           tableValues="0 0.1 0.2 0.3 0.4 0.5 0.6 0.7 0.8 0.9 1"
           id="feFuncR1455" />
        <feFuncG
           type="discrete"
           tableValues="0 0.1 0.2 0.3 0.4 0.5 0.6 0.7 0.8 0.9 1"
           id="feFuncG1457" />
        <feFuncB
           type="discrete"
           tableValues="0 0.1 0.2 0.3 0.4 0.5 0.6 0.7 0.8 0.9 1"
           id="feFuncB1459" />
      </feComponentTransfer>
      <feGaussianBlur
         result="result5"
         stdDeviation="0.01"
         id="feGaussianBlur1463" />
      <feBlend
         in2="result5"
         result="result6"
         mode="lighten"
         in="result5"
         id="feBlend1465" />
      <feColorMatrix
         in="result6"
         type="luminanceToAlpha"
         result="result2"
         id="feColorMatrix1467" />
      <feSpecularLighting
         surfaceScale="5"
         result="result9"
         specularExponent="20"
         in="result2"
         specularConstant="1"
         id="feSpecularLighting1471">
        <feDistantLight
           azimuth="180"
           elevation="90"
           id="feDistantLight1469" />
      </feSpecularLighting>
      <feComposite
         in2="result6"
         operator="arithmetic"
         in="result9"
         k1="0.4"
         k3="0.7"
         result="result3"
         id="feComposite1473" />
      <feBlend
         in2="result1"
         in="result3"
         mode="normal"
         result="result8"
         id="feBlend1475" />
      <feComposite
         in2="SourceGraphic"
         in="result8"
         operator="in"
         result="result7"
         id="feComposite1477" />
    </filter>
    <filter
       inkscape:label="Light Contour"
       inkscape:menu="Image Paint and Draw"
       inkscape:menu-tooltip="Uses vertical specular light to draw lines"
       style="color-interpolation-filters:sRGB;"
       id="filter1507">
      <feGaussianBlur
         in="SourceGraphic"
         stdDeviation="1.5"
         result="result3"
         id="feGaussianBlur1481" />
      <feComponentTransfer
         result="result1"
         in="result3"
         id="feComponentTransfer1489">
        <feFuncR
           type="discrete"
           tableValues="0 0.1 0.2 0.3 0.4 0.5 0.6 0.7 0.8 0.9 1"
           id="feFuncR1483" />
        <feFuncG
           type="discrete"
           tableValues="0 0.1 0.2 0.3 0.4 0.5 0.6 0.7 0.8 0.9 1"
           id="feFuncG1485" />
        <feFuncB
           type="discrete"
           tableValues="0 0.1 0.2 0.3 0.4 0.5 0.6 0.7 0.8 0.9 1"
           id="feFuncB1487" />
      </feComponentTransfer>
      <feGaussianBlur
         result="result5"
         stdDeviation="0.01"
         id="feGaussianBlur1491" />
      <feBlend
         in2="result5"
         result="result6"
         mode="lighten"
         in="result5"
         id="feBlend1493" />
      <feColorMatrix
         in="result6"
         type="luminanceToAlpha"
         result="result2"
         id="feColorMatrix1495" />
      <feSpecularLighting
         surfaceScale="5"
         result="result9"
         specularExponent="20"
         in="result2"
         specularConstant="1"
         id="feSpecularLighting1499">
        <feDistantLight
           azimuth="180"
           elevation="90"
           id="feDistantLight1497" />
      </feSpecularLighting>
      <feComposite
         in2="result6"
         operator="arithmetic"
         in="result9"
         k1="0.4"
         k3="0.7"
         result="result3"
         id="feComposite1501" />
      <feBlend
         in2="result1"
         in="result3"
         mode="normal"
         result="result8"
         id="feBlend1503" />
      <feComposite
         in2="SourceGraphic"
         in="result8"
         operator="in"
         result="result7"
         id="feComposite1505" />
    </filter>
    <filter
       inkscape:label="Light Contour"
       inkscape:menu="Image Paint and Draw"
       inkscape:menu-tooltip="Uses vertical specular light to draw lines"
       style="color-interpolation-filters:sRGB;"
       id="filter1535">
      <feGaussianBlur
         in="SourceGraphic"
         stdDeviation="1.5"
         result="result3"
         id="feGaussianBlur1509" />
      <feComponentTransfer
         result="result1"
         in="result3"
         id="feComponentTransfer1517">
        <feFuncR
           type="discrete"
           tableValues="0 0.1 0.2 0.3 0.4 0.5 0.6 0.7 0.8 0.9 1"
           id="feFuncR1511" />
        <feFuncG
           type="discrete"
           tableValues="0 0.1 0.2 0.3 0.4 0.5 0.6 0.7 0.8 0.9 1"
           id="feFuncG1513" />
        <feFuncB
           type="discrete"
           tableValues="0 0.1 0.2 0.3 0.4 0.5 0.6 0.7 0.8 0.9 1"
           id="feFuncB1515" />
      </feComponentTransfer>
      <feGaussianBlur
         result="result5"
         stdDeviation="0.01"
         id="feGaussianBlur1519" />
      <feBlend
         in2="result5"
         result="result6"
         mode="lighten"
         in="result5"
         id="feBlend1521" />
      <feColorMatrix
         in="result6"
         type="luminanceToAlpha"
         result="result2"
         id="feColorMatrix1523" />
      <feSpecularLighting
         surfaceScale="5"
         result="result9"
         specularExponent="20"
         in="result2"
         specularConstant="1"
         id="feSpecularLighting1527">
        <feDistantLight
           azimuth="180"
           elevation="90"
           id="feDistantLight1525" />
      </feSpecularLighting>
      <feComposite
         in2="result6"
         operator="arithmetic"
         in="result9"
         k1="0.4"
         k3="0.7"
         result="result3"
         id="feComposite1529" />
      <feBlend
         in2="result1"
         in="result3"
         mode="normal"
         result="result8"
         id="feBlend1531" />
      <feComposite
         in2="SourceGraphic"
         in="result8"
         operator="in"
         result="result7"
         id="feComposite1533" />
    </filter>
  </defs>
  <sodipodi:namedview
     id="base"
     pagecolor="#000000"
     bordercolor="#666666"
     borderopacity="1.0"
     inkscape:pageopacity="1"
     inkscape:pageshadow="2"
     inkscape:zoom="1.5805974"
     inkscape:cx="558.41351"
     inkscape:cy="289.0153"
     inkscape:document-units="px"
     inkscape:current-layer="layer1"
     showgrid="false"
     units="px"
     inkscape:window-width="3840"
     inkscape:window-height="2061"
     inkscape:window-x="3840"
     inkscape:window-y="0"
     inkscape:window-maximized="1"
     showguides="true"
     inkscape:lockguides="false"
     inkscape:guide-bbox="true"
     fit-margin-bottom="-200">
    <inkscape:grid
       type="xygrid"
       id="grid4600" />
    <sodipodi:guide
       inkscape:locked="false"
       id="guide868"
       orientation="1,0"
       position="337.96954,16.906846" />
  </sodipodi:namedview>
  <metadata
     id="metadata5">
    <rdf:RDF>
      <cc:Work
         rdf:about="">
        <dc:format>image/svg+xml</dc:format>
        <dc:type
           rdf:resource="http://purl.org/dc/dcmitype/StillImage" />
        <dc:title />
      </cc:Work>
    </rdf:RDF>
  </metadata>
  <g
     inkscape:label="Ebene 1"
     inkscape:groupmode="layer"
     id="layer1"
     transform="translate(0,-144.59978)">
    <text
       xml:space="preserve"
       style="font-style:normal;font-variant:normal;font-weight:600;font-stretch:normal;font-size:22.57777786px;line-height:1.25;font-family:'Source Code Pro';-inkscape-font-specification:'Source Code Pro Semi-Bold';letter-spacing:0px;word-spacing:0px;fill:#ffffff;fill-opacity:1;stroke:none;stroke-width:0.26458332"
       x="204.86308"
       y="235.0119"
       id="text6945"><tspan
         sodipodi:role="line"
         id="tspan6943"
         x="204.86308"
         y="254.76746"
         style="font-style:normal;font-variant:normal;font-weight:600;font-stretch:normal;font-family:'Source Code Pro';-inkscape-font-specification:'Source Code Pro Semi-Bold';fill:#ffffff;stroke-width:0.26458332" /></text>
    <flowRoot
       xml:space="preserve"
       id="flowRoot7231"
       style="font-style:normal;font-variant:normal;font-weight:600;font-stretch:normal;font-size:85.33333588px;line-height:1.25;font-family:'Source Sans Pro';-inkscape-font-specification:'Source Sans Pro Semi-Bold';letter-spacing:0px;word-spacing:0px;fill:#000000;fill-opacity:1;stroke:none"><flowRegion
         id="flowRegion7233"><rect
           id="rect7235"
           width="40"
           height="118"
           x="1112"
           y="453.33334" /></flowRegion><flowPara
         id="flowPara7237" /></flowRoot>    <path
       id="path1217"
       title="sin(10*x)"
       d="m 105.86505,245.66893 c 0.021,0.20871 0.042,0.4174 0.063,0.62445 0.021,0.20705 0.042,0.41245 0.063,0.61458 0.021,0.20213 0.042,0.40098 0.063,0.595 0.021,0.19402 0.042,0.38317 0.063,0.56602 0.021,0.18284 0.042,0.35932 0.063,0.52809 0.021,0.16877 0.042,0.32978 0.063,0.48181 0.021,0.15205 0.042,0.29504 0.063,0.42794 0.021,0.1329 0.042,0.25563 0.063,0.36728 0.021,0.11167 0.042,0.21219 0.063,0.30085 0.021,0.0887 0.042,0.16537 0.063,0.22963 0.021,0.0642 0.042,0.11596 0.063,0.1548 0.021,0.0389 0.042,0.0647 0.063,0.0775 0.021,0.0128 0.042,0.0124 0.063,-6.1e-4 0.021,-0.0134 0.042,-0.04 0.063,-0.0795 0.021,-0.0395 0.042,-0.0919 0.063,-0.15669 0.021,-0.0649 0.042,-0.14225 0.063,-0.23147 0.021,-0.0892 0.042,-0.19037 0.063,-0.30257 0.021,-0.11218 0.042,-0.2355 0.063,-0.36888 0.021,-0.13338 0.042,-0.2769 0.063,-0.42936 0.021,-0.15247 0.042,-0.31394 0.063,-0.48307 0.021,-0.16914 0.042,-0.346 0.063,-0.52915 0.021,-0.18313 0.042,-0.37259 0.063,-0.56684 0.021,-0.19426 0.042,-0.39333 0.063,-0.59561 0.021,-0.20228 0.042,-0.40781 0.063,-0.61495 0.021,-0.20712 0.042,-0.41586 0.063,-0.62456 0.021,-0.20869 0.042,-0.41734 0.063,-0.62432 0.021,-0.20696 0.042,-0.41222 0.063,-0.61419 0.021,-0.20198 0.042,-0.40062 0.063,-0.5944 0.021,-0.19376 0.042,-0.38264 0.063,-0.56517 0.021,-0.18252 0.042,-0.35865 0.063,-0.52703 0.021,-0.16838 0.042,-0.32897 0.063,-0.48056 0.021,-0.15158 0.042,-0.2941 0.063,-0.4265 0.021,-0.13239 0.042,-0.25458 0.063,-0.36568 0.021,-0.11111 0.042,-0.21106 0.063,-0.29912 0.021,-0.0881 0.042,-0.16418 0.063,-0.2278 0.021,-0.0636 0.042,-0.11471 0.063,-0.15289 0.021,-0.0382 0.042,-0.0634 0.063,-0.0756 0.021,-0.0122 0.042,-0.0112 0.063,0.003 0.021,0.0142 0.042,0.0413 0.063,0.0814 0.021,0.0401 0.042,0.0931 0.063,0.15862 0.021,0.0655 0.042,0.14346 0.063,0.23328 0.021,0.0898 0.042,0.19155 0.063,0.30429 0.021,0.11274 0.042,0.23657 0.063,0.37047 0.021,0.13387 0.042,0.27788 0.063,0.43079 0.021,0.15292 0.042,0.31479 0.063,0.48431 0.021,0.16952 0.042,0.34674 0.063,0.5302 0.021,0.18345 0.042,0.37319 0.063,0.56769 0.021,0.19447 0.042,0.39374 0.063,0.59619 0.021,0.20244 0.042,0.4081 0.063,0.6153 0.021,0.20721 0.042,0.41598 0.063,0.62468 0.021,0.20869 0.042,0.4173 0.063,0.62419 0.021,0.20688 0.042,0.41201 0.063,0.61382 0.021,0.2018 0.042,0.40023 0.063,0.59377 0.021,0.19354 0.042,0.38212 0.063,0.56433 0.021,0.1822 0.042,0.35797 0.063,0.52596 0.021,0.168 0.042,0.32817 0.063,0.47931 0.021,0.15113 0.042,0.29317 0.063,0.42504 0.021,0.13189 0.042,0.25356 0.063,0.3641 0.021,0.11055 0.042,0.20992 0.063,0.29738 0.021,0.0875 0.042,0.16297 0.063,0.22598 0.021,0.063 0.042,0.11344 0.063,0.15098 0.021,0.0375 0.042,0.0621 0.063,0.0736 0.021,0.0115 0.042,0.01 0.063,-0.005 0.021,-0.0148 0.042,-0.0426 0.063,-0.0834 0.021,-0.0408 0.042,-0.0944 0.063,-0.16051 0.021,-0.0661 0.042,-0.14471 0.063,-0.23511 0.021,-0.0904 0.042,-0.19272 0.063,-0.30601 0.021,-0.1133 0.042,-0.23765 0.063,-0.37205 0.021,-0.13438 0.042,-0.27886 0.063,-0.43221 0.021,-0.15337 0.042,-0.31567 0.063,-0.48557 0.021,-0.16991 0.042,-0.34746 0.063,-0.53123 0.021,-0.18377 0.042,-0.37379 0.063,-0.56852 0.021,-0.19472 0.042,-0.39418 0.063,-0.59679 0.021,-0.2026 0.042,-0.40837 0.063,-0.61565 0.021,-0.20729 0.042,-0.4161 0.063,-0.62479 0.021,-0.20869 0.042,-0.41725 0.063,-0.62405 0.021,-0.20679 0.042,-0.4118 0.063,-0.61343 0.021,-0.20163 0.042,-0.39987 0.063,-0.59316 0.021,-0.19327 0.042,-0.38158 0.063,-0.56346 0.021,-0.18189 0.042,-0.3573 0.063,-0.5249 0.021,-0.1676 0.042,-0.32736 0.063,-0.47803 0.021,-0.15069 0.042,-0.29225 0.063,-0.42361 0.021,-0.13138 0.042,-0.2525 0.063,-0.3625 0.021,-0.10999 0.042,-0.20878 0.063,-0.29565 0.021,-0.0869 0.042,-0.16175 0.063,-0.22413 0.021,-0.0624 0.042,-0.11217 0.063,-0.14907 0.021,-0.0368 0.042,-0.0608 0.063,-0.0717 0.021,-0.0109 0.042,-0.008 0.063,0.007 0.021,0.0154 0.042,0.044 0.063,0.0853 0.021,0.0413 0.042,0.0957 0.063,0.16242 0.021,0.0667 0.042,0.14592 0.063,0.23692 0.021,0.091 0.042,0.19387 0.063,0.30772 0.021,0.11385 0.042,0.23874 0.063,0.37363 0.021,0.13489 0.042,0.27984 0.063,0.43364 0.021,0.15381 0.042,0.31652 0.063,0.4868 0.021,0.17029 0.042,0.3482 0.063,0.53228 0.021,0.18408 0.042,0.37437 0.063,0.56932 0.021,0.19496 0.042,0.39462 0.063,0.59739 0.021,0.20275 0.042,0.40863 0.063,0.61599 0.021,0.20736 0.042,0.41622 0.063,0.62489 0.021,0.20869 0.042,0.4172 0.063,0.6239 0.021,0.20671 0.042,0.41159 0.063,0.61306 0.021,0.20145 0.042,0.39947 0.063,0.59251 0.021,0.19304 0.042,0.38106 0.063,0.56262 0.021,0.18155 0.042,0.35662 0.063,0.52383 0.021,0.16721 0.042,0.32654 0.063,0.47676 0.021,0.15022 0.042,0.29129 0.063,0.42216 0.021,0.13085 0.042,0.25144 0.063,0.36089 0.021,0.10942 0.042,0.20763 0.063,0.2939 0.021,0.0863 0.042,0.16055 0.063,0.2223 0.021,0.0617 0.042,0.11091 0.063,0.14716 0.021,0.0362 0.042,0.0595 0.063,0.0697 0.021,0.0102 0.042,0.007 0.063,-0.009 0.021,-0.0161 0.042,-0.0452 0.063,-0.0873 0.021,-0.042 0.042,-0.097 0.063,-0.1643 0.021,-0.0674 0.042,-0.14718 0.063,-0.23876 0.021,-0.0916 0.042,-0.19503 0.063,-0.30943 0.021,-0.1144 0.042,-0.23982 0.063,-0.37521 0.021,-0.13538 0.042,-0.28082 0.063,-0.43506 0.021,-0.15424 0.042,-0.31737 0.063,-0.48803 0.021,-0.17067 0.042,-0.34892 0.063,-0.53331 0.021,-0.18438 0.042,-0.37494 0.063,-0.57013 0.021,-0.1952 0.042,-0.39506 0.063,-0.59797 0.021,-0.20292 0.042,-0.4089 0.063,-0.61634 0.021,-0.20744 0.042,-0.41632 0.063,-0.62499 0.021,-0.20867 0.042,-0.41713 0.063,-0.62376 0.021,-0.2066 0.042,-0.41135 0.063,-0.61265 0.021,-0.20129 0.042,-0.39909 0.063,-0.59187 0.021,-0.19278 0.042,-0.38052 0.063,-0.56175 0.021,-0.18124 0.042,-0.35593 0.063,-0.52275 0.021,-0.16682 0.042,-0.32572 0.063,-0.47549 0.021,-0.14975 0.042,-0.29034 0.063,-0.4207 0.021,-0.13035 0.042,-0.25041 0.063,-0.35928 0.021,-0.10888 0.042,-0.2065 0.063,-0.29218 0.021,-0.0857 0.042,-0.15932 0.063,-0.22044 0.021,-0.0611 0.042,-0.10965 0.063,-0.14526 0.021,-0.0356 0.042,-0.0582 0.063,-0.0677 0.021,-0.009 0.042,-0.006 0.063,0.0109 0.021,0.0167 0.042,0.0465 0.063,0.0892 0.021,0.0427 0.042,0.0982 0.063,0.16621 0.021,0.068 0.042,0.14838 0.063,0.24057 0.021,0.0922 0.042,0.19619 0.063,0.31114 0.021,0.11493 0.042,0.24088 0.063,0.37676 0.021,0.13591 0.042,0.28179 0.063,0.43648 0.021,0.1547 0.042,0.31822 0.063,0.48927 0.021,0.17104 0.042,0.34963 0.063,0.53432 0.021,0.1847 0.042,0.37552 0.063,0.57094 0.021,0.19543 0.042,0.39548 0.063,0.59854 0.021,0.20308 0.042,0.40918 0.063,0.61669 0.021,0.20751 0.042,0.41641 0.063,0.62507 0.021,0.20866 0.042,0.41708 0.063,0.62359 0.021,0.20652 0.042,0.41114 0.063,0.61226 0.021,0.20111 0.042,0.39871 0.063,0.59124 0.021,0.19254 0.042,0.37998 0.063,0.56088 0.021,0.18092 0.042,0.35524 0.063,0.52166 0.021,0.16643 0.042,0.3249 0.063,0.47422 0.021,0.1493 0.042,0.28939 0.063,0.41923 0.021,0.12984 0.042,0.24936 0.063,0.35767 0.021,0.10831 0.042,0.20537 0.063,0.29044 0.021,0.0851 0.042,0.1581 0.063,0.21861 0.021,0.0605 0.042,0.10838 0.063,0.14333 0.021,0.035 0.042,0.0569 0.063,0.0658 0.021,0.009 0.042,0.004 0.063,-0.0128 0.021,-0.0174 0.042,-0.0478 0.063,-0.0912 0.021,-0.0433 0.042,-0.0995 0.063,-0.16811 0.021,-0.0686 0.042,-0.14962 0.063,-0.24238 0.021,-0.0928 0.042,-0.19736 0.063,-0.31285 0.021,-0.11549 0.042,-0.24197 0.063,-0.37835 0.021,-0.13639 0.042,-0.28274 0.063,-0.43788 0.021,-0.15511 0.042,-0.31907 0.063,-0.49049 0.021,-0.1714 0.042,-0.35034 0.063,-0.53534 0.021,-0.185 0.042,-0.3761 0.063,-0.57175 0.021,-0.19565 0.042,-0.39589 0.063,-0.59912 0.021,-0.20321 0.042,-0.40943 0.063,-0.617 0.021,-0.20757 0.042,-0.41652 0.063,-0.62515 0.021,-0.20866 0.042,-0.41702 0.063,-0.62343 0.021,-0.20643 0.042,-0.41091 0.063,-0.61185 0.021,-0.20095 0.042,-0.39831 0.063,-0.5906 0.021,-0.19228 0.042,-0.37942 0.063,-0.56001 0.021,-0.18057 0.042,-0.35454 0.063,-0.52056 0.021,-0.16603 0.042,-0.32407 0.063,-0.47292 0.021,-0.14886 0.042,-0.28847 0.063,-0.41778 0.021,-0.12932 0.042,-0.24831 0.063,-0.35606 0.021,-0.10775 0.042,-0.20421 0.063,-0.28869 0.021,-0.0845 0.042,-0.1569 0.063,-0.21676 0.021,-0.0599 0.042,-0.10711 0.063,-0.14142 0.021,-0.0343 0.042,-0.0556 0.063,-0.0638 0.021,-0.008 0.042,-0.003 0.063,0.0148 0.021,0.018 0.042,0.0492 0.063,0.0931 0.021,0.0439 0.042,0.10079 0.063,0.17 0.021,0.0692 0.042,0.15083 0.063,0.24419 0.021,0.0934 0.042,0.19851 0.063,0.31455 0.021,0.11604 0.042,0.24304 0.063,0.37991 0.021,0.13688 0.042,0.28372 0.063,0.43928 0.021,0.15558 0.042,0.31992 0.063,0.49171 0.021,0.1718 0.042,0.35107 0.063,0.53637 0.021,0.1853 0.042,0.37666 0.063,0.57254 0.021,0.19588 0.042,0.3963 0.063,0.59967 0.021,0.20338 0.042,0.4097 0.063,0.61735 0.021,0.20763 0.042,0.41659 0.063,0.62522 0.021,0.20864 0.042,0.41694 0.063,0.62326 0.021,0.20632 0.042,0.41066 0.063,0.61142 0.021,0.20076 0.042,0.39793 0.063,0.58995 0.021,0.19203 0.042,0.37888 0.063,0.55914 0.021,0.18025 0.042,0.35385 0.063,0.51947 0.021,0.16564 0.042,0.32323 0.063,0.47162 0.021,0.1484 0.042,0.28752 0.063,0.41632 0.021,0.12881 0.042,0.24725 0.063,0.35444 0.021,0.10719 0.042,0.20306 0.063,0.28693 0.021,0.0839 0.042,0.15569 0.063,0.21492 0.021,0.0593 0.042,0.10585 0.063,0.13951 0.021,0.0336 0.042,0.0543 0.063,0.0619 0.021,0.008 0.042,0.002 0.063,-0.0168 0.021,-0.0186 0.042,-0.0505 0.063,-0.0951 0.021,-0.0446 0.042,-0.10208 0.063,-0.17191 0.021,-0.0698 0.042,-0.15206 0.063,-0.246 0.021,-0.0939 0.042,-0.19967 0.063,-0.31625 0.021,-0.11658 0.042,-0.24409 0.063,-0.38148 0.021,-0.13738 0.042,-0.28467 0.063,-0.44068 0.021,-0.156 0.042,-0.32076 0.063,-0.49291 0.021,-0.17217 0.042,-0.35178 0.063,-0.53738 0.021,-0.18559 0.042,-0.37723 0.063,-0.57334 0.021,-0.19611 0.042,-0.39672 0.063,-0.60024 0.021,-0.20351 0.042,-0.40994 0.063,-0.61764 0.021,-0.20771 0.042,-0.4167 0.063,-0.6253 0.021,-0.20862 0.042,-0.41686 0.063,-0.62309 0.021,-0.20622 0.042,-0.41043 0.063,-0.611 0.021,-0.20058 0.042,-0.39752 0.063,-0.58928 0.021,-0.19178 0.042,-0.37833 0.063,-0.55826 0.021,-0.17991 0.042,-0.35314 0.063,-0.51837 0.021,-0.16523 0.042,-0.3224 0.063,-0.47034 0.021,-0.14792 0.042,-0.28656 0.063,-0.41484 0.021,-0.1283 0.042,-0.24618 0.063,-0.35281 0.021,-0.10663 0.042,-0.20192 0.063,-0.28519 0.021,-0.0833 0.042,-0.15446 0.063,-0.21307 0.021,-0.0586 0.042,-0.10456 0.063,-0.13759 0.021,-0.033 0.042,-0.053 0.063,-0.0599 0.021,-0.007 0.042,-6e-4 0.063,0.0186 0.021,0.0193 0.042,0.0518 0.063,0.097 0.021,0.0452 0.042,0.10335 0.063,0.17378 0.021,0.0705 0.042,0.15329 0.063,0.24782 0.021,0.0945 0.042,0.20082 0.063,0.31794 0.021,0.11713 0.042,0.24516 0.063,0.38303 0.021,0.13787 0.042,0.28563 0.063,0.44208 0.021,0.15643 0.042,0.32159 0.063,0.49413 0.021,0.17254 0.042,0.35247 0.063,0.53838 0.021,0.1859 0.042,0.3778 0.063,0.57412 0.021,0.19633 0.042,0.39713 0.063,0.60078 0.021,0.20366 0.042,0.4102 0.063,0.61797 0.021,0.20777 0.042,0.41677 0.063,0.62536 0.021,0.2086 0.042,0.41678 0.063,0.62291 0.021,0.20612 0.042,0.41018 0.063,0.61057 0.021,0.2004 0.042,0.39712 0.063,0.58863 0.021,0.19151 0.042,0.37776 0.063,0.55735 0.021,0.17958 0.042,0.35245 0.063,0.51727 0.021,0.16483 0.042,0.32157 0.063,0.46904 0.021,0.14746 0.042,0.28559 0.063,0.41337 0.021,0.12777 0.042,0.24513 0.063,0.35118 0.021,0.10606 0.042,0.20076 0.063,0.28343 0.021,0.0827 0.042,0.15325 0.063,0.21122 0.021,0.058 0.042,0.1033 0.063,0.13567 0.021,0.0324 0.042,0.0517 0.063,0.058 0.021,0.006 0.042,-6.1e-4 0.063,-0.0206 0.021,-0.02 0.042,-0.0531 0.063,-0.0989 0.021,-0.0459 0.042,-0.10461 0.063,-0.17568 0.021,-0.0711 0.042,-0.15451 0.063,-0.24962 0.021,-0.0951 0.042,-0.20196 0.063,-0.31963 0.021,-0.11766 0.042,-0.24623 0.063,-0.38459 0.021,-0.13835 0.042,-0.28659 0.063,-0.44347 0.021,-0.15687 0.042,-0.32242 0.063,-0.49532 0.021,-0.17291 0.042,-0.35319 0.063,-0.53939 0.021,-0.18619 0.042,-0.37835 0.063,-0.5749 0.021,-0.19655 0.042,-0.39753 0.063,-0.60134 0.021,-0.20379 0.042,-0.41043 0.063,-0.61826 0.021,-0.20783 0.042,-0.41685 0.063,-0.62542 0.021,-0.20859 0.042,-0.4167 0.063,-0.62272 0.021,-0.20602 0.042,-0.40993 0.063,-0.61014 0.021,-0.20022 0.042,-0.3967 0.063,-0.58795 0.021,-0.19124 0.042,-0.37721 0.063,-0.55645 0.021,-0.17926 0.042,-0.35175 0.063,-0.51618 0.021,-0.16442 0.042,-0.32072 0.063,-0.46772 0.021,-0.14701 0.042,-0.28464 0.063,-0.41189 0.021,-0.12725 0.042,-0.24407 0.063,-0.34956 0.021,-0.10549 0.042,-0.19961 0.063,-0.28168 0.021,-0.0821 0.042,-0.15202 0.063,-0.20936 0.021,-0.0573 0.042,-0.10202 0.063,-0.13374 0.021,-0.0318 0.042,-0.0504 0.063,-0.056 0.021,-0.005 0.042,0.002 0.063,0.0226 0.021,0.0206 0.042,0.0544 0.063,0.1009 0.021,0.0465 0.042,0.10589 0.063,0.17756 0.021,0.0717 0.042,0.15572 0.063,0.25143 0.021,0.0957 0.042,0.20311 0.063,0.32132 0.021,0.1182 0.042,0.24728 0.063,0.38613 0.021,0.13886 0.042,0.28756 0.063,0.44485 0.021,0.15731 0.042,0.32327 0.063,0.49654 0.021,0.17327 0.042,0.35388 0.063,0.54037 0.021,0.1865 0.042,0.3789 0.063,0.57567 0.021,0.19677 0.042,0.39793 0.063,0.60188 0.021,0.20394 0.042,0.41068 0.063,0.61856 0.021,0.20789 0.042,0.41693 0.063,0.62549 0.021,0.20854 0.042,0.4166 0.063,0.62251 0.021,0.20592 0.042,0.40969 0.063,0.60971 0.021,0.20003 0.042,0.3963 0.063,0.58727 0.021,0.19099 0.042,0.37665 0.063,0.55556 0.021,0.17891 0.042,0.35103 0.063,0.51505 0.021,0.16402 0.042,0.31989 0.063,0.46642 0.021,0.14653 0.042,0.28368 0.063,0.41041 0.021,0.12673 0.042,0.24298 0.063,0.34792 0.021,0.10492 0.042,0.19845 0.063,0.27991 0.021,0.0815 0.042,0.1508 0.063,0.20752 0.021,0.0567 0.042,0.10075 0.063,0.13181 0.021,0.0311 0.042,0.0491 0.063,0.054 0.021,0.005 0.042,-0.003 0.063,-0.0245 0.021,-0.0213 0.042,-0.0557 0.063,-0.10283 0.021,-0.0472 0.042,-0.10715 0.063,-0.17944 0.021,-0.0723 0.042,-0.15695 0.063,-0.25323 0.021,-0.0963 0.042,-0.20426 0.063,-0.32302 0.021,-0.11875 0.042,-0.24833 0.063,-0.38767 0.021,-0.13935 0.042,-0.2885 0.063,-0.44624 0.021,-0.15773 0.042,-0.3241 0.063,-0.49772 0.021,-0.17364 0.042,-0.35458 0.063,-0.54136 0.021,-0.18679 0.042,-0.37945 0.063,-0.57645 0.021,-0.19699 0.042,-0.39833 0.063,-0.60241 0.021,-0.20409 0.042,-0.41092 0.063,-0.61887 0.021,-0.20794 0.042,-0.417 0.063,-0.62551 0.021,-0.20853 0.042,-0.41652 0.063,-0.62232 0.021,-0.20581 0.042,-0.40942 0.063,-0.60927 0.021,-0.19983 0.042,-0.39587 0.063,-0.58659 0.021,-0.19072 0.042,-0.37607 0.063,-0.55464 0.021,-0.17857 0.042,-0.35032 0.063,-0.51394 0.021,-0.16361 0.042,-0.31903 0.063,-0.4651 0.021,-0.14607 0.042,-0.28272 0.063,-0.40892 0.021,-0.12621 0.042,-0.24192 0.063,-0.34628 0.021,-0.10436 0.042,-0.1973 0.063,-0.27817 0.021,-0.0809 0.042,-0.14957 0.063,-0.20565 0.021,-0.0561 0.042,-0.0995 0.063,-0.1299 0.021,-0.0304 0.042,-0.0478 0.063,-0.0521 0.021,-0.004 0.042,0.005 0.063,0.0266 0.021,0.022 0.042,0.057 0.063,0.10477 0.021,0.0478 0.042,0.10844 0.063,0.18134 0.021,0.0729 0.042,0.15817 0.063,0.25502 0.021,0.0969 0.042,0.20542 0.063,0.32469 0.021,0.1193 0.042,0.2494 0.063,0.38923 0.021,0.13983 0.042,0.28944 0.063,0.44761 0.021,0.15816 0.042,0.32492 0.063,0.49892 0.021,0.17399 0.042,0.35527 0.063,0.54234 0.021,0.18709 0.042,0.38001 0.063,0.57721 0.021,0.19721 0.042,0.39872 0.063,0.60294 0.021,0.20421 0.042,0.41115 0.063,0.61914 0.021,0.208 0.042,0.41707 0.063,0.62557 0.021,0.2085 0.042,0.41642 0.063,0.62211 0.021,0.2057 0.042,0.40917 0.063,0.60881 0.021,0.19965 0.042,0.39546 0.063,0.58592 0.021,0.19043 0.042,0.37549 0.063,0.55372 0.021,0.17823 0.042,0.34961 0.063,0.5128 0.021,0.16321 0.042,0.3182 0.063,0.4638 0.021,0.1456 0.042,0.28174 0.063,0.40742 0.021,0.12569 0.042,0.24085 0.063,0.34465 0.021,0.10379 0.042,0.19614 0.063,0.27639 0.021,0.0802 0.042,0.14834 0.063,0.2038 0.021,0.0554 0.042,0.0982 0.063,0.12797 0.021,0.0298 0.042,0.0465 0.063,0.0501 0.021,0.004 0.042,-0.006 0.063,-0.0285 0.021,-0.0226 0.042,-0.0583 0.063,-0.10672 0.021,-0.0485 0.042,-0.10969 0.063,-0.1832 0.021,-0.0735 0.042,-0.15938 0.063,-0.25683 0.021,-0.0975 0.042,-0.20655 0.063,-0.32637 0.021,-0.11983 0.042,-0.25045 0.063,-0.39076 0.021,-0.14032 0.042,-0.2904 0.063,-0.44899 0.021,-0.15858 0.042,-0.32574 0.063,-0.5001 0.021,-0.17435 0.042,-0.35595 0.063,-0.54332 0.021,-0.18738 0.042,-0.38055 0.063,-0.57797 0.021,-0.19741 0.042,-0.39911 0.063,-0.60346 0.021,-0.20436 0.042,-0.41138 0.063,-0.61943 0.021,-0.20804 0.042,-0.41713 0.063,-0.6256 0.021,-0.20847 0.042,-0.41631 0.063,-0.62189 0.021,-0.20559 0.042,-0.40891 0.063,-0.60836 0.021,-0.19945 0.042,-0.39504 0.063,-0.58522 0.021,-0.19017 0.042,-0.37492 0.063,-0.55281 0.021,-0.17788 0.042,-0.34888 0.063,-0.51167 0.021,-0.16279 0.042,-0.31734 0.063,-0.46247 0.021,-0.14512 0.042,-0.28077 0.063,-0.40593 0.021,-0.12516 0.042,-0.23977 0.063,-0.34299 0.021,-0.10322 0.042,-0.19499 0.063,-0.27464 0.021,-0.0796 0.042,-0.14711 0.063,-0.20193 0.021,-0.0548 0.042,-0.0969 0.063,-0.12604 0.021,-0.0291 0.042,-0.0452 0.063,-0.0482 0.021,-0.003 0.042,0.007 0.063,0.0305 0.021,0.0233 0.042,0.0596 0.063,0.10864 0.021,0.0491 0.042,0.11098 0.063,0.18511 0.021,0.0741 0.042,0.16058 0.063,0.2586 0.021,0.098 0.042,0.20769 0.063,0.32806 0.021,0.12037 0.042,0.25149 0.063,0.39229 0.021,0.14081 0.042,0.29134 0.063,0.45036 0.021,0.15901 0.042,0.32657 0.063,0.50128 0.021,0.17472 0.042,0.35664 0.063,0.5443 0.021,0.18765 0.042,0.38108 0.063,0.57871 0.021,0.19763 0.042,0.3995 0.063,0.60397 0.021,0.20448 0.042,0.4116 0.063,0.6197 0.021,0.20811 0.042,0.4172 0.063,0.62564 0.021,0.20843 0.042,0.4162 0.063,0.62167 0.021,0.20548 0.042,0.40863 0.063,0.6079 0.021,0.19926 0.042,0.3946 0.063,0.58451 0.021,0.1899 0.042,0.37434 0.063,0.55189 0.021,0.17755 0.042,0.34817 0.063,0.51054 0.021,0.16238 0.042,0.31649 0.063,0.46114 0.021,0.14465 0.042,0.2798 0.063,0.40443 0.021,0.12464 0.042,0.2387 0.063,0.34135 0.021,0.10265 0.042,0.19383 0.063,0.27287 0.021,0.079 0.042,0.14588 0.063,0.20006 0.021,0.0542 0.042,0.0957 0.063,0.12412 0.021,0.0284 0.042,0.0439 0.063,0.0462 0.021,0.002 0.042,-0.008 0.063,-0.0325 0.021,-0.0239 0.042,-0.0609 0.063,-0.1106 0.021,-0.0497 0.042,-0.11222 0.063,-0.18696 0.021,-0.0747 0.042,-0.1618 0.063,-0.26041 0.021,-0.0986 0.042,-0.20881 0.063,-0.32972 0.021,-0.1209 0.042,-0.25255 0.063,-0.39383 0.021,-0.14129 0.042,-0.29227 0.063,-0.45172 0.021,-0.15944 0.042,-0.32737 0.063,-0.50245 0.021,-0.17509 0.042,-0.35733 0.063,-0.54527 0.021,-0.18794 0.042,-0.38162 0.063,-0.57946 0.021,-0.19784 0.042,-0.39987 0.063,-0.60449 0.021,-0.20461 0.042,-0.41181 0.063,-0.61996 0.021,-0.20816 0.042,-0.41726 0.063,-0.62566 0.021,-0.2084 0.042,-0.41609 0.063,-0.62144 0.021,-0.20536 0.042,-0.40836 0.063,-0.60744 0.021,-0.19906 0.042,-0.39416 0.063,-0.5838 0.021,-0.18963 0.042,-0.37376 0.063,-0.55097 0.021,-0.1772 0.042,-0.34743 0.063,-0.50938 0.0211,-0.16199 0.042,-0.31564 0.063,-0.45982 0.021,-0.14418 0.042,-0.27882 0.063,-0.40292 0.021,-0.12412 0.042,-0.23763 0.063,-0.33971 0.021,-0.10207 0.042,-0.19265 0.063,-0.27108 0.021,-0.0784 0.042,-0.14466 0.063,-0.19821 0.021,-0.0536 0.042,-0.0944 0.063,-0.12219 0.021,-0.0277 0.042,-0.0426 0.063,-0.0442 0.0211,-0.002 0.042,0.01 0.063,0.0344 0.021,0.0245 0.042,0.0622 0.063,0.11252 0.021,0.0503 0.042,0.1135 0.063,0.18886 0.021,0.0753 0.042,0.163 0.063,0.26219 0.021,0.0992 0.042,0.20996 0.063,0.33139 0.021,0.12144 0.042,0.25358 0.063,0.39535 0.021,0.14177 0.042,0.29322 0.063,0.45308 0.0211,0.15986 0.042,0.3282 0.063,0.50363 0.021,0.17543 0.042,0.358 0.063,0.54622 0.0211,0.18824 0.042,0.38216 0.063,0.5802 0.021,0.19805 0.042,0.40024 0.063,0.60499 0.021,0.20474 0.042,0.41203 0.063,0.62023 0.021,0.2082 0.042,0.41731 0.063,0.62567 0.021,0.20837 0.042,0.41599 0.063,0.62121 0.021,0.20525 0.042,0.4081 0.063,0.60695 0.021,0.19887 0.042,0.39375 0.063,0.58311 0.021,0.18936 0.042,0.37317 0.063,0.55002 0.021,0.17685 0.042,0.3467 0.063,0.50827 0.021,0.16154 0.042,0.31475 0.063,0.45846 0.021,0.1437 0.042,0.27784 0.063,0.40142 0.021,0.12358 0.042,0.23655 0.063,0.33805 0.021,0.1015 0.042,0.19148 0.063,0.26931 0.021,0.0778 0.042,0.14342 0.063,0.19634 0.021,0.053 0.042,0.0931 0.063,0.12025 0.021,0.0271 0.042,0.0412 0.063,0.0423 0.021,6.1e-4 0.042,-0.0112 0.063,-0.0364 0.0211,-0.0251 0.042,-0.0635 0.063,-0.11446 0.021,-0.051 0.042,-0.11476 0.063,-0.19073 0.021,-0.076 0.042,-0.16421 0.063,-0.26397 0.021,-0.0998 0.042,-0.2111 0.063,-0.33306 0.021,-0.12198 0.042,-0.25464 0.063,-0.39688 0.0211,-0.14225 0.042,-0.29415 0.063,-0.45443 0.021,-0.16029 0.042,-0.32901 0.063,-0.5048 0.021,-0.17578 0.042,-0.35867 0.063,-0.54718 0.021,-0.18851 0.042,-0.38268 0.063,-0.58094 0.021,-0.19824 0.042,-0.40062 0.063,-0.60548 0.021,-0.20486 0.042,-0.41225 0.063,-0.62049 0.021,-0.20825 0.042,-0.41735 0.063,-0.62568 0.021,-0.20832 0.042,-0.41586 0.063,-0.62098 0.0211,-0.20512 0.042,-0.4078 0.063,-0.60647 0.021,-0.19867 0.042,-0.3933 0.063,-0.58238 0.021,-0.18909 0.042,-0.37257 0.063,-0.54908 0.021,-0.1765 0.042,-0.34597 0.063,-0.50711 0.021,-0.16114 0.042,-0.31389 0.063,-0.45713 0.0211,-0.14321 0.042,-0.27685 0.063,-0.39991 0.021,-0.12305 0.042,-0.23545 0.063,-0.33638 0.021,-0.10094 0.042,-0.19033 0.063,-0.26753 0.021,-0.0772 0.042,-0.1422 0.063,-0.19447 0.021,-0.0523 0.042,-0.0918 0.063,-0.11833 0.021,-0.0266 0.042,-0.04 0.063,-0.0403 0.0211,-3.1e-4 0.042,0.0125 0.063,0.0383 0.021,0.0259 0.042,0.0648 0.063,0.1164 0.021,0.0516 0.042,0.11602 0.063,0.1926 0.021,0.0766 0.042,0.16542 0.063,0.26576 0.021,0.10034 0.042,0.21223 0.063,0.33472 0.021,0.12252 0.042,0.25568 0.063,0.39841 0.0211,0.14273 0.042,0.29507 0.063,0.45577 0.021,0.1607 0.042,0.32981 0.063,0.50596 0.021,0.17614 0.042,0.35935 0.063,0.54813 0.021,0.18879 0.042,0.3832 0.063,0.58165 0.021,0.19847 0.042,0.401 0.063,0.606 0.021,0.20498 0.042,0.41244 0.063,0.62073 0.021,0.20828 0.042,0.41739 0.063,0.62567 0.021,0.2083 0.042,0.41576 0.063,0.62075 0.0211,0.205 0.042,0.40751 0.063,0.60598 0.021,0.19846 0.042,0.39286 0.063,0.58167 0.021,0.18879 0.042,0.37198 0.063,0.54813 0.021,0.17615 0.042,0.34523 0.063,0.50595 0.021,0.16072 0.042,0.31304 0.063,0.45577 0.021,0.14276 0.042,0.27588 0.063,0.39842 0.021,0.12251 0.042,0.23436 0.063,0.33472 0.021,0.10035 0.042,0.18914 0.063,0.26575 0.021,0.0766 0.042,0.14095 0.063,0.1926 0.021,0.0517 0.042,0.0905 0.063,0.11639 0.021,0.0259 0.042,0.0387 0.063,0.0384 0.021,-3e-4 0.042,-0.0138 0.063,-0.0403 0.021,-0.0265 0.042,-0.0661 0.063,-0.11833 0.021,-0.0523 0.042,-0.11727 0.063,-0.19447 0.021,-0.0772 0.042,-0.16663 0.063,-0.26753 0.021,-0.10091 0.042,-0.21336 0.063,-0.3364 0.021,-0.12302 0.042,-0.2567 0.063,-0.39991 0.021,-0.1432 0.042,-0.296 0.063,-0.45712 0.021,-0.16112 0.042,-0.33062 0.063,-0.50711 0.021,-0.17649 0.042,-0.36001 0.063,-0.54908 0.021,-0.18907 0.042,-0.38372 0.063,-0.58239 0.021,-0.19865 0.042,-0.40135 0.063,-0.60647 0.021,-0.20511 0.042,-0.41265 0.063,-0.62097 0.021,-0.20832 0.042,-0.41744 0.063,-0.62568 0.021,-0.20824 0.042,-0.41562 0.063,-0.62049 0.021,-0.20486 0.042,-0.40723 0.063,-0.60549 0.021,-0.19826 0.042,-0.39241 0.063,-0.58093 0.021,-0.18853 0.042,-0.37138 0.063,-0.54719 0.021,-0.17579 0.042,-0.34449 0.063,-0.50478 0.021,-0.1603 0.042,-0.31217 0.063,-0.45443 0.0211,-0.14228 0.042,-0.27489 0.063,-0.39688 0.021,-0.122 0.042,-0.23328 0.063,-0.33307 0.0211,-0.0998 0.042,-0.18798 0.063,-0.26397 0.021,-0.076 0.042,-0.13972 0.063,-0.19073 0.021,-0.051 0.042,-0.0892 0.063,-0.11446 0.021,-0.0252 0.042,-0.0373 0.063,-0.0364 0.0211,6.1e-4 0.042,0.0151 0.063,0.0423 0.021,0.0272 0.042,0.0674 0.063,0.12026 0.021,0.0529 0.042,0.11853 0.063,0.19633 0.021,0.0778 0.042,0.16783 0.063,0.26932 0.021,0.10149 0.042,0.21449 0.063,0.33804 0.021,0.12356 0.042,0.25775 0.063,0.40143 0.021,0.14369 0.042,0.29692 0.063,0.45847 0.021,0.16153 0.042,0.33141 0.063,0.50825 0.021,0.17685 0.042,0.36067 0.063,0.55002 0.021,0.18936 0.042,0.38424 0.063,0.5831 0.021,0.19886 0.042,0.40172 0.063,0.60695 0.021,0.20523 0.042,0.41286 0.063,0.62122 0.021,0.20837 0.042,0.41747 0.063,0.62567 0.021,0.20819 0.042,0.41548 0.063,0.62023 0.021,0.20474 0.042,0.40693 0.063,0.60499 0.021,0.19806 0.042,0.39196 0.063,0.5802 0.021,0.18823 0.042,0.37079 0.063,0.54623 0.021,0.17545 0.042,0.34375 0.063,0.50363 0.021,0.15987 0.042,0.31128 0.063,0.45308 0.021,0.14177 0.042,0.27389 0.063,0.39535 0.021,0.12145 0.042,0.23219 0.063,0.33139 0.021,0.0992 0.042,0.18681 0.063,0.26219 0.021,0.0754 0.042,0.13848 0.063,0.18886 0.021,0.0504 0.042,0.088 0.063,0.11252 0.021,0.0245 0.042,0.036 0.063,0.0344 0.021,-0.002 0.042,-0.0164 0.063,-0.0443 0.021,-0.0278 0.042,-0.0686 0.063,-0.12219 0.021,-0.0535 0.042,-0.11978 0.063,-0.1982 0.021,-0.0784 0.042,-0.16902 0.063,-0.27108 0.021,-0.10207 0.042,-0.21561 0.063,-0.3397 0.021,-0.12409 0.042,-0.25878 0.063,-0.40294 0.021,-0.14416 0.042,-0.29785 0.063,-0.4598 0.021,-0.16194 0.042,-0.33221 0.063,-0.50941 0.021,-0.17718 0.042,-0.36134 0.063,-0.55095 0.021,-0.18962 0.042,-0.38475 0.063,-0.58382 0.021,-0.19905 0.042,-0.40208 0.063,-0.60742 0.021,-0.20536 0.042,-0.41304 0.063,-0.62145 0.021,-0.2084 0.042,-0.41749 0.063,-0.62565 0.021,-0.20816 0.042,-0.41536 0.063,-0.61996 0.021,-0.20462 0.042,-0.40664 0.063,-0.60449 0.021,-0.19785 0.042,-0.39151 0.063,-0.57946 0.021,-0.18796 0.042,-0.37017 0.063,-0.54527 0.021,-0.17509 0.042,-0.34299 0.063,-0.50245 0.021,-0.15946 0.042,-0.31041 0.063,-0.45173 0.021,-0.1413 0.042,-0.27289 0.063,-0.39382 0.021,-0.12092 0.042,-0.23109 0.063,-0.32973 0.021,-0.0986 0.042,-0.18563 0.063,-0.2604 0.021,-0.0748 0.042,-0.13723 0.063,-0.18696 0.021,-0.0497 0.042,-0.0867 0.063,-0.1106 0.021,-0.0239 0.042,-0.0347 0.063,-0.0325 0.021,0.002 0.042,0.0177 0.063,0.0462 0.021,0.0284 0.042,0.07 0.063,0.12412 0.021,0.0542 0.042,0.12105 0.063,0.20006 0.021,0.079 0.042,0.17024 0.063,0.27287 0.021,0.10262 0.042,0.21673 0.063,0.34134 0.021,0.12462 0.042,0.25981 0.063,0.40444 0.021,0.14463 0.042,0.29877 0.063,0.46113 0.021,0.16237 0.042,0.33302 0.063,0.51054 0.021,0.17754 0.042,0.362 0.063,0.55189 0.021,0.18991 0.042,0.38527 0.063,0.58451 0.021,0.19926 0.042,0.40243 0.063,0.6079 0.021,0.20547 0.042,0.41324 0.063,0.62168 0.021,0.20843 0.042,0.41752 0.063,0.62563 0.021,0.2081 0.042,0.41521 0.063,0.61969 0.021,0.20449 0.042,0.40636 0.063,0.60398 0.021,0.19765 0.042,0.39104 0.063,0.57873 0.021,0.18765 0.042,0.36955 0.063,0.54428 0.021,0.17474 0.042,0.34226 0.063,0.50129 0.021,0.15904 0.042,0.30952 0.063,0.45035 0.021,0.14082 0.042,0.27191 0.063,0.3923 0.021,0.12039 0.042,0.23 0.063,0.32806 0.021,0.098 0.042,0.18444 0.063,0.2586 0.021,0.0742 0.042,0.136 0.063,0.18511 0.021,0.0491 0.042,0.0854 0.063,0.10863 0.021,0.0233 0.042,0.0334 0.063,0.0305 0.021,-0.003 0.042,-0.0191 0.063,-0.0482 0.021,-0.0291 0.042,-0.0712 0.063,-0.12603 0.021,-0.0548 0.042,-0.12232 0.063,-0.20194 0.021,-0.0796 0.042,-0.17142 0.063,-0.27463 0.021,-0.1032 0.042,-0.21786 0.063,-0.34299 0.021,-0.12514 0.042,-0.26083 0.063,-0.40594 0.021,-0.14511 0.042,-0.29968 0.063,-0.46247 0.021,-0.16277 0.042,-0.33379 0.063,-0.51167 0.021,-0.17787 0.042,-0.36265 0.063,-0.55281 0.021,-0.19017 0.042,-0.38577 0.063,-0.58521 0.021,-0.19946 0.042,-0.40278 0.063,-0.60837 0.021,-0.20557 0.042,-0.41342 0.063,-0.62188 0.021,-0.20847 0.042,-0.41755 0.063,-0.62561 0.021,-0.20805 0.042,-0.41507 0.063,-0.61942 0.021,-0.20436 0.042,-0.40604 0.063,-0.60346 0.021,-0.19743 0.042,-0.39058 0.063,-0.57797 0.021,-0.18738 0.042,-0.36894 0.063,-0.54332 0.021,-0.17438 0.042,-0.34149 0.063,-0.50011 0.021,-0.15861 0.042,-0.30863 0.063,-0.44898 0.021,-0.14034 0.042,-0.27091 0.063,-0.39076 0.021,-0.11985 0.042,-0.22891 0.063,-0.32638 0.021,-0.0975 0.042,-0.18327 0.063,-0.25682 0.021,-0.0735 0.042,-0.13475 0.063,-0.1832 0.021,-0.0485 0.042,-0.0841 0.063,-0.10672 0.021,-0.0226 0.042,-0.0322 0.063,-0.0285 0.021,0.004 0.042,0.0204 0.063,0.0501 0.021,0.0298 0.042,0.0726 0.063,0.12798 0.021,0.0554 0.042,0.12355 0.063,0.20378 0.021,0.0802 0.042,0.17263 0.063,0.2764 0.021,0.10378 0.042,0.21898 0.063,0.34464 0.021,0.12567 0.042,0.26186 0.063,0.40743 0.021,0.14559 0.042,0.3006 0.063,0.46379 0.021,0.16319 0.042,0.33459 0.063,0.51281 0.021,0.17821 0.042,0.36329 0.063,0.55373 0.021,0.19043 0.042,0.38626 0.063,0.5859 0.021,0.19965 0.042,0.40312 0.063,0.60882 0.021,0.20569 0.042,0.41361 0.063,0.62211 0.021,0.20849 0.042,0.41756 0.063,0.62556 0.021,0.208 0.042,0.41492 0.063,0.61914 0.021,0.20423 0.042,0.40573 0.063,0.60295 0.021,0.19722 0.042,0.39011 0.063,0.57721 0.021,0.18709 0.042,0.36832 0.063,0.54234 0.021,0.174 0.042,0.34074 0.063,0.49891 0.021,0.15818 0.042,0.30778 0.063,0.44762 0.021,0.13985 0.042,0.2699 0.063,0.38923 0.021,0.11931 0.042,0.2278 0.063,0.32468 0.021,0.0969 0.042,0.1821 0.063,0.25503 0.021,0.0729 0.042,0.13351 0.063,0.18134 0.021,0.0478 0.042,0.0828 0.063,0.10477 0.021,0.022 0.042,0.0307 0.063,0.0266 0.021,-0.004 0.042,-0.0217 0.063,-0.0521 0.021,-0.0304 0.042,-0.0738 0.063,-0.1299 0.021,-0.056 0.042,-0.12481 0.063,-0.20565 0.021,-0.0808 0.042,-0.17383 0.063,-0.27816 0.021,-0.10434 0.042,-0.2201 0.063,-0.34628 0.021,-0.1262 0.042,-0.26288 0.063,-0.40892 0.021,-0.14605 0.042,-0.30151 0.063,-0.46512 0.021,-0.16358 0.042,-0.33536 0.063,-0.51392 0.021,-0.17856 0.042,-0.36394 0.063,-0.55464 0.021,-0.19071 0.042,-0.38677 0.063,-0.58659 0.021,-0.19984 0.042,-0.40347 0.063,-0.60928 0.021,-0.2058 0.042,-0.41379 0.063,-0.62231 0.021,-0.20853 0.042,-0.41758 0.063,-0.62552 0.021,-0.20796 0.042,-0.41478 0.063,-0.61886 0.021,-0.20409 0.042,-0.40542 0.063,-0.60241 0.021,-0.19701 0.042,-0.38965 0.063,-0.57645 0.021,-0.18679 0.042,-0.36771 0.063,-0.54136 0.021,-0.17364 0.042,-0.33998 0.063,-0.49772 0.021,-0.15776 0.042,-0.30688 0.063,-0.44624 0.021,-0.13936 0.042,-0.26892 0.063,-0.38769 0.021,-0.11877 0.042,-0.2267 0.063,-0.323 0.021,-0.0963 0.042,-0.18092 0.063,-0.25323 0.021,-0.0723 0.042,-0.13227 0.063,-0.17945 0.021,-0.0472 0.042,-0.0815 0.063,-0.10282 0.021,-0.0213 0.042,-0.0296 0.063,-0.0245 0.021,0.005 0.042,0.023 0.063,0.054 0.021,0.031 0.042,0.0751 0.063,0.13183 0.021,0.0567 0.042,0.12606 0.063,0.2075 0.021,0.0815 0.042,0.17502 0.063,0.27993 0.021,0.1049 0.042,0.2212 0.063,0.34792 0.021,0.1267 0.042,0.26389 0.063,0.4104 0.021,0.14652 0.042,0.30242 0.063,0.46642 0.021,0.164 0.042,0.33616 0.063,0.51506 0.021,0.17889 0.042,0.36457 0.063,0.55555 0.021,0.19097 0.042,0.38725 0.063,0.58727 0.021,0.20002 0.042,0.4038 0.063,0.60971 0.021,0.2059 0.042,0.41396 0.063,0.62252 0.021,0.20854 0.042,0.41758 0.063,0.62548 0.021,0.2079 0.042,0.41461 0.063,0.61856 0.021,0.20395 0.042,0.4051 0.063,0.60187 0.021,0.19679 0.042,0.38917 0.063,0.57568 0.021,0.18651 0.042,0.36709 0.063,0.54037 0.021,0.17328 0.042,0.33921 0.063,0.49654 0.021,0.15732 0.042,0.30598 0.063,0.44485 0.021,0.13887 0.042,0.26791 0.063,0.38613 0.021,0.11824 0.042,0.22561 0.063,0.32133 0.021,0.0957 0.042,0.17972 0.063,0.25142 0.021,0.0717 0.042,0.13103 0.063,0.17757 0.021,0.0465 0.042,0.0802 0.063,0.1009 0.021,0.0206 0.042,0.0282 0.063,0.0226 0.021,-0.005 0.042,-0.0243 0.063,-0.056 0.021,-0.0317 0.042,-0.0764 0.063,-0.13374 0.021,-0.0573 0.042,-0.12731 0.063,-0.20936 0.021,-0.0821 0.042,-0.17621 0.063,-0.28169 0.021,-0.10547 0.042,-0.22231 0.063,-0.34955 0.021,-0.12724 0.042,-0.26491 0.063,-0.41189 0.021,-0.14698 0.042,-0.30332 0.063,-0.46773 0.021,-0.1644 0.042,-0.33693 0.063,-0.51617 0.021,-0.17923 0.042,-0.36521 0.063,-0.55644 0.021,-0.19125 0.042,-0.38775 0.063,-0.58796 0.021,-0.2002 0.042,-0.40413 0.063,-0.61016 0.021,-0.20601 0.042,-0.41412 0.063,-0.6227 0.021,-0.20858 0.042,-0.4176 0.063,-0.62543 0.021,-0.20783 0.042,-0.41446 0.063,-0.61827 0.021,-0.2038 0.042,-0.40477 0.063,-0.60133 0.021,-0.19656 0.042,-0.38868 0.063,-0.5749 0.021,-0.1862 0.042,-0.36646 0.063,-0.53938 0.021,-0.17292 0.042,-0.33843 0.063,-0.49532 0.021,-0.15689 0.042,-0.30509 0.063,-0.44347 0.021,-0.13839 0.042,-0.26691 0.063,-0.38459 0.021,-0.11769 0.042,-0.22449 0.063,-0.31964 0.021,-0.0951 0.042,-0.17854 0.063,-0.24962 0.021,-0.0711 0.042,-0.12977 0.063,-0.17568 0.021,-0.0459 0.042,-0.0789 0.063,-0.0989 0.021,-0.02 0.042,-0.0269 0.063,-0.0206 0.021,0.006 0.042,0.0256 0.063,0.058 0.021,0.0324 0.042,0.0777 0.063,0.13566 0.021,0.058 0.042,0.12858 0.063,0.21122 0.021,0.0827 0.042,0.1774 0.063,0.28343 0.021,0.10605 0.042,0.22344 0.063,0.35119 0.021,0.12775 0.042,0.26592 0.063,0.41337 0.021,0.14745 0.042,0.30423 0.063,0.46903 0.021,0.16481 0.042,0.3377 0.063,0.51728 0.021,0.17957 0.042,0.36585 0.063,0.55735 0.021,0.19149 0.042,0.38823 0.063,0.58861 0.021,0.2004 0.042,0.40447 0.063,0.61058 0.021,0.20613 0.042,0.41432 0.063,0.62291 0.021,0.20859 0.042,0.4176 0.063,0.62537 0.021,0.20778 0.042,0.4143 0.063,0.61796 0.021,0.20367 0.042,0.40444 0.063,0.60078 0.021,0.19635 0.042,0.38822 0.063,0.57413 0.021,0.18591 0.042,0.36583 0.063,0.53838 0.021,0.17255 0.042,0.33767 0.063,0.49412 0.021,0.15647 0.042,0.30419 0.063,0.44208 0.021,0.1379 0.042,0.26589 0.063,0.38303 0.021,0.11716 0.042,0.2234 0.063,0.31795 0.021,0.0945 0.042,0.17735 0.063,0.24782 0.021,0.0705 0.042,0.12852 0.063,0.17379 0.021,0.0452 0.042,0.0777 0.063,0.097 0.021,0.0194 0.042,0.0255 0.063,0.0187 0.021,-0.007 0.042,-0.0269 0.063,-0.0599 0.021,-0.033 0.042,-0.079 0.063,-0.13759 0.021,-0.0586 0.042,-0.12981 0.063,-0.21306 0.021,-0.0833 0.042,-0.17859 0.063,-0.2852 0.021,-0.1066 0.042,-0.22453 0.063,-0.35281 0.021,-0.12827 0.042,-0.26693 0.063,-0.41484 0.021,-0.14791 0.042,-0.30512 0.063,-0.47034 0.021,-0.1652 0.042,-0.33847 0.063,-0.51836 0.021,-0.17991 0.042,-0.3665 0.063,-0.55826 0.021,-0.19175 0.042,-0.38871 0.063,-0.58928 0.021,-0.20057 0.042,-0.4048 0.063,-0.611 0.021,-0.20623 0.042,-0.41448 0.063,-0.62309 0.021,-0.20861 0.042,-0.41759 0.063,-0.6253 0.021,-0.20772 0.042,-0.41413 0.063,-0.61766 0.021,-0.20351 0.042,-0.40412 0.063,-0.60023 0.021,-0.19611 0.042,-0.38772 0.063,-0.57333 0.021,-0.18562 0.042,-0.3652 0.063,-0.53738 0.021,-0.17218 0.042,-0.33689 0.063,-0.49292 0.021,-0.15602 0.042,-0.30328 0.063,-0.44068 0.021,-0.1374 0.042,-0.26487 0.063,-0.38147 0.021,-0.11661 0.042,-0.22228 0.063,-0.31625 0.021,-0.094 0.042,-0.17616 0.063,-0.24601 0.021,-0.0698 0.042,-0.12727 0.063,-0.17189 0.021,-0.0446 0.042,-0.0764 0.063,-0.0951 0.021,-0.0187 0.042,-0.0242 0.063,-0.0167 0.021,0.008 0.042,0.0282 0.063,0.0619 0.021,0.0336 0.042,0.0803 0.063,0.13949 0.021,0.0592 0.042,0.13107 0.063,0.21491 0.021,0.0839 0.042,0.17979 0.063,0.28695 0.021,0.10717 0.042,0.22565 0.063,0.35444 0.021,0.12878 0.042,0.26794 0.063,0.41632 0.021,0.14836 0.042,0.30601 0.063,0.47162 0.021,0.16562 0.042,0.33924 0.063,0.51948 0.021,0.18023 0.042,0.36712 0.063,0.55913 0.021,0.19201 0.042,0.38918 0.063,0.58994 0.021,0.20075 0.042,0.4051 0.063,0.61143 0.021,0.20632 0.042,0.41462 0.063,0.62326 0.021,0.20863 0.042,0.41759 0.063,0.62523 0.021,0.20764 0.042,0.41395 0.063,0.61733 0.021,0.20338 0.042,0.40378 0.063,0.59968 0.021,0.19589 0.042,0.38724 0.063,0.57254 0.021,0.18532 0.042,0.36456 0.063,0.53637 0.021,0.17181 0.042,0.33612 0.063,0.49171 0.021,0.15559 0.042,0.30238 0.063,0.43927 0.021,0.1369 0.042,0.26387 0.063,0.37992 0.021,0.11606 0.042,0.22116 0.063,0.31454 0.021,0.0934 0.042,0.17498 0.063,0.2442 0.021,0.0692 0.042,0.12603 0.063,0.17001 0.021,0.044 0.042,0.0751 0.063,0.0931 0.021,0.018 0.042,0.0229 0.063,0.0147 0.021,-0.008 0.042,-0.0296 0.063,-0.0638 0.021,-0.0343 0.042,-0.0816 0.063,-0.14142 0.021,-0.0599 0.042,-0.13231 0.063,-0.21676 0.021,-0.0845 0.042,-0.18096 0.063,-0.28869 0.021,-0.10772 0.042,-0.22675 0.063,-0.35605 0.021,-0.1293 0.042,-0.26895 0.063,-0.41778 0.021,-0.14883 0.042,-0.3069 0.063,-0.47292 0.021,-0.16601 0.042,-0.34001 0.063,-0.52057 0.021,-0.18057 0.042,-0.36774 0.063,-0.56001 0.021,-0.19227 0.042,-0.38967 0.063,-0.59059 0.021,-0.20094 0.042,-0.40543 0.063,-0.61185 0.021,-0.20642 0.042,-0.41478 0.063,-0.62342 0.021,-0.20865 0.042,-0.41759 0.063,-0.62517 0.021,-0.20757 0.042,-0.41378 0.063,-0.61701 0.021,-0.20323 0.042,-0.40345 0.063,-0.59911 0.021,-0.19566 0.042,-0.38674 0.063,-0.57175 0.021,-0.185 0.042,-0.36391 0.063,-0.53534 0.021,-0.17145 0.042,-0.33535 0.063,-0.49049 0.021,-0.15515 0.042,-0.30147 0.063,-0.43788 0.021,-0.1364 0.042,-0.26284 0.063,-0.37835 0.021,-0.11551 0.042,-0.22004 0.063,-0.31284 0.021,-0.0928 0.042,-0.17378 0.063,-0.24238 0.021,-0.0686 0.042,-0.12478 0.063,-0.16811 0.021,-0.0434 0.042,-0.0738 0.063,-0.0912 0.021,-0.0174 0.042,-0.0216 0.063,-0.0127 0.021,0.009 0.042,0.0308 0.063,0.0658 0.021,0.0349 0.042,0.0829 0.063,0.14332 0.021,0.0605 0.042,0.13357 0.063,0.21862 0.021,0.085 0.042,0.18214 0.063,0.29043 0.021,0.10829 0.042,0.22785 0.063,0.35767 0.021,0.12981 0.042,0.26995 0.063,0.41924 0.021,0.1493 0.042,0.3078 0.063,0.4742 0.021,0.1664 0.042,0.34078 0.063,0.52166 0.021,0.1809 0.042,0.36836 0.063,0.56089 0.021,0.19253 0.042,0.39014 0.063,0.59125 0.021,0.20109 0.042,0.40573 0.063,0.61224 0.021,0.20653 0.042,0.41493 0.063,0.6236 0.021,0.20866 0.042,0.41756 0.063,0.62507 0.021,0.20751 0.042,0.41361 0.063,0.61668 0.021,0.20308 0.042,0.40311 0.063,0.59855 0.021,0.19543 0.042,0.38624 0.063,0.57093 0.021,0.18471 0.042,0.36329 0.063,0.53434 0.021,0.17105 0.042,0.33456 0.063,0.48925 0.021,0.15472 0.042,0.30058 0.063,0.43648 0.021,0.13591 0.042,0.26181 0.063,0.37678 0.021,0.11497 0.042,0.21893 0.063,0.31113 0.021,0.0922 0.042,0.17258 0.063,0.24058 0.021,0.068 0.042,0.12351 0.063,0.16621 0.021,0.0427 0.042,0.0725 0.063,0.0892 0.021,0.0167 0.042,0.0203 0.063,0.0108 0.021,-0.009 0.042,-0.0322 0.063,-0.0677 0.021,-0.0356 0.042,-0.0842 0.063,-0.14525 0.021,-0.0611 0.042,-0.1348 0.063,-0.22046 0.021,-0.0856 0.042,-0.1833 0.063,-0.29217 0.021,-0.10884 0.042,-0.22894 0.063,-0.35928 0.021,-0.13031 0.042,-0.27094 0.063,-0.4207 0.021,-0.14975 0.042,-0.30868 0.063,-0.47548 0.021,-0.1668 0.042,-0.34152 0.063,-0.52274 0.021,-0.18123 0.042,-0.36898 0.063,-0.56175 0.021,-0.19279 0.042,-0.39061 0.063,-0.5919 0.021,-0.20128 0.042,-0.40604 0.063,-0.61265 0.021,-0.20661 0.042,-0.41508 0.063,-0.62375 0.021,-0.20867 0.042,-0.41754 0.063,-0.62498 0.021,-0.20744 0.042,-0.41342 0.063,-0.61635 0.021,-0.20292 0.042,-0.40276 0.063,-0.59796 0.021,-0.1952 0.042,-0.38575 0.063,-0.57014 0.021,-0.1844 0.042,-0.36262 0.063,-0.5333 0.021,-0.17068 0.042,-0.33377 0.063,-0.48804 0.021,-0.15426 0.042,-0.29964 0.063,-0.43506 0.021,-0.1354 0.042,-0.26078 0.063,-0.3752 0.021,-0.11442 0.042,-0.21781 0.063,-0.30943 0.021,-0.0916 0.042,-0.17138 0.063,-0.23875 0.021,-0.0674 0.042,-0.12226 0.063,-0.16432 0.021,-0.0421 0.042,-0.0712 0.063,-0.0873 0.021,-0.0161 0.042,-0.019 0.063,-0.009 0.021,0.0102 0.042,0.0335 0.063,0.0697 0.021,0.0362 0.042,0.0854 0.063,0.14716 0.021,0.0617 0.042,0.13605 0.063,0.22229 0.021,0.0862 0.042,0.18451 0.063,0.29393 0.021,0.1094 0.042,0.23004 0.063,0.36088 0.021,0.13084 0.042,0.27195 0.063,0.42215 0.021,0.15022 0.042,0.30957 0.063,0.47677 0.021,0.16719 0.042,0.34227 0.063,0.52382 0.021,0.18155 0.042,0.36959 0.063,0.56262 0.021,0.19303 0.042,0.39106 0.063,0.59251 0.021,0.20146 0.042,0.40636 0.063,0.61305 0.021,0.2067 0.042,0.41523 0.063,0.62391 0.021,0.20867 0.042,0.41752 0.063,0.62489 0.021,0.20736 0.042,0.41322 0.063,0.61599 0.021,0.20276 0.042,0.40242 0.063,0.59739 0.021,0.19497 0.042,0.38524 0.063,0.56932 0.021,0.1841 0.042,0.36198 0.063,0.53228 0.021,0.1703 0.042,0.33297 0.063,0.4868 0.021,0.15382 0.042,0.29873 0.063,0.43364 0.021,0.13491 0.042,0.25976 0.063,0.37363 0.021,0.11387 0.042,0.21669 0.063,0.30772 0.021,0.091 0.042,0.17019 0.063,0.23693 0.021,0.0668 0.042,0.121 0.063,0.16241 0.021,0.0414 0.042,0.0699 0.063,0.0853 0.021,0.0154 0.042,0.0177 0.063,0.007 0.021,-0.0109 0.042,-0.0348 0.063,-0.0717 0.021,-0.0368 0.042,-0.0867 0.063,-0.14907 0.021,-0.0624 0.042,-0.13729 0.063,-0.22414 0.021,-0.0868 0.042,-0.18567 0.063,-0.29564 0.021,-0.10998 0.042,-0.23115 0.063,-0.3625 0.021,-0.13134 0.042,-0.27294 0.063,-0.4236 0.021,-0.15067 0.042,-0.31045 0.063,-0.47804 0.021,-0.16759 0.042,-0.34302 0.063,-0.5249 0.021,-0.18187 0.042,-0.37019 0.063,-0.56347 0.021,-0.19328 0.042,-0.39154 0.063,-0.59315 0.021,-0.20163 0.042,-0.40665 0.063,-0.61344 0.021,-0.20679 0.042,-0.41535 0.063,-0.62405 0.021,-0.20868 0.042,-0.41749 0.063,-0.62478 0.021,-0.2073 0.042,-0.41304 0.063,-0.61565 0.021,-0.20261 0.042,-0.40206 0.063,-0.5968 0.021,-0.19474 0.042,-0.38473 0.063,-0.56851 0.021,-0.18377 0.042,-0.36131 0.063,-0.53123 0.021,-0.16992 0.042,-0.33218 0.063,-0.48556 0.021,-0.15338 0.042,-0.29781 0.063,-0.43222 0.021,-0.13442 0.042,-0.25874 0.063,-0.37205 0.021,-0.11332 0.042,-0.21557 0.063,-0.306 0.021,-0.0904 0.042,-0.16899 0.063,-0.23513 0.021,-0.0661 0.042,-0.11973 0.063,-0.1605 0.021,-0.0408 0.042,-0.0686 0.063,-0.0834 0.021,-0.0149 0.042,-0.0164 0.063,-0.005 0.021,0.0115 0.042,0.0361 0.063,0.0736 0.021,0.0375 0.042,0.088 0.063,0.15099 0.021,0.063 0.042,0.13851 0.063,0.22597 0.0211,0.0874 0.042,0.18685 0.063,0.29737 0.021,0.11054 0.042,0.23223 0.063,0.3641 0.021,0.13186 0.042,0.27394 0.063,0.42505 0.021,0.15111 0.042,0.31133 0.063,0.4793 0.021,0.16798 0.042,0.34378 0.063,0.52598 0.021,0.18218 0.042,0.3708 0.063,0.56432 0.021,0.19352 0.042,0.39197 0.063,0.59377 0.021,0.20179 0.042,0.40694 0.063,0.61382 0.021,0.20687 0.042,0.41549 0.063,0.62418 0.021,0.2087 0.042,0.41746 0.063,0.62468 0.021,0.20721 0.042,0.41285 0.063,0.6153 0.021,0.20245 0.042,0.40171 0.063,0.5962 0.021,0.19451 0.042,0.38423 0.063,0.56769 0.021,0.18346 0.042,0.36065 0.063,0.53019 0.0211,0.16954 0.042,0.33138 0.063,0.48432 0.021,0.15294 0.042,0.29689 0.063,0.43079 0.0211,0.13392 0.042,0.25771 0.063,0.37048 0.021,0.11276 0.042,0.21444 0.063,0.30428 0.021,0.0898 0.042,0.16779 0.063,0.23328 0.021,0.0655 0.042,0.11849 0.063,0.15861 0.0211,0.0401 0.042,0.0673 0.063,0.0814 0.021,0.014 0.042,0.0151 0.063,0.003 0.021,-0.0121 0.042,-0.0374 0.063,-0.0756 0.021,-0.0382 0.042,-0.0893 0.063,-0.1529 0.021,-0.0636 0.042,-0.13976 0.063,-0.22781 0.021,-0.088 0.042,-0.18802 0.063,-0.2991 0.021,-0.11109 0.042,-0.23332 0.063,-0.36569 0.021,-0.13237 0.042,-0.27493 0.063,-0.4265 0.021,-0.15157 0.042,-0.31219 0.063,-0.48056 0.021,-0.16836 0.042,-0.34453 0.063,-0.52703 0.021,-0.18251 0.042,-0.37141 0.063,-0.56518 0.021,-0.19377 0.042,-0.39242 0.063,-0.59438 0.021,-0.20197 0.042,-0.40725 0.063,-0.61421 0.021,-0.20696 0.042,-0.41563 0.063,-0.62432 0.021,-0.2087 0.042,-0.41743 0.063,-0.62455 0.021,-0.20713 0.042,-0.41266 0.063,-0.61494 0.021,-0.20231 0.042,-0.40136 0.063,-0.59561 0.021,-0.19427 0.042,-0.38369 0.063,-0.56686 0.021,-0.18314 0.042,-0.35998 0.063,-0.52913 0.0211,-0.16916 0.042,-0.33059 0.063,-0.48308 0.021,-0.15248 0.042,-0.29596 0.063,-0.42936 0.021,-0.13341 0.042,-0.25667 0.063,-0.36888 0.021,-0.11222 0.042,-0.21331 0.063,-0.30256 0.021,-0.0893 0.042,-0.16658 0.063,-0.23147 0.021,-0.0649 0.042,-0.11722 0.063,-0.15671 0.0211,-0.0395 0.042,-0.066 0.063,-0.0795 0.021,-0.0135 0.042,-0.0138 0.063,-6e-4 0.0211,0.0127 0.042,0.0387 0.063,0.0775 0.021,0.0388 0.042,0.0906 0.063,0.1548 0.021,0.0642 0.042,0.141 0.063,0.22964 0.021,0.0886 0.042,0.18919 0.063,0.30084 0.021,0.11163 0.042,0.23441 0.063,0.36728 0.021,0.13288 0.042,0.27592 0.063,0.42794 0.021,0.15201 0.042,0.31306 0.063,0.48181 0.021,0.16877 0.042,0.34526 0.063,0.52809 0.021,0.18283 0.042,0.37201 0.063,0.56602 0.021,0.19401 0.042,0.39288 0.063,0.595 0.021,0.20212 0.042,0.40754 0.063,0.61457 0.021,0.20705 0.042,0.41574 0.063,0.62443"
       style="opacity:1;fill:none;fill-opacity:1;stroke:#ffffff;stroke-width:0.27216092;stroke-linecap:butt;stroke-linejoin:miter;stroke-miterlimit:4;stroke-dasharray:none;stroke-opacity:0.60616437;paint-order:normal"
       inkscape:connector-curvature="0" />
    <rect
       style="opacity:0.7229996;fill:#0044aa;fill-opacity:1;stroke:none;stroke-width:3.56790257;stroke-linecap:butt;stroke-linejoin:miter;stroke-miterlimit:4;stroke-dasharray:none;stroke-opacity:1;paint-order:normal;filter:url(#filter4610)"
       id="rect1368"
       width="338.86819"
       height="53.400391"
       x="-0.2006578"
       y="128.24081"
       transform="matrix(1.0189264,-0.00172372,0,0.75342456,-3.2034235,71.429842)" />
    <text
       xml:space="preserve"
       style="font-style:normal;font-variant:normal;font-weight:600;font-stretch:normal;font-size:22.57777786px;line-height:1.25;font-family:'Source Sans Pro';-inkscape-font-specification:'Source Sans Pro Semi-Bold';letter-spacing:0px;word-spacing:0px;fill:#ffffff;fill-opacity:0.94117647;stroke:none;stroke-width:0.26458332"
       x="55.906116"
       y="195.29337"
       id="text17"><tspan
         sodipodi:role="line"
         id="tspan15"
         x="55.906116"
         y="195.29337"
         style="font-size:22.57777977px;fill:#ffffff;fill-opacity:0.94117647;stroke-width:0.26458332">Universal Radio Hacker</tspan></text>
    <text
       xml:space="preserve"
       style="font-style:normal;font-variant:normal;font-weight:600;font-stretch:normal;font-size:9.87777805px;line-height:1.25;font-family:'Source Sans Pro';-inkscape-font-specification:'Source Sans Pro Semi-Bold';letter-spacing:0px;word-spacing:0px;fill:#ffffff;fill-opacity:1;stroke:none;stroke-width:0.26458335"
       x="81.418678"
       y="207.66853"
       id="text4616"><tspan
         sodipodi:role="line"
         id="tspan4614"
         x="81.418678"
         y="207.66853"
         style="font-style:normal;font-variant:normal;font-weight:600;font-stretch:normal;font-family:'Source Sans Pro';-inkscape-font-specification:'Source Sans Pro Semi-Bold';fill:#ffffff;stroke-width:0.26458335">Investigate Wireless Protocols Like A Boss</tspan></text>
    <flowRoot
       xml:space="preserve"
       id="flowRoot4726"
       style="font-style:normal;font-variant:normal;font-weight:normal;font-stretch:normal;font-size:40px;line-height:1.25;font-family:'Source Code Pro';-inkscape-font-specification:'Source Code Pro';letter-spacing:0px;word-spacing:0px;fill:#000000;fill-opacity:1;stroke:none"
       transform="matrix(0.20350043,0,0,0.20350043,128.46606,149.33963)"><flowRegion
         id="flowRegion4728"
         style="font-style:normal;font-variant:normal;font-weight:normal;font-stretch:normal;font-family:'Source Code Pro';-inkscape-font-specification:'Source Code Pro'"><rect
           id="rect4730"
           width="770"
           height="120"
           x="280"
           y="450"
           style="font-style:normal;font-variant:normal;font-weight:normal;font-stretch:normal;font-family:'Source Code Pro';-inkscape-font-specification:'Source Code Pro'" /></flowRegion><flowPara
         id="flowPara4732"
         style="font-style:normal;font-variant:normal;font-weight:normal;font-stretch:normal;font-family:'Source Code Pro';-inkscape-font-specification:'Source Code Pro';fill:#ffffff;fill-opacity:0.60784314">0xaa1337</flowPara></flowRoot>    <g
       id="g173"
       style="fill:#ffffff;filter:url(#filter1391)"
       inkscape:transform-center-x="0.69342815"
       inkscape:transform-center-y="3.5646894">
      <path
         d="m 156.10221,245.66934 v -22.73773 l -18.83199,9.21899 v 25.62374 z"
         style="fill:#353564;fill-rule:evenodd;stroke:none;stroke-width:0.69598246;stroke-linejoin:round"
         id="path877"
         inkscape:connector-curvature="0" />
      <path
         d="m 156.10221,245.66934 30.90855,8.91335 -18.25577,16.20776 -31.48477,-13.01611 z"
         style="fill:#4d4d9f;fill-rule:evenodd;stroke:none;stroke-width:0.69598246;stroke-linejoin:round"
         id="path879"
         inkscape:connector-curvature="0" />
      <path
         d="m 156.10221,245.66934 30.90855,8.91335 v -27.1555 l -30.90855,-4.49558 z"
         style="fill:#8686bf;fill-rule:evenodd;stroke:none;stroke-width:0.69598246;stroke-linejoin:round"
         id="path881"
         inkscape:connector-curvature="0" />
      <path
         d="m 156.10221,222.93161 30.90855,4.49558 -18.25577,11.98726 -31.48477,-7.26385 z"
         style="fill:#afafde;fill-rule:evenodd;stroke:none;stroke-width:0.69598246;stroke-linejoin:round"
         id="path883"
         inkscape:connector-curvature="0" />
      <path
         d="m 187.01076,254.58269 v -27.1555 l -18.25577,11.98726 v 31.376 z"
         style="fill:#d7d7ff;fill-rule:evenodd;stroke:none;stroke-width:0.69598246;stroke-linejoin:round"
         id="path885"
         inkscape:connector-curvature="0" />
      <path
         d="m 137.27022,257.77434 31.48477,13.01611 v -31.376 l -31.48477,-7.26385 z"
         style="fill:#e9e9ff;fill-rule:evenodd;stroke:none;stroke-width:0.69598246;stroke-linejoin:round"
         id="path887"
         inkscape:connector-curvature="0" />
    </g>
    <g
       aria-label="URH"
       transform="matrix(0,-1,-1,0,0,0)"
       style="font-style:normal;font-weight:normal;font-size:10.58320045px;line-height:1.25;font-family:sans-serif;letter-spacing:0px;word-spacing:0px;fill:#000000;fill-opacity:1;stroke:none;stroke-width:0.26458001"
       id="text1376">
      <path
         id="path1378"
         style="font-style:normal;font-variant:normal;font-weight:bold;font-stretch:normal;font-family:'Source Sans Pro';-inkscape-font-specification:'Source Sans Pro Bold';stroke-width:0.20641832;opacity:0.151;filter:url(#filter1507)"
         d="m -257.56937,-143.72065 c -0.85007,-2.056 1.8304,-3.11863 8.8341,-3.11863 0,0 10.9831,0 10.9831,0 0,0 0.41723,1.80804 0.41723,1.80804 0,0 -11.34393,0 -11.34393,0 -3.88577,0 -5.05854,0.46395 -4.73976,1.31059 0.30973,0.82257 1.78651,1.24649 5.58491,1.24649 0,0 11.08885,0 11.08885,0 0,0 0.40185,1.74138 0.40185,1.74138 0,0 -10.40257,0 -10.40257,0 -6.6335,0 -10.00371,-1.00443 -10.82378,-2.98787 0,0 0,0 0,0"
         inkscape:connector-curvature="0" />
      <path
         id="path1380"
         style="font-style:normal;font-variant:normal;font-weight:bold;font-stretch:normal;font-family:'Source Sans Pro';-inkscape-font-specification:'Source Sans Pro Bold';stroke-width:0.20641832;opacity:0.151;filter:url(#filter1535)"
         d="m -259.2319,-148.68031 c 0,0 -0.8281,-2.01901 -0.8281,-2.01901 0,0 7.53383,0 7.53383,0 0,0 -0.35017,-1.009 -0.35017,-1.009 0,0 -8.26538,-1.62836 -8.26538,-1.62836 0,0 -1.00114,-2.44091 -1.00114,-2.44091 0,0 9.54086,2.04076 9.54086,2.04076 0.7709,-0.93458 2.64523,-1.57036 5.89122,-1.57036 5.36444,0 7.3797,1.62571 7.81338,3.50507 0,0 0.7204,3.12181 0.7204,3.12181 0,0 -21.0549,0 -21.0549,0 m 10.75226,-2.01901 c 0,0 5.79016,0 5.79016,0 0,0 -0.24933,-0.9421 -0.24933,-0.9421 -0.26408,-0.99785 -1.08033,-1.54416 -3.16253,-1.54416 -2.08221,0 -2.9858,0.54631 -2.67332,1.54416 0,0 0.29502,0.9421 0.29502,0.9421"
         inkscape:connector-curvature="0" />
      <path
         id="path1382"
         style="font-style:normal;font-variant:normal;font-weight:bold;font-stretch:normal;font-family:'Source Sans Pro';-inkscape-font-specification:'Source Sans Pro Bold';stroke-width:0.20641832;opacity:0.151;filter:url(#filter1479)"
         d="m -262.68855,-157.10805 c 0,0 -0.95248,-2.32225 -0.95248,-2.32225 0,0 9.46165,0 9.46165,0 0,0 -1.12483,-3.34472 -1.12483,-3.34472 0,0 -9.70866,0 -9.70866,0 0,0 -1.03429,-2.52171 -1.03429,-2.52171 0,0 24.03573,0 24.03573,0 0,0 0.58192,2.52171 0.58192,2.52171 0,0 -8.98415,0 -8.98415,0 0,0 1.0004,3.34472 1.0004,3.34472 0,0 8.75558,0 8.75558,0 0,0 0.53588,2.32225 0.53588,2.32225 0,0 -22.56675,0 -22.56675,0"
         inkscape:connector-curvature="0" />
    </g>
  </g>
</svg>
