<?xml version="1.0" encoding="UTF-8" standalone="no"?>
<!-- Created with Inkscape (http://www.inkscape.org/) -->

<svg
   xmlns:osb="http://www.openswatchbook.org/uri/2009/osb"
   xmlns:dc="http://purl.org/dc/elements/1.1/"
   xmlns:cc="http://creativecommons.org/ns#"
   xmlns:rdf="http://www.w3.org/1999/02/22-rdf-syntax-ns#"
   xmlns:svg="http://www.w3.org/2000/svg"
   xmlns="http://www.w3.org/2000/svg"
   xmlns:xlink="http://www.w3.org/1999/xlink"
   xmlns:sodipodi="http://sodipodi.sourceforge.net/DTD/sodipodi-0.dtd"
   xmlns:inkscape="http://www.inkscape.org/namespaces/inkscape"
   width="1280"
   height="640"
   viewBox="0 0 338.66669 169.33334"
   version="1.1"
   id="svg8"
   inkscape:version="0.92.4 5da689c313, 2019-01-14"
   sodipodi:docname="appicon_big.svg"
   inkscape:export-filename="/home/joe/Bilder/urh_big.png"
   inkscape:export-xdpi="96"
   inkscape:export-ydpi="96">
  <defs
     id="defs2">
    <linearGradient
       id="linearGradient1425"
       osb:paint="gradient">
      <stop
         style="stop-color:#ff6600;stop-opacity:1;"
         offset="0"
         id="stop1421" />
      <stop
         style="stop-color:#ff6600;stop-opacity:0;"
         offset="1"
         id="stop1423" />
    </linearGradient>
    <linearGradient
       inkscape:collect="always"
       id="linearGradient1226">
      <stop
         style="stop-color:#ffffff;stop-opacity:1;"
         offset="0"
         id="stop1222" />
      <stop
         style="stop-color:#ffffff;stop-opacity:0;"
         offset="1"
         id="stop1224" />
    </linearGradient>
    <linearGradient
       inkscape:collect="always"
       id="linearGradient3266">
      <stop
         style="stop-color:#ffffff;stop-opacity:1;"
         offset="0"
         id="stop3262" />
      <stop
         style="stop-color:#ffffff;stop-opacity:0;"
         offset="1"
         id="stop3264" />
    </linearGradient>
    <linearGradient
       inkscape:collect="always"
       id="linearGradient3107">
      <stop
         style="stop-color:#2a2aff;stop-opacity:1;"
         offset="0"
         id="stop3103" />
      <stop
         style="stop-color:#2a2aff;stop-opacity:0;"
         offset="1"
         id="stop3105" />
    </linearGradient>
    <linearGradient
       inkscape:collect="always"
       id="linearGradient945">
      <stop
         style="stop-color:#ff0000;stop-opacity:1;"
         offset="0"
         id="stop941" />
      <stop
         style="stop-color:#ff0000;stop-opacity:0;"
         offset="1"
         id="stop943" />
    </linearGradient>
    <radialGradient
       inkscape:collect="always"
       xlink:href="#linearGradient945"
       id="radialGradient947"
       cx="333.11038"
       cy="207.30624"
       fx="333.11038"
       fy="207.30624"
       r="57.606251"
       gradientUnits="userSpaceOnUse"
       gradientTransform="matrix(0.66371312,0,0,0.66371312,65.885248,95.016519)" />
    <filter
       y="-0.25"
       height="1.5"
       inkscape:menu-tooltip="Light areas turn to black"
       inkscape:menu="Color"
       inkscape:label="Black Light"
       style="color-interpolation-filters:sRGB"
       id="filter3101">
      <feGaussianBlur
         stdDeviation="5"
         result="result6"
         id="feGaussianBlur3091" />
      <feComposite
         result="result8"
         in="SourceGraphic"
         operator="atop"
         in2="result6"
         id="feComposite3093" />
      <feComposite
         result="result9"
         operator="over"
         in2="SourceAlpha"
         in="result8"
         id="feComposite3095" />
      <feColorMatrix
         values="1 0 0 0 0 0 1 0 0 0 0 0 1 0 0 0 0 0 1 0 "
         result="result10"
         id="feColorMatrix3097" />
      <feBlend
         in="result10"
         mode="normal"
         in2="result6"
         id="feBlend3099"
         result="fbSourceGraphic" />
      <feColorMatrix
         result="fbSourceGraphicAlpha"
         in="fbSourceGraphic"
         values="0 0 0 -1 0 0 0 0 -1 0 0 0 0 -1 0 0 0 0 1 0"
         id="feColorMatrix1358" />
      <feColorMatrix
         id="feColorMatrix1360"
         type="luminanceToAlpha"
         result="result2"
         in="fbSourceGraphic" />
      <feComposite
         in2="fbSourceGraphic"
         id="feComposite1362"
         operator="arithmetic"
         in="result2"
         k3="2"
         result="result4"
         k1="0"
         k2="0"
         k4="0" />
      <feBlend
         in2="result2"
         id="feBlend1364"
         in="result4"
         mode="multiply"
         result="result3" />
      <feComposite
         in2="fbSourceGraphic"
         id="feComposite1366"
         operator="in"
         in="result3" />
    </filter>
    <linearGradient
       inkscape:collect="always"
       xlink:href="#linearGradient3107"
       id="linearGradient3109"
       x1="-8.2065468"
       y1="154.03783"
       x2="259.60541"
       y2="154.03783"
       gradientUnits="userSpaceOnUse" />
    <linearGradient
       inkscape:collect="always"
       xlink:href="#linearGradient3266"
       id="linearGradient3268"
       x1="106.5204"
       y1="209.60114"
       x2="327.20642"
       y2="209.60114"
       gradientUnits="userSpaceOnUse"
       gradientTransform="matrix(0.90951245,0,0,0.9095125,-39.483988,59.716976)" />
    <linearGradient
       inkscape:collect="always"
       xlink:href="#linearGradient1226"
       id="linearGradient1228"
       x1="46.15263"
       y1="184.18552"
       x2="215.02315"
       y2="184.18552"
       gradientUnits="userSpaceOnUse"
       gradientTransform="matrix(1.1482119,0,0,0.96499074,-37.081766,30.890478)" />
    <filter
       inkscape:collect="always"
       style="color-interpolation-filters:sRGB"
       id="filter4610"
       x="-0.14336009"
       width="1.2867202"
       y="-0.89671343"
       height="2.7934269">
      <feGaussianBlur
         inkscape:collect="always"
         stdDeviation="20.24174"
         id="feGaussianBlur4612" />
    </filter>
  </defs>
  <sodipodi:namedview
     id="base"
     pagecolor="#000000"
     bordercolor="#666666"
     borderopacity="1.0"
     inkscape:pageopacity="1"
     inkscape:pageshadow="2"
     inkscape:zoom="0.70710678"
     inkscape:cx="574.59943"
     inkscape:cy="365.81784"
     inkscape:document-units="px"
     inkscape:current-layer="layer1"
     showgrid="true"
     units="px"
     inkscape:window-width="1920"
     inkscape:window-height="1121"
     inkscape:window-x="0"
     inkscape:window-y="0"
     inkscape:window-maximized="1"
     showguides="false"
     inkscape:lockguides="false">
    <inkscape:grid
       type="xygrid"
       id="grid4600" />
  </sodipodi:namedview>
  <metadata
     id="metadata5">
    <rdf:RDF>
      <cc:Work
         rdf:about="">
        <dc:format>image/svg+xml</dc:format>
        <dc:type
           rdf:resource="http://purl.org/dc/dcmitype/StillImage" />
        <dc:title></dc:title>
      </cc:Work>
    </rdf:RDF>
  </metadata>
  <g
     inkscape:label="Ebene 1"
     inkscape:groupmode="layer"
     id="layer1"
     transform="translate(0,-127.66666)">
    <path
       sodipodi:type="star"
       style="opacity:0.75400002;fill:url(#linearGradient3109);fill-opacity:1;stroke:none;stroke-width:2.5;stroke-linecap:butt;stroke-linejoin:miter;stroke-miterlimit:4;stroke-dasharray:none;stroke-opacity:1;paint-order:normal;filter:url(#filter3101)"
       id="path30"
       sodipodi:sides="3"
       sodipodi:cx="88.503319"
       sodipodi:cy="154.03783"
       sodipodi:r1="148.78441"
       sodipodi:r2="74.392204"
       sodipodi:arg1="2.0943951"
       sodipodi:arg2="3.1415927"
       inkscape:flatsided="true"
       inkscape:rounded="0"
       inkscape:randomized="0"
       d="M 14.111115,282.8889 14.111114,25.186749 237.28773,154.03783 Z"
       inkscape:transform-center-x="-39.687498"
       transform="matrix(1.0669801,0,0,0.3285447,-4.4729451,182.89169)"
       inkscape:transform-center-y="6.6326306e-06" />
    <text
       xml:space="preserve"
       style="font-style:normal;font-variant:normal;font-weight:600;font-stretch:normal;font-size:22.57777786px;line-height:1.25;font-family:'Source Code Pro';-inkscape-font-specification:'Source Code Pro Semi-Bold';letter-spacing:0px;word-spacing:0px;fill:#ffffff;fill-opacity:1;stroke:none;stroke-width:0.26458332"
       x="204.86308"
       y="235.0119"
       id="text6945"><tspan
         sodipodi:role="line"
         id="tspan6943"
         x="204.86308"
         y="254.76746"
         style="font-style:normal;font-variant:normal;font-weight:600;font-stretch:normal;font-family:'Source Code Pro';-inkscape-font-specification:'Source Code Pro Semi-Bold';fill:#ffffff;stroke-width:0.26458332" /></text>
    <text
       xml:space="preserve"
       style="font-style:normal;font-variant:normal;font-weight:600;font-stretch:normal;font-size:17.99347115px;line-height:1.25;font-family:'Source Sans Pro';-inkscape-font-specification:'Source Sans Pro Semi-Bold';letter-spacing:0px;word-spacing:0px;fill:url(#linearGradient3268);fill-opacity:1;stroke:none;stroke-width:0.21086095"
       x="56.299938"
       y="244.54053"
       id="text6949"
       transform="scale(0.98167661,1.0186654)"><tspan
         sodipodi:role="line"
         id="tspan6947"
         x="56.299938"
         y="244.54053"
         style="font-style:normal;font-variant:normal;font-weight:bold;font-stretch:normal;font-family:'Source Code Pro';-inkscape-font-specification:'Source Code Pro Bold';fill:url(#linearGradient3268);fill-opacity:1;stroke:none;stroke-width:0.21086095"><tspan
   style="opacity:0.14190321;fill:url(#linearGradient3268);fill-opacity:1;stroke:none;stroke-width:0.21086095;stroke-opacity:1"
   id="tspan6961">10101010</tspan>10010100</tspan><tspan
         sodipodi:role="line"
         x="56.299938"
         y="267.58835"
         style="font-style:normal;font-variant:normal;font-weight:bold;font-stretch:normal;font-family:'Source Code Pro';-inkscape-font-specification:'Source Code Pro Bold';fill:url(#linearGradient3268);fill-opacity:1;stroke:none;stroke-width:0.21086095"
         id="tspan7229">aa9472deadcafede</tspan></text>
    <flowRoot
       xml:space="preserve"
       id="flowRoot7231"
       style="font-style:normal;font-variant:normal;font-weight:600;font-stretch:normal;font-size:85.33333588px;line-height:1.25;font-family:'Source Sans Pro';-inkscape-font-specification:'Source Sans Pro Semi-Bold';letter-spacing:0px;word-spacing:0px;fill:#000000;fill-opacity:1;stroke:none"><flowRegion
         id="flowRegion7233"><rect
           id="rect7235"
           width="40"
           height="118"
           x="1112"
           y="453.33334" /></flowRegion><flowPara
         id="flowPara7237" /></flowRoot>    <circle
       style="opacity:1;fill:url(#radialGradient947);fill-opacity:1;stroke:#ffffff;stroke-width:1.99113941;stroke-linecap:butt;stroke-linejoin:miter;stroke-miterlimit:4;stroke-dasharray:none;stroke-opacity:0.78270042;paint-order:normal"
       id="path925"
       cx="286.9747"
       cy="232.60788"
       inkscape:export-xdpi="96"
       inkscape:export-ydpi="96"
       r="37.194256" />
    <path
       style="fill:none;stroke:#ffffff;stroke-width:1.3274262;stroke-linecap:butt;stroke-linejoin:miter;stroke-miterlimit:4;stroke-dasharray:none;stroke-opacity:0.78270042"
       d="m 250.27293,232.61039 h 74.10633"
       id="path951"
       inkscape:connector-curvature="0"
       inkscape:export-xdpi="96"
       inkscape:export-ydpi="96" />
    <path
       style="opacity:1;fill:none;fill-opacity:1;stroke:#ffffff;stroke-width:1.3274262;stroke-linecap:butt;stroke-linejoin:miter;stroke-miterlimit:4;stroke-dasharray:none;stroke-opacity:0.78270042;paint-order:normal"
       d="m 286.83945,195.90666 v 74.45756"
       id="path957"
       inkscape:connector-curvature="0"
       inkscape:export-xdpi="96"
       inkscape:export-ydpi="96" />
    <circle
       style="opacity:1;fill:none;fill-opacity:1;stroke:#ffffff;stroke-width:1.07555819;stroke-linecap:butt;stroke-linejoin:miter;stroke-miterlimit:4;stroke-dasharray:none;stroke-opacity:0.78270042;paint-order:normal"
       id="path925-5"
       cx="286.88156"
       cy="232.46361"
       inkscape:export-xdpi="96"
       inkscape:export-ydpi="96"
       r="20.091305" />
    <path
       id="path1217"
       title="sin(10*x)"
       d="m 17.05222,208.62793 c 0.06394,0.47692 0.127872,0.95382 0.191808,1.42696 0.06394,0.47315 0.127873,0.94252 0.191809,1.40441 0.06394,0.4619 0.127873,0.9163 0.191809,1.35967 0.06394,0.44336 0.127872,0.87562 0.19181,1.29344 0.06394,0.41782 0.127871,0.8211 0.191808,1.20676 0.06394,0.38568 0.127872,0.75362 0.191809,1.10102 0.06393,0.34745 0.127873,0.67423 0.191809,0.97791 0.06394,0.3037 0.127873,0.58416 0.191808,0.8393 0.06394,0.25518 0.127874,0.48489 0.191809,0.68748 0.06393,0.20259 0.127874,0.37791 0.191809,0.52475 0.06394,0.14683 0.127873,0.265 0.19181,0.35375 0.06394,0.0888 0.127872,0.14788 0.191809,0.17713 0.06394,0.0292 0.127872,0.0284 0.191809,-0.002 0.06394,-0.0307 0.127873,-0.0914 0.191809,-0.18162 0.06394,-0.0902 0.127873,-0.2099 0.191809,-0.35808 0.06393,-0.14821 0.127872,-0.32505 0.191808,-0.52893 0.06394,-0.20391 0.127873,-0.43503 0.191809,-0.69142 0.06394,-0.25635 0.127873,-0.53815 0.19181,-0.84295 0.06394,-0.30478 0.127871,-0.63276 0.191809,-0.98116 0.06394,-0.34841 0.127872,-0.71739 0.191809,-1.10389 0.06394,-0.38653 0.127872,-0.79067 0.191808,-1.20918 0.06394,-0.41851 0.127873,-0.85145 0.191809,-1.29534 0.06394,-0.4439 0.127874,-0.89881 0.191809,-1.36107 0.06394,-0.46224 0.127873,-0.93191 0.191809,-1.40524 0.06393,-0.47331 0.127873,-0.95032 0.191809,-1.42723 0.06394,-0.47689 0.127873,-0.9537 0.191809,-1.42666 0.06394,-0.47294 0.127872,-0.94201 0.19181,-1.40355 0.06393,-0.46154 0.127872,-0.91546 0.191809,-1.35827 0.06394,-0.4428 0.127872,-0.87441 0.191808,-1.2915 0.06394,-0.4171 0.127873,-0.81958 0.191809,-1.20436 0.06394,-0.38479 0.127873,-0.75176 0.191809,-1.09817 0.06394,-0.34638 0.127872,-0.67207 0.191808,-0.97461 0.06394,-0.30253 0.127873,-0.58176 0.19181,-0.83565 0.06394,-0.2539 0.127872,-0.48229 0.191809,-0.68353 0.06394,-0.20124 0.127873,-0.37516 0.191809,-0.52056 0.06394,-0.1454 0.127873,-0.26212 0.191809,-0.34938 0.06394,-0.0873 0.127873,-0.14493 0.191808,-0.17269 0.06394,-0.0278 0.127874,-0.0255 0.191809,0.007 0.06394,0.0323 0.127873,0.0944 0.191809,0.18609 0.06394,0.0916 0.127873,0.21283 0.19181,0.36245 0.06394,0.14963 0.127872,0.32784 0.191809,0.5331 0.06394,0.20527 0.127873,0.4377 0.191809,0.69534 0.06394,0.25764 0.127873,0.54062 0.191809,0.84658 0.06394,0.30593 0.127872,0.63501 0.191808,0.98443 0.06394,0.34944 0.127873,0.71935 0.191809,1.10674 0.06394,0.38738 0.127873,0.79236 0.191809,1.21158 0.06394,0.41921 0.127872,0.8528 0.19181,1.29725 0.06394,0.44443 0.127871,0.89979 0.191809,1.3624 0.06394,0.46263 0.127872,0.93256 0.191808,1.40607 0.06393,0.4735 0.127873,0.95059 0.191809,1.42748 0.06394,0.4769 0.127873,0.95361 0.191809,1.42638 0.06394,0.47275 0.127873,0.94153 0.191808,1.40267 0.06394,0.46115 0.127874,0.91461 0.19181,1.35686 0.06393,0.44227 0.127873,0.87322 0.191809,1.2896 0.06394,0.41635 0.127872,0.81802 0.191809,1.2019 0.06394,0.3839 0.127872,0.74992 0.19181,1.0953 0.06393,0.34535 0.127872,0.66994 0.191808,0.97129 0.06394,0.30138 0.127873,0.57942 0.191809,0.83202 0.06394,0.25262 0.127873,0.47969 0.191809,0.67956 0.06393,0.19989 0.127872,0.37241 0.191808,0.51638 0.06394,0.14398 0.127873,0.25925 0.19181,0.34503 0.06394,0.0858 0.127872,0.14197 0.191809,0.16822 0.06394,0.0263 0.127872,0.0224 0.191809,-0.0113 0.06394,-0.0337 0.127872,-0.0974 0.191809,-0.19052 0.06394,-0.0932 0.127873,-0.21575 0.191808,-0.36679 0.06394,-0.15104 0.127874,-0.33068 0.191809,-0.53727 0.06394,-0.2066 0.127874,-0.44037 0.191809,-0.69926 0.06394,-0.25891 0.127873,-0.54309 0.19181,-0.85021 0.06393,-0.30708 0.127872,-0.63723 0.191809,-0.98767 0.06393,-0.35047 0.127872,-0.72134 0.191809,-1.1096 0.06394,-0.38826 0.127873,-0.79401 0.191809,-1.21396 0.06394,-0.41992 0.127872,-0.85415 0.191808,-1.29914 0.06394,-0.44497 0.127873,-0.90078 0.191809,-1.36376 0.06394,-0.46298 0.127873,-0.9332 0.191809,-1.40686 0.06394,-0.47369 0.127872,-0.95086 0.19181,-1.42774 0.06394,-0.47689 0.127871,-0.95349 0.191809,-1.42605 0.06394,-0.47256 0.127871,-0.94103 0.191808,-1.4018 0.06394,-0.46077 0.127873,-0.91375 0.191809,-1.35545 0.06394,-0.44166 0.127873,-0.87199 0.191809,-1.28762 0.06394,-0.41563 0.127873,-0.81648 0.191808,-1.19948 0.06394,-0.38299 0.127874,-0.74806 0.191809,-1.09238 0.06394,-0.34433 0.127874,-0.66781 0.19181,-0.968 0.06393,-0.30022 0.127872,-0.57701 0.191809,-0.82837 0.06394,-0.25135 0.127872,-0.47709 0.191809,-0.6756 0.06394,-0.19852 0.127873,-0.36963 0.191809,-0.51217 0.06394,-0.14254 0.127873,-0.25635 0.191809,-0.34066 0.06394,-0.0842 0.127873,-0.139 0.191809,-0.16375 0.06394,-0.0248 0.127872,-0.0194 0.191808,0.0156 0.06394,0.0352 0.127873,0.10041 0.191809,0.195 0.06394,0.0945 0.127873,0.21868 0.19181,0.37115 0.06393,0.15246 0.127871,0.33346 0.191809,0.54142 0.06394,0.20796 0.127872,0.44302 0.191809,0.70318 0.06394,0.26016 0.127872,0.54556 0.191808,0.8538 0.06393,0.30826 0.127874,0.63949 0.191809,0.99094 0.06394,0.35148 0.127874,0.72329 0.191809,1.11243 0.06394,0.38913 0.127873,0.79567 0.191809,1.21633 0.06393,0.42064 0.127873,0.85548 0.191809,1.30099 0.06394,0.44552 0.127873,0.90177 0.19181,1.36512 0.06393,0.46334 0.127871,0.9338 0.191809,1.40765 0.06393,0.47385 0.127872,0.95112 0.191809,1.42797 0.06394,0.47689 0.127872,0.95336 0.191808,1.42572 0.06394,0.47235 0.127873,0.94055 0.191809,1.40093 0.06393,0.46035 0.127872,0.91286 0.191809,1.35399 0.06394,0.44112 0.127872,0.87078 0.19181,1.28566 0.06394,0.41489 0.127871,0.81494 0.191808,1.19705 0.06394,0.3821 0.127872,0.74618 0.191809,1.08946 0.06394,0.34329 0.127873,0.66565 0.191809,0.9647 0.06394,0.29904 0.127873,0.57461 0.191808,0.8247 0.06394,0.25006 0.127874,0.47448 0.191809,0.6716 0.06394,0.19717 0.127874,0.36689 0.191809,0.508 0.06394,0.14111 0.127873,0.25344 0.19181,0.33629 0.06393,0.0828 0.127872,0.13602 0.191809,0.1593 0.06394,0.0233 0.127872,0.0164 0.191809,-0.0203 0.06394,-0.0368 0.127873,-0.10343 0.191809,-0.19944 0.06394,-0.096 0.127873,-0.22161 0.191809,-0.37547 0.06394,-0.15389 0.127872,-0.33631 0.191808,-0.5456 0.06394,-0.20931 0.127873,-0.44567 0.191809,-0.70708 0.06394,-0.26143 0.127873,-0.54804 0.19181,-0.85742 0.06394,-0.30938 0.127871,-0.64171 0.191809,-0.99418 0.06394,-0.35248 0.127871,-0.72525 0.191809,-1.11523 0.06394,-0.39 0.127872,-0.79733 0.191808,-1.2187 0.06394,-0.42134 0.127873,-0.85679 0.191809,-1.30285 0.06394,-0.44605 0.127873,-0.90275 0.191809,-1.36645 0.06394,-0.46369 0.127873,-0.93441 0.191808,-1.40843 0.06394,-0.47403 0.127874,-0.95136 0.19181,-1.4282 0.06394,-0.47685 0.127873,-0.95322 0.191809,-1.42538 0.06394,-0.47212 0.127872,-0.94002 0.191809,-1.4 0.06394,-0.45999 0.127873,-0.912 0.19181,-1.35254 0.06393,-0.44054 0.127872,-0.86954 0.191808,-1.28369 0.06394,-0.41415 0.127873,-0.81336 0.191809,-1.19458 0.06394,-0.38119 0.127873,-0.74429 0.191809,-1.08655 0.06394,-0.34222 0.127872,-0.66349 0.191808,-0.96136 0.06394,-0.29789 0.127873,-0.57224 0.19181,-0.82103 0.06393,-0.24879 0.127872,-0.47188 0.191809,-0.66766 0.06394,-0.19577 0.127873,-0.36407 0.191809,-0.50375 0.06394,-0.13969 0.127872,-0.25056 0.191808,-0.33193 0.06393,-0.0813 0.127874,-0.13306 0.191809,-0.15483 0.06394,-0.0217 0.127874,-0.0134 0.191809,0.0248 0.06394,0.0382 0.127873,0.10633 0.191809,0.20389 0.06394,0.0975 0.127873,0.2245 0.19181,0.37982 0.06394,0.15531 0.127872,0.33908 0.191809,0.54975 0.06393,0.21064 0.127873,0.44831 0.191809,0.711 0.06393,0.26265 0.127873,0.55047 0.191809,0.86097 0.06394,0.31055 0.127872,0.64393 0.191808,0.99742 0.06394,0.3535 0.127873,0.72719 0.191809,1.11805 0.06394,0.39086 0.127873,0.79897 0.191809,1.22102 0.06393,0.42206 0.127872,0.85812 0.19181,1.30469 0.06394,0.44658 0.127871,0.90373 0.191809,1.36777 0.06394,0.46406 0.127872,0.93503 0.191808,1.40922 0.06394,0.47419 0.127873,0.95158 0.191809,1.42839 0.06394,0.47683 0.127873,0.95308 0.191809,1.425 0.06394,0.47194 0.127873,0.93952 0.191808,1.39911 0.06394,0.45957 0.127874,0.91111 0.191809,1.35109 0.06394,0.43997 0.127874,0.86829 0.19181,1.28169 0.06394,0.41342 0.127872,0.81179 0.191809,1.19209 0.06394,0.38031 0.127872,0.74242 0.191809,1.08364 0.06394,0.34119 0.127873,0.66132 0.191809,0.95802 0.06394,0.29671 0.127873,0.56984 0.191809,0.81734 0.06394,0.24751 0.127873,0.46929 0.191809,0.66369 0.06393,0.19441 0.127872,0.3613 0.191808,0.49956 0.06394,0.13824 0.127873,0.24766 0.19181,0.32754 0.06394,0.0799 0.127872,0.13007 0.191809,0.15033 0.06394,0.0203 0.127872,0.0101 0.191809,-0.0292 0.06394,-0.0396 0.127872,-0.10934 0.191809,-0.20833 0.06394,-0.099 0.127872,-0.22743 0.191808,-0.38416 0.06394,-0.15672 0.127874,-0.34189 0.191809,-0.55388 0.06394,-0.212 0.127873,-0.45098 0.191809,-0.71491 0.06394,-0.26391 0.127873,-0.55293 0.19181,-0.86459 0.06394,-0.31167 0.127872,-0.64612 0.191808,-1.00062 0.06394,-0.35447 0.127873,-0.72911 0.19181,-1.12084 0.06393,-0.3917 0.127873,-0.80059 0.191809,-1.22336 0.06394,-0.42273 0.127872,-0.85943 0.191808,-1.30654 0.06393,-0.44709 0.127873,-0.90466 0.191809,-1.36906 0.06394,-0.46438 0.127873,-0.93563 0.191809,-1.40997 0.06394,-0.47433 0.127872,-0.95179 0.19181,-1.42857 0.06394,-0.4768 0.127871,-0.95293 0.191809,-1.42464 0.06394,-0.47172 0.127871,-0.93898 0.191808,-1.39816 0.06394,-0.45919 0.127873,-0.9102 0.191809,-1.34961 0.06394,-0.43938 0.127873,-0.86705 0.191809,-1.27971 0.06394,-0.41263 0.127873,-0.81019 0.191808,-1.18958 0.06394,-0.3794 0.127874,-0.74053 0.191809,-1.0807 0.06394,-0.34015 0.127874,-0.65918 0.19181,-0.95469 0.06394,-0.29551 0.127872,-0.56742 0.191809,-0.81365 0.06394,-0.24623 0.127872,-0.46665 0.191809,-0.6597 0.06394,-0.19302 0.127873,-0.35853 0.191809,-0.49534 0.06394,-0.1368 0.127873,-0.24475 0.191809,-0.32315 0.06394,-0.0784 0.127873,-0.12711 0.191809,-0.14588 0.06394,-0.0188 0.127872,-0.008 0.191808,0.0337 0.06394,0.0411 0.127873,0.11234 0.191809,0.21279 0.06394,0.10041 0.127873,0.23034 0.19181,0.38847 0.06393,0.15815 0.127871,0.34469 0.191809,0.55804 0.06394,0.21333 0.127872,0.45361 0.191809,0.71878 0.06394,0.26517 0.127872,0.55537 0.191808,0.86815 0.06394,0.31281 0.127873,0.64834 0.191809,1.00384 0.06393,0.3555 0.127874,0.73105 0.191809,1.12362 0.06394,0.39259 0.127873,0.80225 0.191809,1.22569 0.06393,0.42344 0.127873,0.86074 0.191809,1.30835 0.06394,0.44762 0.127873,0.90561 0.191809,1.37035 0.06394,0.46475 0.127874,0.93622 0.19181,1.41073 0.06393,0.47447 0.127872,0.95198 0.191808,1.42874 0.06394,0.47677 0.127873,0.95276 0.191809,1.42424 0.06394,0.47149 0.127873,0.93844 0.191809,1.39721 0.06394,0.45877 0.127872,0.90931 0.191809,1.34812 0.06393,0.43882 0.127872,0.86581 0.19181,1.27771 0.06394,0.4119 0.127871,0.80861 0.191808,1.18709 0.06394,0.37849 0.127872,0.73864 0.191809,1.07773 0.06394,0.33911 0.127873,0.65701 0.191809,0.95136 0.06394,0.29434 0.127873,0.56499 0.191808,0.80995 0.06394,0.24494 0.127874,0.46402 0.191809,0.65568 0.06394,0.19168 0.127874,0.35577 0.191809,0.49113 0.06394,0.13537 0.127873,0.24186 0.19181,0.31879 0.06394,0.0768 0.127872,0.12412 0.191809,0.1414 0.06393,0.0173 0.127872,0.004 0.191809,-0.0383 0.06394,-0.0426 0.127873,-0.11532 0.191809,-0.21722 0.06394,-0.10197 0.127873,-0.23327 0.191809,-0.39282 0.06394,-0.15956 0.127872,-0.3475 0.191808,-0.56216 0.06394,-0.21468 0.127873,-0.45626 0.191809,-0.72268 0.06394,-0.2664 0.127873,-0.55778 0.19181,-0.87174 0.06394,-0.31392 0.127871,-0.65052 0.191809,-1.00701 0.06394,-0.3565 0.127871,-0.733 0.191809,-1.1264 0.06394,-0.39343 0.127872,-0.80387 0.191808,-1.228 0.06394,-0.42411 0.127873,-0.86202 0.191809,-1.31016 0.06394,-0.44813 0.127873,-0.90656 0.191809,-1.37164 0.06394,-0.46506 0.127873,-0.93679 0.191808,-1.41142 0.06394,-0.47464 0.127874,-0.95222 0.19181,-1.42892 0.06393,-0.47672 0.127873,-0.95259 0.191809,-1.42385 0.06394,-0.47125 0.127872,-0.9379 0.191809,-1.39624 0.06394,-0.45835 0.127873,-0.90839 0.191809,-1.3466 0.06394,-0.43823 0.127873,-0.86454 0.191809,-1.27569 0.06394,-0.41113 0.127873,-0.80701 0.191809,-1.18457 0.06394,-0.37759 0.127872,-0.73675 0.191809,-1.0748 0.06394,-0.33803 0.127872,-0.65483 0.19181,-0.94798 0.06394,-0.29317 0.127871,-0.56256 0.191808,-0.80622 0.06394,-0.24366 0.127872,-0.46143 0.191809,-0.65172 0.06393,-0.19028 0.127873,-0.35295 0.191809,-0.48688 0.06394,-0.13394 0.127872,-0.23895 0.191808,-0.31442 0.06394,-0.0755 0.127874,-0.12115 0.191809,-0.13691 0.06394,-0.0159 0.127874,-0.002 0.191809,0.0427 0.06394,0.0441 0.127873,0.11829 0.191809,0.22167 0.06394,0.10343 0.127873,0.23617 0.19181,0.39712 0.06394,0.16099 0.127872,0.35029 0.191809,0.5663 0.06393,0.21603 0.127873,0.45891 0.191809,0.72655 0.06394,0.26766 0.127873,0.56024 0.191809,0.8753 0.06393,0.31503 0.127872,0.65271 0.191808,1.0102 0.06394,0.35749 0.127873,0.73489 0.191809,1.12917 0.06394,0.39427 0.127873,0.80546 0.191809,1.23028 0.06394,0.42481 0.127872,0.86332 0.19181,1.31197 0.06394,0.44863 0.127871,0.9075 0.191809,1.37287 0.06394,0.46541 0.127872,0.93738 0.191808,1.41216 0.06394,0.47478 0.127873,0.95239 0.191809,1.42906 0.06394,0.47668 0.127873,0.9524 0.191809,1.42343 0.06394,0.47102 0.127873,0.93733 0.191808,1.39527 0.06394,0.45794 0.127874,0.90748 0.191809,1.34511 0.06394,0.43761 0.127874,0.86323 0.19181,1.27362 0.06394,0.41039 0.127872,0.80542 0.191809,1.18206 0.06394,0.37665 0.127872,0.73484 0.191809,1.07182 0.06393,0.33698 0.127873,0.65263 0.191809,0.94462 0.06394,0.29198 0.127873,0.56015 0.191809,0.8025 0.06394,0.24236 0.127873,0.45878 0.191809,0.6477 0.06394,0.18893 0.127872,0.35019 0.191808,0.48266 0.06394,0.1325 0.127873,0.23605 0.19181,0.31002 0.06394,0.074 0.127872,0.11818 0.191809,0.13245 0.06394,0.0143 0.127872,-0.002 0.191809,-0.0472 0.06394,-0.0457 0.127872,-0.12128 0.191808,-0.22611 0.06394,-0.10488 0.127873,-0.23907 0.191809,-0.40146 0.06394,-0.16237 0.127874,-0.35308 0.191809,-0.57042 0.06394,-0.21734 0.127873,-0.46151 0.191809,-0.73041 0.06394,-0.26888 0.127873,-0.56266 0.19181,-0.87885 0.06394,-0.31616 0.127872,-0.6549 0.191808,-1.01338 0.06394,-0.35849 0.127873,-0.73682 0.19181,-1.1319 0.06393,-0.39512 0.127873,-0.8071 0.191809,-1.23259 0.06394,-0.42548 0.127872,-0.86459 0.191808,-1.31374 0.06394,-0.44916 0.127873,-0.90843 0.191809,-1.37415 0.06394,-0.46571 0.127873,-0.9379 0.191809,-1.41283 0.06394,-0.47493 0.127872,-0.95259 0.19181,-1.42921 0.06394,-0.47663 0.127871,-0.9522 0.191809,-1.423 0.06394,-0.47078 0.127871,-0.93676 0.191808,-1.39427 0.06394,-0.45752 0.127873,-0.90653 0.191809,-1.34356 0.06394,-0.43702 0.127873,-0.86197 0.191809,-1.27158 0.06394,-0.40963 0.127873,-0.8038 0.191808,-1.17955 0.06394,-0.37571 0.127874,-0.7329 0.191809,-1.06881 0.06394,-0.33593 0.127874,-0.65045 0.19181,-0.94123 0.06394,-0.2908 0.127872,-0.55773 0.191809,-0.79879 0.06394,-0.24108 0.127872,-0.45615 0.191809,-0.6437 0.06394,-0.18753 0.127873,-0.34738 0.191809,-0.47842 0.06394,-0.13105 0.127873,-0.23315 0.191809,-0.30562 0.06394,-0.0725 0.127873,-0.11521 0.191809,-0.12798 0.06393,-0.0127 0.127872,0.004 0.191808,0.0517 0.06394,0.0472 0.12787,0.12428 0.191813,0.23058 0.06391,0.10633 0.12787,0.24197 0.191805,0.40574 0.06391,0.16379 0.12787,0.35587 0.191813,0.57457 0.06391,0.21867 0.12787,0.46414 0.191805,0.73427 0.06391,0.27011 0.12787,0.56508 0.191813,0.88238 0.06391,0.3173 0.12787,0.6571 0.191805,1.01655 0.06391,0.35947 0.12787,0.73871 0.191805,1.13467 0.06391,0.39595 0.127878,0.80866 0.191813,1.23482 0.06391,0.42618 0.12787,0.86586 0.191814,1.31552 0.06391,0.44964 0.12787,0.90933 0.191804,1.37538 0.06391,0.46604 0.12787,0.93847 0.191805,1.41351 0.06391,0.47506 0.127879,0.95276 0.191814,1.42934 0.06391,0.47656 0.127869,0.952 0.191804,1.42254 0.06391,0.47055 0.127879,0.9362 0.191814,1.39329 0.06391,0.4571 0.12787,0.9056 0.191804,1.34201 0.06391,0.43642 0.127879,0.86069 0.191814,1.26954 0.06391,0.40883 0.12787,0.80215 0.191805,1.17696 0.06391,0.37482 0.127878,0.731 0.191813,1.06585 0.06391,0.33486 0.12787,0.64824 0.191805,0.93785 0.06391,0.2896 0.127878,0.55525 0.191813,0.79504 0.06391,0.23977 0.12787,0.45351 0.191805,0.63966 0.06391,0.18618 0.127878,0.34461 0.191813,0.47421 0.06391,0.12961 0.12787,0.23022 0.191805,0.30121 0.06391,0.071 0.127878,0.11223 0.191813,0.12351 0.06391,0.0113 0.12787,-0.008 0.191805,-0.0561 0.06391,-0.0486 0.127878,-0.12722 0.191813,-0.23497 0.06391,-0.10779 0.12787,-0.24488 0.191805,-0.41007 0.06391,-0.1652 0.127878,-0.35865 0.191813,-0.57866 0.06391,-0.22001 0.12787,-0.46677 0.191814,-0.73815 0.06399,-0.27136 0.127861,-0.56749 0.191805,-0.88591 0.06399,-0.31842 0.127861,-0.65926 0.191813,-1.01971 0.06391,-0.36046 0.127861,-0.74062 0.191805,-1.13738 0.06391,-0.39679 0.127861,-0.81026 0.191804,-1.23709 0.06399,-0.42685 0.127862,-0.86711 0.191814,-1.31729 0.06399,-0.45014 0.127861,-0.91024 0.191805,-1.3766 0.06399,-0.46636 0.127869,-0.93901 0.191804,-1.4142 0.06399,-0.47519 0.127879,-0.95292 0.191814,-1.42942 0.06391,-0.47652 0.12787,-0.9518 0.191804,-1.42209 0.06391,-0.47031 0.12787,-0.9356 0.191805,-1.39227 0.06399,-0.45666 0.127879,-0.90464 0.191814,-1.34045 0.06399,-0.43583 0.127869,-0.85938 0.191804,-1.26745 0.06399,-0.40807 0.12787,-0.80054 0.191805,-1.17443 0.06399,-0.37386 0.127879,-0.72905 0.191813,-1.06283 0.06391,-0.33378 0.12787,-0.64605 0.191805,-0.93445 0.06399,-0.28842 0.12787,-0.55283 0.191805,-0.7913 0.06399,-0.23848 0.127878,-0.45087 0.191813,-0.63566 0.06391,-0.18478 0.12787,-0.34178 0.191805,-0.46995 0.06391,-0.12816 0.12787,-0.22729 0.191805,-0.29683 0.06399,-0.0695 0.127878,-0.10923 0.191813,-0.11901 0.06399,-0.0101 0.12787,0.0112 0.191805,0.0608 0.06399,0.0502 0.12787,0.13021 0.191805,0.23941 0.06399,0.10924 0.127878,0.2478 0.191813,0.41439 0.06391,0.1666 0.12787,0.36144 0.191805,0.58276 0.06391,0.22136 0.127883,0.4694 0.191803,0.74197 0.064,0.27261 0.12788,0.56992 0.19182,0.88946 0.064,0.31953 0.12787,0.66142 0.1918,1.02287 0.064,0.3614 0.127877,0.74249 0.191797,1.1401 0.064,0.3976 0.12788,0.81184 0.19182,1.23934 0.0639,0.42751 0.12787,0.86837 0.191797,1.319 0.0639,0.45066 0.12788,0.91115 0.19182,1.37782 0.064,0.46666 0.12787,0.93953 0.1918,1.41484 0.064,0.47531 0.12787,0.95307 0.191807,1.42953 0.064,0.47644 0.12787,0.95157 0.19181,1.4216 0.0639,0.47007 0.12787,0.93502 0.1918,1.39125 0.0639,0.45624 0.127867,0.90369 0.191807,1.3389 0.064,0.43519 0.12788,0.85806 0.19181,1.26535 0.064,0.4073 0.12787,0.79891 0.19181,1.17184 0.064,0.37296 0.127867,0.72712 0.191797,1.05984 0.0639,0.33273 0.12788,0.64382 0.19182,0.93104 0.0639,0.2872 0.12786,0.55038 0.191797,0.78756 0.064,0.23718 0.12787,0.44821 0.1918,0.63161 0.064,0.18338 0.12788,0.33898 0.19182,0.46571 0.064,0.12672 0.12787,0.2244 0.1918,0.29243 0.0639,0.068 0.12787,0.10621 0.19181,0.11453 0.0639,0.009 0.12788,-0.0135 0.19181,-0.0651 0.064,-0.0516 0.12787,-0.13317 0.19181,-0.24387 0.064,-0.11068 0.12787,-0.25064 0.1918,-0.41865 0.064,-0.16802 0.12788,-0.36422 0.19181,-0.58689 0.0639,-0.22268 0.12787,-0.47199 0.19181,-0.7458 0.0639,-0.27384 0.12787,-0.57233 0.1918,-0.89296 0.0639,-0.32066 0.12788,-0.6636 0.191817,-1.02602 0.064,-0.36239 0.12787,-0.74437 0.1918,-1.14281 0.064,-0.39842 0.12787,-0.81341 0.19181,-1.24156 0.064,-0.4282 0.12787,-0.86963 0.19182,-1.32076 0.0639,-0.45112 0.12786,-0.91203 0.1918,-1.379 0.064,-0.46699 0.12786,-0.94006 0.19181,-1.4155 0.064,-0.4754 0.12787,-0.95321 0.19181,-1.4296 0.0639,-0.47637 0.12786,-0.95134 0.19181,-1.42112 0.064,-0.4698 0.12786,-0.93441 0.1918,-1.3902 0.064,-0.45577 0.12787,-0.90271 0.19181,-1.3373 0.064,-0.43458 0.12787,-0.85676 0.19181,-1.26327 0.064,-0.4065 0.12787,-0.79724 0.1918,-1.16925 0.064,-0.37202 0.127867,-0.72518 0.191817,-1.0568 0.0639,-0.33164 0.12786,-0.64162 0.1918,-0.92762 0.064,-0.28603 0.12787,-0.54792 0.19181,-0.7838 0.064,-0.23589 0.12787,-0.44558 0.19181,-0.62759 0.064,-0.18201 0.12786,-0.33618 0.1918,-0.46145 0.064,-0.12528 0.12787,-0.22147 0.19182,-0.28802 0.0639,-0.0666 0.12786,-0.10332 0.1918,-0.11012 0.0639,-0.007 0.12786,0.0166 0.19181,0.0697 0.064,0.0532 0.12787,0.13613 0.19181,0.24827 0.064,0.11216 0.12786,0.25358 0.19181,0.42299 0.064,0.16938 0.12786,0.36696 0.1918,0.59096 0.064,0.22401 0.127867,0.47459 0.191807,0.74966 0.0639,0.27505 0.12787,0.5747 0.19181,0.89645 0.0639,0.32176 0.12786,0.66575 0.191797,1.02914 0.064,0.36337 0.12787,0.74625 0.19182,1.14549 0.064,0.39927 0.12788,0.815 0.1918,1.24382 0.064,0.42883 0.127877,0.87083 0.191807,1.32245 0.0639,0.45161 0.12788,0.91291 0.19181,1.38019 0.064,0.46726 0.12788,0.94056 0.19181,1.4161 0.064,0.47555 0.127877,0.95336 0.191807,1.42967 0.064,0.47631 0.12788,0.9511 0.19181,1.42063 0.0639,0.46953 0.12787,0.93377 0.19181,1.38913 0.064,0.45535 0.127867,0.90174 0.191807,1.33572 0.064,0.43395 0.12787,0.85543 0.1918,1.26115 0.064,0.40573 0.12788,0.79561 0.191817,1.16666 0.0639,0.37108 0.12787,0.72323 0.1918,1.05378 0.0639,0.33055 0.12788,0.63938 0.19182,0.92419 0.064,0.28481 0.127867,0.54547 0.191797,0.78005 0.064,0.23456 0.12788,0.44291 0.1918,0.62354 0.064,0.1806 0.12788,0.33336 0.19182,0.45717 0.0639,0.12384 0.127877,0.21857 0.191797,0.28362 0.064,0.065 0.12788,0.10029 0.19182,0.10554 0.064,0.004 0.12787,-0.0195 0.1918,-0.0742 0.064,-0.0547 0.127877,-0.13913 0.191807,-0.25273 0.064,-0.11359 0.12788,-0.25644 0.19181,-0.42725 0.064,-0.17081 0.12788,-0.36975 0.191807,-0.59507 0.0639,-0.22533 0.12787,-0.47718 0.19181,-0.75346 0.064,-0.27629 0.12788,-0.57712 0.19181,-0.89997 0.0639,-0.32286 0.127867,-0.66789 0.191807,-1.03224 0.064,-0.36436 0.12787,-0.74811 0.19181,-1.14819 0.0639,-0.4001 0.12787,-0.81655 0.1918,-1.24603 0.0639,-0.42948 0.127877,-0.87206 0.191817,-1.32416 0.0639,-0.4521 0.12787,-0.91378 0.1918,-1.38136 0.0639,-0.46757 0.12788,-0.94105 0.19181,-1.41671 0.064,-0.47566 0.127867,-0.9535 0.191807,-1.42973 0.0639,-0.47623 0.12788,-0.95083 0.1918,-1.42009 0.064,-0.46929 0.12788,-0.93317 0.191817,-1.38809 0.0639,-0.45489 0.12788,-0.90074 0.1918,-1.33408 0.064,-0.43334 0.12788,-0.8541 0.19182,-1.25904 0.064,-0.40493 0.12787,-0.79394 0.191797,-1.16404 0.064,-0.37015 0.12788,-0.72127 0.19181,-1.05074 0.0639,-0.32948 0.12788,-0.63716 0.19181,-0.92076 0.064,-0.28362 0.127877,-0.543 0.191807,-0.77628 0.0639,-0.23324 0.12787,-0.44024 0.19181,-0.61946 0.064,-0.17925 0.12788,-0.33058 0.19181,-0.45293 0.0639,-0.1224 0.12787,-0.21565 0.19181,-0.27924 0.064,-0.0635 0.12787,-0.0973 0.19181,-0.10107 0.064,-0.004 0.12787,0.0226 0.1918,0.0786 0.0639,0.056 0.12788,0.14209 0.19182,0.25712 0.0639,0.11505 0.12787,0.25936 0.1918,0.43158 0.0639,0.17219 0.12788,0.37248 0.19181,0.59913 0.064,0.22664 0.12787,0.4798 0.19181,0.75729 0.064,0.27751 0.12788,0.57948 0.19182,0.90345 0.0639,0.32396 0.12786,0.67004 0.19181,1.03535 0.064,0.36531 0.12787,0.74999 0.19181,1.15086 0.064,0.4009 0.12786,0.8181 0.1918,1.24822 0.064,0.43014 0.12787,0.87328 0.19182,1.32585 0.0639,0.45257 0.12786,0.91463 0.1918,1.3825 0.064,0.46786 0.12787,0.94156 0.19182,1.41732 0.0639,0.47578 0.12786,0.95362 0.1918,1.42976 0.064,0.47615 0.12786,0.95059 0.19181,1.41957 0.0639,0.46902 0.12787,0.93255 0.19181,1.38698 0.0639,0.45445 0.12786,0.89978 0.1918,1.3325 0.064,0.4327 0.12787,0.85274 0.19182,1.25688 0.0639,0.40413 0.12786,0.79226 0.1918,1.16146 0.064,0.36916 0.12787,0.71927 0.19181,1.04766 0.0639,0.32838 0.12787,0.63492 0.19181,0.91732 0.064,0.28239 0.12787,0.54054 0.19181,0.77249 0.064,0.23195 0.12786,0.43756 0.19181,0.61542 0.064,0.17785 0.12787,0.32774 0.19181,0.44867 0.064,0.12093 0.12786,0.2127 0.19181,0.2748 0.064,0.062 0.12787,0.0942 0.19181,0.0966 0.0639,0.002 0.12786,-0.0256 0.1918,-0.0832 0.064,-0.0575 0.12787,-0.14506 0.19182,-0.26156 0.0639,-0.11652 0.12786,-0.26223 0.1918,-0.43584 0.064,-0.1736 0.12787,-0.37526 0.19182,-0.60321 0.0639,-0.22796 0.12787,-0.4824 0.1918,-0.7611 0.0639,-0.27874 0.12788,-0.58189 0.19181,-0.90694 0.064,-0.32506 0.12787,-0.67216 0.19181,-1.03845 0.0639,-0.36629 0.12788,-0.75183 0.1918,-1.15354 0.064,-0.40169 0.12788,-0.81962 0.19182,-1.25039 0.0639,-0.43078 0.12787,-0.87449 0.1918,-1.32754 0.064,-0.45302 0.12788,-0.91549 0.19181,-1.38363 0.064,-0.46815 0.12788,-0.94204 0.19181,-1.41791 0.064,-0.47589 0.12788,-0.95372 0.19181,-1.42977 0.0639,-0.47607 0.12788,-0.95032 0.19181,-1.41905 0.064,-0.46872 0.12788,-0.93189 0.19181,-1.38588 0.0639,-0.454 0.12788,-0.89875 0.19181,-1.33082 0.064,-0.4321 0.12787,-0.8514 0.19181,-1.25476 0.0639,-0.40332 0.12787,-0.79059 0.1918,-1.15882 0.064,-0.36822 0.12788,-0.71729 0.19182,-1.0446 0.064,-0.32729 0.12787,-0.63266 0.1918,-0.91386 0.064,-0.28121 0.12788,-0.53805 0.19181,-0.76871 0.0639,-0.23064 0.12787,-0.43493 0.19181,-0.61135 0.0639,-0.17647 0.12788,-0.32494 0.19181,-0.44438 0.0639,-0.1195 0.12787,-0.20979 0.19181,-0.27041 0.064,-0.0607 0.12788,-0.0913 0.1918,-0.092 0.064,-7.8e-4 0.12788,0.0285 0.19182,0.0876 0.0639,0.0591 0.12787,0.14802 0.1918,0.26599 0.064,0.11796 0.12788,0.26511 0.19181,0.44012 0.0639,0.17498 0.12788,0.37801 0.19181,0.60729 0.064,0.22928 0.12788,0.48497 0.19181,0.7649 0.0639,0.27996 0.12788,0.58424 0.19181,0.91041 0.064,0.32615 0.12788,0.6743 0.19181,1.04153 0.0639,0.36722 0.12788,0.75367 0.19181,1.15618 0.064,0.4025 0.12787,0.82117 0.19181,1.25258 0.064,0.43142 0.12787,0.87566 0.1918,1.32916 0.064,0.45352 0.12788,0.91635 0.19182,1.38479 0.0639,0.46843 0.12787,0.94251 0.1918,1.41848 0.064,0.47596 0.12788,0.95381 0.19181,1.42976 0.0639,0.47599 0.12787,0.95006 0.19181,1.4185 0.064,0.46846 0.12788,0.93125 0.19181,1.38478 0.0639,0.45352 0.12787,0.89773 0.19181,1.32919 0.0639,0.43142 0.12788,0.85003 0.1918,1.25257 0.064,0.40254 0.12788,0.7889 0.19182,1.15618 0.0639,0.36727 0.12787,0.71534 0.1918,1.04152 0.064,0.32621 0.12788,0.63043 0.19181,0.91043 0.0639,0.27997 0.12788,0.53556 0.19181,0.7649 0.064,0.22932 0.12788,0.43223 0.19181,0.60729 0.064,0.17506 0.12788,0.32208 0.19181,0.44011 0.064,0.11801 0.12787,0.20686 0.19181,0.26598 0.0639,0.0592 0.12788,0.0884 0.1918,0.0877 0.064,-7.3e-4 0.12788,-0.0315 0.19182,-0.092 0.0639,-0.0607 0.12787,-0.15099 0.19182,-0.27041 0.0639,-0.1194 0.12786,-0.26798 0.1918,-0.44439 0.0639,-0.17638 0.12787,-0.38077 0.19181,-0.61136 0.064,-0.23058 0.12787,-0.48755 0.19181,-0.76872 0.064,-0.28112 0.12786,-0.58659 0.19181,-0.91385 0.064,-0.32724 0.12787,-0.6764 0.19181,-1.0446 0.0639,-0.36818 0.12786,-0.75552 0.19181,-1.15882 0.064,-0.40331 0.12787,-0.82268 0.19181,-1.25474 0.0639,-0.43206 0.12786,-0.87687 0.1918,-1.33085 0.064,-0.45396 0.12787,-0.91715 0.19182,-1.38588 0.0639,-0.46872 0.12786,-0.94298 0.1918,-1.41903 0.064,-0.47605 0.12787,-0.9539 0.19182,-1.42977 0.064,-0.47587 0.12786,-0.94976 0.1918,-1.41792 0.064,-0.46815 0.12787,-0.93059 0.19181,-1.38365 0.064,-0.45305 0.12786,-0.89672 0.19181,-1.32751 0.0639,-0.43081 0.12786,-0.84866 0.19181,-1.25041 0.0639,-0.40172 0.12786,-0.78722 0.19181,-1.15352 0.064,-0.36631 0.12786,-0.71334 0.1918,-1.03845 0.064,-0.32511 0.12787,-0.62816 0.19181,-0.90692 0.0639,-0.27878 0.12787,-0.53309 0.19181,-0.76111 0.064,-0.22801 0.12787,-0.42957 0.19181,-0.60322 0.0639,-0.17367 0.12786,-0.31928 0.19181,-0.43584 0.064,-0.11657 0.12787,-0.20392 0.19181,-0.26156 0.0639,-0.0576 0.12786,-0.0853 0.19181,-0.0832 0.064,0.002 0.12787,0.0345 0.19181,0.0966 0.0639,0.0621 0.12788,0.15394 0.1918,0.27482 0.064,0.12085 0.12788,0.27086 0.19182,0.44864 0.064,0.1778 0.12787,0.38354 0.1918,0.61544 0.064,0.23192 0.12788,0.49015 0.19181,0.77249 0.0639,0.28235 0.12787,0.58898 0.19181,0.91732 0.064,0.32835 0.12788,0.67853 0.19181,1.04767 0.0639,0.36913 0.12787,0.75734 0.19181,1.16145 0.064,0.40411 0.12788,0.8242 0.19181,1.25689 0.0639,0.4327 0.12787,0.87804 0.19181,1.33246 0.0639,0.45443 0.12787,0.918 0.1918,1.38699 0.064,0.46898 0.12788,0.94344 0.19181,1.41959 0.0639,0.47614 0.12788,0.95397 0.19181,1.42974 0.064,0.47576 0.12788,0.94945 0.19181,1.41733 0.0639,0.46786 0.12788,0.9299 0.19181,1.38249 0.064,0.4526 0.12788,0.8957 0.19181,1.32587 0.064,0.43013 0.12788,0.84731 0.1918,1.24821 0.064,0.40092 0.12788,0.78551 0.19182,1.15087 0.0639,0.36535 0.12788,0.71133 0.1918,1.03536 0.064,0.32398 0.12788,0.6259 0.19182,0.90344 0.0639,0.27754 0.12787,0.5306 0.1918,0.75728 0.064,0.22669 0.12788,0.42689 0.19181,0.59915 0.0639,0.17228 0.12787,0.31644 0.19181,0.43156 0.064,0.11511 0.12788,0.201 0.19181,0.25713 0.0639,0.0561 0.12787,0.0823 0.19181,0.0786 0.0639,-0.004 0.12788,-0.0376 0.19181,-0.10107 0.064,-0.0636 0.12787,-0.1569 0.19181,-0.27923 0.0639,-0.12229 0.12787,-0.27373 0.1918,-0.45293 0.064,-0.17918 0.12788,-0.38625 0.19181,-0.61946 0.0639,-0.23324 0.12788,-0.49271 0.19181,-0.77627 0.064,-0.28356 0.12788,-0.59134 0.19181,-0.92077 0.064,-0.32944 0.12788,-0.68064 0.19181,-1.05073 0.064,-0.37007 0.12787,-0.75914 0.19181,-1.16407 0.0639,-0.40489 0.12788,-0.82571 0.1918,-1.25901 0.064,-0.43332 0.12788,-0.87923 0.19182,-1.33412 0.0639,-0.45487 0.12788,-0.91881 0.1918,-1.38807 0.064,-0.46926 0.12788,-0.94386 0.19182,-1.4201 0.0639,-0.47623 0.12787,-0.95405 0.1918,-1.42971 0.064,-0.47567 0.12788,-0.94916 0.19181,-1.41673 0.064,-0.46758 0.12787,-0.92922 0.19181,-1.38134 0.064,-0.45212 0.12788,-0.89465 0.19181,-1.32416 0.0639,-0.4295 0.12787,-0.8459 0.19181,-1.24603 0.0639,-0.4001 0.12788,-0.7838 0.19181,-1.14819 0.0639,-0.36437 0.12787,-0.70932 0.19181,-1.03225 0.064,-0.32291 0.12787,-0.62361 0.1918,-0.89995 0.064,-0.27633 0.12788,-0.52809 0.19181,-0.75348 0.0639,-0.22537 0.12788,-0.4242 0.19181,-0.59506 0.064,-0.17087 0.12788,-0.31359 0.19181,-0.42724 0.0639,-0.11366 0.12788,-0.19807 0.19182,-0.25273 0.0639,-0.0546 0.12786,-0.0793 0.19181,-0.0742 0.064,0.004 0.12787,0.0405 0.19181,0.10554 0.0639,0.065 0.12786,0.15984 0.19181,0.28362 0.064,0.12376 0.12787,0.27663 0.19181,0.45717 0.0639,0.18058 0.12786,0.38903 0.1918,0.62355 0.0639,0.23452 0.12787,0.49527 0.19182,0.78003 0.064,0.28477 0.12786,0.5937 0.1918,0.92421 0.0639,0.3305 0.12786,0.68274 0.19181,1.05376 0.064,0.37103 0.12787,0.76098 0.19181,1.16667 0.0639,0.40569 0.12786,0.82721 0.19181,1.26115 0.064,0.43396 0.12787,0.88039 0.19181,1.3357 0.064,0.45533 0.12786,0.91961 0.1918,1.38915 0.064,0.46952 0.12787,0.94431 0.19182,1.42062 0.0639,0.47631 0.12786,0.95411 0.1918,1.42966 0.064,0.47556 0.12787,0.94883 0.19181,1.4161 0.0639,0.4673 0.12787,0.92859 0.19181,1.3802 0.064,0.45165 0.12787,0.89359 0.19181,1.32247 0.0639,0.42883 0.12786,0.8445 0.19181,1.24379 0.064,0.3993 0.12787,0.78211 0.19181,1.14551 0.0639,0.36345 0.12786,0.70733 0.19181,1.02914 0.064,0.32179 0.12787,0.62134 0.19181,0.89646 0.064,0.2751 0.12786,0.52558 0.1918,0.74966 0.0639,0.22404 0.12787,0.42148 0.19182,0.59095 0.0639,0.16948 0.12787,0.31078 0.1918,0.423 0.0639,0.11218 0.12788,0.19509 0.19181,0.24825 0.064,0.0532 0.12788,0.0764 0.19181,0.0697 0.064,-0.007 0.12788,-0.0435 0.1918,-0.11001 0.064,-0.0664 0.12788,-0.1628 0.19182,-0.28802 0.0639,-0.12521 0.12788,-0.2795 0.1918,-0.46146 0.064,-0.18195 0.12788,-0.39173 0.19182,-0.62757 0.0639,-0.23583 0.12787,-0.49784 0.1918,-0.78379 0.064,-0.28597 0.12788,-0.59605 0.19181,-0.92763 0.0639,-0.33159 0.12788,-0.68483 0.19181,-1.05683 0.064,-0.37194 0.12788,-0.76276 0.19181,-1.16924 0.064,-0.40647 0.12787,-0.82872 0.19181,-1.26327 0.064,-0.43456 0.12788,-0.88153 0.19181,-1.3373 0.0639,-0.45578 0.12787,-0.92041 0.19181,-1.39021 0.064,-0.46976 0.12787,-0.94473 0.19181,-1.42111 0.0639,-0.47639 0.12787,-0.95417 0.1918,-1.42961 0.064,-0.47543 0.12788,-0.9485 0.19181,-1.41548 0.064,-0.46699 0.12788,-0.92786 0.19181,-1.37901 0.0639,-0.45115 0.12788,-0.89253 0.19181,-1.32074 0.064,-0.42818 0.12787,-0.8431 0.19181,-1.24157 0.0639,-0.39848 0.12788,-0.78037 0.1918,-1.14283 0.064,-0.36245 0.12788,-0.70528 0.19182,-1.026 0.0639,-0.32069 0.12788,-0.61906 0.1918,-0.89295 0.064,-0.27387 0.12788,-0.52309 0.19182,-0.74581 0.0639,-0.22273 0.12787,-0.41882 0.1918,-0.58689 0.064,-0.16805 0.12788,-0.30792 0.19181,-0.41865 0.064,-0.11079 0.12787,-0.19219 0.19181,-0.24386 0.064,-0.0516 0.12788,-0.0735 0.19181,-0.0651 0.0639,0.009 0.12787,0.0466 0.19181,0.11451 0.064,0.068 0.12788,0.1658 0.19181,0.29245 0.0639,0.12665 0.12787,0.28236 0.19181,0.46569 0.064,0.18336 0.12787,0.39449 0.19181,0.63162 0.0639,0.23715 0.12787,0.5004 0.1918,0.78756 0.0639,0.28715 0.12788,0.59838 0.19181,0.93105 0.064,0.33268 0.12788,0.68691 0.19181,1.05982 0.0639,0.3729 0.12788,0.76458 0.19181,1.17186 0.064,0.40724 0.12787,0.83018 0.19181,1.26536 0.0639,0.43516 0.12788,0.88265 0.1918,1.33887 0.064,0.45622 0.12788,0.92119 0.19182,1.39125 0.064,0.47003 0.12788,0.94517 0.1918,1.42162 0.064,0.47643 0.12788,0.95419 0.19182,1.4295 0.0639,0.47532 0.12787,0.94817 0.1918,1.41485 0.064,0.46668 0.12788,0.92715 0.19181,1.37782 0.0639,0.45068 0.12787,0.89148 0.19181,1.31901 0.064,0.42754 0.12788,0.84169 0.19181,1.23935 0.0639,0.39763 0.12787,0.77864 0.19181,1.14009 0.064,0.36147 0.12787,0.70332 0.19181,1.02288 0.064,0.31957 0.12787,0.61678 0.19181,0.88945 0.064,0.27264 0.12787,0.52056 0.19182,0.74195 0.0639,0.2214 0.12786,0.41612 0.1918,0.58279 0.064,0.16666 0.12787,0.30508 0.19181,0.41438 0.0639,0.10922 0.12787,0.18924 0.19181,0.23942 0.064,0.0502 0.12787,0.0702 0.19181,0.0608 0.0639,-0.01 0.12786,-0.0496 0.19181,-0.11901 0.064,-0.0694 0.12787,-0.16873 0.19181,-0.29684 0.064,-0.1281 0.12786,-0.28522 0.19181,-0.46996 0.064,-0.18472 0.12787,-0.39721 0.19181,-0.63564 0.0639,-0.23842 0.12786,-0.50295 0.1918,-0.79129 0.064,-0.28838 0.12787,-0.60073 0.19182,-0.93446 0.0639,-0.33374 0.12786,-0.68899 0.1918,-1.06285 0.064,-0.37383 0.12786,-0.76636 0.19182,-1.17439 0.0639,-0.40806 0.12786,-0.83167 0.1918,-1.26746 0.0639,-0.43579 0.12786,-0.88382 0.1918,-1.34046 0.064,-0.45665 0.12787,-0.92199 0.19182,-1.39228 0.0639,-0.47029 0.12786,-0.94558 0.1918,-1.42209 0.064,-0.47652 0.12787,-0.95423 0.19182,-1.42942 0.0639,-0.47521 0.12786,-0.94783 0.1918,-1.4142 0.064,-0.46637 0.12787,-0.92643 0.19181,-1.37659 0.0639,-0.45019 0.12787,-0.89041 0.19181,-1.31728 0.064,-0.42685 0.12787,-0.84029 0.19181,-1.23708 0.064,-0.39682 0.12786,-0.77692 0.19181,-1.13739 0.064,-0.3605 0.12788,-0.70126 0.19181,-1.01973 0.0639,-0.31847 0.12787,-0.61451 0.19181,-0.88592 0.064,-0.27141 0.12787,-0.51804 0.19181,-0.73811 0.0639,-0.22009 0.12787,-0.41342 0.1918,-0.57868 0.064,-0.16525 0.12788,-0.30224 0.19182,-0.41007 0.0639,-0.10777 0.12787,-0.18629 0.1918,-0.23497 0.0639,-0.0487 0.12788,-0.0675 0.19181,-0.0561 0.064,0.0112 0.12787,0.0526 0.19181,0.1235 0.0639,0.0709 0.12788,0.17168 0.1918,0.30123 0.064,0.12955 0.12788,0.28808 0.19182,0.47419 0.0639,0.18611 0.12788,0.39995 0.1918,0.63967 0.064,0.23972 0.12788,0.50548 0.19182,0.79506 0.064,0.28953 0.12787,0.60302 0.1918,0.93783 0.064,0.33482 0.12788,0.69107 0.19181,1.06584 0.0639,0.37477 0.12788,0.76817 0.19181,1.17699 0.064,0.4088 0.12788,0.83311 0.19181,1.26952 0.0639,0.43639 0.12788,0.88493 0.19181,1.34201 0.064,0.45707 0.12788,0.92275 0.19181,1.39327 0.0639,0.47054 0.12787,0.94599 0.1918,1.42257 0.064,0.47655 0.12788,0.95425 0.19182,1.42932 0.064,0.47507 0.12787,0.94746 0.1918,1.41351 0.064,0.46606 0.12788,0.92571 0.19182,1.37537 0.064,0.4497 0.12787,0.88933 0.1918,1.31553 0.0639,0.42619 0.12788,0.83886 0.19181,1.23484 0.0639,0.39597 0.12787,0.77514 0.19181,1.13466 0.064,0.35951 0.12788,0.69921 0.1918,1.01656 0.064,0.31733 0.12788,0.61221 0.19182,0.88238 0.064,0.27017 0.12788,0.51554 0.1918,0.73427 0.064,0.21873 0.12788,0.41071 0.19182,0.57454 0.0639,0.16386 0.12787,0.29941 0.1918,0.40577 0.064,0.10632 0.12788,0.18336 0.19181,0.23056 0.0639,0.0472 0.12788,0.0643 0.19181,0.0517 0.064,-0.0127 0.12788,-0.0555 0.19181,-0.12796 0.0639,-0.0725 0.12788,-0.17463 0.19181,-0.30563 0.064,-0.13098 0.12787,-0.29092 0.19181,-0.47843 0.064,-0.18749 0.12787,-0.40266 0.1918,-0.64369 0.064,-0.24102 0.12788,-0.50802 0.19182,-0.79877 0.0639,-0.29077 0.12787,-0.60537 0.1918,-0.94124 0.064,-0.33588 0.12788,-0.69315 0.19182,-1.06883 0.0639,-0.3757 0.12787,-0.76995 0.1918,-1.17953 0.064,-0.40959 0.12788,-0.83459 0.19181,-1.27158 0.064,-0.43701 0.12787,-0.88607 0.19181,-1.34356 0.0639,-0.4575 0.12788,-0.92351 0.1918,-1.39431 0.064,-0.47078 0.12788,-0.94635 0.19182,-1.42299 0.0639,-0.47662 0.12788,-0.95427 0.1918,-1.4292 0.064,-0.47493 0.12788,-0.94711 0.19182,-1.41284 0.0639,-0.46572 0.12787,-0.92497 0.1918,-1.37414 0.064,-0.44917 0.12788,-0.8882 0.19182,-1.31374 0.064,-0.42551 0.12787,-0.83743 0.19181,-1.23256 0.0639,-0.39515 0.12787,-0.77339 0.19181,-1.13191 0.064,-0.35852 0.12786,-0.69717 0.19181,-1.01339 0.064,-0.31624 0.12786,-0.60992 0.19181,-0.87885 0.0639,-0.26893 0.12786,-0.513 0.1918,-0.73042 0.064,-0.2174 0.12787,-0.40799 0.19182,-0.57042 0.0639,-0.16244 0.12786,-0.29654 0.1918,-0.40145 0.064,-0.10487 0.12787,-0.18039 0.19181,-0.22611 0.064,-0.0457 0.12787,-0.0614 0.19181,-0.0472 0.064,0.0142 0.12787,0.0585 0.19181,0.13245 0.0639,0.074 0.12786,0.17757 0.19181,0.31 0.064,0.13244 0.12787,0.29382 0.19181,0.48268 0.0639,0.18885 0.12786,0.40539 0.19181,0.64769 0.064,0.24232 0.12787,0.51059 0.19181,0.80251 0.0639,0.29194 0.12786,0.60768 0.1918,0.94462 0.064,0.33695 0.12787,0.69521 0.19182,1.07181 0.0639,0.37662 0.12786,0.7717 0.1918,1.18207 0.064,0.41034 0.12787,0.83603 0.19181,1.27363 0.064,0.4376 0.12787,0.88717 0.19181,1.34508 0.0639,0.45793 0.12786,0.92427 0.19181,1.39527 0.0639,0.47103 0.12786,0.94677 0.19181,1.42343 0.0639,0.47667 0.12786,0.95429 0.1918,1.42908 0.064,0.4748 0.12787,0.94673 0.19182,1.41214 0.064,0.4654 0.12787,0.92422 0.1918,1.37288 0.064,0.44869 0.12788,0.88715 0.19181,1.31198 0.0639,0.42484 0.12788,0.83597 0.19181,1.23028 0.064,0.3943 0.12788,0.77163 0.19181,1.12916 0.0639,0.35754 0.12788,0.69511 0.19181,1.01021 0.064,0.31511 0.12788,0.60759 0.19181,0.8753 0.0639,0.2677 0.12788,0.51048 0.1918,0.72654 0.064,0.21606 0.12788,0.40528 0.19182,0.56631 0.064,0.16102 0.12787,0.2937 0.1918,0.39714 0.064,0.10341 0.12788,0.17745 0.19182,0.22165 0.0639,0.0442 0.12787,0.0583 0.1918,0.0427 0.064,-0.0156 0.12788,-0.0615 0.19181,-0.13692 0.0639,-0.0754 0.12787,-0.18052 0.19181,-0.31441 0.064,-0.13386 0.12788,-0.29664 0.19181,-0.48689 0.0639,-0.19024 0.12787,-0.4081 0.19181,-0.65171 0.0639,-0.2436 0.12788,-0.5131 0.1918,-0.80622 0.064,-0.29313 0.12788,-0.60999 0.19182,-0.94799 0.0639,-0.338 0.12787,-0.69724 0.1918,-1.07479 0.064,-0.37752 0.12788,-0.77346 0.19181,-1.18456 0.0639,-0.41112 0.12788,-0.83749 0.19181,-1.27569 0.064,-0.43819 0.12788,-0.88828 0.19181,-1.34661 0.064,-0.45834 0.12788,-0.92501 0.19181,-1.39625 0.064,-0.47125 0.12787,-0.94712 0.19181,-1.42384 0.0639,-0.47671 0.12788,-0.95427 0.1918,-1.42892 0.064,-0.47466 0.12788,-0.94635 0.19182,-1.41143 0.0639,-0.46507 0.12787,-0.9235 0.1918,-1.37164 0.064,-0.44814 0.12788,-0.886 0.19182,-1.31015 0.0639,-0.42416 0.12787,-0.83453 0.1918,-1.22799 0.064,-0.39346 0.12788,-0.76986 0.19181,-1.12642 0.0639,-0.35652 0.12787,-0.69303 0.19181,-1.00701 0.0639,-0.31399 0.12788,-0.60527 0.19181,-0.87173 0.064,-0.26646 0.12787,-0.50793 0.19181,-0.72267 0.0639,-0.21473 0.12788,-0.40255 0.1918,-0.56216 0.064,-0.15962 0.12788,-0.29085 0.19181,-0.39282 0.0639,-0.10196 0.12788,-0.17451 0.19181,-0.21723 0.064,-0.0427 0.12788,-0.0553 0.19181,-0.0382 0.064,0.0172 0.12788,0.0644 0.19181,0.14141 0.064,0.0768 0.12788,0.18348 0.19181,0.31877 0.0639,0.13533 0.12788,0.29952 0.19181,0.49112 0.064,0.19162 0.12787,0.41082 0.19181,0.65571 0.0639,0.24491 0.12788,0.51564 0.1918,0.80995 0.064,0.29428 0.12788,0.61228 0.19182,0.95135 0.0639,0.33905 0.12787,0.69928 0.1918,1.07773 0.064,0.37846 0.12788,0.77522 0.19182,1.1871 0.064,0.41185 0.12787,0.83892 0.1918,1.27769 0.064,0.43879 0.12788,0.88934 0.19181,1.34811 0.0639,0.45875 0.12787,0.92573 0.19181,1.39721 0.0639,0.47149 0.12788,0.94749 0.19181,1.42425 0.0639,0.47677 0.12787,0.95426 0.19182,1.42876 0.064,0.47449 0.12786,0.94595 0.19181,1.4107 0.0639,0.46475 0.12786,0.92271 0.1918,1.37036 0.064,0.44765 0.12787,0.88491 0.19182,1.30835 0.064,0.42348 0.12786,0.83309 0.1918,1.2257 0.064,0.3926 0.12787,0.76808 0.19181,1.12363 0.0639,0.35554 0.12787,0.69098 0.19181,1.00382 0.064,0.31283 0.12787,0.60296 0.19181,0.86816 0.0639,0.26521 0.12786,0.50539 0.19181,0.71879 0.064,0.21339 0.12787,0.39984 0.19181,0.55803 0.0639,0.15819 0.12786,0.28798 0.19181,0.38848 0.0639,0.10053 0.12786,0.17156 0.19181,0.21279 0.0639,0.0411 0.12786,0.0524 0.1918,0.0337 0.0639,-0.0187 0.12787,-0.0676 0.19181,-0.14589 0.064,-0.0783 0.12787,-0.18641 0.19181,-0.32317 0.0639,-0.13674 0.12786,-0.30234 0.19181,-0.49532 0.064,-0.193 0.12787,-0.41353 0.19181,-0.6597 0.064,-0.24618 0.12786,-0.51817 0.1918,-0.81364 0.064,-0.29547 0.12787,-0.6146 0.19182,-0.95469 0.064,-0.34012 0.12786,-0.70134 0.1918,-1.08071 0.064,-0.37936 0.12787,-0.77697 0.19182,-1.18958 0.0639,-0.41263 0.12786,-0.84034 0.1918,-1.27972 0.064,-0.43937 0.12787,-0.89045 0.19181,-1.3496 0.0639,-0.45917 0.12787,-0.92646 0.19181,-1.39817 0.064,-0.4717 0.12788,-0.94784 0.19181,-1.42462 0.0639,-0.47679 0.12787,-0.95425 0.19181,-1.4286 0.064,-0.47433 0.12788,-0.94555 0.19181,-1.40996 0.064,-0.46442 0.12787,-0.92195 0.19181,-1.36907 0.0639,-0.44712 0.12787,-0.88376 0.19181,-1.30654 0.0639,-0.42276 0.12787,-0.83159 0.1918,-1.22334 0.0639,-0.39178 0.12788,-0.76631 0.19181,-1.12085 0.064,-0.35454 0.12788,-0.6889 0.19181,-1.00063 0.064,-0.3117 0.12788,-0.60062 0.19181,-0.86458 0.064,-0.26396 0.12787,-0.50283 0.19181,-0.7149 0.0639,-0.21205 0.12788,-0.3971 0.1918,-0.55388 0.064,-0.1568 0.12788,-0.28511 0.19182,-0.38416 0.0639,-0.099 0.12788,-0.1686 0.1918,-0.20834 0.064,-0.0396 0.12788,-0.0494 0.19182,-0.0291 0.0639,0.0201 0.12787,0.0705 0.1918,0.15036 0.064,0.0797 0.12788,0.18935 0.19181,0.32753 0.064,0.1382 0.12787,0.30521 0.19181,0.49956 0.064,0.19436 0.12788,0.41622 0.19181,0.66369 0.0639,0.24746 0.12787,0.52067 0.19181,0.81733 0.0639,0.29664 0.12788,0.61688 0.19181,0.95804 0.0639,0.34117 0.12787,0.70336 0.1918,1.08362 0.064,0.38026 0.12788,0.77872 0.19181,1.19208 0.064,0.41338 0.12788,0.84177 0.19181,1.28171 0.0639,0.43997 0.12788,0.89152 0.19181,1.35109 0.064,0.45955 0.12788,0.92717 0.19181,1.39909 0.0639,0.47193 0.12788,0.94819 0.19181,1.42501 0.064,0.47682 0.12787,0.9542 0.19181,1.42839 0.0639,0.47418 0.12788,0.94517 0.1918,1.40921 0.064,0.46408 0.12788,0.92117 0.19182,1.36777 0.0639,0.44661 0.12788,0.88264 0.1918,1.3047 0.064,0.42209 0.12788,0.83015 0.19182,1.22103 0.064,0.39088 0.12787,0.76453 0.1918,1.11804 0.064,0.35353 0.12788,0.68684 0.19181,0.99741 0.0639,0.31057 0.12787,0.59828 0.19181,0.86101 0.064,0.26272 0.12788,0.50029 0.19181,0.71098 0.0639,0.21072 0.12787,0.39438 0.19181,0.54975 0.064,0.15536 0.12787,0.28225 0.19181,0.37982 0.0639,0.0976 0.12787,0.16567 0.1918,0.20389 0.0639,0.0382 0.12788,0.0465 0.19181,0.0247 0.064,-0.0217 0.12788,-0.0736 0.19181,-0.15481 0.0639,-0.0813 0.12788,-0.1923 0.19181,-0.33192 0.064,-0.13964 0.12788,-0.30805 0.19181,-0.50378 0.0639,-0.19571 0.12788,-0.4189 0.19181,-0.66766 0.064,-0.24872 0.12787,-0.52318 0.19181,-0.821 0.064,-0.29781 0.12788,-0.61917 0.1918,-0.96138 0.064,-0.34221 0.12788,-0.70538 0.19182,-1.08655 0.0639,-0.38117 0.12788,-0.78044 0.1918,-1.19456 0.064,-0.41414 0.12788,-0.84318 0.19182,-1.28369 0.0639,-0.44054 0.12786,-0.89261 0.19182,-1.35256 0.0639,-0.45997 0.12786,-0.92788 0.1918,-1.40001 0.0639,-0.47213 0.12786,-0.94853 0.19181,-1.42537 0.064,-0.47684 0.12787,-0.95416 0.19181,-1.42818 0.064,-0.47404 0.12786,-0.94473 0.1918,-1.40846 0.064,-0.46371 0.12787,-0.92037 0.19182,-1.36644 0.0639,-0.44606 0.12786,-0.88149 0.1918,-1.30286 0.064,-0.42138 0.12787,-0.82865 0.19182,-1.21868 0.0639,-0.39002 0.12786,-0.76271 0.1918,-1.11524 0.064,-0.35251 0.12787,-0.68473 0.19181,-0.99418 0.0639,-0.30942 0.12787,-0.59594 0.19181,-0.8574 0.064,-0.26147 0.12787,-0.49773 0.19181,-0.70709 0.064,-0.20936 0.12786,-0.39165 0.19181,-0.54558 0.064,-0.15395 0.12787,-0.2794 0.19181,-0.3755 0.064,-0.0961 0.12786,-0.16269 0.19181,-0.19943 0.064,-0.0368 0.12786,-0.0435 0.19181,-0.0203 0.0639,0.0233 0.12786,0.0765 0.1918,0.15929 0.064,0.0828 0.12786,0.19524 0.19182,0.33629 0.0639,0.14105 0.12786,0.31088 0.1918,0.50797 0.064,0.1971 0.12786,0.42163 0.19181,0.67165 0.064,0.25002 0.12787,0.52569 0.19181,0.82469 0.0639,0.29899 0.12786,0.62143 0.1918,0.96469 0.064,0.34325 0.12787,0.7074 0.19182,1.08947 0.0639,0.38206 0.12788,0.78215 0.1918,1.19703 0.064,0.41486 0.12788,0.84457 0.19182,1.28568 0.0639,0.44109 0.12787,0.89362 0.1918,1.35397 0.064,0.46036 0.12788,0.92859 0.19181,1.40092 0.064,0.47235 0.12788,0.94885 0.19181,1.42573 0.064,0.47685 0.12788,0.9541 0.19181,1.42797 0.0639,0.47385 0.12787,0.94428 0.19181,1.40765 0.064,0.46335 0.12787,0.91958 0.19181,1.36512 0.0639,0.44555 0.12787,0.88033 0.1918,1.30099 0.064,0.42069 0.12788,0.82718 0.19182,1.21635 0.0639,0.38914 0.12787,0.7609 0.1918,1.11241 0.0639,0.3515 0.12788,0.68264 0.19182,0.99095 0.064,0.30829 0.12787,0.59359 0.1918,0.85379 0.0639,0.26021 0.12788,0.49517 0.19181,0.70319 0.064,0.20799 0.12787,0.38891 0.19181,0.54143 0.0639,0.15252 0.12788,0.27651 0.1918,0.37113 0.064,0.0946 0.12788,0.15974 0.19182,0.19498 0.064,0.0352 0.12788,0.0404 0.1918,0.0157 0.064,-0.0248 0.12788,-0.0795 0.19182,-0.16377 0.0639,-0.0841 0.12787,-0.19815 0.1918,-0.34065 0.064,-0.14249 0.12788,-0.31371 0.19181,-0.51217 0.0639,-0.19846 0.12788,-0.42431 0.19181,-0.6756 0.064,-0.25131 0.12788,-0.52821 0.19181,-0.82836 0.0639,-0.30014 0.12787,-0.62373 0.19181,-0.96801 0.064,-0.34429 0.12787,-0.70942 0.19181,-1.09238 0.0639,-0.38298 0.12787,-0.78388 0.1918,-1.19949 0.064,-0.41559 0.12788,-0.84596 0.19182,-1.28763 0.064,-0.44166 0.12787,-0.89471 0.1918,-1.35544 0.0639,-0.46075 0.12788,-0.92926 0.19182,-1.4018 0.0639,-0.47254 0.12787,-0.94915 0.1918,-1.42606 0.0639,-0.47685 0.12788,-0.95404 0.19181,-1.42772 0.064,-0.4737 0.12787,-0.94387 0.19181,-1.40686 0.064,-0.46301 0.12788,-0.91878 0.1918,-1.36378 0.064,-0.44501 0.12788,-0.87917 0.19182,-1.29913 0.0639,-0.41996 0.12788,-0.82567 0.1918,-1.21395 0.064,-0.38831 0.12788,-0.75909 0.19181,-1.10959 0.0639,-0.35049 0.12788,-0.68055 0.19181,-0.9877 0.064,-0.30715 0.12788,-0.59124 0.19181,-0.85019 0.0639,-0.25895 0.12787,-0.4926 0.19181,-0.69926 0.064,-0.20667 0.12788,-0.38617 0.19181,-0.53729 0.064,-0.15108 0.12787,-0.27362 0.19181,-0.36677 0.064,-0.0932 0.12787,-0.15678 0.19181,-0.19052 0.0639,-0.0339 0.12787,-0.0375 0.1918,-0.0113 0.064,0.0263 0.12788,0.0825 0.19182,0.16823 0.0639,0.0858 0.12787,0.20109 0.1918,0.34503 0.064,0.14392 0.12788,0.31654 0.19181,0.51638 0.064,0.1998 0.12788,0.42698 0.19181,0.67955 0.0639,0.25258 0.12788,0.53068 0.19182,0.83202 0.064,0.30133 0.12786,0.62599 0.19181,0.9713 0.064,0.34533 0.12787,0.71143 0.19181,1.09529 0.0639,0.38385 0.12786,0.78558 0.1918,1.20193 0.064,0.41632 0.12787,0.84735 0.19182,1.28958 0.0639,0.44222 0.12786,0.8957 0.1918,1.35684 0.064,0.46113 0.12787,0.92993 0.19182,1.40269 0.0639,0.47275 0.12786,0.94947 0.1918,1.42636 0.0639,0.4769 0.12786,0.95397 0.19181,1.42749 0.064,0.4735 0.12787,0.94342 0.19181,1.40607 0.0639,0.46263 0.12786,0.91795 0.1918,1.36241 0.064,0.44447 0.12787,0.87801 0.19182,1.29725 0.0639,0.41924 0.12786,0.82414 0.1918,1.21157 0.064,0.38743 0.12787,0.75726 0.19182,1.10674 0.064,0.34949 0.12786,0.67845 0.1918,0.98443 0.064,0.30602 0.12787,0.5889 0.19181,0.8466 0.0639,0.25769 0.12787,0.49002 0.19181,0.69533 0.064,0.20528 0.12787,0.38343 0.19181,0.5331 0.0639,0.14967 0.12786,0.27076 0.19181,0.36245 0.064,0.0916 0.12787,0.15382 0.19181,0.18606 0.0639,0.032 0.12786,0.0345 0.1918,0.007 0.064,-0.0277 0.12787,-0.0855 0.19182,-0.17269 0.0639,-0.0873 0.12786,-0.20404 0.1918,-0.34938 0.064,-0.14535 0.12787,-0.31937 0.19182,-0.52057 0.064,-0.20118 0.12786,-0.42967 0.1918,-0.68352 0.0639,-0.25383 0.12788,-0.53316 0.19181,-0.83565 0.0639,-0.30249 0.12787,-0.62826 0.19181,-0.97462 0.0639,-0.34635 0.12788,-0.7134 0.1918,-1.09815 0.064,-0.38475 0.12788,-0.7873 0.19182,-1.20435 0.064,-0.41706 0.12788,-0.84874 0.1918,-1.29152 0.064,-0.44281 0.12788,-0.89676 0.19182,-1.35827 0.0639,-0.46153 0.12787,-0.93062 0.1918,-1.40356 0.064,-0.47295 0.12788,-0.94977 0.19181,-1.42667 0.0639,-0.4769 0.12788,-0.95389 0.19181,-1.4272 0.064,-0.47334 0.12788,-0.94298 0.19181,-1.40524 0.0639,-0.4623 0.12788,-0.91715 0.19181,-1.36106 0.064,-0.44392 0.12787,-0.87681 0.19181,-1.29536 0.064,-0.41852 0.12787,-0.82261 0.1918,-1.20916 0.064,-0.38656 0.12788,-0.75544 0.19182,-1.10391 0.064,-0.34845 0.12787,-0.67633 0.1918,-0.98116 0.064,-0.30485 0.12788,-0.58654 0.19182,-0.84295 0.064,-0.25643 0.12787,-0.48744 0.1918,-0.6914 0.064,-0.20394 0.12788,-0.38066 0.19181,-0.52893 0.0639,-0.14825 0.12787,-0.26788 0.19181,-0.3581 0.064,-0.0902 0.12788,-0.15085 0.1918,-0.18161 0.064,-0.0308 0.12788,-0.0315 0.19182,-0.002 0.064,0.029 0.12788,0.0885 0.1918,0.17714 0.064,0.0887 0.12788,0.20698 0.19181,0.35374 0.0639,0.14676 0.12788,0.32221 0.19181,0.52475 0.064,0.20254 0.12788,0.43235 0.19181,0.68748 0.0639,0.25509 0.12788,0.53565 0.19181,0.83929 0.064,0.30364 0.12788,0.63052 0.19181,0.9779 0.0639,0.34738 0.12788,0.7154 0.19181,1.10103 0.064,0.38565 0.12787,0.78898 0.19181,1.20677 0.0639,0.41779 0.12787,0.85009 0.1918,1.29344 0.064,0.44334 0.12788,0.89778 0.19182,1.35966 0.064,0.46189 0.12787,0.93129 0.1918,1.4044 0.064,0.47314 0.12788,0.95005 0.19182,1.42694"
       style="opacity:1;fill:none;fill-opacity:1;stroke:url(#linearGradient1228);stroke-width:2.10524464;stroke-linecap:butt;stroke-linejoin:miter;stroke-miterlimit:4;stroke-dasharray:none;stroke-opacity:0.99792528;paint-order:normal"
       inkscape:connector-curvature="0" />
    <rect
       style="opacity:0.7229996;fill:#0044aa;fill-opacity:1;stroke:none;stroke-width:3.56790257;stroke-linecap:butt;stroke-linejoin:miter;stroke-miterlimit:4;stroke-dasharray:none;stroke-opacity:1;paint-order:normal;filter:url(#filter4610)"
       id="rect1368"
       width="338.86819"
       height="53.400391"
       x="-0.2006578"
       y="128.24081"
       transform="matrix(1.0189264,-0.00172372,0,0.75342456,-3.2034235,48.675962)" />
    <text
       xml:space="preserve"
       style="font-style:normal;font-variant:normal;font-weight:600;font-stretch:normal;font-size:22.57777786px;line-height:1.25;font-family:'Source Sans Pro';-inkscape-font-specification:'Source Sans Pro Semi-Bold';letter-spacing:0px;word-spacing:0px;fill:#ffffff;fill-opacity:1;stroke:none;stroke-width:0.26458332"
       x="55.906116"
       y="169.89371"
       id="text17"><tspan
         sodipodi:role="line"
         id="tspan15"
         x="55.906116"
         y="169.89371"
         style="font-size:22.57777977px;fill:#ffffff;stroke-width:0.26458332"><tspan
   style="font-size:22.57777977px;fill:#ff0000;fill-opacity:1;stroke-width:0.26458332"
   id="tspan862">U</tspan>niversal <tspan
   style="font-size:22.57777977px;fill:#ff0000;fill-opacity:1;stroke-width:0.26458332"
   id="tspan866">R</tspan>adio <tspan
   style="font-size:22.57777977px;fill:#ff0000;fill-opacity:1;stroke-width:0.26458332"
   id="tspan874">H</tspan>acker</tspan></text>
    <text
       xml:space="preserve"
       style="font-style:normal;font-variant:normal;font-weight:600;font-stretch:normal;font-size:9.87777805px;line-height:1.25;font-family:'Source Sans Pro';-inkscape-font-specification:'Source Sans Pro Semi-Bold';letter-spacing:0px;word-spacing:0px;fill:#ffffff;fill-opacity:1;stroke:none;stroke-width:0.26458335"
       x="81.418678"
       y="182.26888"
       id="text4616"><tspan
         sodipodi:role="line"
         id="tspan4614"
         x="81.418678"
         y="182.26888"
         style="font-style:normal;font-variant:normal;font-weight:600;font-stretch:normal;font-family:'Source Sans Pro';-inkscape-font-specification:'Source Sans Pro Semi-Bold';fill:#ffffff;stroke-width:0.26458335">Investigate Wireless Protocols Like A Boss</tspan></text>
  </g>
</svg>
