<?xml version="1.0" encoding="UTF-8" standalone="no"?>
<!-- Created with Inkscape (http://www.inkscape.org/) -->

<svg
   xmlns:osb="http://www.openswatchbook.org/uri/2009/osb"
   xmlns:dc="http://purl.org/dc/elements/1.1/"
   xmlns:cc="http://creativecommons.org/ns#"
   xmlns:rdf="http://www.w3.org/1999/02/22-rdf-syntax-ns#"
   xmlns:svg="http://www.w3.org/2000/svg"
   xmlns="http://www.w3.org/2000/svg"
   xmlns:xlink="http://www.w3.org/1999/xlink"
   xmlns:sodipodi="http://sodipodi.sourceforge.net/DTD/sodipodi-0.dtd"
   xmlns:inkscape="http://www.inkscape.org/namespaces/inkscape"
   width="1280"
   height="576"
   viewBox="0 0 338.6624 152.39808"
   version="1.1"
   id="svg8"
   inkscape:version="0.92.4 5da689c313, 2019-01-14"
   sodipodi:docname="appicon_big.svg.2020_03_27_15_09_45.0.svg"
   inkscape:export-filename="/home/andy/work/repository/urh/data/icons/appicon_big.png"
   inkscape:export-xdpi="73.18"
   inkscape:export-ydpi="73.18">
  <defs
     id="defs2">
    <inkscape:perspective
       sodipodi:type="inkscape:persp3d"
       inkscape:vp_x="-2.9803933 : 97.20445 : 1"
       inkscape:vp_y="0 : 5058.6841 : 0"
       inkscape:vp_z="304.47162 : 146.69882 : 1"
       inkscape:persp3d-origin="316.6624 : -299.19252 : 1"
       id="perspective175" />
    <inkscape:perspective
       sodipodi:type="inkscape:persp3d"
       inkscape:vp_x="-175.81643 : 44.949807 : 1"
       inkscape:vp_y="0 : 4550.0205 : 0"
       inkscape:vp_z="246.35971 : 278.30339 : 1"
       inkscape:persp3d-origin="273.90236 : -259.9465 : 1"
       id="perspective4604" />
    <linearGradient
       id="linearGradient1425"
       osb:paint="gradient">
      <stop
         style="stop-color:#ff6600;stop-opacity:1;"
         offset="0"
         id="stop1421" />
      <stop
         style="stop-color:#ff6600;stop-opacity:0;"
         offset="1"
         id="stop1423" />
    </linearGradient>
    <linearGradient
       inkscape:collect="always"
       id="linearGradient3266">
      <stop
         style="stop-color:#ffffff;stop-opacity:1;"
         offset="0"
         id="stop3262" />
      <stop
         style="stop-color:#ffffff;stop-opacity:0;"
         offset="1"
         id="stop3264" />
    </linearGradient>
    <filter
       y="-0.25"
       height="1.5"
       inkscape:menu-tooltip="Light areas turn to black"
       inkscape:menu="Color"
       inkscape:label="Black Light"
       style="color-interpolation-filters:sRGB"
       id="filter3101">
      <feGaussianBlur
         stdDeviation="5"
         result="result6"
         id="feGaussianBlur3091" />
      <feComposite
         result="result8"
         in="SourceGraphic"
         operator="atop"
         in2="result6"
         id="feComposite3093" />
      <feComposite
         result="result9"
         operator="over"
         in2="SourceAlpha"
         in="result8"
         id="feComposite3095" />
      <feColorMatrix
         values="1 0 0 0 0 0 1 0 0 0 0 0 1 0 0 0 0 0 1 0 "
         result="result10"
         id="feColorMatrix3097" />
      <feBlend
         in="result10"
         mode="normal"
         in2="result6"
         id="feBlend3099"
         result="fbSourceGraphic" />
      <feColorMatrix
         result="fbSourceGraphicAlpha"
         in="fbSourceGraphic"
         values="0 0 0 -1 0 0 0 0 -1 0 0 0 0 -1 0 0 0 0 1 0"
         id="feColorMatrix1358" />
      <feColorMatrix
         id="feColorMatrix1360"
         type="luminanceToAlpha"
         result="result2"
         in="fbSourceGraphic" />
      <feComposite
         in2="fbSourceGraphic"
         id="feComposite1362"
         operator="arithmetic"
         in="result2"
         k3="2"
         result="result4"
         k1="0"
         k2="0"
         k4="0" />
      <feBlend
         in2="result2"
         id="feBlend1364"
         in="result4"
         mode="multiply"
         result="result3" />
      <feComposite
         in2="fbSourceGraphic"
         id="feComposite1366"
         operator="in"
         in="result3" />
    </filter>
    <linearGradient
       inkscape:collect="always"
       xlink:href="#linearGradient3266"
       id="linearGradient3268"
       x1="106.5204"
       y1="209.60114"
       x2="327.20642"
       y2="209.60114"
       gradientUnits="userSpaceOnUse"
       gradientTransform="matrix(0.90951245,0,0,0.9095125,58.474655,12.612276)" />
    <filter
       inkscape:collect="always"
       style="color-interpolation-filters:sRGB"
       id="filter4610"
       x="-0.14336009"
       width="1.2867202"
       y="-0.89671344"
       height="2.793427">
      <feGaussianBlur
         inkscape:collect="always"
         stdDeviation="20.24174"
         id="feGaussianBlur4612" />
    </filter>
    <filter
       inkscape:label="Inset"
       inkscape:menu="Shadows and Glows"
       inkscape:menu-tooltip="Shadowy outer bevel"
       style="color-interpolation-filters:sRGB"
       id="filter1391"
       x="-0.30000001"
       y="-0.30000001"
       width="1.5"
       height="1.5">
      <feMorphology
         result="result1"
         in="SourceAlpha"
         operator="dilate"
         radius="3.6"
         id="feMorphology1379" />
      <feGaussianBlur
         stdDeviation="3.6"
         in="result1"
         result="result0"
         id="feGaussianBlur1381" />
      <feDiffuseLighting
         surfaceScale="-5"
         id="feDiffuseLighting1385">
        <feDistantLight
           elevation="45"
           azimuth="225"
           id="feDistantLight1383" />
      </feDiffuseLighting>
      <feComposite
         in2="result0"
         operator="in"
         result="result91"
         id="feComposite1387" />
      <feComposite
         in="SourceGraphic"
         in2="result91"
         id="feComposite1389" />
    </filter>
  </defs>
  <sodipodi:namedview
     id="base"
     pagecolor="#000000"
     bordercolor="#666666"
     borderopacity="1.0"
     inkscape:pageopacity="1"
     inkscape:pageshadow="2"
     inkscape:zoom="1.5805974"
     inkscape:cx="559.55049"
     inkscape:cy="289.0153"
     inkscape:document-units="px"
     inkscape:current-layer="layer1"
     showgrid="false"
     units="px"
     inkscape:window-width="3840"
     inkscape:window-height="2061"
     inkscape:window-x="3840"
     inkscape:window-y="0"
     inkscape:window-maximized="1"
     showguides="true"
     inkscape:lockguides="false"
     inkscape:guide-bbox="true"
     fit-margin-bottom="-200">
    <inkscape:grid
       id="grid4600"
       type="xygrid" />
    <sodipodi:guide
       position="337.96954,16.906846"
       orientation="1,0"
       id="guide868"
       inkscape:locked="false" />
  </sodipodi:namedview>
  <metadata
     id="metadata5">
    <rdf:RDF>
      <cc:Work
         rdf:about="">
        <dc:format>image/svg+xml</dc:format>
        <dc:type
           rdf:resource="http://purl.org/dc/dcmitype/StillImage" />
        <dc:title></dc:title>
      </cc:Work>
    </rdf:RDF>
  </metadata>
  <g
     inkscape:label="Ebene 1"
     inkscape:groupmode="layer"
     id="layer1"
     transform="translate(0,-144.59978)">
    <text
       xml:space="preserve"
       style="font-style:normal;font-variant:normal;font-weight:600;font-stretch:normal;font-size:22.57777786px;line-height:1.25;font-family:'Source Code Pro';-inkscape-font-specification:'Source Code Pro Semi-Bold';letter-spacing:0px;word-spacing:0px;fill:#ffffff;fill-opacity:1;stroke:none;stroke-width:0.26458332"
       x="204.86308"
       y="235.0119"
       id="text6945"><tspan
         sodipodi:role="line"
         id="tspan6943"
         x="204.86308"
         y="254.76746"
         style="font-style:normal;font-variant:normal;font-weight:600;font-stretch:normal;font-family:'Source Code Pro';-inkscape-font-specification:'Source Code Pro Semi-Bold';fill:#ffffff;stroke-width:0.26458332" /></text>
    <flowRoot
       xml:space="preserve"
       id="flowRoot7231"
       style="font-style:normal;font-variant:normal;font-weight:600;font-stretch:normal;font-size:85.33333588px;line-height:1.25;font-family:'Source Sans Pro';-inkscape-font-specification:'Source Sans Pro Semi-Bold';letter-spacing:0px;word-spacing:0px;fill:#000000;fill-opacity:1;stroke:none"><flowRegion
         id="flowRegion7233"><rect
           id="rect7235"
           width="40"
           height="118"
           x="1112"
           y="453.33334" /></flowRegion><flowPara
         id="flowPara7237" /></flowRoot>    <path
       id="path1217"
       title="sin(10*x)"
       d="m 33.866668,244.34759 c 0.0346,0.34375 0.06919,0.68748 0.103791,1.02851 0.0346,0.34102 0.06919,0.67933 0.103791,1.01225 0.0346,0.33291 0.06919,0.66043 0.103791,0.98 0.0346,0.31956 0.06919,0.63111 0.103791,0.93226 0.0346,0.30116 0.06919,0.59183 0.103791,0.8698 0.0346,0.27798 0.06919,0.54318 0.103791,0.79357 0.0346,0.25044 0.06919,0.48596 0.10379,0.70485 0.0346,0.21889 0.06919,0.42104 0.103791,0.60493 0.0346,0.18393 0.06919,0.3495 0.103791,0.49552 0.0346,0.14601 0.06919,0.27238 0.103791,0.37822 0.0346,0.10583 0.06919,0.191 0.103791,0.25497 0.0346,0.064 0.06919,0.10658 0.103791,0.12767 0.0346,0.0211 0.06919,0.0205 0.103791,-10e-4 0.0346,-0.0221 0.06919,-0.0659 0.103791,-0.13091 0.0346,-0.065 0.06919,-0.15129 0.103791,-0.25808 0.0346,-0.10683 0.06919,-0.23429 0.10379,-0.38124 0.0346,-0.14698 0.06919,-0.31356 0.103791,-0.49835 0.0346,-0.18477 0.06919,-0.38788 0.103791,-0.60757 0.0346,-0.21968 0.06919,-0.45607 0.103791,-0.70719 0.0346,-0.25112 0.06919,-0.51707 0.103791,-0.79564 0.0346,-0.27859 0.06919,-0.56989 0.103791,-0.87154 0.0346,-0.30164 0.06919,-0.61369 0.103791,-0.93363 0.0346,-0.31995 0.06919,-0.64783 0.103791,-0.98101 0.0346,-0.33317 0.06919,-0.67169 0.103791,-1.01285 0.0346,-0.34115 0.06919,-0.68496 0.103791,-1.0287 0.0346,-0.34372 0.06919,-0.68739 0.10379,-1.02829 0.0346,-0.34088 0.06919,-0.67896 0.103791,-1.01162 0.0346,-0.33267 0.06919,-0.65984 0.103791,-0.979 0.0346,-0.31915 0.06919,-0.63024 0.103791,-0.93087 0.0346,-0.30063 0.06919,-0.59072 0.103791,-0.86806 0.0346,-0.27734 0.06919,-0.54184 0.103791,-0.79152 0.0346,-0.24966 0.06919,-0.4844 0.103791,-0.70247 0.0346,-0.21805 0.06919,-0.41931 0.103791,-0.6023 0.0346,-0.183 0.06919,-0.34762 0.103791,-0.49267 0.0346,-0.14505 0.06919,-0.27041 0.10379,-0.3752 0.0346,-0.1048 0.06919,-0.18893 0.103791,-0.25182 0.0346,-0.0629 0.06919,-0.10446 0.103791,-0.12447 0.0346,-0.0201 0.06919,-0.0184 0.103791,0.005 0.0346,0.0233 0.06919,0.068 0.103791,0.13412 0.0346,0.066 0.06919,0.1534 0.103791,0.26125 0.0346,0.10784 0.06919,0.23629 0.103791,0.38423 0.0346,0.14796 0.06919,0.31549 0.103791,0.50118 0.0346,0.1857 0.06919,0.38966 0.103791,0.61019 0.0346,0.2205 0.06919,0.45769 0.10379,0.70954 0.0346,0.25187 0.06919,0.51848 0.103791,0.7977 0.0346,0.27921 0.06919,0.5711 0.103791,0.87327 0.0346,0.30215 0.06919,0.61466 0.103791,0.93501 0.0346,0.32032 0.06919,0.64853 0.103791,0.98197 0.0346,0.33344 0.06919,0.67216 0.103791,1.01344 0.0346,0.34128 0.06919,0.68515 0.103791,1.02888 0.0346,0.34374 0.06919,0.68733 0.103791,1.02808 0.0346,0.34075 0.06919,0.67862 0.103791,1.011 0.0346,0.33238 0.06919,0.65922 0.10379,0.97798 0.0346,0.31878 0.06919,0.62938 0.103791,0.9295 0.0346,0.30009 0.06919,0.5896 0.103791,0.86628 0.0346,0.27671 0.06919,0.54052 0.103791,0.78946 0.0346,0.24892 0.06919,0.48287 0.103791,0.70007 0.0346,0.21723 0.06919,0.41763 0.103791,0.59969 0.0346,0.18208 0.06919,0.34575 0.103791,0.4898 0.0346,0.14408 0.06919,0.26842 0.103791,0.3722 0.0346,0.10377 0.06919,0.18685 0.103791,0.24868 0.0346,0.0618 0.06919,0.10233 0.103791,0.12125 0.0346,0.0189 0.06919,0.0162 0.10379,-0.008 0.0346,-0.0243 0.06919,-0.0702 0.103791,-0.13732 0.0346,-0.0672 0.06919,-0.1555 0.103791,-0.26437 0.0346,-0.10886 0.06919,-0.23834 0.103791,-0.38724 0.0346,-0.14891 0.06919,-0.31741 0.103791,-0.50401 0.0346,-0.18661 0.06919,-0.39143 0.103791,-0.6128 0.0346,-0.22133 0.06919,-0.45929 0.103791,-0.71187 0.0346,-0.25261 0.06919,-0.51992 0.103791,-0.79977 0.0346,-0.27984 0.06919,-0.57229 0.103791,-0.87497 0.0346,-0.30267 0.06919,-0.61565 0.10379,-0.93638 0.0346,-0.32072 0.06919,-0.64925 0.103791,-0.98295 0.0346,-0.3337 0.06919,-0.67262 0.103791,-1.01402 0.0346,-0.34142 0.06919,-0.68534 0.103791,-1.02906 0.0346,-0.34373 0.06919,-0.68725 0.103791,-1.02785 0.0346,-0.3406 0.06919,-0.67826 0.103791,-1.01037 0.0346,-0.3321 0.06919,-0.6586 0.103791,-0.97696 0.0346,-0.31833 0.06919,-0.6285 0.103791,-0.92807 0.0346,-0.29957 0.06919,-0.58849 0.103791,-0.86454 0.0346,-0.27605 0.06919,-0.53918 0.10379,-0.78735 0.0346,-0.24818 0.06919,-0.48134 0.103791,-0.6977 0.0346,-0.21639 0.06919,-0.41589 0.103791,-0.59707 0.0346,-0.18116 0.06919,-0.34387 0.103791,-0.48695 0.0346,-0.14308 0.06919,-0.26641 0.103791,-0.36915 0.0346,-0.10273 0.06919,-0.18476 0.103791,-0.24553 0.0346,-0.0607 0.06919,-0.10018 0.103791,-0.11803 0.0346,-0.0179 0.06919,-0.014 0.103791,0.0112 0.0346,0.0254 0.06919,0.0724 0.103791,0.14055 0.0346,0.0681 0.06919,0.15762 0.103791,0.26752 0.0346,0.10989 0.06919,0.24034 0.10379,0.39023 0.0346,0.14989 0.06919,0.31932 0.103791,0.50683 0.0346,0.18752 0.06919,0.39322 0.103791,0.61539 0.0346,0.22218 0.06919,0.46092 0.103791,0.71424 0.0346,0.25333 0.06919,0.52132 0.103791,0.80179 0.0346,0.28047 0.06919,0.5735 0.103791,0.8767 0.0346,0.30318 0.06919,0.6166 0.103791,0.9377 0.0346,0.32112 0.06919,0.64997 0.103791,0.98394 0.0346,0.33395 0.06919,0.67304 0.103791,1.01458 0.0346,0.34153 0.06919,0.68554 0.10379,1.02923 0.0346,0.34372 0.06919,0.68715 0.103791,1.02761 0.0346,0.34045 0.06919,0.67791 0.103791,1.00974 0.0346,0.3318 0.06919,0.65796 0.103791,0.97591 0.0346,0.31795 0.06919,0.62763 0.103791,0.92666 0.0346,0.29903 0.06919,0.58738 0.103791,0.86279 0.0346,0.2754 0.06919,0.53782 0.103791,0.78525 0.0346,0.24742 0.06919,0.47977 0.103791,0.69532 0.0346,0.21553 0.06919,0.41415 0.103791,0.59441 0.0346,0.18023 0.06919,0.34199 0.10379,0.48407 0.0346,0.14211 0.06919,0.26444 0.103791,0.36615 0.0346,0.10171 0.06919,0.18267 0.103791,0.24238 0.0346,0.0597 0.06919,0.098 0.103791,0.11482 0.0346,0.0168 0.06919,0.0118 0.103791,-0.0147 0.0346,-0.0265 0.06919,-0.0745 0.103791,-0.14375 0.0346,-0.0692 0.06919,-0.15973 0.103791,-0.27062 0.0346,-0.11092 0.06919,-0.24241 0.103791,-0.39325 0.0346,-0.15087 0.06919,-0.32123 0.103791,-0.50964 0.0346,-0.18843 0.06919,-0.39501 0.103791,-0.618 0.0346,-0.22299 0.06919,-0.46253 0.10379,-0.71657 0.0346,-0.25405 0.06919,-0.52274 0.103791,-0.80382 0.0346,-0.2811 0.06919,-0.57469 0.103791,-0.8784 0.0346,-0.30368 0.06919,-0.61755 0.103791,-0.93904 0.0346,-0.3215 0.06919,-0.65068 0.103791,-0.98489 0.0346,-0.33422 0.06919,-0.67349 0.103791,-1.01515 0.0346,-0.34167 0.06919,-0.68571 0.103791,-1.0294 0.0346,-0.3437 0.06919,-0.68704 0.103791,-1.02737 0.0346,-0.34028 0.06919,-0.67753 0.103791,-1.00907 0.0346,-0.33154 0.06919,-0.65734 0.10379,-0.97486 0.0346,-0.31752 0.06919,-0.62673 0.103791,-0.92524 0.0346,-0.2985 0.06919,-0.58624 0.103791,-0.861 0.0346,-0.27476 0.06919,-0.53647 0.103791,-0.78316 0.0346,-0.24665 0.06919,-0.47821 0.103791,-0.69291 0.0346,-0.21471 0.06919,-0.41245 0.103791,-0.59177 0.0346,-0.17932 0.06919,-0.34012 0.103791,-0.48123 0.0346,-0.14111 0.06919,-0.26241 0.103791,-0.36308 0.0346,-0.10069 0.06919,-0.1806 0.103791,-0.23925 0.0346,-0.0586 0.06919,-0.0959 0.10379,-0.11159 0.0346,-0.0156 0.06919,-0.01 0.103791,0.0179 0.0346,0.0275 0.06919,0.0766 0.103791,0.14696 0.0346,0.0703 0.06919,0.16181 0.103791,0.27376 0.0346,0.11194 0.06919,0.24439 0.103791,0.39624 0.0346,0.15183 0.06919,0.32313 0.103791,0.51246 0.0346,0.18931 0.06919,0.39676 0.103791,0.62056 0.0346,0.22384 0.06919,0.46412 0.103791,0.7189 0.0346,0.2548 0.06919,0.52414 0.103791,0.80586 0.0346,0.28172 0.06919,0.57587 0.103791,0.88006 0.0346,0.30421 0.06919,0.61851 0.10379,0.94038 0.0346,0.32188 0.06919,0.65138 0.103791,0.98584 0.0346,0.33448 0.06919,0.67394 0.103791,1.01572 0.0346,0.34178 0.06919,0.68586 0.103791,1.02953 0.0346,0.34368 0.06919,0.68695 0.103791,1.02709 0.0346,0.34016 0.06919,0.67717 0.103791,1.00843 0.0346,0.33124 0.06919,0.6567 0.103791,0.97382 0.0346,0.31712 0.06919,0.62584 0.103791,0.9238 0.0346,0.29798 0.06919,0.5851 0.103791,0.85921 0.0346,0.27412 0.06919,0.53512 0.10379,0.78106 0.0346,0.24592 0.06919,0.47665 0.103791,0.69051 0.0346,0.21385 0.06919,0.41071 0.103791,0.5891 0.0346,0.1784 0.06919,0.33825 0.103791,0.47837 0.0346,0.14012 0.06919,0.26041 0.103791,0.36006 0.0346,0.0996 0.06919,0.17851 0.103791,0.23608 0.0346,0.0576 0.06919,0.0937 0.103791,0.10836 0.0346,0.0146 0.06919,0.007 0.103791,-0.0211 0.0346,-0.0286 0.06919,-0.0788 0.103791,-0.15016 0.0346,-0.0713 0.06919,-0.16393 0.10379,-0.27689 0.0346,-0.11296 0.06919,-0.24643 0.103791,-0.39922 0.0346,-0.1528 0.06919,-0.32505 0.103791,-0.51528 0.0346,-0.19021 0.06919,-0.39853 0.103791,-0.62317 0.0346,-0.22464 0.06919,-0.46569 0.103791,-0.72121 0.0346,-0.25548 0.06919,-0.52552 0.103791,-0.80786 0.0346,-0.28232 0.06919,-0.57704 0.103791,-0.88175 0.0346,-0.3047 0.06919,-0.61946 0.103791,-0.94171 0.0346,-0.32225 0.06919,-0.65205 0.103791,-0.98678 0.0346,-0.3347 0.06919,-0.67436 0.10379,-1.01625 0.0346,-0.34188 0.06919,-0.68602 0.103791,-1.02966 0.0346,-0.34367 0.06919,-0.68685 0.103791,-1.02683 0.0346,-0.34 0.06919,-0.67679 0.103791,-1.00775 0.0346,-0.33097 0.06919,-0.65604 0.103791,-0.97275 0.0346,-0.3167 0.06919,-0.62494 0.103791,-0.92237 0.0346,-0.29741 0.06919,-0.58396 0.103791,-0.85741 0.0346,-0.27346 0.06919,-0.53375 0.103791,-0.77893 0.0346,-0.24517 0.06919,-0.47512 0.103791,-0.68811 0.0346,-0.21299 0.06919,-0.40897 0.103791,-0.58645 0.0346,-0.17747 0.06919,-0.33634 0.10379,-0.47549 0.0346,-0.13912 0.06919,-0.25842 0.103791,-0.35702 0.0346,-0.0986 0.06919,-0.17641 0.103791,-0.23292 0.0346,-0.0565 0.06919,-0.0916 0.103791,-0.10514 0.0346,-0.0135 0.06919,-0.005 0.103791,0.0243 0.0346,0.0296 0.06919,0.081 0.103791,0.15337 0.0346,0.0724 0.06919,0.16602 0.103791,0.28 0.0346,0.11398 0.06919,0.24844 0.103791,0.40221 0.0346,0.15377 0.06919,0.32695 0.103791,0.51807 0.0346,0.19113 0.06919,0.4003 0.10379,0.62574 0.0346,0.22545 0.06919,0.4673 0.103791,0.72353 0.0346,0.25624 0.06919,0.52692 0.103791,0.80987 0.0346,0.28296 0.06919,0.57823 0.103791,0.88343 0.0346,0.3052 0.06919,0.62039 0.103791,0.94302 0.0346,0.32262 0.06919,0.65273 0.103791,0.98769 0.0346,0.33498 0.06919,0.6748 0.103791,1.01681 0.0346,0.34198 0.06919,0.68616 0.103791,1.02978 0.0346,0.34364 0.06919,0.68673 0.103791,1.02655 0.0346,0.33983 0.06919,0.67639 0.10379,1.00705 0.0346,0.33067 0.06919,0.65541 0.103791,0.97168 0.0346,0.31629 0.06919,0.62405 0.103791,0.92094 0.0346,0.29688 0.06919,0.58281 0.103791,0.8556 0.0346,0.27282 0.06919,0.53239 0.103791,0.7768 0.0346,0.24442 0.06919,0.47355 0.103791,0.6857 0.0346,0.21215 0.06919,0.40723 0.103791,0.58379 0.0346,0.17655 0.06919,0.33445 0.103791,0.47259 0.0346,0.13816 0.06919,0.25642 0.103791,0.35399 0.0346,0.0976 0.06919,0.17433 0.103791,0.22977 0.0346,0.0554 0.06919,0.0895 0.10379,0.10192 0.0346,0.0125 0.06919,0.003 0.103791,-0.0276 0.0346,-0.0307 0.06919,-0.0831 0.103791,-0.15656 0.0346,-0.0735 0.06919,-0.16813 0.103791,-0.28314 0.0346,-0.115 0.06919,-0.25046 0.103791,-0.40518 0.0346,-0.15473 0.06919,-0.32886 0.103791,-0.52088 0.0346,-0.19201 0.06919,-0.40203 0.103791,-0.62832 0.0346,-0.22627 0.06919,-0.46888 0.103791,-0.72583 0.0346,-0.25694 0.06919,-0.52832 0.103791,-0.81186 0.0346,-0.28357 0.06919,-0.5794 0.10379,-0.8851 0.0346,-0.30568 0.06919,-0.62131 0.103791,-0.94432 0.0346,-0.323 0.06919,-0.65342 0.103791,-0.98863 0.0346,-0.3352 0.06919,-0.6752 0.103791,-1.0173 0.0346,-0.34211 0.06919,-0.68633 0.103791,-1.02991 0.0346,-0.34361 0.06919,-0.6866 0.103791,-1.02627 0.0346,-0.33966 0.06919,-0.676 0.103791,-1.00636 0.0346,-0.33036 0.06919,-0.65474 0.103791,-0.97058 0.0346,-0.31586 0.06919,-0.62313 0.103791,-0.91948 0.0346,-0.29632 0.06919,-0.58165 0.10379,-0.85379 0.0346,-0.27215 0.06919,-0.53102 0.103791,-0.77468 0.0346,-0.24364 0.06919,-0.47198 0.103791,-0.68327 0.0346,-0.21131 0.06919,-0.40547 0.103791,-0.5811 0.0346,-0.17562 0.06919,-0.33258 0.103791,-0.46973 0.0346,-0.13715 0.06919,-0.2544 0.103791,-0.35093 0.0346,-0.0965 0.06919,-0.17222 0.103791,-0.22663 0.0346,-0.0544 0.06919,-0.0873 0.103791,-0.0987 0.0346,-0.0115 0.06919,-0.001 0.103791,0.0307 0.0346,0.0318 0.06919,0.0853 0.103791,0.15978 0.0346,0.0745 0.06919,0.17022 0.10379,0.28623 0.0346,0.11604 0.06919,0.25247 0.103791,0.40817 0.0346,0.15571 0.06919,0.33076 0.103791,0.52367 0.0346,0.19292 0.06919,0.4038 0.103791,0.63088 0.0346,0.22707 0.06919,0.47045 0.103791,0.72812 0.0346,0.25766 0.06919,0.52968 0.103791,0.81387 0.0346,0.28418 0.06919,0.58054 0.103791,0.88674 0.0346,0.30619 0.06919,0.62226 0.103791,0.94562 0.0346,0.32336 0.06919,0.6541 0.103791,0.98952 0.0346,0.33545 0.06919,0.67563 0.10379,1.01784 0.0346,0.3422 0.06919,0.68644 0.103791,1.03001 0.0346,0.34358 0.06919,0.68646 0.103791,1.02596 0.0346,0.3395 0.06919,0.6756 0.103791,1.00566 0.0346,0.33007 0.06919,0.65408 0.103791,0.96951 0.0346,0.31542 0.06919,0.62219 0.103791,0.91798 0.0346,0.29579 0.06919,0.58052 0.103791,0.85199 0.0346,0.27148 0.06919,0.52964 0.103791,0.77253 0.0346,0.24288 0.06919,0.47039 0.103791,0.68085 0.0346,0.21045 0.06919,0.40374 0.10379,0.57841 0.0346,0.17469 0.06919,0.33067 0.103791,0.46684 0.0346,0.13618 0.06919,0.25241 0.103791,0.34788 0.0346,0.0955 0.06919,0.17014 0.103791,0.22346 0.0346,0.0534 0.06919,0.0852 0.103791,0.0955 0.0346,0.0104 0.06919,-0.001 0.103791,-0.034 0.0346,-0.0329 0.06919,-0.0874 0.103791,-0.16297 0.0346,-0.0756 0.06919,-0.17231 0.103791,-0.28936 0.0346,-0.11703 0.06919,-0.25449 0.103791,-0.41114 0.0346,-0.15665 0.06919,-0.33264 0.10379,-0.52645 0.0346,-0.1938 0.06919,-0.40555 0.103791,-0.63344 0.0346,-0.22788 0.06919,-0.47204 0.103791,-0.73042 0.0346,-0.25838 0.06919,-0.53106 0.103791,-0.81583 0.0346,-0.28479 0.06919,-0.58173 0.103791,-0.88841 0.0346,-0.30667 0.06919,-0.62316 0.103791,-0.94689 0.0346,-0.32374 0.06919,-0.65477 0.103791,-0.99045 0.0346,-0.33566 0.06919,-0.676 0.103791,-1.01831 0.0346,-0.34232 0.06919,-0.68659 0.103791,-1.03012 0.0346,-0.34355 0.06919,-0.68632 0.103791,-1.02565 0.0346,-0.33933 0.06919,-0.67519 0.10379,-1.00495 0.0346,-0.32976 0.06919,-0.65339 0.103791,-0.96839 0.0346,-0.31498 0.06919,-0.62128 0.103791,-0.9165 0.0346,-0.29526 0.06919,-0.57936 0.103791,-0.85019 0.0346,-0.2708 0.06919,-0.52824 0.103791,-0.77036 0.0346,-0.24213 0.06919,-0.46882 0.103791,-0.6784 0.0346,-0.2096 0.06919,-0.402 0.103791,-0.57575 0.0346,-0.17375 0.06919,-0.32877 0.103791,-0.46395 0.0346,-0.13517 0.06919,-0.25038 0.103791,-0.34483 0.0346,-0.0944 0.06919,-0.16804 0.10379,-0.22028 0.0346,-0.0523 0.06919,-0.083 0.103791,-0.0922 0.0346,-0.009 0.06919,0.003 0.103791,0.0373 0.0346,0.034 0.06919,0.0896 0.103791,0.16619 0.0346,0.0766 0.06919,0.17441 0.103791,0.29245 0.0346,0.11805 0.06919,0.25649 0.103791,0.41413 0.0346,0.15761 0.06919,0.33454 0.103791,0.52923 0.0346,0.19469 0.06919,0.40729 0.103791,0.63599 0.0346,0.2287 0.06919,0.47362 0.103791,0.73269 0.0346,0.2591 0.06919,0.53244 0.10379,0.81783 0.0346,0.28539 0.06919,0.58286 0.103791,0.89002 0.0346,0.30718 0.06919,0.62408 0.103791,0.94818 0.0346,0.32409 0.06919,0.65541 0.103791,0.99133 0.0346,0.3359 0.06919,0.67641 0.103791,1.01881 0.0346,0.3424 0.06919,0.68671 0.103791,1.03021 0.0346,0.34349 0.06919,0.68617 0.103791,1.02532 0.0346,0.33916 0.06919,0.67478 0.103791,1.00423 0.0346,0.32947 0.06919,0.65273 0.103791,0.96728 0.0346,0.31456 0.06919,0.62036 0.103791,0.91504 0.0346,0.29467 0.06919,0.57816 0.10379,0.84831 0.0346,0.27016 0.06919,0.52688 0.103791,0.76823 0.0346,0.24135 0.06919,0.46723 0.103791,0.67597 0.0346,0.20874 0.06919,0.4002 0.103791,0.57304 0.0346,0.17282 0.06919,0.32687 0.103791,0.46104 0.0346,0.13419 0.06919,0.24838 0.103791,0.34179 0.0346,0.0934 0.06919,0.16594 0.103791,0.21711 0.0346,0.0512 0.06919,0.0809 0.103791,0.089 0.0346,0.008 0.06919,-0.005 0.103791,-0.0404 0.0346,-0.035 0.06919,-0.0917 0.10379,-0.16936 0.0346,-0.0777 0.06919,-0.17649 0.103791,-0.29556 0.0346,-0.11907 0.06919,-0.25851 0.103791,-0.41708 0.0346,-0.15857 0.06919,-0.33643 0.103791,-0.53203 0.0346,-0.19559 0.06919,-0.40903 0.103791,-0.63853 0.0346,-0.22951 0.06919,-0.47518 0.103791,-0.73498 0.0346,-0.2598 0.06919,-0.53381 0.103791,-0.81978 0.0346,-0.28599 0.06919,-0.58401 0.103791,-0.89165 0.0346,-0.30766 0.06919,-0.62498 0.103791,-0.94945 0.0346,-0.32445 0.06919,-0.65607 0.10379,-0.99221 0.0346,-0.33614 0.06919,-0.67681 0.103791,-1.01931 0.0346,-0.3425 0.06919,-0.68683 0.103791,-1.03027 0.0346,-0.34346 0.06919,-0.68603 0.103791,-1.025 0.0346,-0.33898 0.06919,-0.67434 0.103791,-1.0035 0.0346,-0.32914 0.06919,-0.65203 0.103791,-0.96615 0.0346,-0.31413 0.06919,-0.61941 0.103791,-0.91353 0.0346,-0.29412 0.06919,-0.577 0.103791,-0.84649 0.0346,-0.26947 0.06919,-0.52547 0.103791,-0.76605 0.0346,-0.24058 0.06919,-0.46565 0.103791,-0.67352 0.0346,-0.20788 0.06919,-0.39846 0.10379,-0.57034 0.0346,-0.17189 0.06919,-0.32497 0.103791,-0.45816 0.0346,-0.13319 0.06919,-0.24635 0.103791,-0.33872 0.0346,-0.0924 0.06919,-0.16383 0.103791,-0.21395 0.0346,-0.0501 0.06919,-0.0787 0.103791,-0.0858 0.0346,-0.007 0.06919,0.008 0.103791,0.0438 0.0346,0.0362 0.06919,0.0939 0.103791,0.17256 0.0346,0.0787 0.06919,0.1786 0.103791,0.29868 0.0346,0.12007 0.06919,0.26051 0.103791,0.42003 0.0346,0.15954 0.06919,0.33833 0.10379,0.53478 0.0346,0.19649 0.06919,0.41078 0.103791,0.64109 0.0346,0.23031 0.06919,0.47673 0.103791,0.73725 0.0346,0.26049 0.06919,0.53516 0.103791,0.82175 0.0346,0.28657 0.06919,0.58514 0.103791,0.89327 0.0346,0.30814 0.06919,0.62589 0.103791,0.95069 0.0346,0.32482 0.06919,0.65673 0.103791,0.99309 0.0346,0.33635 0.06919,0.67718 0.103791,1.01976 0.0346,0.34259 0.06919,0.68694 0.103791,1.03036 0.0346,0.3434 0.06919,0.68586 0.10379,1.02464 0.0346,0.33881 0.06919,0.67393 0.103791,1.00276 0.0346,0.32884 0.06919,0.65135 0.103791,0.96504 0.0346,0.31366 0.06919,0.61846 0.103791,0.91201 0.0346,0.29357 0.06919,0.57583 0.103791,0.84462 0.0346,0.26882 0.06919,0.52409 0.103791,0.7639 0.0346,0.23982 0.06919,0.46405 0.103791,0.67106 0.0346,0.20701 0.06919,0.39669 0.103791,0.56765 0.0346,0.17095 0.06919,0.32306 0.103791,0.45524 0.0346,0.13218 0.06919,0.24433 0.10379,0.33567 0.0346,0.0913 0.06919,0.16174 0.103791,0.21078 0.0346,0.049 0.06919,0.0765 0.103791,0.0825 0.0346,0.006 0.06919,-0.01 0.103791,-0.0469 0.0346,-0.0372 0.06919,-0.096 0.103791,-0.17577 0.0346,-0.0798 0.06919,-0.18066 0.103791,-0.30175 0.0346,-0.1211 0.06919,-0.26251 0.103791,-0.42301 0.0346,-0.1605 0.06919,-0.3402 0.103791,-0.53755 0.0346,-0.19737 0.06919,-0.41251 0.103791,-0.64361 0.0346,-0.23112 0.06919,-0.4783 0.103791,-0.73952 0.0346,-0.26119 0.06919,-0.53651 0.10379,-0.82369 0.0346,-0.28717 0.06919,-0.58628 0.103791,-0.89488 0.0346,-0.30863 0.06919,-0.6268 0.103791,-0.95196 0.0346,-0.32515 0.06919,-0.65736 0.103791,-0.99393 0.0346,-0.3366 0.06919,-0.67757 0.103791,-1.02025 0.0346,-0.34265 0.06919,-0.68704 0.103791,-1.0304 0.0346,-0.34336 0.06919,-0.68569 0.103791,-1.02429 0.0346,-0.33862 0.06919,-0.6735 0.103791,-1.00201 0.0346,-0.32851 0.06919,-0.65065 0.103791,-0.96389 0.0346,-0.31322 0.06919,-0.61752 0.10379,-0.91052 0.0346,-0.29298 0.06919,-0.57462 0.103791,-0.84275 0.0346,-0.26813 0.06919,-0.52268 0.103791,-0.76171 0.0346,-0.23903 0.06919,-0.46245 0.103791,-0.66859 0.0346,-0.20616 0.06919,-0.39492 0.103791,-0.56493 0.0346,-0.17002 0.06919,-0.32116 0.103791,-0.45235 0.0346,-0.13119 0.06919,-0.2423 0.103791,-0.3326 0.0346,-0.0903 0.06919,-0.15962 0.103791,-0.20759 0.0346,-0.048 0.06919,-0.0745 0.103791,-0.0794 0.0346,-0.005 0.06919,0.012 0.10379,0.0502 0.0346,0.0384 0.06919,0.0981 0.103791,0.17894 0.0346,0.0808 0.06919,0.18278 0.103791,0.30488 0.0346,0.12208 0.06919,0.26449 0.103791,0.42594 0.0346,0.16146 0.06919,0.34207 0.103791,0.54033 0.0346,0.19825 0.06919,0.41422 0.103791,0.64613 0.0346,0.23191 0.06919,0.47985 0.103791,0.74177 0.0346,0.2619 0.06919,0.53787 0.103791,0.82563 0.0346,0.28778 0.06919,0.58742 0.103791,0.8965 0.0346,0.30908 0.06919,0.62766 0.103791,0.95317 0.0346,0.32551 0.06919,0.658 0.10379,0.99479 0.0346,0.33679 0.06919,0.67793 0.103791,1.02068 0.0346,0.34276 0.06919,0.68715 0.103791,1.03046 0.0346,0.34331 0.06919,0.68552 0.103791,1.02394 0.0346,0.33843 0.06919,0.67303 0.103791,1.00124 0.0346,0.3282 0.06919,0.64994 0.103791,0.96274 0.0346,0.31277 0.06919,0.61656 0.103791,0.90899 0.0346,0.29244 0.06919,0.57345 0.103791,0.84089 0.0346,0.26746 0.06919,0.52128 0.103791,0.75953 0.0346,0.23824 0.06919,0.46084 0.10379,0.66612 0.0346,0.20529 0.06919,0.39315 0.103791,0.56223 0.0346,0.16906 0.06919,0.31924 0.103791,0.44943 0.0346,0.13017 0.06919,0.24027 0.103791,0.32951 0.0346,0.0893 0.06919,0.15754 0.103791,0.20443 0.0346,0.0468 0.06919,0.0723 0.103791,0.0761 0.0346,0.003 0.06919,-0.014 0.103791,-0.0535 0.0346,-0.0394 0.06919,-0.10028 0.103791,-0.18216 0.0346,-0.0819 0.06919,-0.18483 0.103791,-0.30794 0.0346,-0.12311 0.06919,-0.2665 0.10379,-0.42891 0.0346,-0.16241 0.06919,-0.34393 0.103791,-0.54307 0.0346,-0.19913 0.06919,-0.41596 0.103791,-0.64866 0.0346,-0.23271 0.06919,-0.48139 0.103791,-0.74401 0.0346,-0.26261 0.06919,-0.53921 0.103791,-0.82757 0.0346,-0.28838 0.06919,-0.58854 0.103791,-0.8981 0.0346,-0.30955 0.06919,-0.62854 0.103791,-0.9544 0.0346,-0.32586 0.06919,-0.65862 0.103791,-0.99564 0.0346,-0.33701 0.06919,-0.67827 0.103791,-1.02111 0.0346,-0.34285 0.06919,-0.68726 0.103791,-1.0305 0.0346,-0.34325 0.06919,-0.68533 0.10379,-1.02355 0.0346,-0.33825 0.06919,-0.6726 0.103791,-1.00049 0.0346,-0.32787 0.06919,-0.64922 0.103791,-0.96156 0.0346,-0.31234 0.06919,-0.61561 0.103791,-0.90748 0.0346,-0.29186 0.06919,-0.57224 0.103791,-0.83899 0.03471,-0.2668 0.06919,-0.51987 0.103791,-0.75734 0.0346,-0.23748 0.06919,-0.45924 0.103791,-0.66365 0.0346,-0.20442 0.06919,-0.39138 0.103791,-0.55951 0.0346,-0.16812 0.06919,-0.31732 0.103791,-0.44649 0.0346,-0.1292 0.06919,-0.23827 0.10379,-0.32646 0.0346,-0.0882 0.06919,-0.15543 0.103791,-0.20127 0.0346,-0.0457 0.06919,-0.0701 0.103791,-0.0728 0.03472,-0.003 0.06919,0.0163 0.103791,0.0566 0.0346,0.0403 0.06919,0.10242 0.103791,0.18533 0.0346,0.0829 0.06919,0.18694 0.103791,0.31107 0.0346,0.1241 0.06919,0.26846 0.103791,0.43183 0.0346,0.16335 0.06919,0.34582 0.103791,0.54583 0.0346,0.20001 0.06919,0.41766 0.103791,0.65117 0.0346,0.2335 0.06919,0.48294 0.10379,0.74625 0.03472,0.2633 0.06919,0.54056 0.103791,0.8295 0.0346,0.28895 0.06919,0.58965 0.103791,0.89966 0.03472,0.31004 0.06919,0.62944 0.103791,0.95563 0.0346,0.3262 0.06919,0.65923 0.103791,0.99646 0.0346,0.33722 0.06919,0.67864 0.103791,1.02156 0.0346,0.34292 0.06919,0.68733 0.103791,1.03052 0.0346,0.34319 0.06919,0.68515 0.103791,1.02317 0.0346,0.33806 0.06919,0.67216 0.103791,0.99969 0.0346,0.32755 0.06919,0.64853 0.10379,0.96042 0.0346,0.31188 0.06919,0.61462 0.103791,0.90591 0.0346,0.29129 0.06919,0.57104 0.103791,0.83715 0.0346,0.26607 0.06919,0.51842 0.103791,0.75511 0.0346,0.23669 0.06919,0.45763 0.103791,0.66117 0.0346,0.20354 0.06919,0.38961 0.103791,0.55679 0.0346,0.16718 0.06919,0.31538 0.103791,0.44357 0.0346,0.12819 0.06919,0.23623 0.103791,0.32339 0.0346,0.0872 0.06919,0.1533 0.103791,0.19806 0.0346,0.0447 0.06919,0.0679 0.103791,0.0696 0.0346,0.001 0.06919,-0.0185 0.10379,-0.06 0.03471,-0.0414 0.06919,-0.10456 0.103791,-0.18853 0.0346,-0.084 0.06919,-0.18901 0.103791,-0.31414 0.0346,-0.12512 0.06919,-0.27047 0.103791,-0.43477 0.0346,-0.16431 0.06919,-0.3477 0.103791,-0.54858 0.0346,-0.2009 0.06919,-0.4194 0.103791,-0.65368 0.03472,-0.2343 0.06919,-0.48448 0.103791,-0.74848 0.0346,-0.26401 0.06919,-0.5419 0.103791,-0.83143 0.0346,-0.28953 0.06919,-0.59076 0.103791,-0.90124 0.0346,-0.31049 0.06919,-0.6303 0.10379,-0.95685 0.0346,-0.32652 0.06919,-0.65985 0.103791,-0.99727 0.0346,-0.33742 0.06919,-0.67899 0.103791,-1.02198 0.0346,-0.343 0.06919,-0.68741 0.103791,-1.03053 0.0346,-0.34313 0.06919,-0.68495 0.103791,-1.0228 0.03472,-0.33784 0.06919,-0.67167 0.103791,-0.99889 0.0346,-0.32723 0.06919,-0.64779 0.103791,-0.95922 0.0346,-0.31144 0.06919,-0.61365 0.103791,-0.90438 0.0346,-0.2907 0.06919,-0.56983 0.103791,-0.83524 0.0346,-0.2654 0.06919,-0.51699 0.10379,-0.75291 0.03472,-0.23589 0.06919,-0.456 0.103791,-0.65868 0.0346,-0.20268 0.06919,-0.38781 0.103791,-0.55405 0.0346,-0.16624 0.06919,-0.31348 0.103791,-0.44064 0.0346,-0.1272 0.06919,-0.23421 0.103791,-0.3203 0.0346,-0.0861 0.06919,-0.15121 0.103791,-0.1949 0.0346,-0.0438 0.06919,-0.0658 0.103791,-0.0663 0.03472,-5.2e-4 0.06919,0.0205 0.103791,0.0631 0.0346,0.0426 0.06919,0.10669 0.103791,0.19172 0.0346,0.085 0.06919,0.19109 0.103791,0.31722 0.0346,0.12613 0.06919,0.27246 0.10379,0.43772 0.0346,0.16526 0.06919,0.34955 0.103791,0.55131 0.0346,0.20179 0.06919,0.42111 0.103791,0.6562 0.03471,0.23508 0.06919,0.486 0.103791,0.75069 0.0346,0.26468 0.06919,0.54322 0.103791,0.83334 0.0346,0.29011 0.06919,0.59187 0.103791,0.90281 0.0346,0.31095 0.06919,0.63115 0.103791,0.95801 0.0346,0.32689 0.06919,0.66048 0.103791,0.99812 0.0346,0.33762 0.06919,0.67932 0.103791,1.02239 0.0346,0.34305 0.06919,0.68747 0.10379,1.03052 0.0346,0.34307 0.06919,0.68477 0.103791,1.0224 0.03472,0.33765 0.06919,0.67121 0.103791,0.9981 0.0346,0.32688 0.06919,0.64706 0.103791,0.95804 0.0346,0.31095 0.06919,0.61267 0.103791,0.90281 0.0346,0.29013 0.06919,0.56861 0.103791,0.83333 0.0346,0.26471 0.06919,0.51559 0.103791,0.75069 0.0346,0.23512 0.06919,0.45439 0.103791,0.65621 0.0346,0.20179 0.06919,0.38601 0.103791,0.55131 0.0346,0.16528 0.06919,0.31153 0.10379,0.43771 0.0346,0.12618 0.06919,0.23215 0.103791,0.31722 0.0346,0.0851 0.06919,0.1491 0.103791,0.19171 0.0346,0.0427 0.06919,0.0637 0.103791,0.0632 0.0346,-5.1e-4 0.06919,-0.0228 0.103791,-0.0663 0.0346,-0.0437 0.06919,-0.10883 0.103791,-0.1949 0.0346,-0.0861 0.06919,-0.19315 0.103791,-0.32031 0.0346,-0.12712 0.06919,-0.27444 0.103791,-0.44064 0.0346,-0.16619 0.06919,-0.35141 0.103791,-0.55406 0.0346,-0.20263 0.06919,-0.4228 0.103791,-0.65868 0.0346,-0.23586 0.06919,-0.48753 0.10379,-0.75291 0.0346,-0.26538 0.06919,-0.54455 0.103791,-0.83524 0.0346,-0.29069 0.06919,-0.59296 0.103791,-0.90437 0.0346,-0.31141 0.06919,-0.63201 0.103791,-0.95923 0.0346,-0.3272 0.06919,-0.66105 0.103791,-0.9989 0.0346,-0.33783 0.06919,-0.67966 0.103791,-1.02278 0.0346,-0.34312 0.06919,-0.68754 0.103791,-1.03053 0.0346,-0.34299 0.06919,-0.68455 0.103791,-1.02199 0.0346,-0.33742 0.06919,-0.67073 0.103791,-0.99728 0.0346,-0.32655 0.06919,-0.64632 0.10379,-0.95683 0.0346,-0.31051 0.06919,-0.61168 0.103791,-0.90125 0.0346,-0.28954 0.06919,-0.5674 0.103791,-0.83141 0.0346,-0.26403 0.06919,-0.51416 0.103791,-0.74848 0.03472,-0.23433 0.06919,-0.45276 0.103791,-0.65368 0.0346,-0.20094 0.06919,-0.38423 0.103791,-0.54858 0.03472,-0.16434 0.06919,-0.30962 0.103791,-0.43478 0.0346,-0.12518 0.06919,-0.23013 0.103791,-0.31414 0.0346,-0.084 0.06919,-0.14698 0.103791,-0.18853 0.0346,-0.0415 0.06919,-0.0615 0.10379,-0.06 0.03472,10e-4 0.06919,0.0249 0.103791,0.0696 0.0346,0.0448 0.06919,0.11096 0.103791,0.19808 0.0346,0.0871 0.06919,0.19522 0.103791,0.32336 0.0346,0.12816 0.06919,0.27644 0.103791,0.44359 0.0346,0.16716 0.06919,0.35328 0.103791,0.55678 0.0346,0.20351 0.06919,0.42452 0.103791,0.66117 0.0346,0.23667 0.06919,0.48906 0.103791,0.75513 0.0346,0.26606 0.06919,0.54586 0.103791,0.83713 0.0346,0.29128 0.06919,0.59405 0.103791,0.90592 0.0346,0.31188 0.06919,0.63286 0.10379,0.96039 0.0346,0.32754 0.06919,0.66167 0.103791,0.9997 0.0346,0.33802 0.06919,0.68 0.103791,1.02319 0.0346,0.34319 0.06919,0.68759 0.103791,1.03051 0.0346,0.34291 0.06919,0.68433 0.103791,1.02156 0.0346,0.33722 0.06919,0.67024 0.103791,0.99645 0.0346,0.32622 0.06919,0.64559 0.103791,0.95564 0.0346,0.31002 0.06919,0.61071 0.103791,0.89967 0.0346,0.28897 0.06919,0.56617 0.103791,0.82951 0.0346,0.26332 0.06919,0.51269 0.10379,0.74625 0.0346,0.23351 0.06919,0.45112 0.103791,0.65116 0.0346,0.20005 0.06919,0.38244 0.103791,0.54583 0.0346,0.16339 0.06919,0.30768 0.103791,0.43184 0.0346,0.12417 0.06919,0.22808 0.103791,0.31106 0.0346,0.083 0.06919,0.14487 0.103791,0.18533 0.0346,0.0404 0.06919,0.0593 0.103791,0.0566 0.0346,-0.003 0.06919,-0.0271 0.103791,-0.0729 0.0346,-0.0458 0.06919,-0.11308 0.103791,-0.20125 0.0346,-0.0881 0.06919,-0.1973 0.10379,-0.32646 0.0346,-0.12914 0.06919,-0.27839 0.103791,-0.44648 0.0346,-0.16812 0.06919,-0.35513 0.103791,-0.55951 0.0346,-0.20438 0.06919,-0.42622 0.103791,-0.66367 0.0346,-0.23744 0.06919,-0.49057 0.103791,-0.75732 0.0346,-0.26673 0.06919,-0.54716 0.103791,-0.83902 0.0346,-0.29183 0.06919,-0.59515 0.103791,-0.90745 0.0346,-0.31233 0.06919,-0.63372 0.103791,-0.96159 0.0346,-0.32785 0.06919,-0.66225 0.103791,-1.00047 0.0346,-0.33823 0.06919,-0.6803 0.10379,-1.02356 0.0346,-0.34325 0.06919,-0.68764 0.103791,-1.03049 0.0346,-0.34285 0.06919,-0.68412 0.103791,-1.02112 0.0346,-0.33702 0.06919,-0.66975 0.103791,-0.99563 0.0346,-0.32587 0.06919,-0.64483 0.103791,-0.95441 0.0346,-0.30957 0.06919,-0.60969 0.103791,-0.89809 0.0346,-0.28838 0.06919,-0.56493 0.103791,-0.82757 0.0346,-0.26264 0.06919,-0.51126 0.103791,-0.74402 0.0346,-0.23274 0.06919,-0.44947 0.103791,-0.64865 0.0346,-0.19916 0.06919,-0.38062 0.103791,-0.54308 0.0346,-0.16244 0.06919,-0.30575 0.10379,-0.4289 0.0346,-0.12316 0.06919,-0.22603 0.103791,-0.30794 0.0346,-0.0819 0.06919,-0.14276 0.103791,-0.18216 0.0346,-0.0393 0.06919,-0.0571 0.103791,-0.0535 0.0346,0.003 0.06919,0.0292 0.103791,0.0761 0.0346,0.0468 0.06919,0.11521 0.103791,0.20443 0.0346,0.0892 0.06919,0.19938 0.103791,0.32951 0.0346,0.13016 0.06919,0.2804 0.103791,0.44943 0.0346,0.16903 0.06919,0.35698 0.103791,0.56222 0.0346,0.20525 0.06919,0.42792 0.10379,0.66614 0.0346,0.23821 0.06919,0.49209 0.103791,0.75951 0.0346,0.26742 0.06919,0.54849 0.103791,0.84089 0.0346,0.29241 0.06919,0.59623 0.103791,0.909 0.0346,0.31278 0.06919,0.63455 0.103791,0.96272 0.0346,0.32819 0.06919,0.66283 0.103791,1.00125 0.0346,0.33842 0.06919,0.68063 0.103791,1.02394 0.0346,0.34331 0.06919,0.68769 0.103791,1.03045 0.0346,0.34276 0.06919,0.68388 0.103791,1.02067 0.0346,0.33682 0.06919,0.6693 0.10379,0.9948 0.0346,0.32554 0.06919,0.64407 0.103791,0.9532 0.0346,0.30908 0.06919,0.60868 0.103791,0.89647 0.0346,0.28781 0.06919,0.56372 0.103791,0.82565 0.0346,0.26196 0.06919,0.50981 0.103791,0.74176 0.0346,0.23194 0.06919,0.44785 0.103791,0.64614 0.0346,0.19829 0.06919,0.37882 0.103791,0.54034 0.0346,0.16147 0.06919,0.30378 0.103791,0.42593 0.0346,0.12215 0.06919,0.224 0.103791,0.30488 0.0346,0.0809 0.06919,0.14061 0.103791,0.17893 0.0346,0.0384 0.06919,0.0551 0.10379,0.0502 0.0346,-0.005 0.06919,-0.0314 0.103791,-0.0793 0.0346,-0.0479 0.06919,-0.11734 0.103791,-0.20759 0.0346,-0.0902 0.06919,-0.20146 0.103791,-0.33261 0.0346,-0.13114 0.06919,-0.28234 0.103791,-0.45232 0.0346,-0.16998 0.06919,-0.35883 0.103791,-0.56493 0.0346,-0.20611 0.06919,-0.42961 0.103791,-0.66861 0.0346,-0.239 0.06919,-0.49359 0.103791,-0.76172 0.0346,-0.26809 0.06919,-0.54977 0.103791,-0.84275 0.0346,-0.29297 0.06919,-0.59731 0.10379,-0.91052 0.0346,-0.31322 0.06919,-0.63538 0.103791,-0.96388 0.0346,-0.32851 0.06919,-0.6634 0.103791,-1.00202 0.0346,-0.33858 0.06919,-0.68092 0.103791,-1.02428 0.0346,-0.34336 0.06919,-0.68773 0.103791,-1.03041 0.0346,-0.34267 0.06919,-0.68365 0.103791,-1.02023 0.0346,-0.33659 0.06919,-0.66877 0.103791,-0.99394 0.0346,-0.32518 0.06919,-0.64331 0.103791,-0.95195 0.0346,-0.30862 0.06919,-0.60767 0.103791,-0.89488 0.0346,-0.28721 0.06919,-0.56246 0.10379,-0.82371 0.0346,-0.26124 0.06919,-0.50834 0.103791,-0.73951 0.0346,-0.23114 0.06919,-0.44619 0.103791,-0.6436 0.0346,-0.1974 0.06919,-0.37703 0.103791,-0.53756 0.0346,-0.16053 0.0692,-0.30186 0.10379,-0.42301 0.0346,-0.12112 0.0692,-0.22194 0.10379,-0.30174 0.0346,-0.0798 0.0692,-0.13853 0.10379,-0.17577 0.0346,-0.0372 0.0692,-0.053 0.10379,-0.0469 0.0346,0.006 0.0692,0.0336 0.103787,0.0825 0.0346,0.049 0.0692,0.1195 0.1038,0.21079 0.0346,0.0913 0.0692,0.20351 0.10379,0.33565 0.0346,0.13216 0.0692,0.28433 0.10379,0.45525 0.0346,0.17093 0.0692,0.36067 0.10379,0.56764 0.0346,0.20698 0.0692,0.4313 0.10379,0.67107 0.0346,0.23979 0.0692,0.4951 0.10379,0.76388 0.0346,0.26878 0.0692,0.55109 0.10379,0.84464 0.0346,0.29352 0.0692,0.59836 0.10379,0.91203 0.0346,0.31365 0.0692,0.63618 0.10379,0.96501 0.0346,0.32883 0.0692,0.66396 0.10379,1.00276 0.0346,0.33878 0.0692,0.68125 0.10379,1.02466 0.0346,0.34339 0.0692,0.68774 0.1038,1.03033 0.0346,0.34259 0.0692,0.68341 0.10379,1.01977 0.0346,0.33637 0.0692,0.66826 0.10379,0.99309 0.0346,0.32484 0.0692,0.64254 0.10379,0.9507 0.0346,0.30815 0.0692,0.60666 0.10379,0.89328 0.0346,0.28659 0.0692,0.56121 0.10379,0.82173 0.0346,0.26054 0.0692,0.50693 0.10379,0.73726 0.0346,0.23034 0.0692,0.44455 0.10379,0.64108 0.0346,0.19651 0.0692,0.37521 0.10379,0.53477 0.0346,0.15958 0.0692,0.29993 0.10379,0.42006 0.0346,0.12012 0.0692,0.21989 0.10379,0.29867 0.0346,0.0787 0.0692,0.1364 0.1038,0.17257 0.0346,0.0362 0.0692,0.0505 0.10379,0.0438 0.0346,-0.007 0.0692,-0.0357 0.10379,-0.0858 0.0346,-0.05 0.0692,-0.12161 0.10379,-0.21395 0.0346,-0.0923 0.0692,-0.20558 0.10379,-0.33873 0.0346,-0.13314 0.0692,-0.2863 0.10379,-0.45815 0.0346,-0.17185 0.0692,-0.36251 0.10379,-0.57033 0.0346,-0.20786 0.0692,-0.43299 0.10379,-0.67353 0.0346,-0.24055 0.0692,-0.4966 0.10379,-0.76607 0.0346,-0.26944 0.0692,-0.55236 0.10379,-0.84646 0.0346,-0.29411 0.0692,-0.59943 0.10379,-0.91354 0.0346,-0.3141 0.0692,-0.63702 0.10379,-0.96615 0.0346,-0.32914 0.0692,-0.66454 0.1038,-1.00351 0.0346,-0.33897 0.0692,-0.68154 0.10379,-1.02499 0.0346,-0.34346 0.0692,-0.68778 0.10379,-1.03028 0.0346,-0.34251 0.0692,-0.68316 0.10379,-1.0193 0.0346,-0.33615 0.0692,-0.66775 0.10379,-0.9922 0.0346,-0.32449 0.0692,-0.64178 0.10379,-0.94946 0.0346,-0.30765 0.0692,-0.60564 0.10379,-0.89164 0.0346,-0.28601 0.0692,-0.55998 0.10379,-0.81979 0.0346,-0.25983 0.0692,-0.50544 0.10379,-0.73498 0.0346,-0.22954 0.0692,-0.44292 0.10379,-0.63855 0.0346,-0.19562 0.0692,-0.37338 0.10379,-0.532 0.0346,-0.15863 0.0692,-0.29798 0.1038,-0.41709 0.0346,-0.1191 0.0692,-0.21785 0.10379,-0.29556 0.0346,-0.0777 0.0692,-0.13428 0.10379,-0.16936 0.0346,-0.0351 0.0692,-0.0487 0.10379,-0.0404 0.0346,0.008 0.0692,0.0379 0.10379,0.089 0.0346,0.0511 0.0692,0.12375 0.10379,0.21712 0.0346,0.0934 0.0692,0.20764 0.10379,0.34178 0.0346,0.13415 0.0692,0.28827 0.10379,0.46106 0.0346,0.17277 0.0692,0.36433 0.10379,0.57304 0.0346,0.20869 0.0692,0.43464 0.10379,0.67596 0.0346,0.24133 0.0692,0.4981 0.10379,0.76822 0.0346,0.27012 0.0692,0.55367 0.1038,0.84834 0.0346,0.29464 0.0692,0.60047 0.10379,0.91502 0.0346,0.31454 0.0692,0.63783 0.10379,0.96727 0.0346,0.32945 0.0692,0.66509 0.10379,1.00423 0.0346,0.33914 0.0692,0.68183 0.10379,1.02533 0.0346,0.34349 0.0692,0.68779 0.10379,1.03021 0.0346,0.34242 0.0692,0.68289 0.10379,1.01881 0.0346,0.33592 0.0692,0.66722 0.10379,0.99131 0.0346,0.32414 0.0692,0.641 0.10379,0.94819 0.0346,0.30719 0.0692,0.60462 0.10379,0.89003 0.0346,0.2854 0.0692,0.5587 0.10379,0.81783 0.0346,0.25912 0.0692,0.50397 0.1038,0.7327 0.0346,0.22872 0.0692,0.44126 0.10379,0.63598 0.0346,0.19474 0.0692,0.37159 0.10379,0.52924 0.0346,0.15765 0.0692,0.29602 0.10379,0.41411 0.0346,0.1181 0.0692,0.21581 0.10379,0.29247 0.0346,0.0766 0.0692,0.13215 0.10379,0.16618 0.0346,0.034 0.0692,0.0464 0.10379,0.0373 0.0346,-0.009 0.0692,-0.04 0.10379,-0.0922 0.0346,-0.0523 0.0692,-0.12587 0.10379,-0.22029 0.0346,-0.0944 0.0692,-0.20968 0.10379,-0.34483 0.0346,-0.13514 0.0692,-0.29023 0.10379,-0.46396 0.0346,-0.17371 0.0692,-0.36616 0.1038,-0.57572 0.0346,-0.20958 0.0692,-0.43633 0.10379,-0.67841 0.0346,-0.24209 0.0692,-0.4996 0.10379,-0.77038 0.0346,-0.27079 0.0692,-0.55495 0.10379,-0.85017 0.0346,-0.29521 0.0692,-0.60153 0.10379,-0.9165 0.0346,-0.31499 0.0692,-0.63865 0.10379,-0.9684 0.0346,-0.32974 0.0692,-0.66563 0.10379,-1.00497 0.0346,-0.33931 0.0692,-0.68209 0.10379,-1.02563 0.0346,-0.34354 0.0692,-0.68781 0.10379,-1.03012 0.0346,-0.34232 0.0692,-0.68265 0.10379,-1.01833 0.0346,-0.33568 0.0692,-0.66669 0.10379,-0.99043 0.0346,-0.32375 0.0692,-0.64018 0.10379,-0.9469 0.0346,-0.30669 0.0692,-0.60359 0.1038,-0.88839 0.0346,-0.28481 0.0692,-0.55742 0.10379,-0.81583 0.0346,-0.25841 0.0692,-0.5025 0.10379,-0.73042 0.0346,-0.22793 0.0692,-0.43961 0.10379,-0.63345 0.0346,-0.19383 0.0692,-0.36975 0.10379,-0.52646 0.0346,-0.15669 0.0692,-0.29406 0.10379,-0.41114 0.0346,-0.11708 0.0692,-0.21374 0.10379,-0.28935 0.0346,-0.0756 0.0692,-0.13002 0.10379,-0.16297 0.0346,-0.0329 0.0692,-0.0443 0.10379,-0.034 0.0346,0.0102 0.0692,0.0421 0.10379,0.0955 0.0346,0.0534 0.0692,0.12799 0.10379,0.22344 0.0346,0.0955 0.0692,0.21178 0.1038,0.3479 0.0346,0.13612 0.0692,0.29219 0.10379,0.46683 0.0346,0.17466 0.0692,0.36802 0.10379,0.57842 0.0346,0.21042 0.0692,0.438 0.10379,0.68085 0.0346,0.24287 0.0692,0.50109 0.10379,0.77253 0.0346,0.27145 0.0692,0.55621 0.10379,0.85199 0.0346,0.29576 0.0692,0.60258 0.10379,0.91799 0.0346,0.3154 0.0692,0.63944 0.10379,0.96948 0.0346,0.33007 0.0692,0.66618 0.10379,1.00567 0.0346,0.3395 0.0692,0.6824 0.10379,1.02596 0.0346,0.34356 0.0692,0.68782 0.10379,1.03003 0.0346,0.34222 0.0692,0.68237 0.1038,1.01782 0.0346,0.33545 0.0692,0.66614 0.10379,0.98952 0.0346,0.32341 0.0692,0.63943 0.10379,0.94563 0.0346,0.30621 0.0692,0.60254 0.10379,0.88675 0.0346,0.28419 0.0692,0.55616 0.10379,0.81385 0.0346,0.25771 0.0692,0.50101 0.10379,0.72813 0.0346,0.22712 0.0692,0.43793 0.10379,0.63088 0.0346,0.19296 0.0692,0.36794 0.10379,0.52367 0.0346,0.15572 0.0692,0.29211 0.10379,0.40818 0.0346,0.11605 0.0692,0.21168 0.10379,0.28624 0.0346,0.0745 0.0692,0.1279 0.10379,0.15976 0.0346,0.0319 0.0692,0.042 0.1038,0.0308 0.0346,-0.0113 0.0692,-0.0443 0.10379,-0.0987 0.0346,-0.0543 0.0692,-0.13011 0.10379,-0.22662 0.0346,-0.0965 0.0692,-0.2138 0.10379,-0.35093 0.0346,-0.13712 0.0692,-0.29414 0.10379,-0.46973 0.0346,-0.17558 0.0692,-0.36982 0.10379,-0.5811 0.0346,-0.21127 0.0692,-0.43966 0.10379,-0.68327 0.0346,-0.24362 0.0692,-0.50255 0.10379,-0.77468 0.0346,-0.2721 0.0692,-0.55748 0.10379,-0.85378 0.0346,-0.29632 0.0692,-0.60364 0.10379,-0.91948 0.0346,-0.31583 0.0692,-0.64024 0.10379,-0.97059 0.0346,-0.33035 0.0692,-0.66672 0.1038,-1.00636 0.0346,-0.33966 0.0692,-0.68266 0.10379,-1.02626 0.0346,-0.3436 0.0692,-0.6878 0.10379,-1.02991 0.0346,-0.34213 0.0692,-0.6821 0.10379,-1.01732 0.0346,-0.3352 0.0692,-0.66562 0.10379,-0.98863 0.0346,-0.323 0.0692,-0.63859 0.10379,-0.9443 0.0346,-0.30573 0.0692,-0.60151 0.10379,-0.8851 0.0346,-0.28359 0.0692,-0.55489 0.10379,-0.81188 0.0346,-0.25697 0.0692,-0.49952 0.10379,-0.72582 0.0346,-0.22631 0.0692,-0.43626 0.10379,-0.62831 0.0346,-0.19206 0.0692,-0.3661 0.10379,-0.52088 0.0346,-0.15477 0.0692,-0.29014 0.10379,-0.40519 0.0346,-0.11504 0.0692,-0.20963 0.1038,-0.28312 0.0346,-0.0735 0.0692,-0.12579 0.10379,-0.15657 0.0346,-0.0308 0.0692,-0.0399 0.10379,-0.0275 0.0346,0.0124 0.0692,0.0464 0.10379,0.10193 0.0346,0.0554 0.0692,0.13225 0.10379,0.22975 0.0346,0.0975 0.0692,0.21589 0.10379,0.35398 0.0346,0.13812 0.0692,0.29611 0.10379,0.47262 0.0346,0.17652 0.0692,0.37165 0.10379,0.58379 0.0346,0.2121 0.0692,0.4413 0.10379,0.68569 0.0346,0.24437 0.0692,0.50402 0.10379,0.77679 0.0346,0.27279 0.0692,0.55875 0.10379,0.85562 0.0346,0.29685 0.0692,0.60467 0.1038,0.92092 0.0346,0.31626 0.0692,0.64101 0.10379,0.97167 0.0346,0.33065 0.0692,0.66723 0.10379,1.00706 0.0346,0.33983 0.0692,0.68292 0.10379,1.02655 0.0346,0.34364 0.0692,0.6878 0.10379,1.0298 0.0346,0.34199 0.0692,0.6818 0.10379,1.01678 0.0346,0.33498 0.0692,0.66506 0.10379,0.98771 0.0346,0.32265 0.0692,0.63781 0.10379,0.94301 0.0346,0.30523 0.0692,0.60046 0.10379,0.88344 0.0346,0.28298 0.0692,0.55361 0.10379,0.80987 0.0346,0.25627 0.0692,0.49804 0.10379,0.72352 0.0346,0.22548 0.0692,0.4346 0.1038,0.62575 0.0346,0.19115 0.0692,0.36426 0.10379,0.51807 0.0346,0.15381 0.0692,0.28819 0.10379,0.40221 0.0346,0.11402 0.0692,0.20757 0.10379,0.28001 0.0346,0.0725 0.0692,0.12365 0.10379,0.15337 0.0346,0.0296 0.0692,0.0377 0.10379,0.0243 0.0346,-0.0135 0.0692,-0.0487 0.10379,-0.10515 0.0346,-0.0565 0.0692,-0.13436 0.10379,-0.23293 0.0346,-0.0986 0.0692,-0.21791 0.10379,-0.35701 0.0346,-0.1391 0.0692,-0.29806 0.10379,-0.47549 0.0346,-0.17743 0.0692,-0.37348 0.10379,-0.58644 0.0346,-0.21296 0.0692,-0.44298 0.1038,-0.68811 0.0346,-0.24514 0.0692,-0.50549 0.10379,-0.77893 0.0346,-0.27343 0.0692,-0.56002 0.10379,-0.85741 0.0346,-0.29741 0.0692,-0.60569 0.10379,-0.92238 0.0346,-0.31668 0.0692,-0.6418 0.10379,-0.97274 0.0346,-0.33096 0.0692,-0.66776 0.10379,-1.00775 0.0346,-0.33999 0.0692,-0.68317 0.10379,-1.02682 0.0346,-0.34365 0.0692,-0.68779 0.10379,-1.02969 0.0346,-0.34188 0.0692,-0.68152 0.10379,-1.01625 0.0346,-0.33473 0.0692,-0.66451 0.10379,-0.98678 0.0346,-0.32226 0.0692,-0.63698 0.10379,-0.94171 0.0346,-0.3047 0.0692,-0.59938 0.1038,-0.88173 0.0346,-0.28239 0.0692,-0.55234 0.10379,-0.80787 0.0346,-0.25554 0.0692,-0.49654 0.10379,-0.72122 0.0346,-0.22466 0.0692,-0.43291 0.10379,-0.62317 0.0346,-0.19025 0.0692,-0.36241 0.10379,-0.51526 0.0346,-0.15285 0.0692,-0.28622 0.10379,-0.39922 0.0346,-0.11302 0.0692,-0.20551 0.10379,-0.27689 0.0346,-0.0714 0.0692,-0.12152 0.10379,-0.15016 0.0346,-0.0286 0.0692,-0.0356 0.10379,-0.0209 0.0346,0.0145 0.0692,0.0508 0.10379,0.10838 0.0346,0.0574 0.0692,0.13647 0.10379,0.23606 0.0346,0.0996 0.0692,0.21999 0.10379,0.36007 0.0346,0.14009 0.0692,0.3 0.1038,0.47837 0.0346,0.17836 0.0692,0.37527 0.10379,0.5891 0.0346,0.2138 0.0692,0.44462 0.10379,0.69052 0.0346,0.2459 0.0692,0.50696 0.10379,0.78103 0.0346,0.27408 0.0692,0.56129 0.10379,0.85921 0.0346,0.29795 0.0692,0.60672 0.10379,0.92382 0.0346,0.31711 0.0692,0.64258 0.10379,0.97382 0.0346,0.33122 0.0692,0.66827 0.10379,1.00841 0.0346,0.34016 0.0692,0.68342 0.10379,1.0271 0.0346,0.34368 0.0692,0.68775 0.10379,1.02954 0.0346,0.34177 0.0692,0.68124 0.10379,1.0157 0.0346,0.33449 0.0692,0.66395 0.1038,0.98585 0.0346,0.32189 0.0692,0.63617 0.10379,0.94037 0.0346,0.30423 0.0692,0.59835 0.10379,0.88008 0.0346,0.28173 0.0692,0.55105 0.10379,0.80584 0.0346,0.25482 0.0692,0.49506 0.10379,0.7189 0.0346,0.22385 0.0692,0.43122 0.10379,0.62059 0.0346,0.18936 0.0692,0.36059 0.10379,0.51245 0.0346,0.15188 0.0692,0.28425 0.10379,0.39624 0.0346,0.11198 0.0692,0.20344 0.10379,0.27376 0.0346,0.0704 0.0692,0.11941 0.10379,0.14696 0.0346,0.0275 0.0692,0.0335 0.10379,0.0178 0.0346,-0.0156 0.0692,-0.0531 0.1038,-0.11159 0.0346,-0.0586 0.0692,-0.1386 0.10379,-0.23924 0.0346,-0.10064 0.0692,-0.22202 0.10379,-0.3631 0.0346,-0.14106 0.0692,-0.30192 0.10379,-0.48123 0.0346,-0.17926 0.0692,-0.37708 0.10379,-0.59175 0.0346,-0.21464 0.0692,-0.44627 0.10379,-0.69292 0.0346,-0.24666 0.0692,-0.50842 0.10379,-0.78315 0.0346,-0.27474 0.0692,-0.56251 0.10379,-0.86099 0.0346,-0.2985 0.0692,-0.60774 0.10379,-0.92524 0.0346,-0.31753 0.0692,-0.64336 0.10379,-0.97489 0.0346,-0.33152 0.0692,-0.66877 0.10379,-1.00907 0.0346,-0.3403 0.0692,-0.68367 0.1038,-1.02736 0.0346,-0.34369 0.0692,-0.68772 0.10379,-1.02938 0.0346,-0.34167 0.0692,-0.68093 0.10379,-1.01517 0.0346,-0.33423 0.0692,-0.66337 0.10379,-0.98488 0.0346,-0.32151 0.0692,-0.63535 0.10379,-0.93906 0.0346,-0.30372 0.0692,-0.59726 0.10379,-0.87838 0.0346,-0.28112 0.0692,-0.54973 0.10379,-0.80383 0.0346,-0.25407 0.0692,-0.49353 0.10379,-0.71657 0.0346,-0.22302 0.0692,-0.42953 0.10379,-0.61798 0.0346,-0.18846 0.0692,-0.35874 0.10379,-0.50965 0.0346,-0.1509 0.0692,-0.28228 0.10379,-0.39323 0.0346,-0.11096 0.0692,-0.20138 0.1038,-0.27065 0.0346,-0.0693 0.0692,-0.11726 0.10379,-0.14374 0.0346,-0.0265 0.0692,-0.0313 0.10379,-0.0147 0.0346,0.0168 0.0692,0.0551 0.10379,0.11481 0.0346,0.0597 0.0692,0.14072 0.10379,0.24238 0.0346,0.10166 0.0692,0.22408 0.10379,0.36613 0.0346,0.14206 0.0692,0.3039 0.10379,0.48411 0.0346,0.1802 0.0692,0.37889 0.10379,0.5944 0.0346,0.2155 0.0692,0.44791 0.10379,0.69531 0.0346,0.24741 0.0692,0.50987 0.10379,0.78526 0.0346,0.27538 0.0692,0.56374 0.10379,0.86277 0.0346,0.29902 0.0692,0.60874 0.10379,0.92668 0.0346,0.31792 0.0692,0.64409 0.1038,0.9759 0.0346,0.33181 0.0692,0.66929 0.10379,1.00973 0.0346,0.34045 0.0692,0.6839 0.10379,1.02762 0.0346,0.34369 0.0692,0.68768 0.10379,1.02923 0.0346,0.34153 0.0692,0.6806 0.10379,1.01458 0.0346,0.33396 0.0692,0.6628 0.10379,0.98393 0.0346,0.32114 0.0692,0.63452 0.10379,0.93771 0.0346,0.30322 0.0692,0.5962 0.10379,0.8767 0.0346,0.28049 0.0692,0.54843 0.10379,0.80179 0.0346,0.25335 0.0692,0.49202 0.10379,0.71424 0.0346,0.2222 0.0692,0.42784 0.10379,0.61538 0.0346,0.18756 0.0692,0.3569 0.1038,0.50684 0.0346,0.14991 0.0692,0.28031 0.10379,0.39024 0.0346,0.10994 0.0692,0.1993 0.10379,0.2675 0.0346,0.0682 0.0692,0.11513 0.10379,0.14053 0.0346,0.0253 0.0692,0.0291 0.10379,0.0113 0.0346,-0.0179 0.0692,-0.0573 0.10379,-0.11804 0.0346,-0.0606 0.0692,-0.14282 0.10379,-0.24553 0.0346,-0.1027 0.0692,-0.22611 0.10379,-0.36916 0.0346,-0.14303 0.0692,-0.30582 0.10379,-0.48694 0.0346,-0.18114 0.0692,-0.38072 0.10379,-0.59706 0.0346,-0.21633 0.0692,-0.44956 0.10379,-0.6977 0.0346,-0.24816 0.0692,-0.51133 0.1038,-0.78736 0.0346,-0.27603 0.0692,-0.56498 0.10379,-0.86454 0.0346,-0.29955 0.0692,-0.60974 0.10379,-0.92808 0.0346,-0.31834 0.0692,-0.64488 0.10379,-0.97695 0.0346,-0.3321 0.0692,-0.66978 0.10379,-1.01038 0.0346,-0.34059 0.0692,-0.68411 0.10379,-1.02785 0.0346,-0.3437 0.0692,-0.68763 0.10379,-1.02905 0.0346,-0.34143 0.0692,-0.68031 0.10379,-1.01401 0.0346,-0.33372 0.0692,-0.66223 0.10379,-0.98297 0.0346,-0.32075 0.0692,-0.63367 0.10379,-0.93637 0.0346,-0.30269 0.0692,-0.59511 0.10379,-0.87497 0.0346,-0.27988 0.0692,-0.54712 0.1038,-0.79975 0.0346,-0.25263 0.0692,-0.49052 0.10379,-0.7119 0.0346,-0.22139 0.0692,-0.42615 0.10379,-0.61279 0.0346,-0.18664 0.0692,-0.35505 0.10379,-0.504 0.0346,-0.14896 0.0692,-0.27834 0.10379,-0.38727 0.0346,-0.10888 0.0692,-0.19721 0.10379,-0.26435 0.0346,-0.0672 0.0692,-0.113 0.10379,-0.13732 0.0346,-0.0245 0.0692,-0.027 0.10379,-0.008 0.0346,0.0189 0.0692,0.0594 0.10379,0.12125 0.0346,0.0618 0.0692,0.14494 0.10379,0.24869 0.0346,0.10373 0.0692,0.22814 0.10379,0.37219 0.0347,0.14401 0.0692,0.30775 0.1038,0.48979 0.0346,0.18206 0.0692,0.3825 0.10379,0.59969 0.0346,0.21719 0.0692,0.4512 0.10379,0.70008 0.0346,0.2489 0.0692,0.51278 0.10379,0.78945 0.0346,0.27667 0.0692,0.56622 0.10379,0.86631 0.0346,0.30007 0.0692,0.61074 0.10379,0.92948 0.0346,0.31874 0.0692,0.64559 0.10379,0.97797 0.0346,0.33236 0.0692,0.67026 0.10379,1.011 0.0346,0.34074 0.0692,0.68435 0.10379,1.02807 0.0346,0.34374 0.0692,0.68759 0.10379,1.02889 0.0346,0.34128 0.0692,0.67999 0.10379,1.01344 0.0346,0.33345 0.0692,0.66163 0.10379,0.98198 0.0346,0.32037 0.0692,0.63284 0.1038,0.93502 0.0346,0.30217 0.0692,0.59401 0.10379,0.87326 0.0347,0.27924 0.0692,0.5458 0.10379,0.7977 0.0346,0.2519 0.0692,0.489 0.10379,0.70953 0.0347,0.22058 0.0692,0.42447 0.10379,0.61021 0.0346,0.18573 0.0692,0.35319 0.10379,0.50117 0.0346,0.14796 0.0692,0.27636 0.10379,0.38423 0.0346,0.10788 0.0692,0.19516 0.10379,0.26124 0.0347,0.066 0.0692,0.11087 0.10379,0.13411 0.0346,0.0231 0.0692,0.0249 0.10379,0.005 0.0346,-0.02 0.0692,-0.0616 0.10379,-0.12446 0.0346,-0.0629 0.0692,-0.14707 0.1038,-0.25183 0.0346,-0.10476 0.0692,-0.23019 0.10379,-0.37521 0.0346,-0.145 0.0692,-0.30969 0.10379,-0.49265 0.0346,-0.18296 0.0692,-0.38429 0.10379,-0.60231 0.0346,-0.21802 0.0692,-0.45283 0.10379,-0.70247 0.0346,-0.24964 0.0692,-0.5142 0.10379,-0.79151 0.0346,-0.27731 0.0692,-0.56746 0.10379,-0.86806 0.0346,-0.3006 0.0692,-0.61174 0.10379,-0.93088 0.0346,-0.31916 0.0692,-0.64635 0.10379,-0.97899 0.0346,-0.33265 0.0692,-0.67076 0.10379,-1.01164 0.0346,-0.34088 0.0692,-0.68456 0.10379,-1.02829 0.0346,-0.34374 0.0692,-0.68754 0.1038,-1.02868 0.0346,-0.34116 0.0692,-0.67967 0.10379,-1.01285 0.0346,-0.33321 0.0692,-0.66105 0.10379,-0.981 0.0346,-0.31997 0.0692,-0.63197 0.10379,-0.93365 0.0346,-0.30165 0.0692,-0.59291 0.10379,-0.87152 0.0347,-0.27862 0.0692,-0.5445 0.10379,-0.79566 0.0346,-0.25115 0.0692,-0.48747 0.10379,-0.70719 0.0346,-0.21972 0.0692,-0.42275 0.10379,-0.60756 0.0346,-0.18483 0.0692,-0.35133 0.10379,-0.49834 0.0346,-0.147 0.0692,-0.27437 0.10379,-0.38124 0.0346,-0.10685 0.0692,-0.19307 0.10379,-0.25811 0.0347,-0.065 0.0692,-0.10872 0.1038,-0.13089 0.0346,-0.0222 0.0692,-0.0228 0.10379,-10e-4 0.0347,0.0209 0.0692,0.0638 0.10379,0.12767 0.0346,0.0639 0.0692,0.14919 0.10379,0.25497 0.0346,0.10577 0.0692,0.23223 0.10379,0.37822 0.0346,0.14598 0.0692,0.31162 0.10379,0.49551 0.0346,0.18386 0.0692,0.38608 0.10379,0.60493 0.0346,0.21886 0.0692,0.45446 0.10379,0.70484 0.0346,0.25038 0.0692,0.51564 0.10379,0.79358 0.0346,0.27797 0.0692,0.56867 0.10379,0.8698 0.0346,0.30113 0.0692,0.61272 0.10379,0.93227 0.0346,0.31954 0.0692,0.64709 0.1038,0.98 0.0346,0.33291 0.0692,0.67124 0.10379,1.01224 0.0346,0.34102 0.0692,0.68475 0.10379,1.02848"
       style="opacity:1;fill:none;fill-opacity:1;stroke:#ffffff;stroke-width:0.44826636;stroke-linecap:butt;stroke-linejoin:miter;stroke-miterlimit:4;stroke-dasharray:none;stroke-opacity:1;paint-order:normal"
       inkscape:connector-curvature="0" />
    <rect
       style="opacity:0.7229996;fill:#0044aa;fill-opacity:1;stroke:none;stroke-width:3.56790257;stroke-linecap:butt;stroke-linejoin:miter;stroke-miterlimit:4;stroke-dasharray:none;stroke-opacity:1;paint-order:normal;filter:url(#filter4610)"
       id="rect1368"
       width="338.86819"
       height="53.400391"
       x="-0.2006578"
       y="128.24081"
       transform="matrix(1.0189264,-0.00172372,0,0.75342456,-3.2034235,71.429842)" />
    <text
       xml:space="preserve"
       style="font-style:normal;font-variant:normal;font-weight:600;font-stretch:normal;font-size:22.57777786px;line-height:1.25;font-family:'Source Sans Pro';-inkscape-font-specification:'Source Sans Pro Semi-Bold';letter-spacing:0px;word-spacing:0px;fill:#ffffff;fill-opacity:0.94117647;stroke:none;stroke-width:0.26458332"
       x="55.906116"
       y="195.29337"
       id="text17"><tspan
         sodipodi:role="line"
         id="tspan15"
         x="55.906116"
         y="195.29337"
         style="font-size:22.57777977px;fill:#ffffff;fill-opacity:0.94117647;stroke-width:0.26458332">Universal Radio Hacker</tspan></text>
    <text
       xml:space="preserve"
       style="font-style:normal;font-variant:normal;font-weight:600;font-stretch:normal;font-size:9.87777805px;line-height:1.25;font-family:'Source Sans Pro';-inkscape-font-specification:'Source Sans Pro Semi-Bold';letter-spacing:0px;word-spacing:0px;fill:#ffffff;fill-opacity:1;stroke:none;stroke-width:0.26458335"
       x="81.418678"
       y="207.66853"
       id="text4616"><tspan
         sodipodi:role="line"
         id="tspan4614"
         x="81.418678"
         y="207.66853"
         style="font-style:normal;font-variant:normal;font-weight:600;font-stretch:normal;font-family:'Source Sans Pro';-inkscape-font-specification:'Source Sans Pro Semi-Bold';fill:#ffffff;stroke-width:0.26458335">Investigate Wireless Protocols Like A Boss</tspan></text>
    <flowRoot
       xml:space="preserve"
       id="flowRoot4726"
       style="font-style:normal;font-variant:normal;font-weight:normal;font-stretch:normal;font-size:40px;line-height:1.25;font-family:'Source Code Pro';-inkscape-font-specification:'Source Code Pro';letter-spacing:0px;word-spacing:0px;fill:#000000;fill-opacity:1;stroke:none"
       transform="matrix(0.39682046,0,0,0.39682046,72.597182,56.323579)"><flowRegion
         id="flowRegion4728"
         style="font-style:normal;font-variant:normal;font-weight:normal;font-stretch:normal;font-family:'Source Code Pro';-inkscape-font-specification:'Source Code Pro'"><rect
           id="rect4730"
           width="770"
           height="120"
           x="280"
           y="450"
           style="font-style:normal;font-variant:normal;font-weight:normal;font-stretch:normal;font-family:'Source Code Pro';-inkscape-font-specification:'Source Code Pro'" /></flowRegion><flowPara
         id="flowPara4732"
         style="font-style:normal;font-variant:normal;font-weight:normal;font-stretch:normal;font-family:'Source Code Pro';-inkscape-font-specification:'Source Code Pro';fill:#ffffff;fill-opacity:1">0xaa42deadcafe</flowPara></flowRoot>    <g
       inkscape:corner7="0.68240885 : 0.069169302 : -0.22630726 : 1"
       inkscape:corner0="1.0092882 : 0.060137973 : 0 : 1"
       inkscape:perspectiveID="#perspective175"
       style="fill:#ffffff;filter:url(#filter1391)"
       id="g173"
       sodipodi:type="inkscape:box3d">
      <path
         points="156.10221,222.93161 137.27022,232.1506 137.27022,257.77434 156.10221,245.66934 "
         d="m 156.10221,245.66934 v -22.73773 l -18.83199,9.21899 v 25.62374 z"
         inkscape:box3dsidetype="6"
         style="fill:#353564;fill-rule:evenodd;stroke:none;stroke-width:0.69598246;stroke-linejoin:round"
         id="path161"
         sodipodi:type="inkscape:box3dside" />
      <path
         points="187.01076,254.58269 168.75499,270.79045 137.27022,257.77434 156.10221,245.66934 "
         d="m 156.10221,245.66934 30.90855,8.91335 -18.25577,16.20776 -31.48477,-13.01611 z"
         inkscape:box3dsidetype="5"
         style="fill:#4d4d9f;fill-rule:evenodd;stroke:none;stroke-width:0.69598246;stroke-linejoin:round"
         id="path163"
         sodipodi:type="inkscape:box3dside" />
      <path
         points="187.01076,254.58269 187.01076,227.42719 156.10221,222.93161 156.10221,245.66934 "
         d="m 156.10221,245.66934 30.90855,8.91335 v -27.1555 l -30.90855,-4.49558 z"
         inkscape:box3dsidetype="3"
         style="fill:#8686bf;fill-rule:evenodd;stroke:none;stroke-width:0.69598246;stroke-linejoin:round"
         id="path165"
         sodipodi:type="inkscape:box3dside" />
      <path
         points="187.01076,227.42719 168.75499,239.41445 137.27022,232.1506 156.10221,222.93161 "
         d="m 156.10221,222.93161 30.90855,4.49558 -18.25577,11.98726 -31.48477,-7.26385 z"
         inkscape:box3dsidetype="13"
         style="fill:#afafde;fill-rule:evenodd;stroke:none;stroke-width:0.69598246;stroke-linejoin:round"
         id="path167"
         sodipodi:type="inkscape:box3dside" />
      <path
         points="187.01076,227.42719 168.75499,239.41445 168.75499,270.79045 187.01076,254.58269 "
         d="m 187.01076,254.58269 v -27.1555 l -18.25577,11.98726 v 31.376 z"
         inkscape:box3dsidetype="14"
         style="fill:#d7d7ff;fill-rule:evenodd;stroke:none;stroke-width:0.69598246;stroke-linejoin:round"
         id="path169"
         sodipodi:type="inkscape:box3dside" />
      <path
         points="168.75499,270.79045 168.75499,239.41445 137.27022,232.1506 137.27022,257.77434 "
         d="m 137.27022,257.77434 31.48477,13.01611 v -31.376 l -31.48477,-7.26385 z"
         inkscape:box3dsidetype="11"
         style="fill:#e9e9ff;fill-rule:evenodd;stroke:none;stroke-width:0.69598246;stroke-linejoin:round"
         id="path171"
         sodipodi:type="inkscape:box3dside" />
    </g>
  </g>
</svg>
