<?xml version="1.0" encoding="UTF-8" standalone="no"?>
<!-- Created with Inkscape (http://www.inkscape.org/) -->

<svg
   xmlns:dc="http://purl.org/dc/elements/1.1/"
   xmlns:cc="http://creativecommons.org/ns#"
   xmlns:rdf="http://www.w3.org/1999/02/22-rdf-syntax-ns#"
   xmlns:svg="http://www.w3.org/2000/svg"
   xmlns="http://www.w3.org/2000/svg"
   xmlns:sodipodi="http://sodipodi.sourceforge.net/DTD/sodipodi-0.dtd"
   xmlns:inkscape="http://www.inkscape.org/namespaces/inkscape"
   id="SVGRoot"
   version="1.1"
   viewBox="0 0 16 16"
   height="16px"
   width="16px"
   inkscape:version="0.92.2 5c3e80d, 2017-08-06"
   sodipodi:docname="appicon.svg"
   inkscape:export-filename="/home/joe/GIT/urh/data/icons/appicon.png"
   inkscape:export-xdpi="3072"
   inkscape:export-ydpi="3072">
  <sodipodi:namedview
     inkscape:grid-bbox="true"
     inkscape:window-maximized="1"
     inkscape:window-y="0"
     inkscape:window-x="0"
     inkscape:window-height="1141"
     inkscape:window-width="1920"
     showgrid="false"
     inkscape:current-layer="SVGRoot"
     inkscape:document-units="px"
     inkscape:cy="8"
     inkscape:cx="8"
     inkscape:zoom="16"
     inkscape:pageshadow="2"
     inkscape:pageopacity="1"
     borderopacity="1.0"
     bordercolor="#666666"
     pagecolor="#000000"
     id="base" />
  <defs
     id="defs4504" />
  <metadata
     id="metadata4507">
    <rdf:RDF>
      <cc:Work
         rdf:about="">
        <dc:format>image/svg+xml</dc:format>
        <dc:type
           rdf:resource="http://purl.org/dc/dcmitype/StillImage" />
        <dc:title></dc:title>
      </cc:Work>
    </rdf:RDF>
  </metadata>
  <g
     id="layer1"
     inkscape:groupmode="layer"
     inkscape:label="Ebene 1" />
  <path
     inkscape:connector-curvature="0"
     d="M 3.375,0.4375 V 15.5 l 8.543906,-7.53125 z"
     style="fill:#2a2aff;stroke:none;stroke-width:1.52377725"
     inkscape:label="Triangle"
     id="path5109" />
  <path
     id="path5249"
     title="sin(x)"
     d="m 0.27753153,2.7671955 c 0.002443,-0.00813 0.004887,-0.016251 0.007338,-0.024374 0.002443,-0.00813 0.004887,-0.016244 0.007338,-0.02436 0.002443,-0.00811 0.004887,-0.016228 0.007338,-0.024334 0.002443,-0.00811 0.004887,-0.016203 0.007338,-0.024293 0.002443,-0.0081 0.004887,-0.016169 0.007338,-0.024238 0.002443,-0.00807 0.004887,-0.016126 0.007338,-0.024171 0.002443,-0.00806 0.004887,-0.016074 0.007338,-0.024089 0.002443,-0.00802 0.004887,-0.016015 0.007338,-0.023994 0.002443,-0.00799 0.004887,-0.015945 0.007338,-0.023887 0.002443,-0.00795 0.004887,-0.015866 0.007338,-0.023767 0.002443,-0.00791 0.004887,-0.015778 0.007338,-0.023632 0.002443,-0.00785 0.004887,-0.015682 0.007338,-0.023484 0.002443,-0.0078 0.004887,-0.015577 0.007338,-0.023323 0.002443,-0.00774 0.004887,-0.015464 0.007338,-0.023151 0.002443,-0.00768 0.004887,-0.015342 0.007338,-0.022963 0.002443,-0.00762 0.004887,-0.01521 0.007338,-0.022764 0.002443,-0.00754 0.004887,-0.015071 0.007338,-0.022553 0.002443,-0.00748 0.004887,-0.014923 0.007338,-0.022328 0.002443,-0.0074 0.004887,-0.014769 0.007338,-0.022091 0.002443,-0.00732 0.004887,-0.014605 0.007338,-0.021842 0.002443,-0.00724 0.004887,-0.014432 0.007338,-0.021581 0.002443,-0.00714 0.004887,-0.014251 0.007338,-0.021308 0.002443,-0.00706 0.004887,-0.014063 0.007338,-0.021021 0.002443,-0.00696 0.004887,-0.013869 0.007338,-0.020726 0.002443,-0.00687 0.004887,-0.013665 0.007338,-0.020417 0.002443,-0.00677 0.004887,-0.013452 0.007338,-0.020096 0.002443,-0.00665 0.004887,-0.013234 0.007338,-0.019766 0.002443,-0.00654 0.004887,-0.013007 0.007338,-0.019423 0.002443,-0.00642 0.004887,-0.012774 0.007338,-0.01907 0.002443,-0.00629 0.004887,-0.012533 0.007338,-0.018708 0.002443,-0.00617 0.004887,-0.012286 0.007338,-0.018333 0.002443,-0.00605 0.004887,-0.012031 0.007338,-0.017949 0.002443,-0.00592 0.004887,-0.01177 0.007338,-0.017556 0.002443,-0.00579 0.004887,-0.011502 0.007338,-0.017152 0.002443,-0.00565 0.004887,-0.011229 0.007338,-0.016739 0.002443,-0.00551 0.004887,-0.010949 0.007338,-0.016315 0.002443,-0.00536 0.004887,-0.01066 0.007338,-0.015883 0.002443,-0.00523 0.004887,-0.010369 0.007338,-0.015443 0.002443,-0.00508 0.004887,-0.010071 0.007338,-0.014994 0.002443,-0.00492 0.004887,-0.00977 0.007338,-0.014536 0.002443,-0.00476 0.004887,-0.00947 0.007338,-0.01407 0.002443,-0.00461 0.004887,-0.00914 0.007338,-0.013596 0.002443,-0.00444 0.004887,-0.00882 0.007338,-0.013115 0.002443,-0.00429 0.004887,-0.0085 0.007338,-0.012628 0.002443,-0.00413 0.004887,-0.00818 0.007338,-0.012133 0.002443,-0.00397 0.004887,-0.00783 0.007338,-0.01163 0.002443,-0.00379 0.004887,-0.00749 0.007338,-0.011122 0.002443,-0.00364 0.004887,-0.00716 0.007338,-0.010602 0.002443,-0.00345 0.004887,-0.00682 0.007338,-0.010082 0.002443,-0.00327 0.004887,-0.00647 0.007338,-0.00956 0.002443,-0.0031 0.004887,-0.00611 0.007338,-0.00903 0.002443,-0.00293 0.004887,-0.00575 0.007338,-0.0085 0.002443,-0.00274 0.004887,-0.0054 0.007338,-0.00796 0.002443,-0.00256 0.004887,-0.00502 0.007338,-0.0074 0.002443,-0.00238 0.004887,-0.00465 0.007338,-0.00687 0.002443,-0.0022 0.004887,-0.00429 0.007338,-0.0063 0.002443,-0.00201 0.004887,-0.00392 0.007338,-0.00575 0.002443,-0.00182 0.004887,-0.00354 0.007338,-0.00518 0.002443,-0.00163 0.004887,-0.00317 0.007338,-0.00461 0.002443,-0.00145 0.004887,-0.00279 0.007338,-0.00406 0.002443,-0.00126 0.004887,-0.00242 0.007338,-0.00349 0.002443,-0.00107 0.004887,-0.00204 0.007338,-0.00291 0.002443,-8.758e-4 0.004887,-0.00166 0.007338,-0.00235 0.002443,-6.915e-4 0.004887,-0.00129 0.007338,-0.00176 0.002443,-4.959e-4 0.004887,-9.007e-4 0.007338,-0.0012 0.002443,-3.035e-4 0.004887,-5.122e-4 0.007338,-6.278e-4 0.002443,-1.119e-4 0.004887,-1.278e-4 0.007338,-4.8e-5 0.002443,8e-5 0.004887,2.556e-4 0.007338,5.289e-4 0.002443,2.714e-4 0.004887,6.444e-4 0.007338,0.00111 0.002443,4.628e-4 0.004887,0.00102 0.007338,0.00167 0.002443,6.555e-4 0.004887,0.0014 0.007338,0.00226 0.002443,8.511e-4 0.004887,0.00178 0.007338,0.00283 0.002443,0.00104 0.004887,0.00215 0.007338,0.00339 0.002443,0.00123 0.004887,0.00255 0.007338,0.00397 0.002443,0.00141 0.004887,0.00293 0.007338,0.00453 0.002443,0.0016 0.004887,0.00331 0.007338,0.00509 0.002443,0.00178 0.004887,0.00368 0.007338,0.00565 0.002443,0.00197 0.004887,0.00406 0.007338,0.00621 0.002443,0.00216 0.004887,0.00441 0.007338,0.00677 0.002443,0.00235 0.004887,0.00477 0.007338,0.00731 0.002441,0.00254 0.004883,0.00516 0.007342,0.00785 0.002441,0.00271 0.004883,0.00551 0.007342,0.0084 0.002441,0.00289 0.004883,0.00587 0.007342,0.00893 0.002441,0.00307 0.004883,0.00622 0.007342,0.00948 0.002441,0.00324 0.004883,0.00659 0.007342,0.01 0.002441,0.00342 0.004883,0.00694 0.007342,0.010517 0.002441,0.00361 0.004883,0.00726 0.007342,0.011036 0.002441,0.00376 0.004883,0.00761 0.007342,0.011546 0.00244,0.00394 0.004879,0.00796 0.007346,0.012049 0.00244,0.0041 0.004879,0.00829 0.007346,0.012546 0.00244,0.00426 0.004879,0.00861 0.007346,0.013036 0.00244,0.00443 0.004879,0.00893 0.007346,0.013518 0.00244,0.00458 0.004879,0.00924 0.007346,0.013993 0.00244,0.00473 0.004879,0.00956 0.007346,0.014459 0.00244,0.00488 0.004879,0.00987 0.007346,0.014919 0.00244,0.00506 0.004888,0.010167 0.007346,0.015369 0.00244,0.00521 0.004888,0.010464 0.007346,0.015811 0.00244,0.00535 0.004888,0.010758 0.007346,0.016243 0.00244,0.0055 0.004888,0.011043 0.007346,0.016668 0.00244,0.00563 0.00489,0.01132 0.00735,0.017083 0.00244,0.00576 0.00489,0.011593 0.00735,0.017488 0.00244,0.00588 0.00489,0.011859 0.00735,0.017885 0.00244,0.00603 0.00489,0.012116 0.00735,0.01827 0.00244,0.00615 0.00489,0.012368 0.00735,0.018645 0.00244,0.00628 0.00489,0.012614 0.00735,0.019012 0.00244,0.0064 0.00489,0.012852 0.00735,0.019365 0.00244,0.00652 0.00489,0.013082 0.00735,0.019708 0.00244,0.00663 0.00489,0.013307 0.00735,0.020042 0.00244,0.00673 0.00489,0.013523 0.00735,0.020363 0.00244,0.00685 0.00489,0.013732 0.00735,0.020673 0.00244,0.00695 0.00489,0.013933 0.00735,0.020973 0.00244,0.00703 0.00489,0.014127 0.00735,0.021261 0.00244,0.00713 0.00489,0.014313 0.00735,0.021534 0.00244,0.00722 0.00489,0.01449 0.00735,0.021798 0.00244,0.00731 0.00489,0.014659 0.00735,0.02205 0.00244,0.00739 0.00489,0.014821 0.00735,0.022289 0.00244,0.00746 0.00489,0.014974 0.00735,0.022515 0.00244,0.00754 0.00489,0.015119 0.00735,0.02273 0.00244,0.00761 0.00489,0.015255 0.00735,0.022931 0.00244,0.00767 0.00489,0.015383 0.00735,0.023118 0.00244,0.00773 0.00489,0.015502 0.00735,0.023295 0.00244,0.00778 0.00489,0.015614 0.00735,0.023459 0.00244,0.00784 0.00489,0.015716 0.00735,0.023608 0.00244,0.00789 0.00489,0.015807 0.00735,0.023746 0.00244,0.00793 0.00489,0.015892 0.00735,0.023868 0.00244,0.00798 0.00489,0.015968 0.00735,0.023977 0.00244,0.00801 0.00489,0.016035 0.00735,0.024075 0.00244,0.00804 0.00489,0.016093 0.00735,0.024159 0.00244,0.00807 0.00489,0.016142 0.00735,0.024227 0.00244,0.00808 0.00489,0.016182 0.00735,0.024284 0.00244,0.00811 0.00489,0.016212 0.00735,0.024327 0.00244,0.00811 0.00489,0.016234 0.00735,0.024356 0.00244,0.00813 0.00489,0.016247 0.00735,0.024374 0.00244,0.00813 0.00489,0.01625 0.00735,0.024375 0.00244,0.00813 0.00489,0.016245 0.00735,0.024364 0.00244,0.00811 0.00489,0.016231 0.00735,0.02434 0.00244,0.00811 0.00489,0.016208 0.00735,0.024302 0.00244,0.0081 0.00489,0.016176 0.00735,0.024249 0.00244,0.00807 0.00489,0.016135 0.00735,0.024183 0.00244,0.00806 0.00489,0.016083 0.00735,0.024104 0.00244,0.00802 0.00489,0.016025 0.00735,0.024012 0.00244,0.00799 0.00489,0.015956 0.00735,0.023906 0.00244,0.00796 0.00489,0.015879 0.00735,0.023788 0.00244,0.00792 0.00489,0.015792 0.00735,0.023654 0.00244,0.00786 0.00489,0.015699 0.00735,0.023509 0.00244,0.00781 0.00489,0.015594 0.00735,0.023351 0.00244,0.00774 0.00489,0.015483 0.00735,0.02318 0.00244,0.00769 0.00489,0.015362 0.00735,0.022995 0.00244,0.00763 0.00489,0.015232 0.00735,0.022798 0.00244,0.00756 0.00489,0.015096 0.00735,0.02259 0.00244,0.00749 0.00489,0.014948 0.00735,0.022366 0.00244,0.00741 0.00489,0.014793 0.00735,0.02213 0.00244,0.00734 0.00489,0.014631 0.00735,0.021884 0.00244,0.00725 0.00489,0.01446 0.00735,0.021624 0.00244,0.00716 0.00489,0.014282 0.00735,0.021354 0.00244,0.00706 0.00489,0.014094 0.00735,0.021069 0.00244,0.00698 0.00489,0.0139 0.00735,0.020775 0.00244,0.00687 0.00489,0.013698 0.00735,0.020468 0.00244,0.00678 0.00489,0.013489 0.00735,0.02015 0.00244,0.00667 0.00489,0.013271 0.00735,0.019821 0.00244,0.00657 0.00489,0.013045 0.00735,0.019481 0.00244,0.00644 0.00489,0.012813 0.00735,0.019131 0.00244,0.00632 0.00489,0.012575 0.00735,0.01877 0.00244,0.0062 0.00489,0.012328 0.00735,0.018395 0.00244,0.00607 0.00489,0.012074 0.00735,0.018015 0.00244,0.00595 0.00489,0.011815 0.00735,0.017623 0.00244,0.0058 0.00489,0.011548 0.00735,0.01722 0.00244,0.00568 0.00489,0.011275 0.00735,0.016807 0.00244,0.00554 0.00489,0.010996 0.00735,0.016387 0.00244,0.0054 0.00489,0.01071 0.00735,0.015956 0.00244,0.00525 0.00489,0.010411 0.00735,0.015516 0.00244,0.00511 0.00489,0.010125 0.00735,0.01507 0.00244,0.00495 0.00489,0.00982 0.00735,0.014613 0.00244,0.00479 0.00489,0.00952 0.00735,0.014149 0.00244,0.00464 0.00489,0.00919 0.00735,0.013676 0.00244,0.00447 0.00489,0.00888 0.00735,0.013197 0.00244,0.00431 0.00489,0.00855 0.00735,0.012709 0.00244,0.00416 0.00489,0.00823 0.00735,0.012215 0.00244,0.00399 0.00489,0.00791 0.00735,0.011714 0.00244,0.00383 0.00489,0.00755 0.00735,0.011207 0.00244,0.00367 0.00489,0.00721 0.00735,0.010693 0.00244,0.00347 0.00489,0.00687 0.00735,0.010178 0.00244,0.00331 0.00489,0.00654 0.00735,0.00965 0.00244,0.00313 0.00489,0.00617 0.00735,0.00912 0.00244,0.00294 0.00489,0.00581 0.00735,0.00858 0.00244,0.00278 0.00489,0.00546 0.00735,0.00804 0.00244,0.00259 0.00489,0.00509 0.00735,0.00749 0.00244,0.00241 0.00489,0.00472 0.00735,0.00696 0.00244,0.00222 0.00489,0.00435 0.00735,0.00639 0.00244,0.00204 0.00489,0.00399 0.00735,0.00583 0.00244,0.00185 0.00489,0.00362 0.00735,0.00528 0.00244,0.00167 0.00489,0.00323 0.00735,0.00471 0.00244,0.00148 0.00489,0.00286 0.00735,0.00416 0.00244,0.00129 0.00489,0.00249 0.00735,0.00357 0.00244,0.00109 0.00489,0.00209 0.00735,0.00301 0.00244,9.09e-4 0.00489,0.00172 0.00735,0.00245 0.00244,7.185e-4 0.00489,0.00135 0.00735,0.00186 0.00244,5.29e-4 0.00489,9.585e-4 0.00735,0.00129 0.00244,3.352e-4 0.00489,5.784e-4 0.00735,7.185e-4 0.00244,1.438e-4 0.00489,1.914e-4 0.00735,1.437e-4 0.00244,-4.79e-5 0.00489,-1.918e-4 0.00735,-4.295e-4 0.00244,-2.393e-4 0.00489,-5.785e-4 0.00735,-9.999e-4 0.00244,-4.297e-4 0.00489,-9.585e-4 0.00735,-0.00157 0.00244,-6.279e-4 0.00489,-0.00135 0.00735,-0.00216 0.00244,-8.128e-4 0.00489,-0.00172 0.00735,-0.00273 0.00244,-9.999e-4 0.00489,-0.00209 0.00735,-0.0033 0.00244,-0.00119 0.00489,-0.00249 0.00735,-0.00387 0.00244,-0.00138 0.00489,-0.00286 0.00735,-0.00443 0.00244,-0.00157 0.00489,-0.00323 0.00735,-0.00499 0.00244,-0.00176 0.00489,-0.00362 0.00735,-0.00555 0.00244,-0.00194 0.00489,-0.00399 0.00735,-0.00612 0.00244,-0.00212 0.00489,-0.00435 0.00735,-0.00667 0.00244,-0.00231 0.00489,-0.00472 0.00735,-0.00722 0.00244,-0.0025 0.00489,-0.00509 0.00735,-0.00777 0.00244,-0.00269 0.00489,-0.00546 0.00735,-0.00832 0.00244,-0.00286 0.00489,-0.00581 0.00735,-0.00885 0.00244,-0.00304 0.00489,-0.00617 0.00735,-0.00939 0.00244,-0.00322 0.00489,-0.00654 0.00735,-0.00991 0.00244,-0.00339 0.00489,-0.00687 0.00735,-0.010433 0.00244,-0.00357 0.00489,-0.00721 0.00735,-0.010951 0.00244,-0.00374 0.00489,-0.00755 0.00735,-0.011461 0.00244,-0.00391 0.00489,-0.00791 0.00735,-0.011967 0.00244,-0.00407 0.00489,-0.00823 0.00735,-0.012464 0.00244,-0.00424 0.00489,-0.00855 0.00735,-0.012954 0.00244,-0.00439 0.00489,-0.00888 0.00735,-0.013438 0.00244,-0.00456 0.00489,-0.00919 0.00735,-0.013913 0.00244,-0.00471 0.00489,-0.00952 0.00735,-0.014382 0.00244,-0.00488 0.00489,-0.00982 0.00735,-0.014843 0.00244,-0.00502 0.00489,-0.010125 0.00735,-0.015294 0.00244,-0.00517 0.00489,-0.010412 0.00735,-0.015738 0.00244,-0.00531 0.00489,-0.01071 0.00735,-0.016172 0.00244,-0.00546 0.00489,-0.010996 0.00735,-0.016598 0.00244,-0.0056 0.00489,-0.011275 0.00735,-0.017015 0.00244,-0.00575 0.00489,-0.011548 0.00735,-0.017422 0.00244,-0.00588 0.00489,-0.011814 0.00735,-0.017819 0.00244,-0.006 0.00489,-0.012074 0.00735,-0.018206 0.00244,-0.00613 0.00489,-0.012328 0.00735,-0.018585 0.00244,-0.00626 0.00489,-0.012575 0.00735,-0.018951 0.00244,-0.00637 0.00489,-0.012814 0.00735,-0.019308 0.00244,-0.0065 0.00489,-0.013045 0.00735,-0.019653 0.00244,-0.00662 0.00489,-0.013271 0.00735,-0.019988 0.00244,-0.00673 0.00489,-0.013489 0.00735,-0.020311 0.00244,-0.00683 0.00489,-0.013698 0.00735,-0.020624 0.00244,-0.00694 0.00489,-0.0139 0.00735,-0.020924 0.00244,-0.00702 0.00489,-0.014096 0.00735,-0.021213 0.00244,-0.00711 0.00489,-0.014283 0.00735,-0.02149 0.00244,-0.00721 0.00489,-0.014461 0.00735,-0.021757 0.00244,-0.00729 0.00489,-0.014631 0.00735,-0.02201 0.00244,-0.00737 0.00489,-0.014793 0.00735,-0.022248 0.00244,-0.00745 0.00489,-0.014949 0.00735,-0.022479 0.00244,-0.00752 0.00489,-0.015096 0.00735,-0.022694 0.00244,-0.00759 0.00489,-0.015232 0.00735,-0.0229 0.00244,-0.00766 0.00489,-0.015362 0.00735,-0.023089 0.00244,-0.00773 0.00489,-0.015483 0.00735,-0.023267 0.00244,-0.00778 0.00489,-0.015595 0.00735,-0.023433 0.00244,-0.00783 0.00489,-0.015699 0.00735,-0.023584 0.00244,-0.00789 0.00489,-0.015793 0.00735,-0.023723 0.00244,-0.00793 0.00489,-0.015879 0.00735,-0.023849 0.00244,-0.00797 0.00489,-0.015956 0.00735,-0.02396 0.00244,-0.00801 0.00489,-0.016025 0.00735,-0.02406 0.00244,-0.00804 0.00489,-0.016083 0.00735,-0.024144 0.00244,-0.00806 0.00489,-0.016135 0.00735,-0.024218 0.00244,-0.00808 0.00489,-0.016176 0.00735,-0.024274 0.00244,-0.00811 0.00489,-0.016209 0.00735,-0.024322 0.00244,-0.00811 0.00489,-0.016231 0.00735,-0.024353 0.00244,-0.00813 0.00489,-0.016245 0.00735,-0.024371 0.00244,-0.00813 0.00489,-0.01625 0.00735,-0.024375 0.00244,-0.00813 0.00489,-0.016247 0.00735,-0.024367 0.00244,-0.00813 0.00489,-0.016235 0.00735,-0.024344 0.00244,-0.00811 0.00489,-0.016212 0.00735,-0.024307 0.00244,-0.0081 0.00489,-0.016182 0.00735,-0.024257 0.00244,-0.00808 0.00489,-0.016143 0.00735,-0.024195 0.00244,-0.00806 0.00489,-0.016093 0.00735,-0.024118 0.00244,-0.00803 0.00489,-0.016035 0.00735,-0.024029 0.00244,-0.008 0.00489,-0.01597 0.00735,-0.023925 0.00244,-0.00796 0.00489,-0.015892 0.00735,-0.023808 0.00244,-0.00792 0.00489,-0.015807 0.00735,-0.023677 0.00244,-0.00786 0.00489,-0.015716 0.00735,-0.023535 0.00244,-0.00782 0.00489,-0.015614 0.00735,-0.023378 0.00244,-0.00777 0.00489,-0.015503 0.00735,-0.02321 0.00244,-0.0077 0.00489,-0.015383 0.00735,-0.023027 0.00244,-0.00764 0.00489,-0.015255 0.00735,-0.022832 0.00244,-0.00756 0.00489,-0.01512 0.00735,-0.022624 0.00244,-0.0075 0.00489,-0.014973 0.00735,-0.022404 0.00244,-0.00743 0.00489,-0.01482 0.00735,-0.022171 0.00244,-0.00734 0.00489,-0.014659 0.00735,-0.021925 0.00244,-0.00726 0.00489,-0.01449 0.00735,-0.021668 0.00244,-0.00717 0.00489,-0.014313 0.00735,-0.021399 0.00244,-0.00709 0.00489,-0.014126 0.00735,-0.021118 0.00244,-0.00699 0.00489,-0.013933 0.00735,-0.020824 0.00244,-0.00689 0.00489,-0.013732 0.00735,-0.02052 0.00244,-0.00679 0.00489,-0.013523 0.00735,-0.020204 0.00244,-0.00668 0.00489,-0.013306 0.00735,-0.019878 0.00244,-0.00659 0.00489,-0.013083 0.00735,-0.019538 0.00244,-0.00647 0.00489,-0.012852 0.00735,-0.019188 0.00244,-0.00633 0.00489,-0.012615 0.00735,-0.018831 0.00244,-0.00621 0.00489,-0.012368 0.00735,-0.018459 0.00244,-0.00609 0.00489,-0.012118 0.00735,-0.018077 0.00244,-0.00596 0.00489,-0.011859 0.00735,-0.017686 0.00244,-0.00583 0.00489,-0.011593 0.00735,-0.017288 0.00244,-0.00569 0.00489,-0.01132 0.00735,-0.016876 0.00244,-0.00555 0.00489,-0.011043 0.00735,-0.016457 0.00244,-0.0054 0.00489,-0.010758 0.00735,-0.016028 0.00244,-0.00527 0.00489,-0.010464 0.00735,-0.015591 0.00244,-0.00512 0.00489,-0.010167 0.00735,-0.015145 0.00244,-0.00496 0.00489,-0.00987 0.00735,-0.014688 0.00244,-0.00481 0.00489,-0.00956 0.00735,-0.014226 0.00244,-0.00466 0.00489,-0.00924 0.00735,-0.013756 0.00244,-0.0045 0.00489,-0.00893 0.00735,-0.013278 0.00244,-0.00434 0.00489,-0.00861 0.00735,-0.012791 0.00244,-0.00419 0.00489,-0.00829 0.00735,-0.012298 0.00244,-0.00402 0.00489,-0.00796 0.00735,-0.011798 0.00244,-0.00386 0.00489,-0.00761 0.00735,-0.011291 0.00244,-0.00368 0.00489,-0.00726 0.00735,-0.010779 0.00244,-0.00352 0.00489,-0.00694 0.00735,-0.010263 0.00244,-0.00334 0.00489,-0.00659 0.00735,-0.00974 0.00244,-0.00316 0.00489,-0.00622 0.00735,-0.0092 0.00244,-0.00297 0.00489,-0.00587 0.00735,-0.00867 0.00244,-0.00279 0.00489,-0.00551 0.00735,-0.00814 0.00244,-0.00263 0.00489,-0.00516 0.00735,-0.00759 0.00244,-0.00245 0.00489,-0.00477 0.00735,-0.00703 0.00244,-0.00226 0.00489,-0.00441 0.00735,-0.00649 0.00244,-0.00206 0.00489,-0.00406 0.00735,-0.00592 0.00244,-0.00188 0.00489,-0.00368 0.00735,-0.00538 0.00244,-0.00169 0.00489,-0.00331 0.00735,-0.00479 0.00244,-0.00151 0.00489,-0.00293 0.00735,-0.00424 0.00244,-0.00133 0.00489,-0.00255 0.00735,-0.00368 0.00244,-0.00114 0.00489,-0.00216 0.00735,-0.00312 0.00244,-9.42e-4 0.00489,-0.00178 0.00735,-0.00254 0.00244,-7.519e-4 0.00489,-0.0014 0.00735,-0.00196 0.00244,-5.616e-4 0.00489,-0.00102 0.00735,-0.00138 0.00244,-3.674e-4 0.00489,-6.444e-4 0.00735,-8.127e-4 0.00244,-1.757e-4 0.00489,-2.556e-4 0.00735,-2.393e-4 0.00244,1.58e-5 0.00489,1.278e-4 0.00735,3.353e-4 0.00244,2.075e-4 0.00489,5.124e-4 0.00735,9.089e-4 0.00244,3.989e-4 0.00489,9.007e-4 0.00735,0.00148 0.00244,5.949e-4 0.00489,0.00129 0.00735,0.00205 0.00244,7.892e-4 0.00489,0.00166 0.00735,0.00264 0.00244,9.667e-4 0.00489,0.00204 0.00735,0.0032 0.00244,0.00116 0.00489,0.00242 0.00735,0.00378 0.00244,0.00136 0.00489,0.00279 0.00735,0.00434 0.00244,0.00154 0.00489,0.00317 0.00735,0.0049 0.00244,0.00172 0.00489,0.00354 0.00735,0.00546 0.00244,0.00191 0.00489,0.00392 0.00735,0.00602 0.00244,0.00209 0.00489,0.00429 0.00735,0.00659 0.00244,0.00228 0.00489,0.00465 0.00735,0.00713 0.00244,0.00248 0.00489,0.00502 0.00735,0.00767 0.00244,0.00265 0.00489,0.0054 0.00735,0.00822 0.00244,0.00283 0.00489,0.00575 0.00735,0.00876 0.00244,0.00301 0.00489,0.00611 0.00735,0.00929 0.00244,0.00319 0.00489,0.00648 0.00735,0.00983 0.00244,0.00337 0.00489,0.00682 0.00735,0.010348 0.00244,0.00354 0.00489,0.00716 0.00735,0.010866 0.00244,0.00372 0.00489,0.00749 0.00735,0.011376 0.00244,0.00388 0.00489,0.00783 0.00735,0.011881 0.00244,0.00406 0.00489,0.00818 0.00735,0.012382 0.00244,0.00421 0.00489,0.0085 0.00735,0.012873 0.00244,0.00436 0.00489,0.00882 0.00735,0.013357 0.00244,0.00453 0.00489,0.00914 0.00735,0.013834 0.00244,0.00468 0.00489,0.00947 0.00735,0.014305 0.00244,0.00484 0.00489,0.00977 0.00735,0.014765 0.00244,0.00499 0.00489,0.010072 0.00735,0.015219 0.00244,0.00516 0.00489,0.010369 0.00735,0.015664 0.00244,0.00529 0.00489,0.01066 0.00735,0.0161 0.00244,0.00544 0.00489,0.010949 0.00735,0.016528 0.00244,0.00558 0.00489,0.011229 0.00735,0.016945 0.00244,0.00572 0.00489,0.011502 0.00735,0.017355 0.00244,0.00585 0.00489,0.011772 0.00735,0.017753 0.00244,0.00598 0.00489,0.012032 0.00735,0.018143 0.00244,0.00611 0.00489,0.012286 0.00735,0.018522 0.00244,0.00624 0.00489,0.012534 0.00735,0.01889 0.00244,0.00635 0.00489,0.012773 0.00735,0.019247 0.00244,0.00648 0.00489,0.013007 0.00735,0.019597 0.00244,0.00659 0.00489,0.013233 0.00735,0.019932 0.00244,0.0067 0.00489,0.013452 0.00735,0.020256 0.00244,0.00681 0.00489,0.013663 0.00735,0.020573 0.00244,0.00692 0.00489,0.013867 0.00735,0.020876 0.00244,0.007 0.00489,0.014063 0.00735,0.021166 0.00244,0.0071 0.00489,0.014252 0.00735,0.021445 0.00244,0.00719 0.00489,0.014432 0.00735,0.021712 0.00244,0.00728 0.00489,0.014605 0.00735,0.021967 0.00244,0.00736 0.00489,0.014769 0.00735,0.02221 0.00244,0.00744 0.00489,0.014923 0.00735,0.022442 0.00244,0.00751 0.00489,0.015072 0.00735,0.02266 0.00244,0.00759 0.00489,0.015211 0.00735,0.022866 0.00244,0.00765 0.00489,0.015342 0.00735,0.023058 0.00244,0.00771 0.00489,0.015464 0.00735,0.023238 0.00244,0.00777 0.00489,0.015577 0.00735,0.023404 0.00244,0.00782 0.00489,0.015683 0.00735,0.023558 0.00244,0.00787 0.00489,0.015778 0.00735,0.023701 0.00244,0.00792 0.00489,0.015867 0.00735,0.023828 0.00244,0.00797 0.00489,0.015944 0.00735,0.023943 0.00244,0.008 0.00489,0.016015 0.00735,0.024045 0.00244,0.00803 0.00489,0.016075 0.00735,0.024132 0.00244,0.00806 0.00489,0.016126 0.00735,0.024206 0.00244,0.00808 0.00489,0.016169 0.00735,0.024267 0.00244,0.00811 0.00489,0.016203 0.00735,0.024316 0.00244,0.00811 0.00489,0.016228 0.00735,0.024349 0.00244,0.00813 0.00489,0.016244 0.00735,0.024369 0.00244,0.00813 0.00489,0.01625 0.00735,0.024377 0.00244,0.00813 0.00489,0.016249 0.00735,0.024369 0.00244,0.00813 0.00489,0.016238 0.00735,0.024349 0.00244,0.00811 0.00489,0.016216 0.00735,0.024316 0.00244,0.00811 0.00489,0.016186 0.00735,0.024267 0.00244,0.00808 0.00489,0.016149 0.00735,0.024206 0.00244,0.00806 0.00489,0.016101 0.00735,0.024132 0.00244,0.00803 0.00489,0.016045 0.00735,0.024045 0.00244,0.008 0.00489,0.015981 0.00735,0.023943 0.00244,0.00797 0.00489,0.015906 0.00735,0.023828 0.00244,0.00792 0.00489,0.015822 0.00735,0.023699 0.00244,0.00787 0.00489,0.015732 0.00735,0.023558 0.00244,0.00782 0.00489,0.015631 0.00735,0.023405 0.00244,0.00777 0.00489,0.015521 0.00735,0.023238 0.00244,0.00771 0.00489,0.015405 0.00735,0.023058 0.00244,0.00765 0.00489,0.015277 0.00735,0.022866 0.00244,0.00759 0.00489,0.015142 0.00735,0.02266 0.00244,0.00751 0.00489,0.014999 0.00735,0.022442 0.00244,0.00744 0.00489,0.014847 0.00735,0.02221 0.00244,0.00736 0.00489,0.014687 0.00735,0.021967 0.00244,0.00728 0.00489,0.014518 0.00735,0.021712 0.00244,0.00719 0.00489,0.014342 0.00735,0.021445 0.00244,0.0071 0.00489,0.014159 0.00735,0.021166 0.00244,0.007 0.00489,0.013967 0.00735,0.020876 0.00244,0.00692 0.00489,0.013766 0.00735,0.020571 0.00244,0.00681 0.00489,0.013559 0.00735,0.020257 0.00244,0.0067 0.00489,0.013343 0.00735,0.019932 0.00244,0.00659 0.00489,0.013122 0.00735,0.019597 0.00244,0.00648 0.00489,0.012891 0.00735,0.019247 0.00244,0.00635 0.00489,0.012654 0.00735,0.01889 0.00244,0.00624 0.00489,0.012411 0.00735,0.018522 0.00244,0.00611 0.00489,0.012159 0.00735,0.018143 0.00244,0.00598 0.00489,0.011902 0.00735,0.017753 0.00244,0.00585 0.00489,0.011635 0.00735,0.017355 0.00244,0.00572 0.00489,0.011365 0.00735,0.016945 0.00244,0.00558 0.00489,0.011088 0.00735,0.016528 0.00244,0.00544 0.00489,0.010805 0.00735,0.0161 0.00244,0.00529 0.00489,0.010507 0.00735,0.015663 0.00244,0.00516 0.00489,0.010221 0.00735,0.015219 0.00244,0.00499 0.00489,0.00992 0.00735,0.014765 0.00244,0.00484 0.00489,0.00961 0.00735,0.014305 0.00244,0.00468 0.00489,0.0093 0.00735,0.013834 0.00244,0.00453 0.00489,0.00899 0.00735,0.013357 0.00244,0.00436 0.00489,0.00866 0.00735,0.012873 0.00244,0.00421 0.00489,0.00834 0.00735,0.012382 0.00244,0.00406 0.00489,0.00801 0.00735,0.011881 0.00244,0.00388 0.00489,0.00766 0.00735,0.011376 0.00244,0.00372 0.00489,0.00733 0.00735,0.010866 0.00244,0.00354 0.00489,0.00699 0.00735,0.010348 0.00244,0.00337 0.00489,0.00665 0.00735,0.00983 0.00244,0.00319 0.00489,0.00628 0.00735,0.00929 0.00244,0.00301 0.00489,0.00592 0.00735,0.00876 0.00244,0.00283 0.00489,0.00558 0.00735,0.00822 0.00244,0.00264 0.00489,0.00521 0.00735,0.00767 0.00244,0.00248 0.00489,0.00484 0.00735,0.00713 0.00244,0.00228 0.00489,0.00447 0.00735,0.00659 0.00244,0.00209 0.00489,0.00412 0.00735,0.00602 0.00244,0.00191 0.00489,0.00374 0.00735,0.00546 0.00244,0.00172 0.00489,0.00337 0.00735,0.0049 0.00244,0.00154 0.00489,0.00298 0.00735,0.00434 0.00244,0.00136 0.00489,0.0026 0.00735,0.00378 0.00244,0.00116 0.00489,0.00224 0.00735,0.0032 0.00244,9.668e-4 0.00489,0.00185 0.00735,0.00264 0.00244,7.79e-4 0.00489,0.00146 0.00735,0.00205 0.00244,5.948e-4 0.00489,0.00109 0.00735,0.00149 0.00244,3.998e-4 0.00489,7.05e-4 0.00735,9.089e-4 0.00244,2.078e-4 0.00489,3.194e-4 0.00735,3.35e-4 0.00244,1.62e-5 0.00489,-6.39e-5 0.00735,-2.389e-4 0.00244,-1.756e-4 0.00489,-4.462e-4 0.00735,-8.126e-4 0.00244,-3.664e-4 0.00489,-8.346e-4 0.00735,-0.00139 0.00244,-5.62e-4 0.00489,-0.00121 0.00735,-0.00196 0.00244,-7.521e-4 0.00489,-0.00159 0.00735,-0.00254 0.00244,-9.419e-4 0.00489,-0.00197 0.00735,-0.00312 0.00244,-0.00114 0.00489,-0.00236 0.00735,-0.00368 0.00244,-0.00134 0.00489,-0.00274 0.00735,-0.00424 0.00244,-0.00151 0.00489,-0.00312 0.00735,-0.0048 0.00244,-0.00169 0.00489,-0.00349 0.00735,-0.00538 0.00244,-0.00188 0.00489,-0.00387 0.00735,-0.00592 0.00244,-0.00206 0.00489,-0.00423 0.00735,-0.00649 0.00244,-0.00226 0.00489,-0.00459 0.00735,-0.00703 0.00244,-0.00245 0.00489,-0.00496 0.00735,-0.00759 0.00244,-0.00263 0.00489,-0.00533 0.00735,-0.00814 0.00244,-0.00279 0.00489,-0.00569 0.00735,-0.00867 0.00244,-0.00297 0.00489,-0.00605 0.00735,-0.0092 0.00244,-0.00316 0.00489,-0.0064 0.00735,-0.00974 0.00244,-0.00334 0.00489,-0.00677 0.00735,-0.010263 0.00244,-0.00352 0.00489,-0.0071 0.00735,-0.010779 0.00244,-0.00368 0.00489,-0.00744 0.00735,-0.011292 0.00244,-0.00386 0.00489,-0.00778 0.00735,-0.011798 0.00244,-0.00402 0.00489,-0.00811 0.00735,-0.0123 0.00244,-0.00419 0.00489,-0.00845 0.00735,-0.012791 0.00244,-0.00434 0.00489,-0.00878 0.00735,-0.013277 0.00244,-0.0045 0.00489,-0.00908 0.00735,-0.013756 0.00244,-0.00466 0.00489,-0.00941 0.00735,-0.014227 0.00244,-0.00481 0.00489,-0.00972 0.00735,-0.014689 0.00244,-0.00496 0.00489,-0.010018 0.00735,-0.015145 0.00244,-0.00512 0.00489,-0.010316 0.00735,-0.015591 0.00244,-0.00527 0.00489,-0.010613 0.00735,-0.016028 0.00244,-0.0054 0.00489,-0.010901 0.00735,-0.016456 0.00244,-0.00555 0.00489,-0.011182 0.00735,-0.016876 0.00244,-0.00569 0.00489,-0.011458 0.00735,-0.017288 0.00244,-0.00583 0.00489,-0.011725 0.00735,-0.017686 0.00244,-0.00596 0.00489,-0.011989 0.00735,-0.018077 0.00244,-0.00609 0.00489,-0.012243 0.00735,-0.018459 0.00244,-0.00621 0.00489,-0.012491 0.00735,-0.01883 0.00244,-0.00633 0.00489,-0.012733 0.00735,-0.01919 0.00244,-0.00647 0.00489,-0.012971 0.00735,-0.019538 0.00244,-0.00659 0.00489,-0.013196 0.00735,-0.019878 0.00244,-0.00668 0.00489,-0.013417 0.00735,-0.020205 0.00244,-0.00679 0.00489,-0.013629 0.00735,-0.02052 0.00244,-0.00689 0.00489,-0.013834 0.00735,-0.020824 0.00244,-0.00699 0.00489,-0.014032 0.00735,-0.021117 0.00244,-0.00709 0.00489,-0.014221 0.00735,-0.021399 0.00244,-0.00717 0.00489,-0.014401 0.00735,-0.021668 0.00244,-0.00726 0.00489,-0.014577 0.00735,-0.021925 0.00244,-0.00734 0.00489,-0.01474 0.00735,-0.022171 0.00244,-0.00743 0.00489,-0.014899 0.00735,-0.022404 0.00244,-0.0075 0.00489,-0.015046 0.00735,-0.022624 0.00244,-0.00756 0.00489,-0.015188 0.00735,-0.022832 0.00244,-0.00764 0.00489,-0.015321 0.00735,-0.023027 0.00244,-0.0077 0.00489,-0.015445 0.00735,-0.023209 0.00244,-0.00777 0.00489,-0.015559 0.00735,-0.023378 0.00244,-0.00782 0.00489,-0.015665 0.00735,-0.023535 0.00244,-0.00786 0.00489,-0.015763 0.00735,-0.023678 0.00244,-0.00792 0.00489,-0.015852 0.00735,-0.023809 0.00244,-0.00796 0.00489,-0.015931 0.00735,-0.023925 0.00244,-0.008 0.00489,-0.016002 0.00735,-0.024029 0.00244,-0.00803 0.00489,-0.016065 0.00735,-0.024118 0.00244,-0.00806 0.00489,-0.016119 0.00735,-0.024196 0.00244,-0.00808 0.00489,-0.016163 0.00735,-0.024258 0.00244,-0.0081 0.00489,-0.016198 0.00735,-0.024308 0.00244,-0.00811 0.00489,-0.016225 0.00735,-0.024345 0.00244,-0.00813 0.00489,-0.016242 0.00735,-0.024367 0.00244,-0.00813 0.00489,-0.016251 0.00735,-0.024376 0.00244,-0.00813 0.00489,-0.016249 0.00735,-0.024371 0.00244,-0.00813 0.00489,-0.016239 0.00735,-0.024353 0.00244,-0.00811 0.00489,-0.01622 0.00735,-0.024322 0.00244,-0.00811 0.00489,-0.016191 0.00735,-0.024274 0.00244,-0.00808 0.00489,-0.016157 0.00735,-0.024217 0.00244,-0.00806 0.00489,-0.016109 0.00735,-0.024146 0.00244,-0.00804 0.00489,-0.016056 0.00735,-0.02406 0.00244,-0.00801 0.00489,-0.015992 0.00735,-0.02396 0.00244,-0.00797 0.00489,-0.01592 0.00735,-0.023846 0.00244,-0.00793 0.00489,-0.015838 0.00735,-0.023723 0.00244,-0.00789 0.00489,-0.015748 0.00735,-0.023584 0.00244,-0.00783 0.00489,-0.015648 0.00735,-0.023433 0.00246,-0.00778 0.00489,-0.01554 0.00733,-0.023267 0.00246,-0.00773 0.00489,-0.015425 0.00735,-0.023089 0.00246,-0.00766 0.00489,-0.015298 0.00733,-0.0229 0.00246,-0.00759 0.00489,-0.015165 0.00733,-0.022694 0.00246,-0.00752 0.00489,-0.015023 0.00735,-0.022478 0.00246,-0.00745 0.00489,-0.014873 0.00733,-0.022248 0.00246,-0.00737 0.00489,-0.014714 0.00733,-0.02201 0.00246,-0.00729 0.00489,-0.014547 0.00735,-0.021757 0.00246,-0.00721 0.00489,-0.014372 0.00733,-0.02149 0.00246,-0.00711 0.00489,-0.014189 0.00733,-0.021213 0.00246,-0.00702 0.00489,-0.013999 0.00735,-0.020924 0.00246,-0.00694 0.00489,-0.0138 0.00733,-0.020624 0.00246,-0.00683 0.00489,-0.013593 0.00733,-0.020311 0.00246,-0.00673 0.00489,-0.01338 0.00733,-0.019988 0.00246,-0.00662 0.00489,-0.01316 0.00733,-0.019652 0.00246,-0.0065 0.00489,-0.01293 0.00733,-0.019308 0.00246,-0.00637 0.00489,-0.012695 0.00735,-0.01895 0.00246,-0.00626 0.00489,-0.012451 0.00733,-0.018584 0.00246,-0.00613 0.00489,-0.012201 0.00733,-0.018206 0.00246,-0.006 0.00489,-0.011944 0.00733,-0.017819 0.00246,-0.00588 0.00489,-0.011681 0.00733,-0.017422 0.00246,-0.00575 0.00489,-0.011412 0.00733,-0.017015 0.00246,-0.0056 0.00489,-0.011136 0.00735,-0.016599 0.00246,-0.00546 0.00489,-0.010854 0.00733,-0.016172 0.00246,-0.00531 0.00489,-0.01056 0.00733,-0.015738 0.00246,-0.00517 0.00489,-0.010274 0.00733,-0.015295 0.00246,-0.00502 0.00489,-0.00998 0.00733,-0.014843 0.00246,-0.00488 0.00489,-0.00967 0.00733,-0.014382 0.00246,-0.00471 0.00489,-0.00936 0.00735,-0.013914 0.00246,-0.00456 0.00489,-0.00903 0.00733,-0.013438 0.00246,-0.00439 0.00489,-0.00871 0.00735,-0.012955 0.00246,-0.00424 0.00489,-0.00839 0.00733,-0.012464 0.00246,-0.00408 0.00489,-0.00806 0.00733,-0.011966 0.00246,-0.00391 0.00489,-0.00771 0.00733,-0.011461 0.00246,-0.00374 0.00489,-0.00739 0.00733,-0.010951 0.00246,-0.00358 0.00489,-0.00704 0.00733,-0.010433 0.00246,-0.00339 0.00489,-0.0067 0.00735,-0.00991 0.00246,-0.00322 0.00489,-0.00635 0.00733,-0.00939 0.00246,-0.00304 0.00489,-0.00599 0.00733,-0.00885 0.00246,-0.00286 0.00489,-0.00563 0.00733,-0.00832 0.00246,-0.00269 0.00489,-0.00527 0.00733,-0.00777 0.00246,-0.0025 0.00489,-0.0049 0.00733,-0.00722 0.00246,-0.00231 0.00489,-0.00453 0.00735,-0.00667 0.00246,-0.00212 0.00489,-0.00417 0.00733,-0.00612 0.00246,-0.00194 0.00489,-0.0038 0.00733,-0.00555 0.00246,-0.00176 0.00489,-0.00342 0.00733,-0.00499 0.00246,-0.00157 0.00489,-0.00305 0.00733,-0.00443 0.00246,-0.00139 0.00489,-0.00268 0.00733,-0.00387 0.00246,-0.00119 0.00489,-0.00231 0.00735,-0.0033 0.00246,-9.998e-4 0.00489,-0.00191 0.00733,-0.00273 0.00246,-8.127e-4 0.00489,-0.00153 0.00733,-0.00215 0.00246,-6.279e-4 0.00489,-0.00115 0.00735,-0.00157 0.00246,-4.297e-4 0.00489,-7.654e-4 0.00733,-9.998e-4 0.00246,-2.399e-4 0.00489,-3.832e-4 0.00733,-4.298e-4 0.00246,-4.8e-5 0.00489,1e-7 0.00735,1.438e-4 0.00246,1.436e-4 0.00489,3.834e-4 0.00733,7.183e-4 0.00246,3.353e-4 0.00489,7.656e-4 0.00733,0.00129 0.00246,5.247e-4 0.00489,0.00115 0.00735,0.00186 0.00246,7.184e-4 0.00489,0.00153 0.00733,0.00245 0.00246,9.089e-4 0.00489,0.00191 0.00733,0.00301 0.00246,0.00109 0.00489,0.00231 0.00735,0.00357 0.00246,0.00129 0.00489,0.00268 0.00733,0.00416 0.00246,0.00148 0.00489,0.00305 0.00735,0.00471 0.00246,0.00167 0.00489,0.00342 0.00733,0.00528 0.00246,0.00185 0.00489,0.0038 0.00733,0.00583 0.00246,0.00204 0.00489,0.00417 0.00735,0.00639 0.00246,0.00222 0.00489,0.00453 0.00733,0.00696 0.00246,0.00241 0.00489,0.0049 0.00733,0.00749 0.00246,0.00259 0.00489,0.00527 0.00735,0.00804 0.00246,0.00278 0.00489,0.00563 0.00733,0.00858 0.00246,0.00294 0.00489,0.00599 0.00733,0.00912 0.00246,0.00313 0.00489,0.00635 0.00735,0.00965 0.00246,0.00331 0.00489,0.0067 0.00733,0.010167 0.00246,0.00347 0.00489,0.00704 0.00733,0.010693 0.00246,0.00365 0.00489,0.00739 0.00735,0.011207 0.00246,0.00383 0.00489,0.00773 0.00733,0.011714 0.00246,0.00399 0.00489,0.00806 0.00733,0.012215 0.00246,0.00416 0.00489,0.00839 0.00735,0.012709 0.00246,0.00431 0.00489,0.00871 0.00733,0.013197 0.00246,0.00447 0.00489,0.00903 0.00733,0.013676 0.00246,0.00464 0.00489,0.00936 0.00735,0.014149 0.00246,0.00479 0.00489,0.00967 0.00733,0.014613 0.00246,0.00495 0.00489,0.00998 0.00733,0.015068 0.00246,0.00511 0.00489,0.010274 0.00735,0.015516 0.00246,0.00525 0.00489,0.01056 0.00733,0.015956 0.00246,0.0054 0.00489,0.010854 0.00733,0.016387 0.00246,0.00554 0.00489,0.011136 0.00735,0.016807 0.00246,0.00568 0.00489,0.011412 0.00733,0.017219 0.00246,0.0058 0.00489,0.011681 0.00733,0.017623 0.00246,0.00595 0.00489,0.011946 0.00735,0.018013 0.00246,0.00607 0.00489,0.012201 0.00733,0.018396 0.00246,0.0062 0.00489,0.012451 0.00733,0.018768 0.00246,0.00632 0.00489,0.012695 0.00733,0.019131 0.00246,0.00644 0.00489,0.01293 0.00733,0.019481 0.00246,0.00657 0.00489,0.01316 0.00733,0.019821 0.00246,0.00667 0.00489,0.013379 0.00735,0.020151 0.00246,0.00678 0.00489,0.013593 0.00733,0.020468 0.00246,0.00687 0.00489,0.0138 0.00735,0.020775 0.00246,0.00697 0.00489,0.013999 0.00733,0.021069 0.00246,0.00707 0.00489,0.014189 0.00733,0.021354 0.00246,0.00716 0.00489,0.014372 0.00735,0.021624 0.00246,0.00725 0.00489,0.014548 0.00733,0.021884 0.00246,0.00733 0.00489,0.014714 0.00733,0.02213 0.00246,0.00741 0.00489,0.014873 0.00735,0.022367 0.00246,0.00749 0.00489,0.015023 0.00733,0.022589 0.00246,0.00756 0.00489,0.015165 0.00733,0.022798 0.00246,0.00763 0.00489,0.015299 0.00735,0.022995 0.00246,0.00769 0.00489,0.015426 0.00733,0.02318 0.00246,0.00774 0.00489,0.01554 0.00733,0.023351 0.00246,0.00781 0.00489,0.015648 0.00735,0.023509 0.00246,0.00786 0.00489,0.015748 0.00733,0.023654 0.00246,0.00792 0.00489,0.015837 0.00733,0.023788 0.00246,0.00796 0.00489,0.01592 0.00733,0.023906 0.00246,0.00799 0.00489,0.015993 0.00733,0.024012 0.00246,0.00802 0.00489,0.016056 0.00733,0.024104 0.00246,0.00806 0.00489,0.016109 0.00735,0.024183 0.00246,0.00807 0.00489,0.016157 0.00733,0.024248 0.00246,0.0081 0.00489,0.016193 0.00733,0.024301 0.00246,0.00811 0.00489,0.016221 0.00733,0.024339 0.00246,0.00811 0.00489,0.016239 0.00733,0.024364 0.00246,0.00813 0.00489,0.01625 0.00733,0.024375 0.00246,0.00813 0.00489,0.01625 0.00735,0.024374 0.00246,0.00813 0.00489,0.016242 0.00733,0.024357 0.00246,0.00811 0.00489,0.016225 0.00733,0.024327 0.00246,0.00811 0.00489,0.016198 0.00733,0.024286 0.00246,0.00808 0.00489,0.016163 0.00733,0.024228 0.00246,0.00807 0.00489,0.016117 0.00733,0.024158 0.00246,0.00804 0.00489,0.016065 0.00735,0.024074 0.00246,0.00801 0.00489,0.016004 0.00733,0.023978 0.00246,0.00798 0.00489,0.015931 0.00733,0.023868 0.00246,0.00793 0.00489,0.015852 0.00735,0.023746 0.00246,0.00789 0.00489,0.015763 0.00733,0.023608 0.00246,0.00784 0.00489,0.015665 0.00733,0.02346 0.00246,0.00778 0.00489,0.015559 0.00733,0.023296 0.00246,0.00773 0.00489,0.015445 0.00733,0.023119 0.00246,0.00767 0.00489,0.01532 0.00735,0.022931 0.00246,0.00761 0.00489,0.015188 0.00733,0.02273 0.00246,0.00754 0.00489,0.015046 0.00733,0.022515 0.00246,0.00746 0.00489,0.014899 0.00733,0.02229 0.00246,0.00739 0.00489,0.014741 0.00733,0.02205 0.00246,0.00731 0.00489,0.014577 0.00733,0.021799 0.00246,0.00722 0.00489,0.014402 0.00735,0.021534 0.00246,0.00713 0.00489,0.014221 0.00733,0.02126 0.00246,0.00703 0.00489,0.014031 0.00733,0.020973 0.00246,0.00695 0.00489,0.013834 0.00733,0.020673 0.00246,0.00685 0.00489,0.013628 0.00733,0.020364 0.00246,0.00673 0.00489,0.013417 0.00733,0.020042 0.00246,0.00663 0.00489,0.013196 0.00735,0.019709 0.00246,0.00652 0.00489,0.01297 0.00733,0.019365 0.00246,0.0064 0.00489,0.012733 0.00733,0.019012 0.00246,0.00628 0.00489,0.012491 0.00735,0.018646 0.00246,0.00615 0.00489,0.012243 0.00733,0.01827 0.00246,0.00603 0.00489,0.011989 0.00733,0.017885 0.00246,0.00588 0.00489,0.011725 0.00735,0.017488 0.00246,0.00576 0.00489,0.011458 0.00733,0.017083 0.00246,0.00563 0.00489,0.011182 0.00733,0.016667 0.00246,0.00549 0.00489,0.010901 0.00735,0.016243 0.00246,0.00535 0.00489,0.010613 0.00733,0.015811 0.00246,0.0052 0.00489,0.010316 0.00733,0.015369 0.00246,0.00506 0.00489,0.010018 0.00735,0.014919 0.00246,0.00488 0.00489,0.00972 0.00733,0.014459 0.00246,0.00473 0.00489,0.00941 0.00733,0.013993 0.00246,0.00458 0.00489,0.00908 0.00735,0.013518 0.00246,0.00443 0.00489,0.00878 0.00733,0.013034 0.00246,0.00426 0.00489,0.00845 0.00733,0.012546 0.00246,0.0041 0.00489,0.00811 0.00735,0.012049 0.00246,0.00394 0.00489,0.00778 0.00733,0.011547 0.00246,0.00377 0.00489,0.00744 0.00735,0.011037 0.00246,0.00361 0.00489,0.0071 0.00733,0.010517 0.00246,0.00342 0.00489,0.00677 0.00733,0.01 0.00246,0.00324 0.00489,0.0064 0.00735,0.00948 0.00246,0.00308 0.00489,0.00605 0.00733,0.00893 0.00246,0.00289 0.00489,0.00569 0.00733,0.0084 0.00246,0.00271 0.00489,0.00533 0.00735,0.00785 0.00246,0.00254 0.00489,0.00496 0.00733,0.00731 0.00246,0.00235 0.00489,0.00459 0.00733,0.00677 0.00246,0.00216 0.00489,0.00423 0.00735,0.00621 0.00246,0.00197 0.00489,0.00387 0.00733,0.00565 0.00246,0.00178 0.00489,0.00349 0.00733,0.00509 0.00246,0.0016 0.00489,0.00312 0.00735,0.00453 0.00246,0.00141 0.00489,0.00274 0.00733,0.00397 0.00246,0.00123 0.00489,0.00236 0.00733,0.00339 0.00246,0.00104 0.00489,0.00197 0.00735,0.00283 0.00246,8.511e-4 0.00489,0.00159 0.00733,0.00226 0.00246,6.556e-4 0.00489,0.00121 0.00733,0.00167 0.00246,4.627e-4 0.00489,8.346e-4 0.00735,0.00111 0.00246,2.726e-4 0.00489,4.462e-4 0.00733,5.288e-4 0.00246,8.01e-5 0.00489,6.4e-5 0.00733,-4.78e-5 0.00246,-1.118e-4 0.00489,-3.195e-4 0.00735,-6.279e-4 0.00246,-3.039e-4 0.00489,-7.05e-4 0.00733,-0.0012 0.00246,-4.96e-4 0.00489,-0.00109 0.00733,-0.00176 0.00246,-6.913e-4 0.00489,-0.00146 0.00733,-0.00235 0.00246,-8.759e-4 0.00489,-0.00185 0.00733,-0.00291 0.00246,-0.00107 0.00489,-0.00224 0.00733,-0.00349 0.00246,-0.00126 0.00489,-0.0026 0.00735,-0.00406 0.00246,-0.00145 0.00489,-0.00298 0.00733,-0.00461 0.00246,-0.00163 0.00489,-0.00337 0.00733,-0.00518 0.00246,-0.00182 0.00489,-0.00374 0.00733,-0.00575 0.00246,-0.00201 0.00489,-0.00412 0.00733,-0.0063 0.00246,-0.0022 0.00489,-0.00447 0.00733,-0.00687 0.00246,-0.00238 0.00489,-0.00484 0.00735,-0.0074 0.00246,-0.00256 0.00489,-0.00521 0.00733,-0.00796 0.00246,-0.00274 0.00489,-0.00558 0.00735,-0.0085 0.00246,-0.00293 0.00489,-0.00592 0.00733,-0.00903 0.00246,-0.0031 0.00489,-0.00628 0.00733,-0.00956 0.00246,-0.00327 0.00489,-0.00665 0.00733,-0.010082 0.00246,-0.00345 0.00489,-0.00699 0.00733,-0.010602 0.00246,-0.00364 0.00489,-0.00733 0.00733,-0.011122 0.00246,-0.00379 0.00489,-0.00766 0.00735,-0.01163 0.00246,-0.00397 0.00489,-0.00801 0.00733,-0.012133 0.00246,-0.00413 0.00489,-0.00834 0.00733,-0.012628 0.00246,-0.00429 0.00489,-0.00866 0.00733,-0.013115 0.00246,-0.00444 0.00489,-0.00899 0.00733,-0.013596 0.00246,-0.00461 0.00489,-0.0093 0.00733,-0.01407 0.00246,-0.00476 0.00489,-0.00961 0.00735,-0.014536 0.00246,-0.00492 0.00489,-0.00992 0.00733,-0.014993 0.00246,-0.00508 0.00489,-0.010221 0.00733,-0.015443 0.00246,-0.00523 0.00489,-0.010518 0.00733,-0.015884 0.00246,-0.00536 0.00489,-0.010806 0.00733,-0.016315 0.00246,-0.00551 0.00489,-0.011088 0.00733,-0.016738 0.00246,-0.00565 0.00489,-0.011365 0.00735,-0.017153 0.00246,-0.00579 0.00489,-0.011636 0.00733,-0.017554 0.00246,-0.00592 0.00489,-0.011902 0.00733,-0.017949 0.00246,-0.00605 0.00489,-0.012159 0.00733,-0.018332 0.00246,-0.00617 0.00489,-0.012409 0.00733,-0.018708 0.00246,-0.00629 0.00489,-0.012655 0.00733,-0.01907 0.00246,-0.00642 0.00489,-0.012892 0.00735,-0.019424 0.00246,-0.00654 0.00489,-0.013122 0.00733,-0.019764 0.00246,-0.00665 0.00489,-0.013343 0.00733,-0.020097 0.00246,-0.00677 0.00489,-0.013558 0.00735,-0.020416 0.00246,-0.00687 0.00489,-0.013766 0.00733,-0.020725 0.00246,-0.00696 0.00489,-0.013966 0.00733,-0.021021 0.00246,-0.00706 0.00489,-0.014159 0.00735,-0.021307 0.00246,-0.00714 0.00489,-0.014342 0.00733,-0.021581 0.00246,-0.00724 0.00489,-0.014517 0.00733,-0.021843 0.00246,-0.00732 0.00489,-0.014688 0.00735,-0.022091 0.00246,-0.0074 0.00489,-0.014847 0.00733,-0.022328 0.00246,-0.00748 0.00489,-0.014999 0.00733,-0.022552 0.00246,-0.00754 0.00489,-0.015142 0.00733,-0.022764 0.00246,-0.00762 0.00489,-0.015277 0.00733,-0.022963 0.00246,-0.00768 0.00489,-0.015403 0.00735,-0.023151 0.00246,-0.00773 0.00489,-0.015521 0.00733,-0.023323 0.00246,-0.0078 0.00489,-0.015631 0.00733,-0.023484 0.00246,-0.00785 0.00489,-0.015732 0.00735,-0.023632 0.00246,-0.00791 0.00489,-0.015822 0.00733,-0.023767 0.00246,-0.00795 0.00489,-0.015906 0.00733,-0.023887 0.00246,-0.00799 0.00489,-0.015981 0.00735,-0.023994 0.00246,-0.00802 0.00489,-0.016046 0.00733,-0.024089 0.00246,-0.00806 0.00489,-0.016101 0.00733,-0.024171 0.00246,-0.00807 0.00489,-0.016149 0.00735,-0.024238 0.00246,-0.0081 0.00489,-0.016186 0.00733,-0.024293 0.00246,-0.00811 0.00489,-0.016217 0.00733,-0.024334 0.00246,-0.00811 0.00489,-0.016238 0.00735,-0.02436 0.00246,-0.00813 0.00489,-0.016249 0.00733,-0.024374"
     style="fill:none;fill-opacity:1;stroke:#ffffff;stroke-width:0.29625639;stroke-miterlimit:4;stroke-dasharray:none;stroke-opacity:1"
     inkscape:connector-curvature="0" />
  <text
     xml:space="preserve"
     style="font-style:normal;font-variant:normal;font-weight:normal;font-stretch:normal;font-size:7.5538559px;line-height:1.25;font-family:'Source Sans Pro';-inkscape-font-specification:'Source Sans Pro';letter-spacing:0px;word-spacing:0px;fill:#000000;fill-opacity:1;stroke:none;stroke-width:0.94423199"
     x="1.1261224"
     y="10.032464"
     id="text5259"
     transform="scale(0.94423196,1.0590618)"><tspan
       sodipodi:role="line"
       id="tspan5257"
       x="1.1261224"
       y="10.032464"
       style="font-style:normal;font-variant:normal;font-weight:bold;font-stretch:normal;font-size:7.5538559px;font-family:'Source Sans Pro';-inkscape-font-specification:'Source Sans Pro Bold';fill:#ffffff;stroke-width:0.94423199">URH</tspan></text>
  <text
     xml:space="preserve"
     style="font-style:normal;font-variant:normal;font-weight:500;font-stretch:normal;font-size:2.66666675px;line-height:1.25;font-family:'Source Code Pro';-inkscape-font-specification:'Source Code Pro Medium';letter-spacing:0px;word-spacing:0px;fill:#000000;fill-opacity:1;stroke:none"
     x="3.5"
     y="13.8125"
     id="text5263"><tspan
       sodipodi:role="line"
       id="tspan5261"
       x="3.5"
       y="13.8125"
       style="font-style:normal;font-variant:normal;font-weight:500;font-stretch:normal;font-size:2.66666675px;font-family:'Source Code Pro';-inkscape-font-specification:'Source Code Pro Medium';fill:#ffffff">01010...</tspan></text>
</svg>
