<?xml version="1.0" encoding="iso-8859-1"?>
<!DOCTYPE svg PUBLIC "-//W3C//DTD SVG 1.1//EN" "http://www.w3.org/Graphics/SVG/1.1/DTD/svg11.dtd">
<svg xmlns="http://www.w3.org/2000/svg" xmlns:xlink="http://www.w3.org/1999/xlink" version="1.1" viewBox="0 0 512 512" enable-background="new 0 0 512 512" width="512px" height="512px">
  <path d="m416,224h-32v-96c0-70.578-57.422-128-128-128s-128,57.422-128,128v96h-32c-17.673,0-32,14.326-32,32v224c0,17.673 14.327,32 32,32h320c17.673,0 32-14.327 32-32v-224c0-17.674-14.327-32-32-32zm-144,155.561v36.439c0,8.836-7.163,16-16,16-8.837,0-16-7.164-16-16v-36.439c-9.524-5.543-16-15.747-16-27.561 0-17.674 14.327-32 32-32s32,14.326 32,32c0,11.815-6.476,22.019-16,27.561zm-80-155.561v-96c0-35.289 28.711-64 64-64s64,28.711 64,64v96h-128z" fill="#006DF0"/>
</svg>
