<?xml version="1.0" encoding="UTF-8" standalone="no"?>
<!-- Created with Inkscape (http://www.inkscape.org/) -->

<svg
   xmlns:dc="http://purl.org/dc/elements/1.1/"
   xmlns:cc="http://creativecommons.org/ns#"
   xmlns:rdf="http://www.w3.org/1999/02/22-rdf-syntax-ns#"
   xmlns:svg="http://www.w3.org/2000/svg"
   xmlns="http://www.w3.org/2000/svg"
   xmlns:sodipodi="http://sodipodi.sourceforge.net/DTD/sodipodi-0.dtd"
   xmlns:inkscape="http://www.inkscape.org/namespaces/inkscape"
   width="16px"
   height="16px"
   viewBox="0 0 16 16"
   version="1.1"
   id="SVGRoot"
   inkscape:version="0.92.1 r"
   sodipodi:docname="modulation.svg">
  <sodipodi:namedview
     id="base"
     pagecolor="#ffffff"
     bordercolor="#666666"
     borderopacity="1.0"
     inkscape:pageopacity="0.0"
     inkscape:pageshadow="2"
     inkscape:zoom="32"
     inkscape:cx="8.0385822"
     inkscape:cy="8.3492424"
     inkscape:document-units="px"
     inkscape:current-layer="layer1"
     showgrid="false"
     inkscape:window-width="1920"
     inkscape:window-height="1141"
     inkscape:window-x="0"
     inkscape:window-y="0"
     inkscape:window-maximized="1"
     inkscape:grid-bbox="true" />
  <defs
     id="defs5036" />
  <metadata
     id="metadata5039">
    <rdf:RDF>
      <cc:Work
         rdf:about="">
        <dc:format>image/svg+xml</dc:format>
        <dc:type
           rdf:resource="http://purl.org/dc/dcmitype/StillImage" />
        <dc:title></dc:title>
      </cc:Work>
    </rdf:RDF>
  </metadata>
  <g
     inkscape:label="Ebene 1"
     inkscape:groupmode="layer"
     id="layer1">
    <g
       id="text5805"
       style="font-style:normal;font-variant:normal;font-weight:900;font-stretch:normal;font-size:9.33333302px;line-height:1.25;font-family:'Source Code Pro';-inkscape-font-specification:'Source Code Pro Heavy';letter-spacing:0px;word-spacing:0px;fill:#ff0000;fill-opacity:1;stroke:none"
       aria-label="101">
      <path
         id="path5847"
         style=""
         d="M 0.27199999,6.388 H 4.6026665 V 5.1000001 H 3.3333332 V 0.47066688 H 2.1573333 C 1.6906666,0.75066687 1.224,0.91866686 0.51466665,1.0493335 V 2.0386668 H 1.7279999 V 5.1000001 H 0.27199999 Z" />
      <path
         id="path5849"
         style=""
         d="m 7.9590206,6.5 c 1.3906666,0 2.3333334,-1.0733333 2.3333334,-3.0986666 0,-2.0253332 -0.9426668,-3.04266652 -2.3333334,-3.04266652 -1.3906666,0 -2.3333333,1.01733332 -2.3333333,3.04266652 C 5.6256873,5.4266667 6.568354,6.5 7.9590206,6.5 Z m 0,-1.232 C 7.4643539,5.268 7.044354,4.8760001 7.044354,3.4013334 c 0,-1.4746666 0.4199999,-1.8106666 0.9146666,-1.8106666 0.4946666,0 0.9146666,0.336 0.9146666,1.8106666 0,1.4746667 -0.42,1.8666666 -0.9146666,1.8666666 z m 0,-1.1199999 c 0.4293333,0 0.7466666,-0.2986667 0.7466666,-0.7466667 0,-0.4479999 -0.3173333,-0.7466666 -0.7466666,-0.7466666 -0.4293333,0 -0.7466666,0.2986667 -0.7466666,0.7466666 0,0.448 0.3173333,0.7466667 0.7466666,0.7466667 z" />
      <path
         id="path5851"
         style=""
         d="m 11.464708,6.388 h 4.330667 V 5.1000001 H 14.526041 V 0.47066688 h -1.176 C 12.883375,0.75066687 12.416708,0.91866686 11.707375,1.0493335 v 0.9893333 h 1.213333 v 3.0613333 h -1.456 z" />
    </g>
    <path
       inkscape:connector-curvature="0"
       id="path5845"
       d="M 0,7.5004876 H 16"
       style="fill:none;stroke:#000000;stroke-width:0.99902487px;stroke-linecap:butt;stroke-linejoin:miter;stroke-opacity:1" />
    <path
       id="path5894"
       title="sin(x)"
       d=" M 0.52007908 12.1512449 C 0.526320148836 12.1932914649 0.532561217672 12.2353379957 0.538802286508 12.2773520955 C 0.545043355344 12.3193661954 0.55128442418 12.3613476661 0.557525493016 12.403264356 C 0.563766561852 12.4451810458 0.570007630688 12.487032562 0.576248699524 12.5287870475 C 0.582489768361 12.570541533 0.588730837196 12.612198401 0.594971906033 12.6537261384 C 0.601212974869 12.6952538759 0.607454043705 12.736651703 0.613695112541 12.7778884994 C 0.619936181377 12.8191252958 0.626177250213 12.8602000897 0.632418319049 12.9010822015 C 0.638659387885 12.9419643134 0.644900456721 12.9826525811 0.651141525557 13.0231168133 C 0.657382594393 13.0635810456 0.663623663229 13.1038198916 0.669864732065 13.1438036951 C 0.676105800901 13.1837874985 0.682346869737 13.2235147221 0.688587938573 13.2629562903 C 0.694829007409 13.3023978584 0.701070076245 13.3415520497 0.707311145081 13.3803904141 C 0.713552213917 13.4192287786 0.719793282753 13.4577494134 0.726034351589 13.4959245383 C 0.732275420426 13.5340996631 0.738516489261 13.5719271967 0.744757558098 13.6093800713 C 0.750998626934 13.6468329459 0.75723969577 13.6839089049 0.763480764606 13.7205816349 C 0.769721833442 13.757254365 0.775962902278 13.7935214377 0.782203971114 13.829357335 C 0.78844503995 13.8651932322 0.794686108786 13.9005953575 0.800927177622 13.9355390271 C 0.807168246458 13.9704826968 0.813409315294 14.0049651504 0.81965038413 14.0389625769 C 0.825891452966 14.0729600035 0.832132521802 14.1064694827 0.838373590638 14.1394681133 C 0.844614659474 14.1724667439 0.85085572831 14.2049514503 0.857096797146 14.236900276 C 0.863337865983 14.2688491017 0.869578934818 14.3002588207 0.875820003655 14.3311084554 C 0.882061072491 14.3619580901 0.888302141327 14.3922442689 0.894543210163 14.4219470255 C 0.900784278999 14.4516497821 0.907025347835 14.4807656047 0.913266416671 14.509275569 C 0.919507485507 14.5377855334 0.925748554343 14.5656859928 0.931989623179 14.5929590945 C 0.938230692015 14.6202321962 0.944471760851 14.6468741643 0.950712829687 14.6728682449 C 0.956953898523 14.6988623255 0.963194967359 14.7242046193 0.969436036195 14.7488794974 C 0.975677105031 14.7735543755 0.981918173867 14.7975578212 0.988159242703 14.8208753547 C 0.99440031154 14.8441928882 1.00064138038 14.8668203816 1.00688244921 14.8887445264 C 1.01312351805 14.9106686713 1.01936458688 14.931885235 1.02560565572 14.9523821011 C 1.03184672456 14.9728789673 1.03808779339 14.992651805 1.04432886223 15.0116897086 C 1.05056993106 15.0307276122 1.0568109999 15.0490261591 1.06305206874 15.0665756716 C 1.06929313757 15.0841251841 1.07553420641 15.1009211547 1.08177527524 15.1169551482 C 1.08801634408 15.1329891417 1.09425741292 15.1482565729 1.10049848175 15.1627502623 C 1.10673955059 15.1772439516 1.11298061942 15.1909592433 1.11922168826 15.2038902242 C 1.1254627571 15.2168212052 1.13170382593 15.2289631563 1.13794489477 15.2403114404 C 1.1441859636 15.2516597244 1.15042703244 15.2622095661 1.15666810128 15.2719576112 C 1.16290917011 15.2817056563 1.16915023895 15.2906470807 1.17539130778 15.2987798184 C 1.18163237662 15.3069125561 1.18787344546 15.3142317417 1.19411451429 15.3207366005 C 1.20035558313 15.3272414594 1.20659665197 15.3329270922 1.2128377208 15.337794017 C 1.21907878964 15.3426609418 1.22531985847 15.3467042331 1.23156092731 15.3499257006 C 1.23780199615 15.3531471681 1.24404306498 15.3555418678 1.25028413382 15.3571128984 C 1.25652520265 15.3586839289 1.26276627149 15.3594263353 1.26900734033 15.3593445004 C 1.27524840916 15.3592626655 1.281489478 15.3583516309 1.28773054683 15.3566170571 C 1.29397161567 15.3548824832 1.30021268451 15.352319416 1.30645375334 15.3489347845 C 1.31269482218 15.345550153 1.31893589101 15.3413390151 1.32517695985 15.3363095578 C 1.33141802869 15.3312801005 1.33765909752 15.3254274015 1.34390016636 15.318760893 C 1.35014123519 15.3120943844 1.35638230403 15.3046091713 1.36262337287 15.2963159165 C 1.3688644417 15.2880226617 1.37510551054 15.278916505 1.38134657937 15.2690093236 C 1.38758764821 15.2591021422 1.39382871705 15.2483891181 1.40006978588 15.2368833245 C 1.40631085472 15.2253775308 1.41255192355 15.2130741995 1.41879299239 15.1999875792 C 1.42503406123 15.1869009589 1.43127513006 15.1730263386 1.4375161989 15.1583791207 C 1.44375726773 15.1437319029 1.44999833657 15.1283074409 1.45623940541 15.1121222671 C 1.46248047424 15.0959370932 1.46872154308 15.0789866325 1.47496261191 15.0612885215 C 1.48120368075 15.0435904105 1.48744474959 15.0251401529 1.49368581842 15.0059564623 C 1.49992688726 14.9867727716 1.5061679561 14.9668512373 1.51240902493 14.9462116211 C 1.51865009377 14.9255720048 1.5248911626 14.9042099883 1.53113223144 14.8821463509 C 1.53737330028 14.8600827134 1.54361436911 14.8373132359 1.54985543795 14.813859683 C 1.55609650678 14.7904061301 1.56233757562 14.7662643884 1.56857864446 14.7414571743 C 1.57481971329 14.7166499602 1.58106078213 14.6911732723 1.58730185096 14.6650507437 C 1.5935429198 14.6389282152 1.59978398864 14.6121559627 1.60602505747 14.5847584995 C 1.61226612631 14.5573610364 1.61850719514 14.5293346036 1.62474826398 14.5007045566 C 1.63098933282 14.4720745096 1.63723040165 14.4428372194 1.64347147049 14.4130188446 C 1.64971253932 14.3832004698 1.65595360816 14.3527975169 1.662194677 14.3218369071 C 1.66843574583 14.2908762974 1.67467681467 14.2593546783 1.6809178835 14.2272996922 C 1.68715895234 14.1952447061 1.69340002118 14.1626531467 1.69964109001 14.1295533345 C 1.70588215885 14.0964535223 1.71212322768 14.0628424022 1.71836429652 14.0287489292 C 1.72460536536 13.9946554562 1.73084643419 13.9600767311 1.73708750303 13.9250422987 C 1.74332857186 13.8900078662 1.7495696407 13.8545149876 1.75581070954 13.8185937515 C 1.76205177837 13.7826725155 1.76829284721 13.7463203477 1.77453391605 13.7095678347 C 1.78077498488 13.6728153217 1.78701605372 13.6356600577 1.79325712255 13.5981330793 C 1.79949819139 13.560606101 1.80573926023 13.5227051749 1.81198032906 13.48446174 C 1.8182213979 13.4462183051 1.82446246673 13.4076303038 1.83070353557 13.3687295286 C 1.83694460441 13.3298287535 1.84318567324 13.2906133258 1.84942674208 13.2511153428 C 1.85566781091 13.2116173598 1.86190887975 13.1718351246 1.86814994859 13.1318009893 C 1.87439101742 13.0917668539 1.88063208626 13.0514793061 1.88687315509 13.0109709028 C 1.89311422393 12.9704624995 1.89935529277 12.9297319152 1.9055963616 12.8888118613 C 1.91183743044 12.8478918075 1.91807849927 12.8067811475 1.92431956811 12.7655126969 C 1.93056063695 12.7242442463 1.93680170578 12.682817059 1.94304277462 12.641264004 C 1.94928384345 12.599710949 1.95552491229 12.5580312721 1.96176598113 12.5162578449 C 1.96800704996 12.4744844177 1.9742481188 12.4326166793 1.98048918763 12.3906874528 C 1.98673025647 12.3487582263 1.99297132531 12.306767145 1.99921239414 12.264746933 C 2.00545346298 12.222726721 2.01169453181 12.1806772062 2.01793560065 12.138630963 C 2.02417666949 12.0965847199 2.03041773832 12.0545417712 2.03665880716 12.0125344915 C 2.04289987599 11.9705272118 2.04914094483 11.9285558188 2.05538201367 11.886652437 C 2.0616230825 11.8447490552 2.06786415134 11.8029140969 2.07410522018 11.7611793867 C 2.08034628901 11.7194446766 2.08658735785 11.6778108208 2.09282842668 11.6363092954 C 2.09906949552 11.59480777 2.10531056436 11.553439374 2.11155163319 11.5122351859 C 2.11779270203 11.4710309978 2.12403377086 11.4299920084 2.1302748397 11.3891488507 C 2.13651590854 11.3483056929 2.14275697737 11.3076595477 2.14899804621 11.2672405552 C 2.15523911504 11.2268215626 2.16148018388 11.186631092 2.16772125272 11.1466987439 C 2.17396232155 11.1067663958 2.18020339039 11.0670937259 2.18644445922 11.0277097492 C 2.19268552806 10.9883257725 2.1989265969 10.9492322287 2.20516766573 10.9104575028 C 2.21140873457 10.8716827769 2.2176498034 10.8332287896 2.22389087224 10.795123252 C 2.23013194108 10.7570177144 2.23637300991 10.7192627254 2.24261407875 10.6818852793 C 2.24885514758 10.6445078331 2.25509621642 10.6075102037 2.26133728526 10.5709186266 C 2.26757835409 10.5343270495 2.27381942293 10.4981439701 2.28006049176 10.462394825 C 2.2863015606 10.4266456798 2.29254262944 10.3913330819 2.29878369827 10.3564816294 C 2.30502476711 10.3216301768 2.31126583594 10.2872426462 2.31750690478 10.2533427592 C 2.32374797362 10.2194428723 2.32998904245 10.1860335649 2.33623011129 10.1531376455 C 2.34247118013 10.1202417262 2.34871224896 10.0878622857 2.3549533178 10.0560211842 C 2.36119438663 10.0241800826 2.36743545547 9.99288056087 2.37367652431 9.96214349676 C 2.37991759314 9.93140643265 2.38615866198 9.90123521205 2.39239973081 9.87164969839 C 2.39864079965 9.84206418473 2.40488186849 9.81306790364 2.41112293732 9.78467967339 C 2.41736400616 9.75629144314 2.42360507499 9.72851492369 2.42984614383 9.70136785907 C 2.43608721267 9.67422079445 2.4423282815 9.64770697329 2.44856935034 9.62184303793 C 2.45481041917 9.59597910258 2.46105148801 9.57076896447 2.46729255685 9.54622813857 C 2.47353362568 9.52168731267 2.47977469452 9.49781982718 2.48601576335 9.47464004567 C 2.49225683219 9.45146026416 2.49849790103 9.42897232538 2.50473896986 9.40718941932 C 2.5109800387 9.38540651326 2.51722110753 9.36433288281 2.52346217637 9.34398052397 C 2.52970324521 9.32362816514 2.53594431404 9.30400141839 2.54218538288 9.28511106724 C 2.54842645171 9.26622071608 2.55466752055 9.24807119186 2.56090858939 9.23067204888 C 2.56714965822 9.2132729059 2.57339072706 9.19662865954 2.57963179589 9.18074762014 C 2.58587286473 9.16486658075 2.59211393357 9.14975334074 2.5983550024 9.13541495366 C 2.60459607124 9.12107656659 2.61083714008 9.10751769481 2.61707820891 9.09474412418 C 2.62331927775 9.08197055355 2.62956034658 9.06998700916 2.63580141542 9.05879800022 C 2.64204248426 9.04760899128 2.64828355309 9.03721929831 2.65452462193 9.0276321469 C 2.66076569076 9.0180449955 2.6670067596 9.00926521423 2.67324782844 9.00129474007 C 2.67948889727 8.99332426592 2.68572996611 8.98616796803 2.69197103494 8.9798264918 C 2.69821210378 8.97348501557 2.70445317262 8.96796326319 2.71069424145 8.96326058747 C 2.71693531029 8.95855791174 2.72317637912 8.95467924035 2.72941744796 8.95162263447 C 2.7356585168 8.9485660286 2.74189958563 8.94633643379 2.74814065447 8.94493062264 C 2.7543817233 8.94352481148 2.76062279214 8.94294773974 2.76686386098 8.94319489639 C 2.77310492981 8.94344205305 2.77934599865 8.94451839641 2.78558706748 8.94641813881 C 2.79182813632 8.94831788122 2.79806920516 8.95104597588 2.80431027399 8.95459536744 C 2.81055134283 8.95814475901 2.81679241166 8.96252038791 2.8230334805 8.96771394201 C 2.82927454934 8.97290749612 2.83551561817 8.97892389546 2.84175668701 8.98575358397 C 2.84799775584 8.99258327248 2.85423882468 9.00023114218 2.86047989352 9.00868640784 C 2.86672096235 9.0171416735 2.87296203119 9.02640919156 2.87920310003 9.0364769643 C 2.88544416886 9.04654473705 2.8916852377 9.05741757785 2.89792630653 9.06908229503 C 2.90416737537 9.08074701221 2.91040844421 9.09320836863 2.91664951304 9.10645199905 C 2.92289058188 9.11969562948 2.92913165071 9.13372623888 2.93537271955 9.14852831069 C 2.94161378839 9.1633303825 2.94785485722 9.17890855653 2.95409592606 9.19524618884 C 2.96033699489 9.21158382116 2.96657806373 9.22868547924 2.97281913257 9.24653341752 C 2.9790602014 9.26438135581 2.98530127024 9.28298006239 2.99154233907 9.30231071749 C 2.99778340791 9.3216413726 3.00402447675 9.341708378 3.01026554558 9.36249186881 C 3.01650661442 9.38327535962 3.02274768325 9.40477964448 3.02898875209 9.4269838441 C 3.03522982093 9.44918804373 3.04147088976 9.47209636697 3.0477119586 9.49568695239 C 3.05395302743 9.51927753782 3.06019409627 9.54355448799 3.06643516511 9.56849499316 C 3.07267623394 9.59343549832 3.07891730278 9.61904354839 3.08515837161 9.64529542052 C 3.09139944045 9.67154729265 3.09764050929 9.69844685797 3.10388157812 9.72596951722 C 3.11012264696 9.75349217647 3.11636371579 9.78164167599 3.12260478463 9.81039257813 C 3.12884585347 9.83914348027 3.1350869223 9.86849940079 3.14132799114 9.89843410299 C 3.14756905997 9.92836880519 3.15381012881 9.95888576866 3.16005119765 9.98995799818 C 3.16629226648 10.0210302277 3.17253333532 10.0526610613 3.17877440416 10.0848227871 C 3.18501547299 10.1169845128 3.19125654183 10.149680322 3.19749761066 10.1828818287 C 3.2037386795 10.2160833354 3.20997974834 10.2497935793 3.21622081717 10.2839835444 C 3.22246188601 10.3181735096 3.22870295484 10.3528460793 3.23494402368 10.3879716524 C 3.24118509252 10.4230972255 3.24742616135 10.4586785246 3.25366723019 10.4946854089 C 3.25990829902 10.5306922933 3.26614936786 10.5671273204 3.2723904367 10.603959857 C 3.27863150553 10.6407923935 3.28487257437 10.678024828 3.2911136432 10.7156260814 C 3.29735471204 10.7532273348 3.30359578088 10.791199623 3.30983684971 10.8295114697 C 3.31607791855 10.8678233163 3.32231898738 10.9064767612 3.32856005622 10.9454399791 C 3.33480112506 10.9844031969 3.34104219389 11.0236780484 3.34728326273 11.0632324085 C 3.35352433156 11.1027867687 3.3597654004 11.1426223161 3.36600646924 11.1827066758 C 3.37224753807 11.2227910356 3.37848860691 11.2631257015 3.38472967574 11.3036780989 C 3.39097074458 11.3442304963 3.39721181342 11.385001932 3.40345288225 11.4259596815 C 3.40969395109 11.4669174311 3.41593501992 11.5080626124 3.42217608876 11.5493624021 C 3.4284171576 11.5906621918 3.43465822643 11.632117517 3.44089929527 11.6736955061 C 3.44714036411 11.7152734952 3.45338143294 11.756974883 3.45962250178 11.7987668007 C 3.46586357061 11.8405587184 3.47210463945 11.8824417074 3.47834570829 11.9243829521 C 3.48458677712 11.9663241969 3.49082784596 12.0083240447 3.49706891479 12.0503497842 C 3.50330998363 12.0923755238 3.50955105247 12.1344273076 3.5157921213 12.1764725789 C 3.52203319014 12.2185178503 3.52827425897 12.2605565669 3.53451532781 12.302556377 C 3.54075639665 12.344556187 3.54699746548 12.3865168534 3.55323853432 12.4284062794 C 3.55947960315 12.4702957053 3.56572067199 12.5121134591 3.57196174083 12.5538277487 C 3.57820280966 12.5955420383 3.5844438785 12.6371522382 3.59068494733 12.6786269099 C 3.59692601617 12.7201015817 3.60316708501 12.761439907 3.60940815384 12.8026108498 C 3.61564922268 12.8437817926 3.62189029151 12.884784343 3.62813136035 12.9255879152 C 3.63437242919 12.9663914875 3.64061349802 13.0069948817 3.64685456686 13.0473680097 C 3.65309563569 13.0877411378 3.65933670453 13.1278826115 3.66557777337 13.1677628869 C 3.6718188422 13.2076431624 3.67805991104 13.2472606653 3.68430097987 13.2865864417 C 3.69054204871 13.3259122181 3.69678311755 13.36494451 3.70302418638 13.4036549979 C 3.70926525522 13.4423654858 3.71550632406 13.480752231 3.72174739289 13.5187875923 C 3.72798846173 13.5568229535 3.73422953056 13.5945048142 3.7404705994 13.6318062541 C 3.74671166824 13.669107694 3.75295273707 13.7060264219 3.75919380591 13.7425362803 C 3.76543487474 13.7790461387 3.77167594358 13.8151446653 3.77791701242 13.8508065057 C 3.78415808125 13.8864683461 3.79039915009 13.9216908707 3.79664021892 13.9564495673 C 3.80288128776 13.991208264 3.8091223566 14.0255003399 3.81536342543 14.0593021633 C 3.82160449427 14.0931039866 3.8278455631 14.1264126056 3.83408663194 14.1592053052 C 3.84032770078 14.1919980047 3.84656876961 14.2242716787 3.85280983845 14.2560045638 C 3.85905090728 14.2877374489 3.86529197612 14.3189262896 3.87153304496 14.3495503079 C 3.87777411379 14.3801743262 3.88401518263 14.4102301222 3.89025625146 14.4396979355 C 3.8964973203 14.4691657488 3.90273838914 14.4980420402 3.90897945797 14.5263080974 C 3.91522052681 14.5545741547 3.92146159564 14.5822263047 3.92770266448 14.6092469126 C 3.93394373332 14.6362675204 3.94018480215 14.6626527848 3.94642587099 14.6883861751 C 3.95266693982 14.7141195653 3.95890800866 14.739197158 3.9651490775 14.7636035523 C 3.97139014633 14.7880099465 3.97763121517 14.8117411028 3.98387228401 14.834782774 C 3.99011335284 14.8578244452 3.99635442168 14.8801724817 4.00259549051 14.9018138122 C 4.00883655935 14.9234551427 4.01507762819 14.9443855141 4.02131869702 14.964593051 C 4.02755976586 14.9848005879 4.03380083469 15.0042809403 4.04004190353 15.0230234469 C 4.04628297237 15.0417659536 4.0525240412 15.0597661745 4.05876511004 15.077014679 C 4.06500617887 15.0942631835 4.07124724771 15.1107554482 4.07748831655 15.126483288 C 4.08372938538 15.1422111278 4.08997045422 15.1571699429 4.09621152305 15.1713528061 C 4.10245259189 15.1855356693 4.10869366073 15.1989379115 4.11493472956 15.2115538743 C 4.1211757984 15.2241698371 4.12741686723 15.2359947895 4.13365793607 15.2470243504 C 4.13989900491 15.2580539112 4.14614007374 15.2682832948 4.15238114258 15.2777094043 C 4.15862221141 15.2871355138 4.16486328025 15.2957535162 4.17110434909 15.3035616036 C 4.17734541792 15.311369691 4.18358648676 15.3183629906 4.18982755559 15.3245409862 C 4.19606862443 15.3307189818 4.20230969327 15.3360767683 4.2085507621 15.3406151223 C 4.21479183094 15.3451534762 4.22103289977 15.3488674678 4.22727396861 15.3517591647 C 4.23351503745 15.3546508617 4.23975610628 15.3567153172 4.24599717512 15.3579558872 C 4.25223824395 15.3591964572 4.25847931279 15.3596081854 4.26472038163 15.3591957108 C 4.27096145046 15.3587832362 4.2772025193 15.3575416007 4.28344358814 15.3554767191 C 4.28968465697 15.3534118375 4.29592572581 15.3505187576 4.30216679464 15.3468046609 C 4.30840786348 15.3430905641 4.31464893232 15.3385505119 4.32089000115 15.3331929412 C 4.32713106999 15.3278353706 4.33337213882 15.3216553639 4.33961320766 15.314662601 C 4.3458542765 15.3076698381 4.35209534533 15.2998594301 4.35833641417 15.2912422843 C 4.364577483 15.2826251385 4.37081855184 15.2731964024 4.37705962068 15.2629681939 C 4.38330068951 15.2527399855 4.38954175835 15.2417074961 4.39578282718 15.2298840357 C 4.40202389602 15.2180605753 4.40826496486 15.2054413865 4.41450603369 15.1920409507 C 4.42074710253 15.1786405148 4.42698817136 15.1644541333 4.4332292402 15.1494974363 C 4.43947030904 15.1345407394 4.44571137787 15.1188090941 4.45195244671 15.1023192559 C 4.45819351554 15.0858294177 4.46443458438 15.0685768267 4.47067565322 15.050579337 C 4.47691672205 15.0325818474 4.48315779089 15.0138349794 4.48939885972 14.9943576586 C 4.49563992856 14.9748803379 4.5018809974 14.9546681716 4.50812206623 14.9337411276 C 4.51436313507 14.9128140835 4.5206042039 14.8911678628 4.52684527274 14.8688234442 C 4.53308634158 14.8464790257 4.53932741041 14.8234322109 4.54556847925 14.7997049577 C 4.55180954809 14.7759777044 4.55805061692 14.7515659211 4.56429168576 14.7264925104 C 4.57053275459 14.7014190998 4.57677382343 14.6756800835 4.58301489227 14.6492992736 C 4.5892559611 14.6229184638 4.59549702994 14.5958920015 4.60173809877 14.5682445716 C 4.60797916761 14.5405971417 4.61422023645 14.5123250107 4.62046130528 14.4834536979 C 4.62670237412 14.4545823851 4.63294344295 14.4251082881 4.63918451179 14.3950577213 C 4.64542558063 14.3650071545 4.65166664946 14.3343766522 4.6579077183 14.3031932833 C 4.66414878713 14.2720099144 4.67038985597 14.2402703552 4.67663092481 14.208002387 C 4.68287199364 14.1757344189 4.68911306248 14.1429348654 4.69535413131 14.1096321775 C 4.70159520015 14.0763294896 4.70783626899 14.042520643 4.71407733782 14.0082347143 C 4.72031840666 13.9739487856 4.72655947549 13.9391829073 4.73280054433 13.9039667365 C 4.73904161317 13.8687505658 4.745282682 13.8330813964 4.75152375084 13.7969894205 C 4.75776481967 13.7608974445 4.76400588851 13.7243801211 4.77024695735 13.6874681305 C 4.77648802618 13.6505561399 4.78272909502 13.6132471106 4.78897016385 13.5755721635 C 4.79521123269 13.5378972163 4.80145230153 13.499854153 4.80769337036 13.4614744869 C 4.8139344392 13.4230948208 4.82017550804 13.3843765299 4.82641657687 13.3453514717 C 4.83265764571 13.3063264135 4.83889871454 13.2669927454 4.84513978338 13.2273826196 C 4.85138085222 13.1877724938 4.85762192105 13.1478842501 4.86386298989 13.1077502856 C 4.87010405872 13.0676163211 4.87634512756 13.0272351606 4.8825861964 12.9866393961 C 4.88882726523 12.9460436315 4.89506833407 12.9052319749 4.9013094029 12.8642371628 C 4.90755047174 12.8232423507 4.91379154058 12.7820632842 4.92003260941 12.7407327939 C 4.92627367825 12.6994023035 4.93251474708 12.6579194814 4.93875581592 12.616317201 C 4.94499688476 12.5747149206 4.95123795359 12.5329924665 4.95747902243 12.4911827044 C 4.96372009126 12.4493729424 4.9699611601 12.4074753503 4.97620222894 12.3655227357 C 4.98244329777 12.3235701211 4.98868436661 12.281562156 4.99492543544 12.2395315387 C 5.00116650428 12.1975009214 5.00740757312 12.1554475186 5.01364864195 12.1134038691 C 5.01988971079 12.0713602196 5.02613077962 12.0293263849 5.03237184846 11.9873346938 C 5.0386129173 11.9453430026 5.04485398613 11.9033937116 5.05109505497 11.8615188891 C 5.0573361238 11.8196440666 5.06357719264 11.7778441638 5.06981826148 11.7361509397 C 5.07605933031 11.6944577155 5.08230039915 11.6528718149 5.08854146798 11.611424638 C 5.09478253682 11.5699774611 5.10102360566 11.5286698456 5.10726467449 11.4875327846 C 5.11350574333 11.4463957235 5.11974681217 11.405430246 5.125987881 11.3646668901 C 5.13222894984 11.3239035341 5.13847001867 11.2833435186 5.14471108751 11.2430168793 C 5.15095215635 11.20269024 5.15719322518 11.1625983837 5.16343429402 11.1227707975 C 5.16967536285 11.0829432112 5.17591643169 11.0433814877 5.18215750053 11.0041145197 C 5.18839856936 10.9648475516 5.1946396382 10.925877115 5.20088070703 10.8872314635 C 5.20712177587 10.848585812 5.21336284471 10.8102669023 5.21960391354 10.7723023055 C 5.22584498238 10.7343377086 5.23208605121 10.6967295588 5.23832712005 10.6595047019 C 5.24456818889 10.6222798449 5.25080925772 10.5854405893 5.25705032656 10.549013014 C 5.26329139539 10.5125854387 5.26953246423 10.4765720229 5.27577353307 10.4409980386 C 5.2820146019 10.4054240543 5.28825567074 10.3702921476 5.29449673957 10.3356267442 C 5.30073780841 10.3009613408 5.30697887725 10.2667652496 5.31321994608 10.2330620125 C 5.31946101492 10.1993587754 5.32570208375 10.1661513597 5.33194315259 10.1334623869 C 5.33818422143 10.1007734142 5.34442529026 10.0686060056 5.3506663591 10.0369818276 C 5.35690742793 10.0053576495 5.36314849677 9.97427997208 5.36938956561 9.94376947294 C 5.37563063444 9.91325897381 5.38187170328 9.88331906714 5.38811277212 9.85396940975 C 5.39435384095 9.82461975236 5.40059490979 9.79586389718 5.40683597862 9.76772044992 C 5.41307704746 9.73957700265 5.4193181163 9.71204964945 5.42555918513 9.68515591615 C 5.43180025397 9.65826218285 5.4380413228 9.63200588311 5.44428239164 9.6064034358 C 5.45052346048 9.5808009885 5.45676452931 9.55585632892 5.46300559815 9.5315847436 C 5.46924666698 9.50731315829 5.47548773582 9.48371869805 5.48172880466 9.46081549346 C 5.48796987349 9.43791228888 5.49421094233 9.41570450005 5.50045201116 9.39420507972 C 5.50669308 9.3727056594 5.51293414884 9.35191887052 5.51917521767 9.33185646803 C 5.52541628651 9.31179406553 5.53165735534 9.2924604086 5.53789842418 9.27386603618 C 5.54413949302 9.25527166376 5.55038056185 9.23742102453 5.55662163069 9.22032342516 C 5.56286269952 9.20322582578 5.56910376836 9.18688579759 5.5753448372 9.17131140055 C 5.58158590603 9.1557370035 5.58782697487 9.14093284458 5.5940680437 9.1269057246 C 5.60030911254 9.11287860462 5.60655018138 9.09963319906 5.61279125021 9.08717503912 C 5.61903231905 9.07471687917 5.62527338788 9.06305070159 5.63151445672 9.05218075937 C 5.63775552556 9.04131081714 5.64399659439 9.03124190099 5.65023766323 9.02197697912 C 5.65647873207 9.01271205725 5.6627198009 9.00425596695 5.66896086974 8.99661038706 C 5.67520193857 8.98896480716 5.68144300741 8.98213461404 5.68768407625 8.97612019457 C 5.69392514508 8.9701057751 5.70016621392 8.9649120372 5.70640728275 8.96053807518 C 5.71264835159 8.95616411317 5.71888942043 8.9526148589 5.72513048926 8.94988811556 C 5.7313715581 8.94716137222 5.73761262693 8.945262088 5.74385369577 8.9441867783 C 5.75009476461 8.9431114686 5.75633583344 8.94286509031 5.76257690228 8.94344287645 C 5.76881797111 8.9440206626 5.77505903995 8.94542757109 5.78130010879 8.94765755995 C 5.78754117762 8.94988754881 5.79378224646 8.95294556929 5.80002331529 8.95682431377 C 5.80626438413 8.96070305825 5.81250545297 8.96540746367 5.8187465218 8.97092896805 C 5.82498759064 8.97645047242 5.83122865947 8.98279399077 5.83746972831 8.98994971996 C 5.84371079715 8.99710544915 5.84995186598 9.00507827469 5.85619293482 9.01385716745 C 5.86243400365 9.02263606021 5.86867507249 9.03222586862 5.87491614133 9.04261435463 C 5.88115721016 9.05300284064 5.887398279 9.0641948081 5.89363934783 9.07617682895 C 5.89988041667 9.08815884981 5.90612148551 9.10093567591 5.91236255434 9.11449270993 C 5.91860362318 9.12804974394 5.92484469202 9.1423916784 5.93108576085 9.15750276927 C 5.93732682969 9.17261386014 5.94356789852 9.18849873334 5.94980896736 9.20514052251 C 5.9560500362 9.22178231167 5.96229110503 9.23918556896 5.96853217387 9.25733233172 C 5.9747732427 9.27547909448 5.98101431154 9.29437383409 5.98725538038 9.31399751938 C 5.99349644921 9.33362120466 5.99973751805 9.35397821931 6.00597858688 9.37504849305 C 6.01221965572 9.39611876679 6.01846072456 9.41790658882 6.02470179339 9.44039088081 C 6.03094286223 9.4628751728 6.03718393106 9.48606012285 6.0434249999 9.50992367711 C 6.04966606874 9.53378723138 6.05590713757 9.5583334704 6.06214820641 9.58353939892 C 6.06838927524 9.60874532744 6.07463034408 9.63461491212 6.08087141292 9.66112425185 C 6.08711248175 9.68763359158 6.09335355059 9.71478653299 6.09959461942 9.74255830608 C 6.10583568826 9.77033007917 6.1120767571 9.7987244046 6.11831782593 9.82771568175 C 6.12455889477 9.85670695889 6.1307999636 9.8862987767 6.13704103244 9.9164647435 C 6.14328210128 9.9466307103 6.14952317011 9.97737427779 6.15576423895 10.008668304 C 6.16200530778 10.0399623303 6.16824637662 10.0718101243 6.17448744546 10.104183836 C 6.18072851429 10.1365575477 6.18696958313 10.1694603385 6.19321065196 10.2028636927 C 6.1994517208 10.2362670469 6.20569278964 10.2701739735 6.21193385847 10.3045553358 C 6.21817492731 10.338936698 6.22441599615 10.3737953475 6.23065706498 10.4091015714 C 6.23689813382 10.4444077953 6.24313920265 10.4801642835 6.24938027149 10.5163407931 C 6.25562134033 10.5525173027 6.26186240916 10.5891163578 6.268103478 10.6261072318 C 6.27434454683 10.6630981058 6.28058561567 10.7004831532 6.28682668451 10.7382312116 C 6.29306775334 10.77597927 6.29930882218 10.8140925204 6.30554989101 10.8525394125 C 6.31179095985 10.8909863047 6.31803202869 10.929768843 6.32427309752 10.9688551383 C 6.33051416636 11.0079414335 6.33675523519 11.0473333101 6.34299630403 11.0869985891 C 6.34923737287 11.1266638682 6.3554784417 11.1666041916 6.36171951054 11.2067871404 C 6.36796057937 11.2469700891 6.37420164821 11.2873971199 6.38044271705 11.3280356241 C 6.38668378588 11.3686741282 6.39292485472 11.4095253748 6.39916592355 11.4505566157 C 6.40540699239 11.4915878566 6.41164806123 11.5328001715 6.41788913006 11.5741607236 C 6.4241301989 11.6155212756 6.43037126773 11.6570309534 6.43661233657 11.6986568819 C 6.44285340541 11.7402828104 6.44909447424 11.7820256858 6.45533554308 11.8238526458 C 6.46157661191 11.8656796059 6.46781768075 11.9075911532 6.47405874959 11.9495544892 C 6.48029981842 11.9915178251 6.48654088726 12.033533258 6.4927819561 12.0755681033 C 6.49902302493 12.1176029486 6.50526409377 12.1596573201 6.5115051626 12.2016986978 C 6.51774623144 12.2437400756 6.52398730028 12.2857683784 6.53022836911 12.3277513014 C 6.53646943795 12.3697342245 6.54271050678 12.4116714917 6.54895157562 12.4535310633 C 6.55519264446 12.495390635 6.56143371329 12.5371720405 6.56767478213 12.5788435546 C 6.57391585096 12.6205150687 6.5801569198 12.6620760273 6.58639798864 12.7034950685 C 6.59263905747 12.7449141098 6.59888012631 12.7861903769 6.60512119514 12.8272929202 C 6.61136226398 12.8683954635 6.61760333282 12.9093232348 6.62384440165 12.9500457442 C 6.63008547049 12.9907682536 6.63632653932 13.0312842634 6.64256760816 13.0715637906 C 6.648808677 13.1118433178 6.65504974583 13.1518849368 6.66129081467 13.1916592181 C 6.6675318835 13.2314334994 6.67377295234 13.2709388318 6.68001402118 13.3101463845 C 6.68625509001 13.3493539372 6.69249615885 13.3882619161 6.69873722768 13.4268421336 C 6.70497829652 13.4654223512 6.71121936536 13.503672833 6.71746043419 13.5415660785 C 6.72370150303 13.5794593241 6.72994257186 13.6169931816 6.7361836407 13.6541408801 C 6.74242470954 13.6912885786 6.74866577837 13.7280477925 6.75490684721 13.7643925215 C 6.76114791605 13.8007372505 6.76738898488 13.8366649987 6.77363005372 13.8721505769 C 6.77987112255 13.9076361551 6.78611219139 13.9426769009 6.79235326023 13.9772484751 C 6.79859432906 14.0118200493 6.8048353979 14.0459196271 6.81107646673 14.0795237569 C 6.81731753557 14.1131278868 6.82355860441 14.1462335858 6.82979967324 14.1788183263 C 6.83604074208 14.2114030669 6.84228181091 14.2434637127 6.84852287975 14.2749786949 C 6.85476394859 14.3064936771 6.86100501742 14.3374597107 6.86724608626 14.3678562189 C 6.87348715509 14.3982527272 6.87972822393 14.4280762817 6.88596929277 14.4573073294 C 6.8922103616 14.4865383772 6.89845143044 14.5151733516 6.90469249927 14.5431937538 C 6.91093356811 14.571214156 6.91717463695 14.5986162867 6.92341570578 14.6253827297 C 6.92965677462 14.6521491727 6.93589784345 14.6782761019 6.94213891229 14.7037472104 C 6.94837998113 14.729218319 6.95462104996 14.7540296598 6.9608621188 14.7781660609 C 6.96710318763 14.8023024621 6.97334425647 14.8257598615 6.97958532531 14.8485242454 C 6.98582639414 14.8712886293 6.99206746298 14.8933558271 6.99830853181 14.9147130049 C 7.00454960065 14.9360701827 7.01079066949 14.9567130676 7.01703173832 14.9766300256 C 7.02327280716 14.9965469836 7.029513876 15.0157336461 7.03575494483 15.0341795968 C 7.04199601367 15.0526255475 7.0482370825 15.0703263291 7.05447815134 15.0872727591 C 7.06071922018 15.104219189 7.06696028901 15.120406728 7.07320135785 15.1358274415 C 7.07944242668 15.151248155 7.08568349552 15.1658974289 7.09192456436 15.1797685888 C 7.09816563319 15.1936397488 7.10440670203 15.2067281129 7.11064777086 15.2190282773 C 7.1168888397 15.2313284418 7.12312990854 15.2428356642 7.12937097737 15.2535458198 C 7.13561204621 15.2642559754 7.14185311504 15.2741642684 7.14809418388 15.2832678594 C 7.15433525272 15.2923714504 7.16057632155 15.3006654978 7.16681739039 15.308148452 C 7.17305845922 15.3156314063 7.17929952806 15.3222983873 7.1855405969 15.3281491377 C 7.19178166573 15.333999888 7.19802273457 15.339029497 7.2042638034 15.3432389995 C 7.21050487224 15.3474485019 7.21674594108 15.350832964 7.22298700991 15.3533947116 C 7.22922807875 15.3559564592 7.23546914758 15.3576905428 7.24171021642 15.3586005755 C 7.24795128526 15.3595106083 7.25419235409 15.3595916329 7.26043342293 15.3588485441 C 7.26667449176 15.3581054553 7.2729155606 15.3565332956 7.27915662944 15.354138234 C 7.28539769827 15.3517431723 7.29163876711 15.3485202586 7.29787983594 15.3444769263 C 7.30412090478 15.340433594 7.31036197362 15.3355649082 7.31660304245 15.3298795554 C 7.32284411129 15.3241942027 7.32908518013 15.3176872707 7.33532624896 15.3103686858 C 7.3415673178 15.303050101 7.34780838663 15.2949149812 7.35404945547 15.2859744772 C 7.36029052431 15.2770339732 7.36653159314 15.2672832408 7.37277266198 15.2567346378 C 7.37901373081 15.2461860348 7.38525479965 15.2348347623 7.39149586849 15.2226943663 C 7.39773693732 15.2105539702 7.40397800616 15.1976197044 7.41021907499 15.1839062817 C 7.41646014383 15.1701928591 7.42270121267 15.1556955935 7.4289422815 15.1404303423 C 7.43518335034 15.1251650911 7.44142441917 15.1091272355 7.44766548801 15.0923337527 C 7.45390655685 15.0755402698 7.46014762568 15.0579866154 7.46638869452 15.03969086 C 7.47262976335 15.0213951047 7.47887083219 15.0023527856 7.48511190103 14.9825830392 C 7.49135296986 14.9628132927 7.4975940387 14.9423117444 7.50383510753 14.9210985667 C 7.51007617637 14.899885389 7.51631724521 14.8779563026 7.52255831404 14.8553324847 C 7.52879938288 14.8327086669 7.53504045171 14.80938594 7.54128152055 14.7853864536 C 7.54752258939 14.7613869673 7.55376365822 14.736706652 7.56000472706 14.7113685953 C 7.56624579589 14.6860305386 7.57248686473 14.6600307856 7.57872793357 14.6333933258 C 7.5849690024 14.606755866 7.59121007124 14.5794768652 7.59745114008 14.5515811783 C 7.60369220891 14.5236854913 7.60993327775 14.4951694105 7.61617434658 14.4660586172 C 7.62241541542 14.4369478239 7.62865648426 14.4072387428 7.63489755309 14.3769578423 C 7.64113862193 14.3466769419 7.64737969076 14.3158207844 7.6536207596 14.2844165847 C 7.65986182844 14.253012385 7.66610289727 14.2210568484 7.67234396611 14.1885778936 C 7.67858503494 14.1560989388 7.68482610378 14.1230934196 7.69106717262 14.0895899154 C 7.69730824145 14.0560864112 7.70354931029 14.0220819288 7.70979037912 13.9876056646 C 7.71603144796 13.9531294004 7.7222725168 13.9181785187 7.72851358563 13.8827827874 C 7.73475465447 13.8473870562 7.7409957233 13.8115438018 7.74723679214 13.7752833179 C 7.75347786098 13.7390228339 7.75971892981 13.7023426131 7.76595999865 13.6652734275 C 7.77220106748 13.6282042419 7.77844213632 13.5907437544 7.78468320516 13.5529231683 C 7.79092427399 13.5151025823 7.79716534283 13.4769197341 7.80340641166 13.4384062102 C 7.8096474805 13.3998926863 7.81588854934 13.3610465002 7.82212961817 13.3218995722 C 7.82837068701 13.2827526442 7.83461175584 13.2433031681 7.84085282468 13.203583349 C 7.84709389352 13.1638635298 7.85333496235 13.1238717443 7.85957603119 13.0836404325 C 7.86581710002 13.0434091206 7.87205816886 13.0029368445 7.8782992377 12.9622562291 C 7.88454030653 12.9215756137 7.89078137537 12.8806854087 7.89702244421 12.8396183733 C 7.90326351304 12.798551338 7.90950458188 12.7573064116 7.91574565071 12.7159164374 C 7.92198671955 12.6745264631 7.92822778839 12.6329905713 7.93446885722 12.5913416383 C 7.94070992606 12.5496927052 7.94695099489 12.5079300538 7.95319206373 12.4660865424 C 7.95943313257 12.4242430311 7.9656742014 12.3823181763 7.97191527024 12.3403447679 C 7.97815633907 12.2983713594 7.98439740791 12.2563491082 7.99063847675 12.2143106848 C 7.99687954558 12.1722722613 8.00312061442 12.1302175712 8.00936168325 12.0881791152 C 8.01560275209 12.0461406593 8.02184382093 12.0041185381 8.02808488976 11.9621450321 C 8.0343259586 11.9201715262 8.04056702743 11.8782469312 8.04680809627 11.8364032576 C 8.05304916511 11.7945595839 8.05929023394 11.7527973216 8.06553130278 11.7111481617 C 8.07177237161 11.6694990019 8.07801344045 11.6279636279 8.08425450929 11.5865733626 C 8.09049557812 11.5451830974 8.09673664696 11.5039388167 8.10297771579 11.4628714267 C 8.10921878463 11.4218040366 8.11545985347 11.3809146042 8.1217009223 11.3402335709 C 8.12794199114 11.2995525375 8.13418305998 11.2590811599 8.14042412881 11.2188493675 C 8.14666519765 11.1786175752 8.15290626648 11.1386268125 8.15914733532 11.098906451 C 8.16538840416 11.0591860896 8.17162947299 11.019737759 8.17787054183 10.9805902278 C 8.18411161066 10.9414426966 8.1903526795 10.902597777 8.19659374834 10.8640835898 C 8.20283481717 10.8255694026 8.20907588601 10.7873879401 8.21531695484 10.7495666317 C 8.22155802368 10.7117453233 8.22779909252 10.6742863383 8.23404016135 10.6372163725 C 8.24028123019 10.6001464067 8.24652229902 10.563467803 8.25276336786 10.5272064821 C 8.2590044367 10.4909451612 8.26524550553 10.4551036361 8.27148657437 10.4197070126 C 8.2777276432 10.384310389 8.28396871204 10.349361346 8.29020978088 10.3148841354 C 8.29645084971 10.2804069248 8.30269191855 10.2464043877 8.30893298738 10.2128998846 C 8.31517405622 10.1793953816 8.32141512506 10.1463919111 8.32765619389 10.1139119064 C 8.33389726273 10.0814319017 8.34013833156 10.0494785143 8.3463794004 10.0180732153 C 8.35262046924 9.98666791626 8.35886153807 9.95581400509 8.36510260691 9.92553195767 C 8.37134367574 9.89524991025 8.37758474458 9.86554316897 8.38382581342 9.83643118281 C 8.39006688225 9.80731919665 8.39630795109 9.77880554562 8.40254901992 9.75090862171 C 8.40879008876 9.7230116978 8.4150311576 9.69573521312 8.42127222643 9.66909647422 C 8.42751329527 9.64245773532 8.43375436411 9.61646058068 8.43999543294 9.59112120466 C 8.44623650178 9.56578182865 8.45247757061 9.54110419015 8.45871863945 9.51710334635 C 8.46495970829 9.49310250256 8.47120077712 9.46978252663 8.47744184596 9.44715731529 C 8.48368291479 9.42453210395 8.48992398363 9.40260583837 8.49616505247 9.38139123329 C 8.5024061213 9.36017662821 8.50864719014 9.33967796635 8.51488825897 9.31990676084 C 8.52112932781 9.30013555533 8.52737039665 9.28109618379 8.53361146548 9.26279893996 C 8.53985253432 9.24450169613 8.54609360315 9.22695104578 8.55233467199 9.21015604731 C 8.55857574083 9.19336104884 8.56481680966 9.17732624927 8.5710578785 9.16205945769 C 8.57729894733 9.1467926661 8.58354001617 9.13229850374 8.58978108501 9.11858351828 C 8.59602215384 9.10486853282 8.60226322268 9.09193741258 8.60850429151 9.07979543371 C 8.61474536035 9.06765345485 8.62098642919 9.05630536552 8.62722749802 9.04575516219 C 8.63346856686 9.03520495887 8.63970963569 9.0254574422 8.64595070453 9.0165153228 C 8.65219177337 9.0075732034 8.6584328422 8.99944132699 8.66467391104 8.99212111415 C 8.67091497987 8.98480090131 8.67715604871 8.97829723533 8.68339711755 8.97261024455 C 8.68963818638 8.96692325378 8.69587925522 8.96205785152 8.70212032406 8.95801287369 C 8.70836139289 8.95396789587 8.71460246173 8.95074827822 8.72084353056 8.94835156603 C 8.7270845994 8.94595485384 8.73332566824 8.94438599765 8.73956673707 8.9436412559 C 8.74580780591 8.94289651415 8.75204887474 8.94298084455 8.75828994358 8.94388922446 C 8.76453101242 8.94479760437 8.77077208125 8.94653499099 8.77701315009 8.9490950884 C 8.78325421892 8.9516551858 8.78949528776 8.95504294301 8.7957363566 8.95925080054 C 8.80197742543 8.96345865807 8.80821849427 8.96849154912 8.8144595631 8.97434066231 C 8.82070063194 8.98018977551 8.82694170078 8.98686002059 8.83318276961 8.99434134796 C 8.83942383845 9.00182267532 8.84566490728 9.01011996366 8.85190597612 9.01922194064 C 8.85814704496 9.02832391762 8.86438811379 9.03823542335 8.87062918263 9.04894398021 C 8.87687025146 9.05965253706 8.8831113203 9.0711629391 8.88935238914 9.08346152266 C 8.89559345797 9.09576010623 8.90183452681 9.1088516119 8.90807559564 9.12272121116 C 8.91431666448 9.13659081041 8.92055773332 9.15124318302 8.92679880215 9.1666623585 C 8.93303987099 9.18208153397 8.93928093982 9.19827212404 8.94552200866 9.21521704094 C 8.9517630775 9.23216195784 8.95800414633 9.24986573813 8.96424521517 9.26831020318 C 8.97048628401 9.28675466824 8.97672735284 9.30594427244 8.98296842168 9.3258597744 C 8.98920949051 9.34577527636 8.99545055935 9.36642104139 9.00169162819 9.38777679509 C 9.00793269702 9.40913254878 9.01417376586 9.43120256065 9.02041483469 9.45396555459 C 9.02665590353 9.47672854854 9.03289697237 9.50018869166 9.0391380412 9.52432373906 C 9.04537911004 9.54845878646 9.05162017887 9.5732727964 9.05786124771 9.59874258957 C 9.06410231655 9.62421238273 9.07034338538 9.65034190226 9.07658445422 9.67710707027 C 9.08282552305 9.70387223828 9.08906659189 9.73127687667 9.09530766073 9.75929604621 C 9.10154872956 9.78731521575 9.1077897984 9.81595261122 9.11403086723 9.84518247057 C 9.12027193607 9.87441232992 9.12651300491 9.90423821509 9.13275407374 9.93463358105 C 9.13899514258 9.96502894701 9.14523621141 9.99599721736 9.15147728025 10.0275111051 C 9.15771834909 10.0590249929 9.16395941792 10.091087778 9.17020048676 10.1236714737 C 9.17644155559 10.1562551694 9.18268262443 10.1893629069 9.18892369327 10.2229660431 C 9.1951647621 10.2565691792 9.20140583094 10.2906706917 9.20764689977 10.3252413249 C 9.21388796861 10.3598119581 9.22012903745 10.3948545317 9.22637010628 10.4303392231 C 9.23261117512 10.4658239145 9.23885224395 10.5017533808 9.24509331279 10.5380972785 C 9.25133438163 10.5744411762 9.25757545046 10.6112019959 9.2638165193 10.6483489199 C 9.27005758814 10.685495844 9.27629865697 10.7230311924 9.28253972581 10.7609237215 C 9.28878079464 10.7988162505 9.29502186348 10.8370681061 9.30126293232 10.8756476664 C 9.30750400115 10.9142272266 9.31374506999 10.95313646 9.31998613882 10.9923434155 C 9.32622720766 11.031550371 9.3324682765 11.0710568368 9.33870934533 11.1108305819 C 9.34495041417 11.150604327 9.351191483 11.1906469565 9.35743255184 11.2309260094 C 9.36367362068 11.2712050623 9.36991468951 11.311721958 9.37615575835 11.3524440558 C 9.38239682718 11.3931661536 9.38863789602 11.4340946849 9.39487896486 11.4751968798 C 9.40112003369 11.5162990747 9.40736110253 11.5575759748 9.41360217136 11.5989947315 C 9.4198432402 11.6404134881 9.42608430904 11.6819749516 9.43232537787 11.7236462454 C 9.43856644671 11.7653175392 9.44480751554 11.8070993208 9.45104858438 11.8489587367 C 9.45728965322 11.8908181525 9.46353072205 11.9327556665 9.46977179089 11.9747384986 C 9.47601285972 12.0167213307 9.48225392856 12.0587497504 9.4884949974 12.1007911022 C 9.49473606623 12.1428324539 9.50097713507 12.1848868124 9.5072182039 12.2269216967 C 9.51345927274 12.268956581 9.51970034158 12.310971871 9.52594141041 12.3529353108 C 9.53218247925 12.3948987507 9.53842354809 12.4368100254 9.54466461692 12.4786371542 C 9.55090568576 12.5204642829 9.55714675459 12.5622067564 9.56338782343 12.6038329181 C 9.56962889227 12.6454590798 9.5758699611 12.686968227 9.58211102994 12.7283290764 C 9.58835209877 12.7696899259 9.59459316761 12.8109015823 9.60083423645 12.8519331843 C 9.60707530528 12.8929647863 9.61331637412 12.9338152476 9.61955744295 12.9744541759 C 9.62579851179 13.0150931043 9.63203958063 13.0555192242 9.63828064946 13.0957026596 C 9.6445217183 13.1358860951 9.65076278713 13.1758253833 9.65700385597 13.2154912109 C 9.66324492481 13.2551570384 9.66948599364 13.2945477572 9.67572706248 13.3336346617 C 9.68196813131 13.3727215663 9.68820920015 13.411502826 9.69445026899 13.4499503875 C 9.70069133782 13.4883979489 9.70693240666 13.5265098018 9.71317347549 13.5642585884 C 9.71941454433 13.6020073749 9.72565561317 13.6393909082 9.731896682 13.6763825682 C 9.73813775084 13.7133742282 9.74437881967 13.7499716548 9.75061988851 13.7861490069 C 9.75686095735 13.822326359 9.76310202618 13.8580811069 9.76934309502 13.8933882286 C 9.77558416385 13.9286953503 9.78182523269 13.9635521503 9.78806630153 13.9979344642 C 9.79430737036 14.0323167781 9.8005484392 14.066221749 9.80678950804 14.0996261073 C 9.81303057687 14.1330304656 9.81927164571 14.1659311973 9.82551271454 14.198305964 C 9.83175378338 14.2306807306 9.83799485222 14.2625263656 9.84423592105 14.293821496 C 9.85047698989 14.3251166263 9.85671805872 14.355857938 9.86295912756 14.3860250565 C 9.8692001964 14.4161921749 9.87544126523 14.4457816437 9.88168233407 14.4747741183 C 9.8879234029 14.5037665928 9.89416447174 14.5321584796 9.90040554058 14.5599314939 C 9.90664660941 14.5877045083 9.91288767825 14.6148549252 9.91912874708 14.6413655482 C 9.92536981592 14.6678761711 9.93161088476 14.6937431493 9.93785195359 14.7189504011 C 9.94409302243 14.7441576528 9.95033409126 14.7687012075 9.9565751601 14.7925661229 C 9.96281622894 14.8164310383 9.96905729777 14.8396132302 9.97529836661 14.8620989192 C 9.98153943544 14.8845846082 9.98778050428 14.9063696026 9.99402157312 14.927441307 C 10.000262642 14.9485130113 10.0065037108 14.9688671332 10.0127447796 14.9884922806 C 10.0189858485 15.008117428 10.0252269173 15.0270092142 10.0314679861 15.0451574683 C 10.037709055 15.0633057224 10.0439501238 15.0807059701 10.0501911926 15.0973492775 C 10.0564322615 15.1139925849 10.0626733303 15.1298743971 10.0689143991 15.1449870307 C 10.075155468 15.1600996644 10.0813965368 15.1744384911 10.0876376057 15.1879970901 C 10.0938786745 15.201555689 10.1001197433 15.2143293655 10.1063608122 15.226312971 C 10.112601881 15.2382965766 10.1188429498 15.2494853574 10.1250840187 15.2598754454 C 10.1313250875 15.2702655334 10.1375661563 15.279852123 10.1438072252 15.2886326326 C 10.150048294 15.2974131421 10.1562893629 15.3053827217 10.1625304317 15.31254008 C 10.1687715005 15.3196974383 10.1750125694 15.3260376887 10.1812536382 15.331560832 C 10.187494707 15.3370839752 10.1937357759 15.3417850956 10.1999768447 15.3456654862 C 10.2062179135 15.3495458769 10.2124589824 15.3526006003 10.2187000512 15.3548322401 C 10.2249411201 15.3570638798 10.2311821889 15.3584674843 10.2374232577 15.3590469235 C 10.2436643266 15.3596263628 10.2499053954 15.3593766787 10.2561464642 15.3583030217 C 10.2623875331 15.3572293647 10.2686286019 15.355326778 10.2748696707 15.3526016844 C 10.2811107396 15.3498765908 10.2873518084 15.3463240426 10.2935928772 15.3419517248 C 10.2998339461 15.3375794071 10.3060750149 15.3323823887 10.3123160838 15.3263696054 C 10.3185571526 15.3203568222 10.3247982214 15.3135233672 10.3310392903 15.3058794129 C 10.3372803591 15.2982354587 10.3435214279 15.2897761301 10.3497624968 15.2805128209 C 10.3560035656 15.2712495116 10.3622446344 15.2611773858 10.3684857033 15.2503090406 C 10.3747267721 15.2394406954 10.380967841 15.2277713418 10.3872089098 15.2153147609 C 10.3934499786 15.2028581799 10.3996910475 15.1896096369 10.4059321163 15.1755840754 C 10.4121731851 15.161558514 10.418414254 15.1467512609 10.4246553228 15.1311783995 C 10.4308963916 15.1156055381 10.4371374605 15.0992624638 10.4433785293 15.0821663748 C 10.4496195981 15.0650702859 10.455860667 15.0472166534 10.4621017358 15.0286237638 C 10.4683428047 15.0100308742 10.4745838735 14.9906942816 10.4808249423 14.970633332 C 10.4870660112 14.9505723824 10.49330708 14.9297827198 10.4995481488 14.9082847203 C 10.5057892177 14.8867867207 10.5120302865 14.8645761247 10.5182713553 14.8416743065 C 10.5245124242 14.8187724884 10.530753493 14.7951752917 10.5369945619 14.7709050564 C 10.5432356307 14.7466348211 10.5494766995 14.7216875001 10.5557177684 14.6960863642 C 10.5619588372 14.6704852283 10.568199906 14.6442263463 10.5744409749 14.6173338839 C 10.5806820437 14.5904414214 10.5869231125 14.562911569 10.5931641814 14.5347693501 C 10.5994052502 14.5066271311 10.605646319 14.4778688638 10.6118873879 14.4485203903 C 10.6181284567 14.4191719167 10.6243695256 14.3892296886 10.6306105944 14.3587203271 C 10.6368516632 14.3282109655 10.6430927321 14.297131061 10.6493338009 14.2655079724 C 10.6555748697 14.2338848839 10.6618159386 14.201715346 10.6680570074 14.1690274131 C 10.6742980762 14.1363394802 10.6805391451 14.1031300361 10.6867802139 14.0694277875 C 10.6930212828 14.0357255389 10.6992623516 14.0015275236 10.7055034204 13.9668630558 C 10.7117444893 13.932198588 10.7179855581 13.8970648643 10.7242266269 13.8614917614 C 10.7304676958 13.8259186584 10.7367087646 13.7899035357 10.7429498334 13.753476786 C 10.7491909023 13.7170500364 10.7554319711 13.6802091864 10.7616730399 13.6429850981 C 10.7679141088 13.6057610099 10.7741551776 13.5681513808 10.7803962465 13.5301874945 C 10.7866373153 13.4922236083 10.7928783841 13.4539033366 10.799119453 13.4152583365 C 10.8053605218 13.3766133364 10.8116015906 13.3376416573 10.8178426595 13.2983752803 C 10.8240837283 13.2591089034 10.8303247971 13.2195460588 10.836565866 13.1797190025 C 10.8428069348 13.1398919463 10.8490480037 13.099799092 10.8552890725 13.0594729207 C 10.8615301413 13.0191467494 10.8677712102 12.9785858605 10.874012279 12.9378229099 C 10.8802533478 12.8970599593 10.8864944167 12.8560937344 10.8927354855 12.8149570154 C 10.8989765543 12.7738202964 10.9052176232 12.7325120607 10.911458692 12.691065162 C 10.9176997609 12.6496182633 10.9239408297 12.6080318705 10.9301818985 12.5663388603 C 10.9364229674 12.5246458501 10.9426640362 12.4828455841 10.948905105 12.4409709109 C 10.9551461739 12.3990962377 10.9613872427 12.3571467129 10.9676283115 12.3151551062 C 10.9738693804 12.2731634995 10.9801104492 12.2311295609 10.986351518 12.1890859309 C 10.9925925869 12.1470423009 10.9988336557 12.1049889241 11.0050747246 12.0629582613 C 11.0113157934 12.0209275985 11.0175568622 11.9789197893 11.0237979311 11.9369670643 C 11.0300389999 11.8950143392 11.0362800687 11.8531170328 11.0425211376 11.8113070956 C 11.0487622064 11.7694971584 11.0550032752 11.7277751191 11.0612443441 11.686172599 C 11.0674854129 11.644570079 11.0737264818 11.6030878003 11.0799675506 11.5617570061 C 11.0862086194 11.520426212 11.0924496883 11.4792478168 11.0986907571 11.4382526372 C 11.1049318259 11.3972574577 11.1111728948 11.356446599 11.1174139636 11.3158504039 C 11.1236550324 11.2752542089 11.1298961013 11.2348739718 11.1361371701 11.1947395144 C 11.1423782389 11.1546050569 11.1486193078 11.1147178607 11.1548603766 11.0751071804 C 11.1611014455 11.0354965 11.1673425143 10.9961640018 11.1735835831 10.9571383283 C 11.179824652 10.9181126547 11.1860657208 10.8793956544 11.1923067896 10.8410153131 C 11.1985478585 10.8026349718 11.2047889273 10.7645933176 11.2110299961 10.7269176365 C 11.217271065 10.6892419554 11.2235121338 10.6519344518 11.2297532027 10.6150216695 C 11.2359942715 10.5781088872 11.2422353403 10.5415932036 11.2484764092 10.5055003795 C 11.254717478 10.4694075555 11.2609585468 10.4337401374 11.2671996157 10.3985230635 C 11.2734406845 10.3633059895 11.2796817533 10.3285419714 11.2859228222 10.2942550857 C 11.292163891 10.2599682 11.2984049598 10.2261613196 11.3046460287 10.1928576225 C 11.3108870975 10.1595539254 11.3171281664 10.126756441 11.3233692352 10.094487413 C 11.329610304 10.0622183849 11.3358513729 10.0304809946 11.3420924417 9.99929651669 C 11.3483335105 9.9681120388 11.3545745794 9.93748380182 11.3608156482 9.90743207873 C 11.367056717 9.87738035564 11.3732977859 9.8479086168 11.3795388547 9.81903610212 C 11.3857799236 9.79016358745 11.3920209924 9.76189390384 11.3982620612 9.73424522841 C 11.4045031301 9.70659655298 11.4107441989 9.67957262357 11.4169852677 9.65319052639 C 11.4232263366 9.62680842922 11.4294674054 9.60107202731 11.4357084742 9.57599728955 C 11.4419495431 9.55092255179 11.4481906119 9.52651346042 11.4544316808 9.50278484234 C 11.4606727496 9.47905622425 11.4669138184 9.45601217474 11.4731548873 9.43366635576 C 11.4793959561 9.41132053679 11.4856370249 9.38967715036 11.4918780938 9.36874867242 C 11.4981191626 9.34782019448 11.5043602314 9.32761092726 11.5106013003 9.30813214137 C 11.5168423691 9.28865335547 11.5230834379 9.26990944672 11.5293245068 9.25191046297 C 11.5355655756 9.23391147921 11.5418066445 9.21666190305 11.5480477133 9.20017054407 C 11.5542887821 9.1836791851 11.560529851 9.16795060574 11.5667709198 9.1529923637 C 11.5730119886 9.13803412165 11.5792530575 9.12385085216 11.5854941263 9.11044884935 C 11.5917351951 9.09704684653 11.597976264 9.08443081125 11.6042173328 9.07260576432 C 11.6104584017 9.0607807174 11.6166994705 9.04975141806 11.6229405393 9.03952160606 C 11.6291816082 9.02929179405 11.635422677 9.01986627963 11.6416637458 9.01124751568 C 11.6479048147 9.00262875173 11.6541458835 8.99482159207 11.6603869523 8.98782719897 C 11.6666280212 8.98083280586 11.67286909 8.9746560692 11.6791101588 8.96929685879 C 11.6853512277 8.96393764839 11.6915922965 8.95940088265 11.6978333654 8.95568513915 C 11.7040744342 8.95196939565 11.710315503 8.94907961372 11.7165565719 8.94701308089 C 11.7227976407 8.94494654806 11.7290387095 8.94370821693 11.7352797784 8.94329408918 C 11.7415208472 8.94287996144 11.747761916 8.94329499531 11.7540029849 8.94453391281 C 11.7602440537 8.94577283031 11.7664851226 8.94784058762 11.7727261914 8.95073063526 C 11.7789672602 8.9536206829 11.7852083291 8.95733796734 11.7914493979 8.96187467771 C 11.7976904667 8.96641138809 11.8039315356 8.97177245351 11.8101726044 8.97794881383 C 11.8164136732 8.98412517414 11.8226547421 8.99112173347 11.8288958109 8.99892819637 C 11.8351368797 9.00673465927 11.8413779486 9.01535589732 11.8476190174 9.02478039566 C 11.8538600863 9.034204894 11.8601011551 9.04443748413 11.8663422239 9.05546544963 C 11.8725832928 9.06649341513 11.8788243616 9.07832153993 11.8850654304 9.09093592567 C 11.8913064993 9.10355031141 11.8975475681 9.11695568709 11.9037886369 9.1311369939 C 11.9100297058 9.14531830071 11.9162707746 9.16028020539 11.9225118435 9.17600651196 C 11.9287529123 9.19173281852 11.9349939811 9.20822812425 11.94123505 9.22547512102 C 11.9474761188 9.24272211779 11.9537171876 9.2607253263 11.9599582565 9.27946635306 C 11.9661993253 9.29820737981 11.9724403941 9.31769066194 11.978681463 9.33789674901 C 11.9849225318 9.35810283608 11.9911636007 9.37903607478 11.9974046695 9.40067598781 C 12.0036457383 9.42231590084 12.0098868072 9.44466673775 12.016127876 9.467707026 C 12.0223689448 9.49074731425 12.0286100137 9.51448119969 12.0348510825 9.53888624773 C 12.0410921513 9.56329129578 12.0473332202 9.58837154216 12.053574289 9.61410362494 C 12.0598153578 9.63983570772 12.0660564267 9.66622354628 12.0722974955 9.69324288742 C 12.0785385644 9.72026222857 12.0847796332 9.74791686927 12.091020702 9.77618170258 C 12.0972617709 9.80444653589 12.1035028397 9.83332523048 12.1097439085 9.86279186448 C 12.1159849774 9.89225849849 12.1222260462 9.92231660661 12.128467115 9.9529394921 C 12.1347081839 9.9835623776 12.1409492527 10.0147534357 12.1471903216 10.0464852362 C 12.1534313904 10.0782170367 12.1596724592 10.1104928301 12.1659135281 10.1432844948 C 12.1721545969 10.1760761596 12.1783956657 10.2093867966 12.1846367346 10.2431876367 C 12.1908778034 10.2769884768 12.1971188722 10.3112824663 12.2033599411 10.3460402327 C 12.2096010099 10.3807979991 12.2158420787 10.4160223297 12.2220831476 10.4516832943 C 12.2283242164 10.4873442588 12.2345652853 10.5234444813 12.2408063541 10.5599535197 C 12.2470474229 10.5964625581 12.2532884918 10.633382869 12.2595295606 10.6706835459 C 12.2657706294 10.7079842229 12.2720116983 10.7456675512 12.2782527671 10.7837022077 C 12.2844938359 10.8217368642 12.2907349048 10.8601249596 12.2969759736 10.8988348021 C 12.3032170425 10.9375446446 12.3094581113 10.976578167 12.3156991801 11.0159033583 C 12.321940249 11.0552285496 12.3281813178 11.0948471615 12.3344223866 11.1347269131 C 12.3406634555 11.1746066647 12.3469045243 11.214749124 12.3531455931 11.2551217903 C 12.359386662 11.2954944565 12.3656277308 11.3360987115 12.3718687996 11.3769018848 C 12.3781098685 11.417705058 12.3843509373 11.4587083431 12.3905920062 11.4998789502 C 12.396833075 11.5410495574 12.4030741438 11.5823884901 12.4093152127 11.6238628901 C 12.4155562815 11.66533729 12.4217973503 11.7069479691 12.4280384192 11.7486620513 C 12.434279488 11.7903761334 12.4405205568 11.8321942375 12.4467616257 11.8740835206 C 12.4530026945 11.9159728037 12.4592437634 11.9579336909 12.4654848322 11.999933423 C 12.471725901 12.0419331551 12.4779669699 12.0839719627 12.4842080387 12.1260172211 C 12.4904491075 12.1680624794 12.4966901764 12.2101142242 12.5029312452 12.2521400158 C 12.509172314 12.2941658073 12.5154133829 12.3361654862 12.5216544517 12.3781068479 C 12.5278955206 12.4200482095 12.5341365894 12.4619309 12.5403776582 12.5037229993 C 12.5466187271 12.5455150986 12.5528597959 12.5872160587 12.5591008647 12.6287942939 C 12.5653419336 12.6703725291 12.5715830024 12.711827298 12.5778240712 12.7531273979 C 12.5840651401 12.7944274978 12.5903062089 12.8355719951 12.5965472777 12.8765301185 C 12.6027883466 12.9174882418 12.6090294154 12.9582588669 12.6152704843 12.9988117011 C 12.6215115531 13.0393645352 12.6277526219 13.0796982653 12.6339936908 13.1197831242 C 12.6402347596 13.1598679831 12.6464758284 13.1997024706 12.6527168973 13.2392573915 C 12.6589579661 13.2788123123 12.6651990349 13.3180859817 12.6714401038 13.3570498209 C 12.6776811726 13.3960136602 12.6839222415 13.4346658026 12.6901633103 13.4729783303 C 12.6964043791 13.5112908581 12.702645448 13.5492617254 12.7088865168 13.5868637186 C 12.7151275856 13.6244657118 12.7213686545 13.6616966091 12.7276097233 13.698529943 C 12.7338507921 13.7353632769 12.740091861 13.7717966531 12.7463329298 13.8078043911 C 12.7525739986 13.8438121291 12.7588150675 13.8793916658 12.7650561363 13.9145181476 C 12.7712972052 13.9496446294 12.777538274 13.9843153282 12.7837793428 14.0185062556 C 12.7900204117 14.052697183 12.7962614805 14.0864054503 12.8025025493 14.1196079713 C 12.8087436182 14.1528104924 12.814984687 14.1855042223 12.8212257558 14.2176670129 C 12.8274668247 14.2498298036 12.8337078935 14.2814584585 12.8399489624 14.3125318018 C 12.8461900312 14.3436051451 12.8524311 14.3741198339 12.8586721689 14.404055697 C 12.8649132377 14.4339915601 12.8711543065 14.4633451134 12.8773953754 14.4920972219 C 12.8836364442 14.5208493303 12.889877513 14.5489963737 12.8961185819 14.5765202828 C 12.9023596507 14.6040441918 12.9086007195 14.630941216 12.9148417884 14.6571943795 C 12.9210828572 14.683447543 12.9273239261 14.7090529707 12.9335649949 14.7339948068 C 12.9398060637 14.758936643 12.9460471326 14.7832108937 12.9522882014 14.8068028476 C 12.9585292702 14.8303948015 12.9647703391 14.8533003524 12.9710114079 14.8755059559 C 12.9772524767 14.8977115594 12.9834935456 14.9192130033 12.9897346144 14.9399979312 C 12.9959756833 14.9607828591 13.0022167521 14.9808469593 13.0084578209 15.0001790825 C 13.0146988898 15.0195112058 13.0209399586 15.0381069473 13.0271810274 15.0559563825 C 13.0334220963 15.0738058176 13.0396631651 15.0909044555 13.0459042339 15.1072436112 C 13.0521453028 15.1235827668 13.0583863716 15.1391578701 13.0646274405 15.1539614893 C 13.0708685093 15.1687651085 13.0771095781 15.1827926014 13.083350647 15.1960378009 C 13.0895917158 15.2092830004 13.0958327846 15.2217411995 13.1020738535 15.233407505 C 13.1083149223 15.2450738105 13.1145559911 15.2559434578 13.12079706 15.2660128357 C 13.1270381288 15.2760822136 13.1332791976 15.2853465071 13.1395202665 15.2938033922 C 13.1457613353 15.3022602773 13.1520024042 15.3099048962 13.158243473 15.316736216 C 13.1644845418 15.3235675358 13.1707256107 15.3295806633 13.1769666795 15.334775858 C 13.1832077483 15.3399710527 13.1894488172 15.3443433937 13.195689886 15.3478944326 C 13.2019309548 15.3514454714 13.2081720237 15.3541702672 13.2144130925 15.3560716612 C 13.2206541614 15.3579730551 13.2268952302 15.3590460938 13.233136299 15.3592949036 C 13.2393773679 15.3595437135 13.2456184367 15.3589633362 13.2518595055 15.3575591774 C 13.2581005744 15.3561550185 13.2643416432 15.3539221225 13.270582712 15.3508671655 C 13.2768237809 15.3478122085 13.2830648497 15.3439302454 13.2893059185 15.3392292125 C 13.2955469874 15.3345281797 13.3017880562 15.3290031501 13.3080291251 15.3226633082 C 13.3142701939 15.3163234663 13.3205112627 15.3091639108 13.3267523316 15.3011950599 C 13.3329934004 15.293226209 13.3392344692 15.2844431948 13.3454755381 15.2748576531 C 13.3517166069 15.2652721114 13.3579576757 15.2548792151 13.3641987446 15.2436917998 C 13.3704398134 15.2325043845 13.3766808823 15.2205176713 13.3829219511 15.2077456758 C 13.3891630199 15.1949736803 13.3954040888 15.1814116793 13.4016451576 15.1670748463 C 13.4078862264 15.1527380134 13.4141272953 15.1376216885 13.4203683641 15.1217421799 C 13.4266094329 15.1058626712 13.4328505018 15.089215389 13.4390915706 15.0718177511 C 13.4453326394 15.0544201132 13.4515737083 15.0362676069 13.4578147771 15.0173787328 C 13.464055846 14.9984898586 13.4702969148 14.9788601882 13.4765379836 14.958509276 C 13.4827790525 14.9381583639 13.4890201213 14.9170818726 13.4952611901 14.8953003807 C 13.501502259 14.8735188887 13.5077433278 14.8510281565 13.5139843966 14.8278497543 C 13.5202254655 14.8046713522 13.5264665343 14.7808011449 13.5327076032 14.7562616614 C 13.538948672 14.731722178 13.5451897408 14.7065093939 13.5514308097 14.6806467621 C 13.5576718785 14.6547841302 13.5639129473 14.6282677431 13.5701540162 14.6011219409 C 13.576395085 14.5739761388 13.5826361538 14.5461971373 13.5888772227 14.5178101266 C 13.5951182915 14.4894231159 13.6013593604 14.4604244405 13.6076004292 14.4308401016 C 13.613841498 14.4012557627 13.6200825669 14.3710822392 13.6263236357 14.3403463032 C 13.6325647045 14.3096103672 13.6388057734 14.2783086376 13.6450468422 14.2464686158 C 13.651287911 14.214628594 13.6575289799 14.1822470441 13.6637700487 14.1493521545 C 13.6700111175 14.1164572648 13.6762521864 14.0830459497 13.6824932552 14.0491470408 C 13.6887343241 14.0152481318 13.6949753929 13.9808586983 13.7012164617 13.9460081706 C 13.7074575306 13.911157643 13.7136985994 13.8758432499 13.7199396682 13.840094975 C 13.7261807371 13.8043467002 13.7324218059 13.7681619361 13.7386628747 13.7315711734 C 13.7449039436 13.6949804107 13.7511450124 13.6579812097 13.7573860813 13.6206045207 C 13.7636271501 13.5832278318 13.7698682189 13.5454713868 13.7761092878 13.507366548 C 13.7823503566 13.4692617092 13.7885914254 13.4308063837 13.7948324943 13.3920322972 C 13.8010735631 13.3532582107 13.8073146319 13.3141634485 13.8135557008 13.2747800508 C 13.8197967696 13.2353966531 13.8260378384 13.1957228865 13.8322789073 13.1557910561 C 13.8385199761 13.1158592256 13.844761045 13.0756677819 13.8510021138 13.0352492448 C 13.8572431826 12.9948307078 13.8634842515 12.9541837144 13.8697253203 12.9133409493 C 13.8759663891 12.8724981843 13.882207458 12.8314584729 13.8884485268 12.7902546141 C 13.8946895956 12.7490507553 13.9009306645 12.7076817647 13.9071717333 12.6661805046 C 13.9134128022 12.6246792445 13.919653871 12.5830449224 13.9258949398 12.5413104133 C 13.9321360087 12.4995759042 13.9383770775 12.4577406084 13.9446181463 12.415837363 C 13.9508592152 12.3739341175 13.957100284 12.3319625167 13.9633413528 12.2899553085 C 13.9695824217 12.2479481003 13.9758234905 12.2059050736 13.9820645593 12.163858837 C 13.9883056282 12.1218126003 13.994546697 12.0797631375 14.0007877659 12.037742867 C 14.0070288347 11.9957225965 14.0132699035 11.9537316971 14.0195109724 11.9118023472 C 14.0257520412 11.8698729973 14.03199311 11.8280055704 14.0382341789 11.7862319551 C 14.0444752477 11.7444583398 14.0507163165 11.7027791036 14.0569573854 11.661225796 C 14.0631984542 11.6196724885 14.0694395231 11.5782458702 14.0756805919 11.5369771031 C 14.0819216607 11.495708336 14.0881627296 11.4545983726 14.0944037984 11.4136779387 C 14.1006448672 11.3727575047 14.1068859361 11.3320277435 14.1131270049 11.2915188972 C 14.1193680737 11.2510100508 14.1256091426 11.2107234514 14.1318502114 11.1706888107 C 14.1380912803 11.1306541701 14.1443323491 11.090873007 14.1505734179 11.0513744572 C 14.1568144868 11.0118759074 14.1630555556 10.9726616739 14.1692966244 10.9337602714 C 14.1755376933 10.8948588688 14.1817787621 10.856272182 14.1880198309 10.81802806 C 14.1942608998 10.7797839381 14.2005019686 10.7418844447 14.2067430374 10.7043567207 C 14.2129841063 10.6668289967 14.2192251751 10.6296752814 14.225466244 10.5929219653 C 14.2317073128 10.5561686492 14.2379483816 10.5198181438 14.2441894505 10.4838960485 C 14.2504305193 10.4479739532 14.2566715881 10.4124828478 14.262912657 10.3774475013 C 14.2691537258 10.3424121548 14.2753947946 10.3078353113 14.2816358635 10.2737408708 C 14.2878769323 10.2396464303 14.2941180012 10.2060372972 14.30035907 10.1729364655 C 14.3066001388 10.1398356338 14.3128412077 10.1072461637 14.3190822765 10.0751901078 C 14.3253233453 10.0431340518 14.3315644142 10.0116146212 14.337805483 9.98065289287 C 14.3440465518 9.94969116455 14.3502876207 9.91929049579 14.3565286895 9.8894709554 C 14.3627697583 9.85965141502 14.3690108272 9.83041650112 14.375251896 9.80178524339 C 14.3814929649 9.77315398566 14.3877340337 9.74513001765 14.3939751025 9.71773130046 C 14.4002161714 9.69033258328 14.4064572402 9.66356288028 14.412698309 9.63743905628 C 14.4189393779 9.61131523228 14.4251804467 9.58584117462 14.4314215155 9.56103262572 C 14.4376625844 9.53622407682 14.4439036532 9.51208504202 14.4501447221 9.48863011701 C 14.4563857909 9.46517519199 14.4626268597 9.44240849391 14.4688679286 9.42034344915 C 14.4751089974 9.39827840439 14.4813500662 9.37691923553 14.4875911351 9.35627817893 C 14.4938322039 9.33563712233 14.5000732727 9.31571849947 14.5063143416 9.29653333775 C 14.5125554104 9.27734817602 14.5187964792 9.25890088915 14.5250375481 9.24120127852 C 14.5312786169 9.22350166789 14.5375196858 9.20655423262 14.5437607546 9.19036753295 C 14.5500018234 9.17418083328 14.5562428923 9.15875944677 14.5624839611 9.14411067928 C 14.5687250299 9.12946191178 14.5749660988 9.11559041225 14.5812071676 9.10250222084 C 14.5874482364 9.08941402944 14.5936893053 9.07711385929 14.5999303741 9.06560647555 C 14.606171443 9.05409909181 14.6124125118 9.04338926452 14.6186535806 9.03348047644 C 14.6248946495 9.02357168835 14.6311357183 9.01446875905 14.6373767871 9.00617388352 C 14.643617856 8.99787900799 14.6498589248 8.99039704788 14.6560999936 8.98372890704 C 14.6623410625 8.97706076619 14.6685821313 8.97121134081 14.6748232002 8.96618024219 C 14.681064269 8.96114914356 14.6873053378 8.95694129489 14.6935464067 8.9535550155 C 14.6997874755 8.95016873611 14.7060285443 8.9476089686 14.7122696132 8.94587274292 C 14.718510682 8.94413651724 14.7247517508 8.94322878774 14.7309928197 8.94314529962 C 14.7372338885 8.94306181149 14.7434749573 8.94380752316 14.7497160262 8.94537690164 C 14.755957095 8.94694628012 14.7621981639 8.94934428025 14.7684392327 8.95256409941 C 14.7746803015 8.95578391856 14.7809213704 8.95983050035 14.7871624392 8.96469578302 C 14.793403508 8.9695610657 14.7996445769 8.97524997398 14.8058856457 8.98175319947 C 14.8121267145 8.98825642495 14.8183677834 8.99557886588 14.8246088522 9.00370998157 C 14.8308499211 9.01184109726 14.8370909899 9.02078575188 14.8433320587 9.03053218878 C 14.8495731276 9.04027862568 14.8558141964 9.05083166744 14.8620552652 9.06217835961 C 14.8682963341 9.07352505179 14.8745374029 9.08567016792 14.8807784717 9.09859957577 C 14.8870195406 9.11152898363 14.8932606094 9.12524740034 14.8995016782 9.13973953774 C 14.9057427471 9.15423167514 14.9119838159 9.16950218665 14.9182248848 9.18553465181 C 14.9244659536 9.20156711697 14.9307070224 9.21836611829 14.9369480913 9.23591412839 C 14.9431891601 9.2534621385 14.9494302289 9.27176366192 14.9556712978 9.29080009145 C 14.9619123666 9.30983652098 14.9681534354 9.3296122762 14.9743945043 9.35010769885 C 14.9806355731 9.3706031215 14.986876642 9.39182253938 14.9931177108 9.41374527355 C 14.9993587796 9.43566800772 15.0055998485 9.45829828751 15.0118409173 9.48161444528 C 15.0180819861 9.50493060304 15.024323055 9.52893676311 15.0305641238 9.55361030261 C 15.0368051926 9.57828384211 15.0430462615 9.60362877399 15.0492873303 9.62962155513 C 15.0555283991 9.65561433628 15.061769468 9.68225886205 15.0680105368 9.70953070548 C 15.0742516057 9.73680254892 15.0804926745 9.76470548177 15.0867337433 9.79321423098 C 15.0929748122 9.82172298018 15.099215881 9.85084118806 15.1054569498 9.88054277452 C 15.1116980187 9.91024436099 15.1179390875 9.94053283329 15.1241801563 9.97138134462 C 15.1304212252 10.002229856 15.136662294 10.0336417731 15.1429033629 10.065589524 C 15.1491444317 10.0975372749 15.1553855005 10.1300240807 15.1616265694 10.1630216867 C 15.1678676382 10.1960192927 15.174108707 10.2295307693 15.1803497759 10.2635272231 C 15.1865908447 10.2975236768 15.1928319135 10.3320080227 15.1990729824 10.3669507729 C 15.2053140512 10.401893523 15.21155512 10.4372974326 15.2177961889 10.473132465 C 15.2240372577 10.5089674975 15.2302783266 10.5452362437 15.2365193954 10.5819081651 C 15.2427604642 10.6185800864 15.2490015331 10.6556576055 15.2552426019 10.6931097287 C 15.2614836707 10.7305618519 15.2677247396 10.7683908298 15.2739658084 10.8065652617 C 15.2802068772 10.8447396936 15.2864479461 10.8832616548 15.2926890149 10.9220993859 C 15.2989300838 10.9609371169 15.3051711526 11.0000925145 15.3114122214 11.0395335097 C 15.3176532903 11.078974505 15.3238943591 11.118702813 15.3301354279 11.1586861049 C 15.3363764968 11.1986693969 15.3426175656 11.2389092037 15.3488586344 11.2793729867 C 15.3550997033 11.3198367696 15.3613407721 11.360525873 15.367581841 11.4014075985 C 15.3738229098 11.4422893239 15.3800639786 11.4833648272 15.3863050475 11.5246013006 C 15.3925461163 11.565837774 15.3987871851 11.607236183 15.405028254 11.6487636616 C 15.4112693228 11.6902911401 15.4175103916 11.7319484616 15.4237514605 11.7737027525 C 15.4299925293 11.8154570435 15.4362335981 11.8573088841 15.442474667 11.899225444 C 15.4487157358 11.941142004 15.4549568047 11.9831236696 15.4611978735 12.0251377045 C 15.4674389423 12.0671517393 15.4736800112 12.1091983351 15.47992108 12.1512449"
       style="fill:none;fill-opacity:1;stroke:#ff0000;stroke-width:0.94488189;stroke-miterlimit:4;stroke-dasharray:none;stroke-opacity:1" />
  </g>
</svg>
