<?xml version="1.0" encoding="UTF-8" standalone="no"?>
<!-- Created with Inkscape (http://www.inkscape.org/) -->

<svg
   xmlns:dc="http://purl.org/dc/elements/1.1/"
   xmlns:cc="http://creativecommons.org/ns#"
   xmlns:rdf="http://www.w3.org/1999/02/22-rdf-syntax-ns#"
   xmlns:svg="http://www.w3.org/2000/svg"
   xmlns="http://www.w3.org/2000/svg"
   xmlns:sodipodi="http://sodipodi.sourceforge.net/DTD/sodipodi-0.dtd"
   xmlns:inkscape="http://www.inkscape.org/namespaces/inkscape"
   width="16px"
   height="16px"
   viewBox="0 0 16 16"
   version="1.1"
   id="SVGRoot"
   inkscape:version="0.92.1 r"
   sodipodi:docname="spectrum.svg">
  <sodipodi:namedview
     id="base"
     pagecolor="#ffffff"
     bordercolor="#666666"
     borderopacity="1.0"
     inkscape:pageopacity="0.0"
     inkscape:pageshadow="2"
     inkscape:zoom="16"
     inkscape:cx="7.9375"
     inkscape:cy="8"
     inkscape:document-units="px"
     inkscape:current-layer="layer1"
     showgrid="false"
     inkscape:window-width="1920"
     inkscape:window-height="1141"
     inkscape:window-x="0"
     inkscape:window-y="0"
     inkscape:window-maximized="1"
     inkscape:grid-bbox="true" />
  <defs
     id="defs5788" />
  <metadata
     id="metadata5791">
    <rdf:RDF>
      <cc:Work
         rdf:about="">
        <dc:format>image/svg+xml</dc:format>
        <dc:type
           rdf:resource="http://purl.org/dc/dcmitype/StillImage" />
        <dc:title />
      </cc:Work>
    </rdf:RDF>
  </metadata>
  <g
     inkscape:label="Ebene 2"
     id="layer2"
     inkscape:groupmode="layer" />
  <g
     id="layer1"
     inkscape:groupmode="layer"
     inkscape:label="Ebene 1">
    <path
       id="path5265"
       title="abs(2*sin(2*x)/(2*(abs(x/11)) + 1.9))"
       d=" M 0.056699455 15.943300555 C 0.0633271562934 15.7244711849 0.0699548575865 15.5052344286 0.0765825588798 15.2882864517 C 0.0832102601732 15.0713384749 0.0898379614663 14.8566982408 0.0964656627597 14.6470018219 C 0.103093364053 14.437305403 0.109721065346 14.2325867006 0.11634876664 14.0353538541 C 0.122976467933 13.8381210076 0.129604169226 13.6484228999 0.136231870519 13.4685772778 C 0.142859571813 13.2887316558 0.149487273106 13.1188012322 0.156114974399 12.9608553692 C 0.162742675693 12.8029095062 0.169370376986 12.657023249 0.175998078279 12.5249654989 C 0.182625779572 12.3929077488 0.189253480866 12.2747640755 0.195881182159 12.1719580684 C 0.202508883452 12.0691520612 0.209136584745 11.9817777396 0.215764286039 11.9108768895 C 0.222391987332 11.8399760395 0.229019688625 11.7856488384 0.235647389919 11.7485280708 C 0.242275091212 11.7114073033 0.248902792505 11.6915968519 0.255530493798 11.6893033014 C 0.262158195092 11.6870097509 0.268785896385 11.7023381357 0.275413597678 11.7350621045 C 0.282041298972 11.7677860733 0.288669000265 11.8180092206 0.295296701558 11.8850761925 C 0.301924402852 11.9521431644 0.308552104145 12.0361535492 0.315179805438 12.1360375361 C 0.321807506731 12.2359215229 0.328435208025 12.3517722171 0.335062909318 12.4821301907 C 0.341690610611 12.6124881644 0.348318311904 12.7574377132 0.354946013198 12.9151643528 C 0.361573714491 13.0728909923 0.368201415784 13.2434680911 0.374829117078 13.4247695722 C 0.381456818371 13.6060710534 0.388084519664 13.7981575025 0.394712220957 13.9986425799 C 0.401339922251 14.1991276573 0.407967623544 14.4080576182 0.414595324837 14.6228438181 C 0.421223026131 14.8376300179 0.427850727424 15.0583031824 0.434478428717 15.2821355416 C 0.441106130011 15.5059679008 0.447733831304 16.1536272791 0.454361532597 15.926247811 C 0.46098923389 15.6988683429 0.467616935183 15.4711177293 0.474244636477 15.2457993586 C 0.48087233777 15.020480988 0.487500039063 14.7976140281 0.494127740357 14.5799359634 C 0.50075544165 14.3622578986 0.507383142943 14.149804264 0.514010844237 13.945178738 C 0.52063854553 13.7405532119 0.527266246823 13.5438068826 0.533893948116 13.3573447595 C 0.54052164941 13.1708826363 0.547149350703 12.9947701594 0.553777051996 12.8311534592 C 0.56040475329 12.6675367591 0.567032454583 12.5164940666 0.573660155876 12.3798585823 C 0.580287857169 12.2432230979 0.586915558463 12.1210839603 0.593543259756 12.0149149051 C 0.600170961049 11.90874585 0.606798662342 11.8186447635 0.613426363636 11.7456880785 C 0.620054064929 11.6727313935 0.626681766222 11.617023359 0.633309467516 11.579214931 C 0.639937168809 11.5414065031 0.646564870102 11.5216057419 0.653192571395 11.5200203519 C 0.659820272689 11.5184349619 0.666447973982 11.5351741586 0.673075675275 11.5699954986 C 0.679703376569 11.6048168385 0.686331077862 11.6578279976 0.692958779155 11.7283405803 C 0.699586480449 11.798853163 0.706214181742 11.8869706379 0.712841883035 11.9915738865 C 0.719469584328 12.0961771351 0.726097285622 12.2173628442 0.732724986915 12.3536071017 C 0.739352688208 12.4898513592 0.745980389501 12.641241653 0.752608090795 12.8058853102 C 0.759235792088 12.9705289675 0.765863493381 13.1485020773 0.772491194675 13.3375884928 C 0.779118895968 13.5266749082 0.785746597261 13.726937393 0.792374298554 13.9358897848 C 0.799001999848 14.1448421767 0.805629701141 14.3625323086 0.812257402434 14.5862643475 C 0.818885103728 14.8099963865 0.825512805021 15.0398019918 0.832140506314 15.2728414267 C 0.838768207608 15.5058808616 0.845395908901 16.1444323462 0.852023610194 15.9078100296 C 0.858651311487 15.671187713 0.86527901278 15.434233797 0.871906714074 15.1998649449 C 0.878534415367 14.9654960928 0.88516211666 14.7337325739 0.891789817954 14.5074216008 C 0.898417519247 14.2811106277 0.90504522054 14.0602894943 0.911672921834 13.8476653236 C 0.918300623127 13.6350411529 0.92492832442 13.4306674113 0.931556025713 13.237043666 C 0.938183727007 13.0434199207 0.9448114283 12.8606145552 0.951439129593 12.6908569663 C 0.958066830887 12.5210993774 0.96469453218 12.3644712366 0.971322233473 12.222875573 C 0.977949934766 12.0812799094 0.98457763606 11.9548097185 0.991205337353 11.8449932956 C 0.997833038646 11.7351768726 1.00446073994 11.6421162852 1.01108844123 11.5669257869 C 1.01771614253 11.4917352886 1.02434384382 11.4345235333 1.03097154511 11.3959614909 C 1.03759924641 11.3573994484 1.0442269477 11.3375997006 1.05085464899 11.3367715201 C 1.05748235029 11.3359433396 1.06411005158 11.3542004695 1.07073775287 11.3912834013 C 1.07736545417 11.428366333 1.08399315546 11.4843871643 1.09062085675 11.5586220707 C 1.09724855805 11.6328569771 1.10387625934 11.7254136331 1.11050396063 11.8351198528 C 1.11713166193 11.9448260725 1.12375936322 12.071782427 1.13038706451 12.2143954641 C 1.13701476581 12.3570085012 1.1436424671 12.515369173 1.15027016839 12.6875003757 C 1.15689786969 12.8596315783 1.16352557098 13.0456123562 1.17015327227 13.2431292021 C 1.17678097356 13.4406460481 1.18340867486 13.6497640948 1.19003637615 13.8678891881 C 1.19666407744 14.0860142814 1.20329177874 14.3131959736 1.20991948003 14.5466223856 C 1.21654718132 14.7800487976 1.22317488262 15.0197526108 1.22980258391 15.2627727863 C 1.2364302852 15.5057929617 1.2430579865 16.1344566793 1.24968568779 15.8878115771 C 1.25631338908 15.6411664748 1.26294109038 15.3942310027 1.26956879167 15.1500447049 C 1.27619649296 14.905858407 1.28282419426 14.664442738 1.28945189555 14.4287640258 C 1.29607959684 14.1930853135 1.30270729814 13.963182751 1.30933499943 13.7418758396 C 1.31596270072 13.5205689283 1.32259040202 13.3079137063 1.32921810331 13.1065125528 C 1.3358458046 12.9051113994 1.3424735059 12.7150358844 1.34910120719 12.5386060326 C 1.35572890848 12.3621761808 1.36235660978 12.1994773915 1.36898431107 12.0524887986 C 1.37561201236 11.9055002057 1.38223971366 11.7743189861 1.38886741495 11.6605330171 C 1.39549511624 11.5467470482 1.40212281754 11.450462933 1.40875051883 11.3728363745 C 1.41537822012 11.295209816 1.42200592142 11.2363542492 1.42863362271 11.1969627849 C 1.435261324 11.1575713205 1.4418890253 11.1377614507 1.44851672659 11.1377445715 C 1.45514442788 11.1377276924 1.46177212918 11.1576224664 1.46839983047 11.1971512691 C 1.47502753176 11.2366800718 1.48165523306 11.2959598078 1.48828293435 11.3742285736 C 1.49491063564 11.4524973394 1.50153833694 11.5498673843 1.50816603823 11.66510925 C 1.51479373952 11.7803511157 1.52142144082 11.913569601 1.52804914211 12.063096039 C 1.5346768434 12.212622477 1.5413045447 12.3785515928 1.54793224599 12.5588148287 C 1.55455994728 12.7390780645 1.56118764858 12.9337576863 1.56781534987 13.1404346125 C 1.57444305116 13.3471115386 1.58107075246 13.5658534876 1.58769845375 13.7939490949 C 1.59432615504 14.0220447021 1.60095385633 14.2595454007 1.60758155763 14.503513259 C 1.61420925892 14.7474811172 1.62083696021 14.9979499393 1.62746466151 15.2518268269 C 1.6340923628 15.5057037144 1.64072006409 16.1235971807 1.64734776539 15.8660457606 C 1.65397546668 15.6084943405 1.66060316797 15.3506954548 1.66723086927 15.0958224157 C 1.67385857056 14.8409493767 1.68048627185 14.5890249172 1.68711397315 14.3431451316 C 1.69374167444 14.0972653461 1.70036937573 13.8574714833 1.70699707703 13.6267055717 C 1.71362477832 13.3959396602 1.72025247961 13.1742605276 1.72688018091 12.9643827531 C 1.7335078822 12.7545049787 1.74013558349 12.5565035933 1.74676328479 12.3727976354 C 1.75339098608 12.1890916774 1.76001868737 12.0197705986 1.76664638867 11.8668968012 C 1.77327408996 11.7140230039 1.77990179125 11.5776982141 1.78652949255 11.4595756388 C 1.79315719384 11.3414530636 1.79978489513 11.2416442439 1.80641259643 11.1613505043 C 1.81304029772 11.0810567646 1.81966799901 11.0203967476 1.82629570031 10.980088178 C 1.8329234016 10.9397796083 1.83955110289 10.9199453296 1.84617880419 10.9207995517 C 1.85280650548 10.9216537737 1.85943420677 10.9433205232 1.86606190807 10.9855029271 C 1.87268960936 11.027685331 1.87931731065 11.0905055387 1.88594501195 11.1731606157 C 1.89257271324 11.2558156927 1.89920041453 11.3584228827 1.90582811583 11.4796907338 C 1.91245581712 11.600958585 1.91908351841 11.7409965148 1.92571121971 11.8980542434 C 1.932338921 12.055111972 1.93896662229 12.2292883503 1.94559432359 12.4184154283 C 1.95222202488 12.6075425062 1.95884972617 12.8117060758 1.96547742747 13.0283721786 C 1.97210512876 13.2450382813 1.97873283005 13.4742774697 1.98536053135 13.7132507145 C 1.99198823264 13.9522239592 1.99861593393 14.2009847591 2.00524363523 14.4564577664 C 2.01187133652 14.7119307738 2.01849903781 14.9741510323 2.02512673911 15.2398817803 C 2.0317544404 15.5056125283 2.03838214169 16.111731707 2.04500984298 15.8422676451 C 2.05163754428 15.5728035832 2.05826524557 15.30313658 2.06489294686 15.0365861219 C 2.07152064816 14.7700356637 2.07814834945 14.5066258668 2.08477605074 14.2495947426 C 2.09140375204 13.9925636184 2.09803145333 13.7419546497 2.10465915462 13.5008439835 C 2.11128685592 13.2597333173 2.11791455721 13.0281828185 2.1245422585 12.8090300049 C 2.1311699598 12.5898771913 2.13779766109 12.3832008663 2.14442536238 12.1915286906 C 2.15105306368 11.9998565149 2.15768076497 11.8232823618 2.16430846626 11.6639601274 C 2.17093616756 11.5046378931 2.17756386885 11.362674271 2.18419157014 11.2397944182 C 2.19081927144 11.1169145654 2.19744697273 11.0132354186 2.20407467402 10.9300087531 C 2.21070237532 10.8467820876 2.21733007661 10.7841322405 2.2239577779 10.7428044453 C 2.2305854792 10.7014766501 2.23721318049 10.6815996057 2.24384088178 10.6833911977 C 2.25046858308 10.6851827898 2.25709628437 10.7087729182 2.26372398566 10.7538442421 C 2.27035168696 10.798915566 2.27697938825 10.8655959804 2.28360708954 10.9530382209 C 2.29023479084 11.0404804615 2.29686249213 11.1488072473 2.30349019342 11.2766598069 C 2.31011789472 11.4045123664 2.31674559601 11.5520051845 2.3233732973 11.7172991198 C 2.3300009986 11.8825930551 2.33662869989 12.0657914885 2.34325640118 12.264618059 C 2.34988410248 12.4634446295 2.35651180377 12.6779890051 2.36313950506 12.90559176 C 2.36976720636 13.1331945148 2.37639490765 13.3739293213 2.38302260894 13.6248175638 C 2.38965031024 13.8757058063 2.39627801153 14.1368032631 2.40290571282 14.4048841936 C 2.40953341412 14.6729651242 2.41616111541 14.9480659475 2.4227888167 15.226792313 C 2.429416518 15.5055186784 2.43604421929 16.0987144584 2.44267192058 15.8161847801 C 2.44929962188 15.5336551018 2.45592732317 15.2509685024 2.46255502446 14.9716048641 C 2.46918272576 14.6922412258 2.47581042705 14.4162261654 2.48243812834 14.1469535585 C 2.48906582964 13.8776809515 2.49569353093 13.615196716 2.50232123222 13.3627244408 C 2.50894893351 13.1102521657 2.51557663481 12.8678570343 2.5222043361 12.6385118645 C 2.52883203739 12.4091666947 2.53545973869 12.1929544184 2.54208743998 11.9925223985 C 2.54871514127 11.7920903786 2.55534284257 11.6075373326 2.56197054386 11.4411181571 C 2.56859824515 11.2746989817 2.57522594645 11.1265258172 2.58185364774 10.9984034471 C 2.58848134903 10.8702810771 2.59510905033 10.7623323587 2.60173675162 10.6758651485 C 2.60836445291 10.5893979383 2.61499215421 10.5245428263 2.6216198555 10.4820759701 C 2.62824755679 10.4396091139 2.63487525809 10.4196656462 2.64150295938 10.4224682133 C 2.64813066067 10.4252707805 2.65475836197 10.45095574 2.66138606326 10.4991839768 C 2.66801376455 10.5474122137 2.67464146585 10.6183179451 2.68126916714 10.7110058772 C 2.68789686843 10.8036938094 2.69452456973 10.9182926906 2.70115227102 11.0533703944 C 2.70777997231 11.1884480981 2.71440767361 11.3441246936 2.7210353749 11.5184639223 C 2.72766307619 11.6928031511 2.73429077749 11.8859133911 2.74091847878 12.0953995666 C 2.74754618007 12.3048857422 2.75417388137 12.5308418019 2.76080158266 12.770470726 C 2.76742928395 13.0100996501 2.77405698525 13.2634785622 2.78068468654 13.527475584 C 2.78731238783 13.7914726058 2.79394008913 14.0661460442 2.80056779042 14.3481048556 C 2.80719549171 14.630063667 2.81382319301 14.9193458046 2.8204508943 15.212383536 C 2.82707859559 15.5054212674 2.83370629689 16.0843699601 2.84033399818 15.7874450901 C 2.84696169947 15.49052022 2.85358940077 15.1934857194 2.86021710206 14.8999982741 C 2.86684480335 14.6065108287 2.87347250465 14.3165976895 2.88010020594 14.0338247092 C 2.88672790723 13.7510517288 2.89335560853 13.475467491 2.89998330982 13.2104584423 C 2.90661101111 12.9454493936 2.91323871241 12.6910843589 2.9198664137 12.4504857831 C 2.92649411499 12.2098872073 2.93312181628 11.9831425594 2.93974951758 11.7730317725 C 2.94637721887 11.5629209856 2.95300492016 11.369548107 2.95963262146 11.1952801025 C 2.96626032275 11.0210120981 2.97288802404 10.865967107 2.97951572534 10.7320385079 C 2.98614342663 10.5981099088 2.99277112792 10.4854270854 2.99939882922 10.3953605908 C 3.00602653051 10.3052940962 3.0126542318 10.2379814184 3.0192819331 10.1942337032 C 3.02590963439 10.1504859879 3.03253733568 10.130445471 3.03916503698 10.1343409326 C 3.04579273827 10.1382363943 3.05242043956 10.1662113268 3.05904814086 10.2179034493 C 3.06567584215 10.2695955717 3.07230354344 10.3451460919 3.07893124474 10.4436075228 C 3.08555894603 10.5420689537 3.09218664732 10.6635767155 3.09881434862 10.8066184523 C 3.10544204991 10.949660189 3.1120697512 11.1143621549 3.1186974525 11.298681518 C 3.12532515379 11.4830008811 3.13195285508 11.6870515598 3.13858055638 11.90830792 C 3.14520825767 12.1295642803 3.15183595896 12.368125023 3.15846366026 12.6210415601 C 3.16509136155 12.8739580972 3.17171906284 13.1413113908 3.17834676414 13.4198005083 C 3.18497446543 13.6982896257 3.19160216672 13.9879756941 3.19822986802 14.2852851208 C 3.20485756931 14.5825945474 3.2114852706 14.8875670073 3.2181129719 15.1964430894 C 3.22474067319 15.5053191715 3.23136837448 16.0684851074 3.23799607578 15.755620863 C 3.24462377707 15.4427566186 3.25125147836 15.1298309271 3.25787917966 14.8206963443 C 3.26450688095 14.5115617616 3.27113458224 14.2062473238 3.27776228354 13.9085096141 C 3.28438998483 13.6107719044 3.29101768612 13.3206624358 3.29764538742 13.0417484838 C 3.30427308871 12.7628345318 3.31090079 12.4951889346 3.3175284913 12.2421004964 C 3.32415619259 11.9890120581 3.33078389388 11.7505732575 3.33741159518 11.5297116578 C 3.34403929647 11.3088500581 3.35066699776 11.1056755994 3.35729469906 10.9226803065 C 3.36392240035 10.7396850135 3.37055010164 10.5769936651 3.37717780293 10.4365988002 C 3.38380550423 10.2962039354 3.39043320552 10.1782421682 3.39706090681 10.0841545902 C 3.40368860811 9.99006701224 3.4103163094 9.91999876042 3.41694401069 9.87480084963 C 3.42357171199 9.82960293884 3.43019941328 9.80942548772 3.43682711457 9.81450516397 C 3.44345481587 9.81958484022 3.45008251716 9.8500730604 3.45671021845 9.90558291091 C 3.46333791975 9.96109276142 3.46996562104 10.0417732205 3.47659332233 10.1466199058 C 3.48322102363 10.251466591 3.48984872492 10.3806223457 3.49647642621 10.5324867114 C 3.50310412751 10.6843510771 3.5097318288 10.8590571965 3.51635953009 11.0544447648 C 3.52298723139 11.249832333 3.52961493268 11.4660214462 3.53624263397 11.7003422075 C 3.54287033527 11.9346629689 3.54949803656 12.1872193858 3.55612573785 12.4548950864 C 3.56275343915 12.7225707871 3.56938114044 13.0054510283 3.57600884173 13.3000474571 C 3.58263654303 13.5946438858 3.58926424432 13.901020795 3.59589194561 14.2154019459 C 3.60251964691 14.5297830969 3.6091473482 14.8522101105 3.61577504949 15.1787105389 C 3.62240275079 15.5052109674 3.62903045208 16.0507985079 3.63565815337 15.7201872865 C 3.64228585467 15.3895760651 3.64891355596 15.0589518705 3.65554125725 14.7323854595 C 3.66216895855 14.4058190485 3.66879665984 14.0833414152 3.67542436113 13.768921874 C 3.68205206243 13.4545023329 3.68867976372 13.1481956315 3.69530746501 12.8537709957 C 3.70193516631 12.5593463598 3.7085628676 12.2768810733 3.71519056889 12.0098500046 C 3.72181827019 11.7428189359 3.72844597148 11.491320124 3.73507367277 11.2584465409 C 3.74170137407 11.0255729578 3.74832907536 10.8114410937 3.75495677665 10.6186834118 C 3.76158447795 10.42592573 3.76821217924 10.2546743985 3.77483988053 10.1070336782 C 3.78146758183 9.9593929579 3.78809528312 9.83550751811 3.79472298441 9.73689837439 C 3.80135068571 9.63828923067 3.807978387 9.56511004954 3.81460608829 9.51825764007 C 3.82123378958 9.47140523061 3.82786149088 9.45103851003 3.83448919217 9.4574042935 C 3.84111689346 9.46377007697 3.84774459476 9.49702863424 3.85437229605 9.55676689688 C 3.86099999734 9.61650515952 3.86762769864 9.70288079542 3.87425539993 9.81482719701 C 3.88088310122 9.9267735986 3.88751080252 10.0644419186 3.89413850381 10.2261345267 C 3.9007662051 10.3878271348 3.9073939064 10.5736848932 3.91402160769 10.7814173764 C 3.92064930898 10.9891498596 3.92727701028 11.2188840957 3.93390471157 11.4677899514 C 3.94053241286 11.7166958072 3.94716011416 11.9848832539 3.95378781545 12.2690491754 C 3.96041551674 12.5532150968 3.96704321804 12.8534495872 3.97367091933 13.1660553437 C 3.98029862062 13.4786611003 3.98692632192 13.803705994 3.99355402321 14.1371875308 C 4.0001817245 14.4706690677 4.0068094258 14.8126310846 4.01343712709 15.1588629559 C 4.02006482838 15.5050948271 4.02669252968 16.030985983 4.03332023097 15.6804932346 C 4.03994793226 15.3300004862 4.04657563356 14.979542589 4.05320333485 14.6334348847 C 4.05983103614 14.2873271803 4.06645873744 13.9456028186 4.07308643873 13.6124698884 C 4.07971414002 13.2793369583 4.08634184132 12.9548537968 4.09296954261 12.6430166324 C 4.0995972439 12.3311794679 4.1062249452 12.0320705357 4.11285264649 11.7493741934 C 4.11948034778 11.4666778512 4.12610804908 11.2004983449 4.13273575037 10.9541152447 C 4.13936345166 10.7077321446 4.14599115296 10.4812692647 4.15261885425 10.2775178986 C 4.15924655554 10.0737665325 4.16587425684 9.89286712156 4.17250195813 9.73705073791 C 4.17912965942 9.58123435426 4.18575736072 9.45065469685 4.19238506201 9.34692406126 C 4.1990127633 9.24319342567 4.2056404646 9.16647505039 4.21226816589 9.11771881488 C 4.21889586718 9.06896257936 4.22552356848 9.04833728499 4.23215126977 9.05610283877 C 4.23877897106 9.06386839254 4.24540667236 9.10019502003 4.25203437365 9.16464196125 C 4.25866207494 9.22908890248 4.26528977623 9.32182360756 4.27191747753 9.44171118444 C 4.27854517882 9.56159876133 4.28517288011 9.70879972748 4.29180058141 9.88150876833 C 4.2984282827 10.0542178092 4.30505598399 10.2525844976 4.31168368529 10.4741735025 C 4.31831138658 10.6957625074 4.32493908787 10.9407086902 4.33156678917 11.206002913 C 4.33819449046 11.4712971358 4.34482219175 11.7570561216 4.35144989305 12.0597676508 C 4.35807759434 12.36247918 4.36470529563 12.6822388367 4.37133299693 13.0151149074 C 4.37796069822 13.3479909781 4.38458839951 13.6940554105 4.39121610081 14.0490514663 C 4.3978438021 14.4040475221 4.40447150339 14.7680215831 4.41109920469 15.1364949757 C 4.41772690598 15.5049683682 4.42435460727 16.0086405119 4.43098230857 15.6357208327 C 4.43761000986 15.2628011535 4.44423771115 14.8899620496 4.45086541245 14.5217949248 C 4.45749311374 14.1536278 4.46412081503 13.7901681883 4.47074851633 13.4358940903 C 4.47737621762 13.0816199923 4.48400391891 12.7365937505 4.49063162021 12.4050686161 C 4.4972593215 12.0735434818 4.50388702279 11.7556072381 4.51051472409 11.4551818723 C 4.51714242538 11.1547565065 4.52377012667 10.8719532375 4.53039782797 10.610263763 C 4.53702552926 10.3485742885 4.54365323055 10.1081306662 4.55028093185 9.8919052581 C 4.55690863314 9.67567985 4.56353633443 9.4838224241 4.57016403573 9.31870920015 C 4.57679173702 9.15359597619 4.58341943831 9.01539084598 4.59004713961 8.90581129348 C 4.5966748409 8.79623174098 4.60330254219 8.71545182288 4.60993024349 8.66448354255 C 4.61655794478 8.61351526223 4.62318564607 8.59253860522 4.62981334737 8.60183045421 C 4.63644104866 8.61112230321 4.64306874995 8.65086416214 4.64969645125 8.72058610035 C 4.65632415254 8.79030803856 4.66295185383 8.89018860119 4.66957955513 9.01901770508 C 4.67620725642 9.14784680897 4.68283495771 9.30579560661 4.68946265901 9.49093883327 C 4.6960903603 9.67608205993 4.70271806159 9.88857919463 4.70934576288 10.1258325773 C 4.71597346418 10.36308596 4.72260116547 10.625239375 4.72922886676 10.9090824317 C 4.73585656806 11.1929254884 4.74248426935 11.4985826161 4.74911197064 11.8223058775 C 4.75573967194 12.1460291389 4.76236737323 12.4879204013 4.76899507452 12.8437831347 C 4.77562277582 13.199645868 4.78225047711 13.5695567058 4.7888781784 13.9489711473 C 4.7955058797 14.3283855887 4.80213358099 14.7173529675 4.80876128228 15.1110906999 C 4.81538898358 15.5048284323 4.82201668487 15.9832439639 4.82864438616 15.5848284278 C 4.83527208746 15.1864128918 4.84189978875 14.7881193184 4.84852749004 14.3948531431 C 4.85515519134 14.0015869678 4.86178289263 13.6133863733 4.86841059392 13.2350369201 C 4.87503829522 12.8566874669 4.88166599651 12.4882559946 4.8882936978 12.1342891669 C 4.8949213991 11.7803223391 4.90154910039 11.4409141982 4.90817680168 11.1202585667 C 4.91480450298 10.7996029353 4.92143220427 10.4978189222 4.92805990556 10.2186414861 C 4.93468760686 9.93946405001 4.94131530815 9.68303459658 4.94794300944 9.4525337865 C 4.95457071074 9.22203297641 4.96119841203 9.01762117225 4.96782611332 8.84184231756 C 4.97445381462 8.66606346288 4.98108151591 8.51909304576 4.9877092172 8.40277100983 C 4.9943369185 8.28644897389 5.00096461979 8.20096170085 5.00759232108 8.14739475148 C 5.01422002238 8.09382780212 5.02084772367 8.07237392103 5.02747542496 8.0833321628 C 5.03410312626 8.09429040458 5.04073082755 8.13785515681 5.04735852884 8.21352602352 C 5.05398623014 8.28919689024 5.06061393143 8.39716510806 5.06724163272 8.53613751872 C 5.07386933402 8.67510992937 5.08049703531 8.84526986824 5.0871247366 9.04455770902 C 5.0937524379 9.2438455498 5.10038013919 9.47243213756 5.10700784048 9.72753676875 C 5.11363554178 9.98264139994 5.12026324307 10.2644181158 5.12689094436 10.5694286396 C 5.13351864565 10.8744391634 5.14014634695 11.2028168029 5.14677404824 11.5505458894 C 5.15340174953 11.8982749759 5.16002945083 12.2654646379 5.16665715212 12.6476168158 C 5.17328485341 13.0297689937 5.17991255471 13.426965763 5.186540256 13.8343342601 C 5.19316795729 14.2417027572 5.19979565859 14.6592957777 5.20642335988 15.0819832651 C 5.21305106117 15.5046707524 5.21967876247 15.9541264072 5.22630646376 15.5264684339 C 5.23293416505 15.0988104605 5.23956186635 14.6713080376 5.24618956764 14.2492270037 C 5.25281726893 13.8271459697 5.25944497023 13.4105274645 5.26607267152 13.0045107123 C 5.27270037281 12.59849396 5.27932807411 12.2031508838 5.2859557754 11.8233662503 C 5.29258347669 11.4435816167 5.29921117799 11.0794565829 5.30583887928 10.735498949 C 5.31246658057 10.3915413151 5.31909428187 10.0678791899 5.32572198316 9.7685292901 C 5.33234968445 9.46917939035 5.33897738575 9.19429381152 5.34560508704 8.94729533658 C 5.35223278833 8.70029686163 5.35886048963 8.48135799305 5.36548819092 8.29321861241 C 5.37211589221 8.10507923178 5.37874359351 7.94792813827 5.3853712948 7.82374952295 C 5.39199899609 7.69957090763 5.39862669739 7.60856532259 5.40525439868 7.55190657134 C 5.41188209997 7.49524782008 5.41850980127 7.47314333924 5.42513750256 7.48592142283 C 5.43176520385 7.49869950641 5.43839290515 7.54656940017 5.44502060644 7.62899935404 C 5.45164830773 7.71142930792 5.45827600903 7.82862521794 5.46490371032 7.97920185604 C 5.47153141161 8.12977849414 5.47815911291 8.31393329098 5.4847868142 8.52945520512 C 5.49141451549 8.74497711926 5.49804221679 8.99205017 5.50466991808 9.26768574458 C 5.51129761937 9.54332131916 5.51792532067 9.84768537248 5.52455302196 10.1770795086 C 5.53118072325 10.5064736446 5.53780842455 10.8610415109 5.54443612584 11.2364607422 C 5.55106382713 11.6118799734 5.55769152843 12.0082681843 5.56431922972 12.4207809055 C 5.57094693101 12.8332936266 5.57757463231 13.2620193281 5.5842023336 13.701706967 C 5.59083003489 14.1413946059 5.59745773618 14.5921010913 5.60408543748 15.0482952636 C 5.61071313877 15.504489436 5.61734084006 15.9204061231 5.62396854136 15.4588661158 C 5.63059624265 14.9973261084 5.63722394394 14.53596202 5.64385164524 14.0804575318 C 5.65047934653 13.6249530436 5.65710704782 13.1753526129 5.66373474912 12.7372064137 C 5.67036245041 12.2990602145 5.6769901517 11.8724459597 5.683617853 11.4626422306 C 5.69024555429 11.0528385015 5.69687325558 10.659954613 5.70350095688 10.2888650665 C 5.71012865817 9.91777552011 5.71675635946 9.56861878536 5.72338406076 9.24574170253 C 5.73001176205 8.92286461971 5.73663946334 8.62643162637 5.74326716464 8.36015033871 C 5.74989486593 8.09386905106 5.75652256722 7.85792602111 5.76315026852 7.65529294007 C 5.76977796981 7.45265985903 5.7764056711 7.2835409626 5.7830333724 7.15009267778 C 5.78966107369 7.01664439296 5.79628877498 6.91908373569 5.80291647628 6.85869198438 C 5.80954417757 6.79830023307 5.81617187886 6.77530192478 5.82279958016 6.79006439128 C 5.82942728145 6.80482685777 5.83605498274 6.8575766692 5.84268268404 6.94775062514 C 5.84931038533 7.03792458108 5.85593808662 7.16574570121 5.86256578792 7.32972646916 C 5.86919348921 7.4937072371 5.8758211905 7.69406157984 5.8824488918 7.92840671651 C 5.88907659309 8.16275185319 5.89570429438 8.43128725411 5.90233199568 8.7307862331 C 5.90895969697 9.03028521209 5.91558739826 9.36092773079 5.92221509956 9.71871578435 C 5.92884280085 10.0765038379 5.93547050214 10.4615932664 5.94209820344 10.8693069495 C 5.94872590473 11.2770206326 5.95535360602 11.7074862323 5.96198130732 12.1554572269 C 5.96860900861 12.6034282214 5.9752367099 13.0690006993 5.9818644112 13.5464834074 C 5.98849211249 14.0239661154 5.99511981378 14.5134209238 6.00174751508 15.0088485319 C 6.00837521637 15.5042761401 6.01500291766 15.8808987332 6.02163061895 15.3796357805 C 6.02825832025 14.8783728278 6.03488602154 14.377284321 6.04151372283 13.8825441027 C 6.04814142413 13.3878038844 6.05476912542 12.8994601517 6.06139682671 12.4235464122 C 6.06802452801 11.9476326727 6.0746522293 11.4842332895 6.08127993059 11.0390913197 C 6.08790763189 10.5939493499 6.09453533318 10.1671835535 6.10116303447 9.76410228334 C 6.10779073577 9.36102101319 6.11441843706 8.98177479247 6.12104613835 8.63110247697 C 6.12767383965 8.28043016147 6.13430154094 7.95851059728 6.14092924223 7.66939120879 C 6.14755694353 7.38027182031 6.15418464482 7.12415560699 6.16081234611 6.90429259748 C 6.16744004741 6.68442958796 6.1740677487 6.50104213261 6.18069544999 6.35649561537 C 6.18732315129 6.21194909813 6.19395085258 6.10647989768 6.20057855387 6.04150252956 C 6.20720625517 5.97652516145 6.21383395646 5.95228431641 6.22046165775 5.96920025658 C 6.22708935905 5.98611619676 6.23371706034 6.04443595239 6.24034476163 6.14356625436 C 6.24697246293 6.24269655632 6.25360016422 6.38288069032 6.26022786551 6.56251737286 C 6.26685556681 6.7421540554 6.2734832681 6.96147678099 6.28011096939 7.21790664833 C 6.28673867069 7.47433651567 6.29336637198 7.76809136806 6.29999407327 8.09566943739 C 6.30662177457 8.42324750673 6.31324947586 8.78484545775 6.31987717715 9.17611663322 C 6.32650487845 9.56738780868 6.33313257974 9.98850263929 6.33976028103 10.4343690749 C 6.34638798233 10.8802355105 6.35301568362 11.350993293 6.35964338491 11.8409237428 C 6.36627108621 12.3308541925 6.3728987875 12.8400626235 6.37952648879 13.3623390127 C 6.38615419009 13.8846154018 6.39278189138 14.4200277108 6.39940959267 14.9620232062 C 6.40603729397 15.5040187016 6.41266499526 15.8339751473 6.41929269655 15.2854931148 C 6.42592039785 14.7370110823 6.43254809914 14.1886661595 6.43917580043 13.6472151404 C 6.44580350173 13.1057641213 6.45243120302 12.5712594372 6.45905890431 12.0503111959 C 6.4656866056 11.5293629547 6.4723143069 11.0220632285 6.47894200819 10.5347110008 C 6.48556970948 10.0473587732 6.49219741078 9.58008386142 6.49882511207 9.13871579562 C 6.50545281336 8.69734772982 6.51208051466 8.28205122741 6.51870821595 7.89803809273 C 6.52533591724 7.51402495805 6.53196361854 7.16149107564 6.53859131983 6.84489604708 C 6.54521902112 6.52830101853 6.55184672242 6.24786735776 6.55847442371 6.00718521697 C 6.565102125 5.76650307617 6.5717298263 5.56581636024 6.57835752759 5.4077488004 C 6.58498522888 5.24968124056 6.59161293018 5.13449231564 6.59824063147 5.06376521584 C 6.60486833276 4.99303811604 6.61149603406 4.96704163608 6.61812373535 4.9862691969 C 6.62475143664 5.00549675771 6.63137913794 5.07021992062 6.63800683923 5.17981945045 C 6.64463454052 5.28941898029 6.65126224182 5.44416252267 6.65788994311 5.64232245866 C 6.6645176444 5.84048239466 6.6711453457 6.08231580203 6.67777304699 6.36501826919 C 6.68440074828 6.64772073635 6.69102844958 6.97153231526 6.69765615087 7.33263020321 C 6.70428385216 7.69372809116 6.71091155346 8.09232921136 6.71753925475 8.5236764116 C 6.72416695604 8.95502361183 6.73079465734 9.41930509229 6.73742235863 9.9109372227 C 6.74405005992 10.4025693531 6.75067776122 10.9217066678 6.75730546251 11.4620683479 C 6.7639331638 12.002430028 6.7705608651 12.5641327788 6.77718856639 13.1403463395 C 6.78381626768 13.7165599002 6.79044396898 14.307359874 6.79707167027 14.9055293206 C 6.80369937156 15.5036987672 6.81032707286 15.7773312162 6.81695477415 15.1717880955 C 6.82358247544 14.5662449749 6.83021017674 13.9607422965 6.83683787803 13.362741543 C 6.84346557932 12.7647407896 6.85009328062 12.1742992011 6.85672098191 11.5987264621 C 6.8633486832 11.0231537232 6.8699763845 10.4625509352 6.87660408579 9.92389422285 C 6.88323178708 9.38523751049 6.88985948838 8.86866980311 6.89648718967 8.3806582159 C 6.90311489096 7.89264662868 6.90974259225 7.43337283306 6.91637029355 7.0086301674 C 6.92299799484 6.58388750174 6.92962569613 6.19389230619 6.93625339743 5.84361421073 C 6.94288109872 5.49333611526 6.94950880001 5.18302115758 6.95613650131 4.91668399649 C 6.9627642026 4.65034683539 6.96939190389 4.42825744978 6.97601960519 4.25336634916 C 6.98264730648 4.07847524854 6.98927500777 3.95106994464 6.99590270907 3.87295261494 C 7.00253041036 3.79483528525 7.00915811165 3.76630406442 7.01578581295 3.78795594029 C 7.02241351424 3.80960781616 7.02904121553 3.88174429936 7.03566891683 4.00372934096 C 7.04229661812 4.12571438256 7.04892431941 4.29784545957 7.05555202071 4.51825564336 C 7.062179722 4.73866582715 7.06880742329 5.00764116926 7.07543512459 5.3221162928 C 7.08206282588 5.63659141633 7.08869052717 5.99683375506 7.09531822847 6.39864172236 C 7.10194592976 6.80044968967 7.10857363105 7.2440652877 7.11520133235 7.72424156458 C 7.12182903364 8.20441784145 7.12845673493 8.72136510395 7.13508443623 9.26890857166 C 7.14171213752 9.81645203937 7.14833983881 10.3947647701 7.15496754011 10.996885797 C 7.1615952414 11.599006824 7.16822294269 12.2250672569 7.17485064399 12.867482486 C 7.18147834528 13.5098977152 7.18810604657 14.1687531826 7.19473374787 14.8360203304 C 7.20136144916 15.5032874782 7.20798915045 15.707597667 7.21461685175 15.031712756 C 7.22124455304 14.355827845 7.22787225433 13.6797866349 7.23449995563 13.0119193067 C 7.24112765692 12.3440519786 7.24775535821 11.6844212328 7.25438305951 11.041203019 C 7.2610107608 10.3979848051 7.26763846209 9.77129091748 7.27426616339 9.16893996184 C 7.28089386468 8.5665890062 7.28752156597 7.98873969137 7.29414926727 7.44265658666 C 7.30077696856 6.89657348196 7.30740466985 6.38245885049 7.31403237115 5.90683784139 C 7.32066007244 5.4312168323 7.32728777373 4.99433079074 7.33391547503 4.60179603944 C 7.34054317632 4.20926128814 7.34717087761 3.86135276669 7.3537985789 3.56262887475 C 7.3604262802 3.26390498281 7.36705398149 3.01466787408 7.37368168278 2.8182931242 C 7.38030938408 2.62191837433 7.38693708537 2.47872822391 7.39356478666 2.39081805995 C 7.40019248796 2.30290789599 7.40682018925 2.27061233787 7.41344789054 2.2946794631 C 7.42007559184 2.31874658834 7.42670329313 2.39951528813 7.43333099442 2.53635145486 C 7.43995869572 2.67318762159 7.44658639701 2.86642610655 7.4532140983 3.11404922501 C 7.4598417996 3.36167234347 7.46646950089 3.66400259164 7.47309720218 4.01767123608 C 7.47972490348 4.37133988053 7.48635260477 4.77664894761 7.49298030606 5.22894471887 C 7.49960800736 5.68124049013 7.50623570865 6.18079680925 7.51286340994 6.72177336457 C 7.51949111124 7.2627499199 7.52611881253 7.84538525564 7.53274651382 8.46278117757 C 7.53937421512 9.0801770995 7.54600191641 9.73253051349 7.5526296177 10.4120415999 C 7.559257319 11.0915526863 7.56588502029 11.7983713169 7.57251272158 12.5239763731 C 7.57914042288 13.2495814294 7.58576812417 13.9940714408 7.59239582546 14.7484042803 C 7.59902352676 15.5027371198 7.60565122805 15.6196442373 7.61227892934 14.8548850938 C 7.61890663064 14.0901259504 7.62553433193 13.3248395786 7.63216203322 12.5684530361 C 7.63878973452 11.8120664936 7.64541743581 11.0646486341 7.6520451371 10.3354753236 C 7.6586728384 9.60630201319 7.66530053969 8.89549785378 7.67192824098 8.21195749984 C 7.67855594228 7.52841714589 7.68518364357 6.87231862129 7.69181134486 6.2519516784 C 7.69843904616 5.63158473551 7.70506674745 5.04717714977 7.71169444874 4.50620195086 C 7.71832215004 3.96522675194 7.72494985133 3.46795652466 7.73157755262 3.02085294757 C 7.73820525392 2.57374937049 7.74483295521 2.17712372768 7.7514606565 1.836253883 C 7.7580883578 1.49538403832 7.76471605909 1.21061283099 7.77134376038 0.985888509116 C 7.77797146168 0.761164187242 7.78459916297 0.596853127915 7.79122686426 0.495458733289 C 7.79785456555 0.394064338663 7.80448226685 0.355967817591 7.81110996814 0.382146283494 C 7.81773766943 0.408324749398 7.82436537073 0.499165051479 7.83099307202 0.654072797353 C 7.83762077331 0.808980543227 7.84424847461 1.02833876387 7.8508761759 1.30997416067 C 7.85750387719 1.59160955747 7.86413157849 1.93589184504 7.87075927978 2.33909992912 C 7.87738698107 2.74230801319 7.88401468237 3.20478898594 7.89064238366 3.72134334813 C 7.89727008495 4.23789771032 7.90389778625 4.80884104797 7.91052548754 5.42760196517 C 7.91715318883 6.04636288237 7.92378089013 6.71321722063 7.93040859142 7.42036323523 C 7.93703629271 8.12750924983 7.94366399401 8.87517565534 7.9502916953 9.65450398962 C 7.95691939659 10.4338323239 7.96354709789 11.2449978407 7.97017479918 12.0782873018 C 7.97680250047 12.9115767629 7.98343020177 13.7671068458 7.99005790306 14.6345352757 C 7.99668560435 15.5019637056 8.00331330565 15.5019875031 8.00994100694 14.6345352757 C 8.01656870823 13.7670830483 8.02319640953 12.9116210327 8.02982411082 12.0782873018 C 8.03645181211 11.244953571 8.04307951341 10.4338956898 8.0497072147 9.65450398962 C 8.05633491599 8.87511228946 8.06296261729 8.12758989403 8.06959031858 7.42036323523 C 8.07621801987 6.71313657643 8.08284572117 6.04645859539 8.08947342246 5.42760196517 C 8.09610112375 4.80874533494 8.10272882505 4.2380059498 8.10935652634 3.72134334813 C 8.11598422763 3.20468074647 8.12261192893 2.74242596979 8.12923963022 2.33909992912 C 8.13586733151 1.93577388844 8.14249503281 1.59173422637 8.1491227341 1.30997416067 C 8.15575043539 1.02821409498 8.16237813669 0.809108799208 8.16900583798 0.654072797353 C 8.17563353927 0.499036795498 8.18226124057 0.408453423936 8.18888894186 0.382146283494 C 8.19551664315 0.355839143052 8.20214434445 0.394190296905 8.20877204574 0.495458733289 C 8.21539974703 0.596727169674 8.22202744832 0.761284403184 8.22865514962 0.985888509116 C 8.23528285091 1.21049261505 8.2419105522 1.49549566637 8.2485382535 1.836253883 C 8.25516595479 2.17701209962 8.26179365608 2.57384981175 8.26842135738 3.02085294757 C 8.27504905867 3.4678560834 8.28167675996 3.96531371364 8.28830446126 4.50620195086 C 8.29493216255 5.04709018808 8.30155986384 5.63165628233 8.30818756514 6.2519516784 C 8.31481526643 6.87224707447 8.32144296772 7.52847174202 8.32807066902 8.21195749984 C 8.33469837031 8.89544325765 8.3413260716 9.6063385542 8.3479537729 10.3354753236 C 8.35458147419 11.0646120931 8.36120917548 11.8120843275 8.36783687678 12.5684530361 C 8.37446457807 13.3248217447 8.38109227936 14.0901248876 8.38771998066 14.8548850938 C 8.39434768195 15.6196453 8.40097538324 15.5027568078 8.40760308454 14.7484042803 C 8.41423078583 13.9940517527 8.42085848712 13.2496190227 8.42748618842 12.5239763731 C 8.43411388971 11.7983337236 8.440741591 11.0916070394 8.4473692923 10.4120415999 C 8.45399699359 9.73247616038 8.46062469488 9.08024667458 8.46725239618 8.46278117757 C 8.47388009747 7.84531568055 8.48050779876 7.26283282888 8.48713550006 6.72177336457 C 8.49376320135 6.18071390027 8.50039090264 5.68133454475 8.50701860394 5.22894471887 C 8.51364630523 4.77655489299 8.52027400652 4.37144264907 8.52690170782 4.01767123608 C 8.53352940911 3.6638998231 8.5401571104 3.36178121262 8.5467848117 3.11404922501 C 8.55341251299 2.8663172374 8.56004021428 2.67329986196 8.56666791558 2.53635145486 C 8.57329561687 2.39940304776 8.57992331816 2.31885942202 8.58655101946 2.2946794631 C 8.59317872075 2.27049950419 8.59980642204 2.30301856446 8.60643412334 2.39081805995 C 8.61306182463 2.47861755544 8.61968952592 2.62202420504 8.62631722722 2.8182931242 C 8.63294492851 3.01456204337 8.6395726298 3.26400345298 8.6462003311 3.56262887475 C 8.65282803239 3.86125429652 8.65945573368 4.20935008412 8.66608343497 4.60179603944 C 8.67271113627 4.99424199476 8.67933883756 5.43129390323 8.68596653885 5.90683784139 C 8.69259424015 6.38238177956 8.69922194144 6.89663708641 8.70584964273 7.44265658666 C 8.71247734403 7.98867608692 8.71910504532 8.5666377508 8.72573274661 9.16893996184 C 8.73236044791 9.77124217287 8.7389881492 10.3980176743 8.74561585049 11.041203019 C 8.75224355179 11.6843883636 8.75887125308 12.344068355 8.76549895437 13.0119193067 C 8.77212665567 13.6797702585 8.77875435696 14.3558275199 8.78538205825 15.031712756 C 8.79200975955 15.7075979922 8.79863746084 15.5033043049 8.80526516213 14.8360203304 C 8.81189286343 14.1687363558 8.81852056472 13.509930444 8.82514826601 12.867482486 C 8.83177596731 12.225034528 8.8384036686 11.599054475 8.84503136989 10.996885797 C 8.85165907119 10.3947171191 8.85828677248 9.81651328031 8.86491447377 9.26890857166 C 8.87154217507 8.72130386301 8.87816987636 8.2044910241 8.88479757765 7.72424156458 C 8.89142527895 7.24399210505 8.89805298024 6.80053289333 8.90468068153 6.39864172236 C 8.91130838283 5.9967505514 8.91793608412 5.63668249748 8.92456378541 5.3221162928 C 8.93119148671 5.00755008811 8.937819188 4.73876247401 8.94444688929 4.51825564336 C 8.95107459059 4.29774881271 8.95770229188 4.12581417313 8.96432999317 4.00372934096 C 8.97095769447 3.88164450879 8.97758539576 3.80970827825 8.98421309705 3.78795594029 C 8.99084079835 3.76620360233 8.99746849964 3.79493395713 9.00409620093 3.87295261494 C 9.01072390223 3.95097127275 9.01735160352 4.07856973873 9.02397930481 4.25336634916 C 9.03060700611 4.4281629596 9.0372347074 4.65043488 9.04386240869 4.91668399649 C 9.05049010999 5.18293311298 9.05711781128 5.49341563173 9.06374551257 5.84361421073 C 9.07037321387 6.19381278973 9.07700091516 6.58395663756 9.08362861645 7.0086301674 C 9.09025631775 7.43330369723 9.09688401904 7.89270380408 9.10351172033 8.3806582159 C 9.11013942162 8.86861262772 9.11676712292 9.38528145394 9.12339482421 9.92389422285 C 9.1300225255 10.4625069917 9.1366502268 11.0231834992 9.14327792809 11.5987264621 C 9.14990562938 12.1742694251 9.15653333068 12.7647558179 9.16316103197 13.362741543 C 9.16978873326 13.9607272682 9.17641643456 14.5662450412 9.18304413585 15.1717880955 C 9.18967183714 15.7773311499 9.19629953844 15.5037135102 9.20292723973 14.9055293206 C 9.20955494102 14.307345131 9.21618264232 13.71658894 9.22281034361 13.1403463395 C 9.2294380449 12.564103739 9.2360657462 12.0024725084 9.24269344749 11.4620683479 C 9.24932114878 10.9216641874 9.25594885008 10.4026240986 9.26257655137 9.9109372227 C 9.26920425266 9.41925034678 9.27583195396 8.95508915954 9.28245965525 8.5236764116 C 9.28908735654 8.09226366365 9.29571505784 7.69380272918 9.30234275913 7.33263020321 C 9.30897046042 6.97145767724 9.31559816172 6.647802548 9.32222586301 6.36501826919 C 9.3288535643 6.08223399038 9.3354812656 5.84056930721 9.34210896689 5.64232245866 C 9.34873666818 5.44407561012 9.35536436948 5.289508817 9.36199207077 5.17981945045 C 9.36861977206 5.07013008391 9.37524747336 5.00558729186 9.38187517465 4.9862691969 C 9.38850287594 4.96695110194 9.39513057724 4.99312712569 9.40175827853 5.06376521584 C 9.40838597982 5.13440330598 9.41501368112 5.24976656271 9.42164138241 5.4077488004 C 9.4282690837 5.56573103809 9.434896785 5.76658265883 9.44152448629 6.00718521697 C 9.44815218758 6.24778777511 9.45477988888 6.52837296971 9.46140759017 6.84489604708 C 9.46803529146 7.16141912445 9.47466299276 7.51408759037 9.48129069405 7.89803809273 C 9.48791839534 8.28198859508 9.49454609664 8.69739959968 9.50117379793 9.13871579562 C 9.50780149922 9.58003199157 9.51442920052 10.0473987136 9.52105690181 10.5347110008 C 9.5276846031 11.022023288 9.5343123044 11.5293901013 9.54094000569 12.0503111959 C 9.54756770698 12.5712322906 9.55419540827 13.1057779303 9.56082310957 13.6472151404 C 9.56745081086 14.1886523504 9.57407851215 14.7370113412 9.58070621345 15.2854931148 C 9.58733391474 15.8339748884 9.59396161603 15.5040318725 9.60058931733 14.9620232062 C 9.60721701862 14.4200145399 9.61384471991 13.8846415549 9.62047242121 13.3623390127 C 9.6271001225 12.8400364704 9.63372782379 12.3308925672 9.64035552509 11.8409237428 C 9.64698322638 11.3509549183 9.65361092767 10.8802850544 9.66023862897 10.4343690749 C 9.66686633026 9.98845309542 9.67349403155 9.56744720598 9.68012173285 9.17611663322 C 9.68674943414 8.78478606045 9.69337713543 8.42331521286 9.70000483673 8.09566943739 C 9.70663253802 7.76802366193 9.71326023931 7.47441079694 9.71988794061 7.21790664833 C 9.7265156419 6.96140249972 9.73314334319 6.74223303305 9.73977104449 6.56251737286 C 9.74639874578 6.38280171267 9.75302644707 6.24277825369 9.75965414837 6.14356625436 C 9.76628184966 6.04435425502 9.77290955095 5.98619858842 9.77953725225 5.96920025658 C 9.78616495354 5.95220192475 9.79279265483 5.97660622307 9.79942035613 6.04150252956 C 9.80604805742 6.10639883606 9.81267575871 6.21202685591 9.81930346001 6.35649561537 C 9.8259311613 6.50096437483 9.83255886259 6.68450216637 9.83918656389 6.90429259748 C 9.84581426518 7.12408302859 9.85244196647 7.38033748702 9.85906966777 7.66939120879 C 9.86569736906 7.95844493057 9.87232507035 8.28048736841 9.87895277165 8.63110247697 C 9.88558047294 8.98171758553 9.89220817423 9.36106843276 9.89883587553 9.76410228334 C 9.90546357682 10.1671361339 9.91209127811 10.5939859055 9.91871897941 11.0390913197 C 9.9253466807 11.4841967339 9.93197438199 11.9476575627 9.93860208329 12.4235464122 C 9.94522978458 12.8994352617 9.95185748587 13.3878165997 9.95848518717 13.8825441027 C 9.96511288846 14.3772716057 9.97174058975 14.8783731614 9.97836829105 15.3796357805 C 9.98499599234 15.8808983997 9.99162369363 15.5042880905 9.99825139492 15.0088485319 C 10.0048790962 14.5134089734 10.0115067975 14.0239899522 10.0181344988 13.5464834074 C 10.0247622001 13.0689768625 10.0313899014 12.6034632596 10.0380176027 12.1554572269 C 10.044645304 11.7074511941 10.0512730053 11.2770659188 10.0579007066 10.8693069495 C 10.0645284079 10.4615479802 10.0711561092 10.0765581759 10.0777838104 9.71871578435 C 10.0844115117 9.36087339279 10.091039213 9.03034719419 10.0976669143 8.7307862331 C 10.1042946156 8.431225272 10.1109223169 8.16281989632 10.1175500182 7.92840671651 C 10.1241777195 7.69399353671 10.1308054208 7.49377962296 10.1374331221 7.32972646916 C 10.1440608234 7.16567331536 10.1506885247 7.03799949927 10.157316226 6.94775062514 C 10.1639439273 6.85750175102 10.1705716286 6.8049024508 10.1771993298 6.79006439128 C 10.1838270311 6.77522633175 10.1904547324 6.79837464217 10.1970824337 6.85869198438 C 10.203710135 6.91900932659 10.2103378363 7.01671580352 10.2169655376 7.15009267778 C 10.2235932389 7.28346955203 10.2302209402 7.45272654462 10.2368486415 7.65529294007 C 10.2434763428 7.85785933551 10.2501040441 8.09392941494 10.2567317454 8.36015033871 C 10.2633594467 8.62637126248 10.2699871479 8.92291723281 10.2766148492 9.24574170253 C 10.2832425505 9.56856617226 10.2898702518 9.91781915464 10.2964979531 10.2888650665 C 10.3031256544 10.6599109784 10.3097533557 11.0528721594 10.316381057 11.4626422306 C 10.3230087583 11.8724123018 10.3296364596 12.2990831499 10.3362641609 12.7372064137 C 10.3428918622 13.1753296774 10.3495195635 13.6249647794 10.3561472648 14.0804575318 C 10.3627749661 14.5359502842 10.3694026673 14.9973264453 10.3760303686 15.4588661158 C 10.3826580699 15.9204057862 10.3892857712 15.5045004164 10.3959134725 15.0482952636 C 10.4025411738 14.5920901109 10.4091688751 14.1414165454 10.4157965764 13.701706967 C 10.4224242777 13.2619973886 10.429051979 12.8333259014 10.4356796803 12.4207809055 C 10.4423073816 12.0082359096 10.4489350829 11.6119217113 10.4555627842 11.2364607422 C 10.4621904855 10.860999773 10.4688181867 10.5065237484 10.475445888 10.1770795086 C 10.4820735893 9.84763526871 10.4887012906 9.54337849514 10.4953289919 9.26768574458 C 10.5019566932 8.99199299402 10.5085843945 8.74503991044 10.5152120958 8.52945520512 C 10.5218397971 8.3138704998 10.5284674984 8.12984531711 10.5350951997 7.97920185604 C 10.541722901 7.82855839497 10.5483506023 7.71149849256 10.5549783036 7.62899935404 C 10.5616060049 7.54650021553 10.5682337061 7.49876933746 10.5748614074 7.48592142283 C 10.5814891087 7.4730735082 10.58811681 7.49531657942 10.5947445113 7.55190657134 C 10.6013722126 7.60849656325 10.6079999139 7.6996369164 10.6146276152 7.82374952295 C 10.6212553165 7.9478621295 10.6278830178 8.10514089115 10.6345107191 8.29321861241 C 10.6411384204 8.48129633367 10.6477661217 8.70035269137 10.654393823 8.94729533658 C 10.6610215243 9.19423798179 10.6676492255 9.46922806412 10.6742769268 9.7685292901 C 10.6809046281 10.0678305161 10.6875323294 10.3915816919 10.6941600307 10.735498949 C 10.700787732 11.0794162062 10.7074154333 11.4436127672 10.7140431346 11.8233662503 C 10.7206708359 12.2031197334 10.7272985372 12.598515188 10.7339262385 13.0045107123 C 10.7405539398 13.4105062365 10.7471816411 13.8271568273 10.7538093424 14.2492270037 C 10.7604370437 14.6712971801 10.7670647449 15.0988107573 10.7736924462 15.5264684339 C 10.7803201475 15.9541261104 10.7869478488 15.5046809465 10.7935755501 15.0819832651 C 10.8002032514 14.6592855837 10.8068309527 14.2417231156 10.813458654 13.8343342601 C 10.8200863553 13.4269454047 10.8267140566 13.029798943 10.8333417579 12.6476168158 C 10.8399694592 12.2654346886 10.8465971605 11.8983137117 10.8532248618 11.5505458894 C 10.8598525631 11.2027780671 10.8664802643 10.8744856717 10.8731079656 10.5694286396 C 10.8797356669 10.2643716074 10.8863633682 9.98269448351 10.8929910695 9.72753676875 C 10.8996187708 9.47237905398 10.9062464721 9.24390385862 10.9128741734 9.04455770902 C 10.9195018747 8.84521155942 10.926129576 8.67517199495 10.9327572773 8.53613751872 C 10.9393849786 8.39710304249 10.9460126799 8.28926116239 10.9526403812 8.21352602352 C 10.9592680825 8.13779088466 10.9658957837 8.09435528998 10.972523485 8.0833321628 C 10.9791511863 8.07230903562 10.9857788876 8.09389170365 10.9924065889 8.14739475148 C 10.9990342902 8.20089779932 11.0056619915 8.28651032976 11.0122896928 8.40277100983 C 11.0189173941 8.51903168989 11.0255450954 8.66612078466 11.0321727967 8.84184231756 C 11.038800498 9.01756385046 11.0454281993 9.22208488501 11.0520559006 9.4525337865 C 11.0586836019 9.68298268799 11.0653113031 9.93950930867 11.0719390044 10.2186414861 C 11.0785667057 10.4977736635 11.085194407 10.7996404789 11.0918221083 11.1202585667 C 11.0984498096 11.4408766545 11.1050775109 11.7803512992 11.1117052122 12.1342891669 C 11.1183329135 12.4882270345 11.1249606148 12.8567071915 11.1315883161 13.2350369201 C 11.1382160174 13.6133666487 11.1448437187 14.0015970359 11.15147142 14.3948531431 C 11.1580991212 14.7881092503 11.1647268225 15.1864131222 11.1713545238 15.5848284278 C 11.1779822251 15.9832437335 11.1846099264 15.5048379783 11.1912376277 15.1110906999 C 11.197865329 14.7173434216 11.2044930303 14.3284046102 11.2111207316 13.9489711473 C 11.2177484329 13.5695376843 11.2243761342 13.1996738339 11.2310038355 12.8437831347 C 11.2376315368 12.4878924354 11.2442592381 12.1460653022 11.2508869394 11.8223058775 C 11.2575146406 11.4985464528 11.2641423419 11.1929689059 11.2707700432 10.9090824317 C 11.2773977445 10.6251959575 11.2840254458 10.363135517 11.2906531471 10.1258325773 C 11.2972808484 9.88852963763 11.3039085497 9.67613649839 11.310536251 9.49093883327 C 11.3171639523 9.30574116815 11.3237916536 9.1479047595 11.3304193549 9.01901770508 C 11.3370470562 8.89013065066 11.3436747575 8.79036805467 11.3503024588 8.72058610035 C 11.35693016 8.65080414604 11.3635578613 8.61118289727 11.3701855626 8.60183045421 C 11.3768132639 8.59247801116 11.3834409652 8.61357494225 11.3900686665 8.66448354255 C 11.3966963678 8.71539214286 11.4033240691 8.79628904717 11.4099517704 8.90581129348 C 11.4165794717 9.01533353979 11.423207173 9.15364951658 11.4298348743 9.31870920015 C 11.4364625756 9.48376888371 11.4430902769 9.6757283341 11.4497179782 9.8919052581 C 11.4563456794 10.1080821821 11.4629733807 10.3486165583 11.469601082 10.610263763 C 11.4762287833 10.8719109677 11.4828564846 11.154791564 11.4894841859 11.4551818723 C 11.4961118872 11.7555721806 11.5027395885 12.0735705125 11.5093672898 12.4050686161 C 11.5159949911 12.7365667198 11.5226226924 13.0816383838 11.5292503937 13.4358940903 C 11.535878095 13.7901497968 11.5425057963 14.1536371561 11.5491334976 14.5217949248 C 11.5557611988 14.8899526936 11.5623889001 15.262801302 11.5690166014 15.6357208327 C 11.5756443027 16.0086403634 11.582272004 15.5049773721 11.5888997053 15.1364949757 C 11.5955274066 14.7680125792 11.6021551079 14.4040653991 11.6087828092 14.0490514663 C 11.6154105105 13.6940375335 11.6220382118 13.3480172328 11.6286659131 13.0151149074 C 11.6352936144 12.682212582 11.6419213157 12.3625131144 11.648549017 12.0597676508 C 11.6551767182 11.7570221871 11.6618044195 11.471337868 11.6684321208 11.206002913 C 11.6750598221 10.9406679581 11.6816875234 10.6958089939 11.6883152247 10.4741735025 C 11.694942926 10.2525380111 11.7015706273 10.054268872 11.7081983286 9.88150876833 C 11.7148260299 9.7087486647 11.7214537312 9.56165311725 11.7280814325 9.44171118444 C 11.7347091338 9.32176925164 11.7413368351 9.22914519558 11.7479645364 9.16464196125 C 11.7545922376 9.10013872692 11.7612199389 9.0639252277 11.7678476402 9.05610283877 C 11.7744753415 9.04828044983 11.7811030428 9.06901855677 11.7877307441 9.11771881488 C 11.7943584454 9.16641907299 11.8009861467 9.2432471752 11.807613848 9.34692406126 C 11.8142415493 9.45060094732 11.8208692506 9.58128456889 11.8274969519 9.73705073791 C 11.8341246532 9.89281690692 11.8407523545 10.073812 11.8473800558 10.2775178986 C 11.854007757 10.4812237972 11.8606354583 10.7077717767 11.8672631596 10.9541152447 C 11.8738908609 11.2004587127 11.8805185622 11.4667107096 11.8871462635 11.7493741934 C 11.8937739648 12.0320376772 11.9004016661 12.3312047863 11.9070293674 12.6430166324 C 11.9136570687 12.9548284784 11.92028477 13.2793541601 11.9269124713 13.6124698884 C 11.9335401726 13.9455856168 11.9401678739 14.2873358917 11.9467955752 14.6334348847 C 11.9534232764 14.9795338777 11.9600509777 15.3300005441 11.966678679 15.6804932346 C 11.9733063803 16.030985925 11.9799340816 15.5051033721 11.9865617829 15.1588629559 C 11.9931894842 14.8126225396 11.9998171855 14.4706859543 12.0064448868 14.1371875308 C 12.0130725881 13.8036891074 12.0197002894 13.4786858636 12.0263279907 13.1660553437 C 12.032955692 12.8534248239 12.0395833933 12.5532470816 12.0462110945 12.2690491754 C 12.0528387958 11.9848512691 12.0594664971 11.7167341846 12.0660941984 11.4677899514 C 12.0727218997 11.2188457183 12.079349601 10.9891936486 12.0859773023 10.7814173764 C 12.0926050036 10.5736411042 12.0992327049 10.3878752274 12.1058604062 10.2261345267 C 12.1124881075 10.064393826 12.1191158088 9.92682478743 12.1257435101 9.81482719701 C 12.1323712114 9.70282960659 12.1389989127 9.61655816834 12.1456266139 9.55676689688 C 12.1522543152 9.49697562541 12.1588820165 9.46382359228 12.1655097178 9.4574042935 C 12.1721374191 9.45098499472 12.1787651204 9.47145793409 12.1853928217 9.51825764007 C 12.192020523 9.56505734605 12.1986482243 9.63833983162 12.2052759256 9.73689837439 C 12.2119036269 9.83545691716 12.2185313282 9.95944022471 12.2251590295 10.1070336782 C 12.2317867308 10.2546271316 12.2384144321 10.4259685201 12.2450421333 10.6186834118 C 12.2516698346 10.8113983036 12.2582975359 11.0256102451 12.2649252372 11.2584465409 C 12.2715529385 11.4912828367 12.2781806398 11.7428498354 12.2848083411 12.0098500046 C 12.2914360424 12.2768501738 12.2980637437 12.5593701485 12.304691445 12.8537709957 C 12.3113191463 13.1481718428 12.3179468476 13.4545184666 12.3245745489 13.768921874 C 12.3312022502 14.0833252815 12.3378299515 14.4058271741 12.3444576527 14.7323854595 C 12.351085354 15.0589437448 12.3577130553 15.3895760283 12.3643407566 15.7201872865 C 12.3709684579 16.0507985447 12.3775961592 15.5052191195 12.3842238605 15.1787105389 C 12.3908515618 14.8522019584 12.3974792631 14.5297991181 12.4041069644 14.2154019459 C 12.4107346657 13.9010047737 12.417362367 13.5946673381 12.4239900683 13.3000474571 C 12.4306177696 13.005427576 12.4372454709 12.7226010521 12.4438731721 12.4548950864 C 12.4505008734 12.1871891207 12.4571285747 11.9346992646 12.463756276 11.7003422075 C 12.4703839773 11.4659851505 12.4770116786 11.2498737334 12.4836393799 11.0544447648 C 12.4902670812 10.8590157961 12.4968947825 10.684396536 12.5035224838 10.5324867114 C 12.5101501851 10.3805768868 12.5167778864 10.2515149682 12.5234055877 10.1466199058 C 12.530033289 10.0417248433 12.5366609903 9.96114285138 12.5432886915 9.90558291091 C 12.5499163928 9.85002297044 12.5565440941 9.81963540197 12.5631717954 9.81450516397 C 12.5697994967 9.80937492597 12.576427198 9.82965272664 12.5830548993 9.87480084963 C 12.5896826006 9.91994897262 12.5963103019 9.9901148062 12.6029380032 10.0841545902 C 12.6095657045 10.1781943742 12.6161934058 10.2962485713 12.6228211071 10.4365988002 C 12.6294488084 10.5769490292 12.6360765097 10.7397254111 12.6427042109 10.9226803065 C 12.6493319122 11.1056352019 12.6559596135 11.3088852471 12.6625873148 11.5297116578 C 12.6692150161 11.7505380685 12.6758427174 11.9890412015 12.6824704187 12.2421004964 C 12.68909812 12.4951597912 12.6957258213 12.7628569458 12.7023535226 13.0417484838 C 12.7089812239 13.3206400218 12.7156089252 13.6107870741 12.7222366265 13.9085096141 C 12.7288643278 14.206232154 12.7354920291 14.511569353 12.7421197303 14.8206963443 C 12.7487474316 15.1298233356 12.7553751329 15.4427564858 12.7620028342 15.755620863 C 12.7686305355 16.0684852402 12.7752582368 15.505326984 12.7818859381 15.1964430894 C 12.7885136394 14.8875591948 12.7951413407 14.5826098065 12.801769042 14.2852851208 C 12.8083967433 13.987960435 12.8150244446 13.6983119164 12.8216521459 13.4198005083 C 12.8282798472 13.1412891001 12.8349075485 12.8739868341 12.8415352497 12.6210415601 C 12.848162951 12.3680962861 12.8547906523 12.1295987226 12.8614183536 11.90830792 C 12.8680460549 11.6870171175 12.8746737562 11.4830401516 12.8813014575 11.298681518 C 12.8879291588 11.1143228844 12.8945568601 10.9497032966 12.9011845614 10.8066184523 C 12.9078122627 10.663533608 12.914439964 10.542114818 12.9210676653 10.4436075228 C 12.9276953666 10.3451002276 12.9343230678 10.2696430504 12.9409507691 10.2179034493 C 12.9475784704 10.1661638481 12.9542061717 10.1382843113 12.960833873 10.1343409326 C 12.9674615743 10.130397554 12.9740892756 10.1505331624 12.9807169769 10.1942337032 C 12.9873446782 10.2379342439 12.9939723795 10.3053393719 13.0006000808 10.3953605908 C 13.0072277821 10.4853818096 13.0138554834 10.5981521822 13.0204831847 10.7320385079 C 13.027110886 10.8659248336 13.0337385872 11.0210503449 13.0403662885 11.1952801025 C 13.0469939898 11.3695098602 13.0536216911 11.5629542859 13.0602493924 11.7730317725 C 13.0668770937 11.9831092591 13.073504795 12.2099147676 13.0801324963 12.4504857831 C 13.0867601976 12.6910567986 13.0933878989 12.9454705655 13.1000156002 13.2104584423 C 13.1066433015 13.4754463191 13.1132710028 13.7510660243 13.1198987041 14.0338247092 C 13.1265264054 14.316583394 13.1331541066 14.6065179313 13.1397818079 14.8999982741 C 13.1464095092 15.1934786168 13.1530372105 15.4905199917 13.1596649118 15.7874450901 C 13.1662926131 16.0843701884 13.1729203144 15.5054287838 13.1795480157 15.212383536 C 13.186175717 14.9193382882 13.1928034183 14.6300782498 13.1994311196 14.3481048556 C 13.2060588209 14.0661314615 13.2126865222 13.7914938604 13.2193142235 13.527475584 C 13.2259419248 13.2634573077 13.232569626 13.0101270201 13.2391973273 12.770470726 C 13.2458250286 12.530814432 13.2524527299 12.3049185236 13.2590804312 12.0953995666 C 13.2657081325 11.8858806097 13.2723358338 11.6928405104 13.2789635351 11.5184639223 C 13.2855912364 11.3440873343 13.2922189377 11.1884890935 13.298846639 11.0533703944 C 13.3054743403 10.9182516953 13.3121020416 10.8037374142 13.3187297429 10.7110058772 C 13.3253574442 10.6182743403 13.3319851454 10.5474573423 13.3386128467 10.4991839768 C 13.345240548 10.4509106114 13.3518682493 10.4253163153 13.3584959506 10.4224682133 C 13.3651236519 10.4196201114 13.3717513532 10.4396539327 13.3783790545 10.4820759701 C 13.3850067558 10.5244980075 13.3916344571 10.5894409422 13.3982621584 10.6758651485 C 13.4048898597 10.7622893548 13.411517561 10.8703212171 13.4181452623 10.9984034471 C 13.4247729636 11.1264856771 13.4314006648 11.2747352845 13.4380283661 11.4411181571 C 13.4446560674 11.6075010298 13.4512837687 11.79212197 13.45791147 11.9925223985 C 13.4645391713 12.1929228271 13.4711668726 12.4091928205 13.4777945739 12.6385118645 C 13.4844222752 12.8678309085 13.4910499765 13.1102722099 13.4976776778 13.3627244408 C 13.5043053791 13.6151766718 13.5109330804 13.8776944506 13.5175607817 14.1469535585 C 13.524188483 14.4162126663 13.5308161842 14.6922478795 13.5374438855 14.9716048641 C 13.5440715868 15.2509618486 13.5506992881 15.5336547797 13.5573269894 15.8161847801 C 13.5639546907 16.0987147805 13.570582392 15.5055259348 13.5772100933 15.226792313 C 13.5838377946 14.9480586911 13.5904654959 14.6729791028 13.5970931972 14.4048841936 C 13.6037208985 14.1367892845 13.6103485998 13.8757261308 13.6169763011 13.6248175638 C 13.6236040024 13.3739089968 13.6302317036 13.1332206548 13.6368594049 12.90559176 C 13.6434871062 12.6779628651 13.6501148075 12.463475914 13.6567425088 12.264618059 C 13.6633702101 12.065760204 13.6699979114 11.8826286899 13.6766256127 11.7172991198 C 13.683253314 11.5519695498 13.6898810153 11.4045514539 13.6965087166 11.2766598069 C 13.7031364179 11.1487681598 13.7097641192 11.0405220236 13.7163918205 10.9530382209 C 13.7230195218 10.8655544182 13.729647223 10.7989585684 13.7362749243 10.7538442421 C 13.7429026256 10.7087299157 13.7495303269 10.6852261678 13.7561580282 10.6833911977 C 13.7627857295 10.6815562277 13.7694134308 10.7015193345 13.7760411321 10.7428044453 C 13.7826688334 10.7840895561 13.7892965347 10.8468230314 13.795924236 10.9300087531 C 13.8025519373 11.0131944747 13.8091796386 11.1169527695 13.8158073399 11.2397944182 C 13.8224350411 11.3626360669 13.8290627424 11.5046724302 13.8356904437 11.6639601274 C 13.842318145 11.8232478247 13.8489458463 11.9998865524 13.8555735476 12.1915286906 C 13.8622012489 12.3831708288 13.8688289502 12.5899020111 13.8754566515 12.8090300049 C 13.8820843528 13.0281579987 13.8887120541 13.2597523331 13.8953397554 13.5008439835 C 13.9019674567 13.741935634 13.908595158 13.9925763891 13.9152228593 14.2495947426 C 13.9218505605 14.5066130961 13.9284782618 14.7700419041 13.9351059631 15.0365861219 C 13.9417336644 15.3031303396 13.9483613657 15.5728031699 13.954989067 15.8422676451 C 13.9616167683 16.1117321203 13.9682444696 15.5056195544 13.9748721709 15.2398817803 C 13.9814998722 14.9741440061 13.9881275735 14.7119442095 13.9947552748 14.4564577664 C 14.0013829761 14.2009713234 14.0080106774 13.9522434444 14.0146383787 13.7132507145 C 14.0212660799 13.4742579845 14.0278937812 13.2450633088 14.0345214825 13.0283721786 C 14.0411491838 12.8116810484 14.0477768851 12.6075724347 14.0544045864 12.4184154283 C 14.0610322877 12.2292584218 14.067659989 12.0551460428 14.0742876903 11.8980542434 C 14.0809153916 11.740962444 14.0875430929 11.6009959407 14.0941707942 11.4796907338 C 14.1007984955 11.358385527 14.1074261968 11.2558553992 14.1140538981 11.1731606157 C 14.1206815993 11.0904658322 14.1273093006 11.0277264007 14.1339370019 10.9855029271 C 14.1405647032 10.9432794536 14.1471924045 10.9216951895 14.1538201058 10.9207995517 C 14.1604478071 10.9199039138 14.1670755084 10.9398203496 14.1737032097 10.980088178 C 14.180330911 11.0203560063 14.1869586123 11.0810958318 14.1935863136 11.1613505043 C 14.2002140149 11.2416051767 14.2068417162 11.3414895028 14.2134694175 11.4595756388 C 14.2200971187 11.5776617749 14.22672482 11.7140559301 14.2333525213 11.8668968012 C 14.2399802226 12.0197376724 14.2466079239 12.189120296 14.2532356252 12.3727976354 C 14.2598633265 12.5564749748 14.2664910278 12.7545286046 14.2731187291 12.9643827531 C 14.2797464304 13.1742369017 14.2863741317 13.3959577341 14.293001833 13.6267055717 C 14.2996295343 13.8574534093 14.3062572356 14.0972774479 14.3128849369 14.3431451316 C 14.3195126381 14.5890128153 14.3261403394 14.8409552351 14.3327680407 15.0958224157 C 14.339395742 15.3506895964 14.3460234433 15.6084938388 14.3526511446 15.8660457606 C 14.3592788459 16.1235976823 14.3659065472 15.5057105357 14.3725342485 15.2518268269 C 14.3791619498 14.997943118 14.3857896511 14.7474940625 14.3924173524 14.503513259 C 14.3990450537 14.2595324554 14.405672755 14.0220634259 14.4123004563 13.7939490949 C 14.4189281575 13.5658347638 14.4255558588 13.3471355548 14.4321835601 13.1404346125 C 14.4388112614 12.9337336702 14.4454389627 12.7391067588 14.452066664 12.5588148287 C 14.4586943653 12.3785228985 14.4653220666 12.2126551228 14.4719497679 12.063096039 C 14.4785774692 11.9135369552 14.4852051705 11.7803868923 14.4918328718 11.66510925 C 14.4984605731 11.5498316076 14.5050882744 11.4525353528 14.5117159757 11.3742285736 C 14.5183436769 11.2959217945 14.5249713782 11.2367193766 14.5315990795 11.1971512691 C 14.5382267808 11.1575831617 14.5448544821 11.1377673155 14.5514821834 11.1377445715 C 14.5581098847 11.1377218276 14.564737586 11.1576102854 14.5713652873 11.1969627849 C 14.5779929886 11.2363152843 14.5846206899 11.2952471665 14.5912483912 11.3728363745 C 14.5978760925 11.4504255825 14.6045037938 11.5467818718 14.6111314951 11.6605330171 C 14.6177591963 11.7742841625 14.6243868976 11.9055316562 14.6310145989 12.0524887986 C 14.6376423002 12.199445941 14.6442700015 12.3622034986 14.6508977028 12.5386060326 C 14.6575254041 12.7150085667 14.6641531054 12.9051339295 14.6707808067 13.1065125528 C 14.677408508 13.3078911762 14.6840362093 13.5205861368 14.6906639106 13.7418758396 C 14.6972916119 13.9631655425 14.7039193132 14.1930967993 14.7105470144 14.4287640258 C 14.7171747157 14.6644312523 14.723802417 14.9058639116 14.7304301183 15.1500447049 C 14.7370578196 15.3942254981 14.7436855209 15.6411658881 14.7503132222 15.8878115771 C 14.7569409235 16.134457266 14.7635686248 15.5057995996 14.7701963261 15.2627727863 C 14.7768240274 15.0197459729 14.7834517287 14.7800612977 14.79007943 14.5466223856 C 14.7967071313 14.3131834735 14.8033348326 14.0860323114 14.8099625338 13.8678891881 C 14.8165902351 13.6497460648 14.8232179364 13.440669141 14.8298456377 13.2431292021 C 14.836473339 13.0455892632 14.8431010403 12.8596591445 14.8497287416 12.6875003757 C 14.8563564429 12.5153416069 14.8629841442 12.3570398434 14.8696118455 12.2143954641 C 14.8762395468 12.0717510849 14.8828672481 11.9448604033 14.8894949494 11.8351198528 C 14.8961226507 11.7253793023 14.902750352 11.6328934391 14.9093780532 11.5586220707 C 14.9160057545 11.4843507023 14.9226334558 11.4284040198 14.9292611571 11.3912834013 C 14.9358888584 11.3541627828 14.9425165597 11.3359813183 14.949144261 11.3367715201 C 14.9557719623 11.3375617218 14.9623996636 11.357436783 14.9690273649 11.3959614909 C 14.9756550662 11.4344861988 14.9822827675 11.4917710626 14.9889104688 11.5669257869 C 14.9955381701 11.6420805112 15.0021658714 11.7352102119 15.0087935726 11.8449932956 C 15.0154212739 11.9547763792 15.0220489752 12.0813100032 15.0286766765 12.222875573 C 15.0353043778 12.3644411429 15.0419320791 12.5211254981 15.0485597804 12.6908569663 C 15.0551874817 12.8605884344 15.061815183 13.0434414416 15.0684428843 13.237043666 C 15.0750705856 13.4306458903 15.0816982869 13.6350575631 15.0883259882 13.8476653236 C 15.0949536895 14.0602730842 15.1015813908 14.281121544 15.108209092 14.5074216008 C 15.1148367933 14.7337216577 15.1214644946 14.9655012687 15.1280921959 15.1998649449 C 15.1347198972 15.4342286211 15.1413475985 15.6711870445 15.1479752998 15.9078100296 C 15.1546030011 16.1444330147 15.1612307024 15.5058873344 15.1678584037 15.2728414267 C 15.174486105 15.0397955191 15.1811138063 14.8100084807 15.1877415076 14.5862643475 C 15.1943692089 14.3625202144 15.2009969102 14.1448595719 15.2076246114 13.9358897848 C 15.2142523127 13.7269199977 15.220880014 13.5266971549 15.2275077153 13.3375884928 C 15.2341354166 13.1484798306 15.2407631179 12.9705554984 15.2473908192 12.8058853102 C 15.2540185205 12.6412151221 15.2606462218 12.489881504 15.2672739231 12.3536071017 C 15.2739016244 12.2173326994 15.2805293257 12.0962101371 15.287157027 11.9915738865 C 15.2937847283 11.8869376358 15.3004124296 11.7988881983 15.3070401308 11.7283405803 C 15.3136678321 11.6577929622 15.3202955334 11.6048530366 15.3269232347 11.5699954986 C 15.333550936 11.5351379606 15.3401786373 11.5184714268 15.3468063386 11.5200203519 C 15.3534340399 11.521569277 15.3600617412 11.541442336 15.3666894425 11.579214931 C 15.3733171438 11.6169875261 15.3799448451 11.6727657147 15.3865725464 11.7456880785 C 15.3932002477 11.8186104423 15.399827949 11.9087778205 15.4064556502 12.0149149051 C 15.4130833515 12.1210519898 15.4197110528 12.2432519399 15.4263387541 12.3798585823 C 15.4329664554 12.5164652247 15.4395941567 12.6675617747 15.446221858 12.8311534592 C 15.4528495593 12.9947451438 15.4594772606 13.1709032247 15.4661049619 13.3573447595 C 15.4727326632 13.5437862942 15.4793603645 13.7405688836 15.4859880658 13.945178738 C 15.4926157671 14.1497885924 15.4992434683 14.3622682869 15.5058711696 14.5799359634 C 15.5124988709 14.7976036398 15.5191265722 15.0204858579 15.5257542735 15.2457993586 C 15.5323819748 15.4711128594 15.5390096761 15.6988675959 15.5456373774 15.926247811 C 15.5522650787 16.153628026 15.55889278 15.5059742243 15.5655204813 15.2821355416 C 15.5721481826 15.0582968589 15.5787758839 14.8376417406 15.5854035852 14.6228438181 C 15.5920312865 14.4080458956 15.5986589877 14.1991444696 15.605286689 13.9986425799 C 15.6119143903 13.7981406902 15.6185420916 13.6060925216 15.6251697929 13.4247695722 C 15.6317974942 13.2434466229 15.6384251955 13.0729165699 15.6450528968 12.9151643528 C 15.6516805981 12.7574121357 15.6583082994 12.6125172056 15.6649360007 12.4821301907 C 15.671563702 12.3517431758 15.6781914033 12.2359532995 15.6848191046 12.1360375361 C 15.6914468059 12.0361217726 15.6980745071 11.9521768834 15.7047022084 11.8850761925 C 15.7113299097 11.8179755017 15.717957611 11.7678208969 15.7245853123 11.7350621045 C 15.7312130136 11.702303312 15.7378407149 11.6870448175 15.7444684162 11.6893033014 C 15.7510961175 11.6915617853 15.7577238188 11.7114417485 15.7643515201 11.7485280708 C 15.7709792214 11.7856143931 15.7776069227 11.8400090175 15.784234624 11.9108768895 C 15.7908623253 11.9817447615 15.7974900265 12.0691827657 15.8041177278 12.1719580684 C 15.8107454291 12.2747333711 15.8173731304 12.3929354322 15.8240008317 12.5249654989 C 15.830628533 12.6569955656 15.8372562343 12.8029334983 15.8438839356 12.9608553692 C 15.8505116369 13.1187772401 15.8571393382 13.2887513798 15.8637670395 13.4685772778 C 15.8703947408 13.6484031758 15.8770224421 13.8381359941 15.8836501434 14.0353538541 C 15.8902778447 14.2325717141 15.8969055459 14.4373153007 15.9035332472 14.6470018219 C 15.9101609485 14.8566883431 15.9167886498 15.0713430591 15.9234163511 15.2882864517 C 15.9300440524 15.5052298443 15.9366717537 15.7244711849 15.943299455 15.943300555"
       style="fill:#ff0000;fill-opacity:1;stroke:#ff0000;stroke-width:0.1133989;stroke-miterlimit:4;stroke-dasharray:none;stroke-opacity:1" />
  </g>
</svg>
