<?xml version="1.0" encoding="iso-8859-1"?>
<!-- Generator: Adobe Illustrator 16.0.0, SVG Export Plug-In . SVG Version: 6.00 Build 0)  -->
<!DOCTYPE svg PUBLIC "-//W3C//DTD SVG 1.1//EN" "http://www.w3.org/Graphics/SVG/1.1/DTD/svg11.dtd">
<svg xmlns="http://www.w3.org/2000/svg" xmlns:xlink="http://www.w3.org/1999/xlink" version="1.1" id="Capa_1" x="0px" y="0px" width="512px" height="512px" viewBox="0 0 438.533 438.533" style="enable-background:new 0 0 438.533 438.533;" xml:space="preserve">
<g>
	<path d="M375.721,227.259c-5.331-5.331-11.8-7.992-19.417-7.992H146.176v-91.36c0-20.179,7.139-37.402,21.415-51.678   c14.277-14.273,31.501-21.411,51.678-21.411c20.175,0,37.402,7.137,51.673,21.411c14.277,14.276,21.416,31.5,21.416,51.678   c0,4.947,1.807,9.229,5.42,12.845c3.621,3.617,7.905,5.426,12.847,5.426h18.281c4.945,0,9.227-1.809,12.848-5.426   c3.606-3.616,5.42-7.898,5.42-12.845c0-35.216-12.515-65.331-37.541-90.362C284.603,12.513,254.48,0,219.269,0   c-35.214,0-65.334,12.513-90.366,37.544c-25.028,25.028-37.542,55.146-37.542,90.362v91.36h-9.135   c-7.611,0-14.084,2.667-19.414,7.992c-5.33,5.325-7.994,11.8-7.994,19.414v164.452c0,7.617,2.665,14.089,7.994,19.417   c5.33,5.325,11.803,7.991,19.414,7.991h274.078c7.617,0,14.092-2.666,19.417-7.991c5.325-5.328,7.994-11.8,7.994-19.417V246.673   C383.719,239.059,381.053,232.591,375.721,227.259z" fill="#006DF0"/>
</g>
<g>
</g>
<g>
</g>
<g>
</g>
<g>
</g>
<g>
</g>
<g>
</g>
<g>
</g>
<g>
</g>
<g>
</g>
<g>
</g>
<g>
</g>
<g>
</g>
<g>
</g>
<g>
</g>
<g>
</g>
</svg>
